<svg width="136" height="140" viewBox="0 0 136 140" fill="none" xmlns="http://www.w3.org/2000/svg">
<path fill-rule="evenodd" clip-rule="evenodd" d="M26.3294 18.1849C12.4344 29.255 2.07096 45.8731 2.07096 68.1464C2.07096 104.195 32.0236 138.4 71.7069 138.4C87.5299 138.4 100.946 131.555 111.274 122.834C121.608 114.107 128.797 103.545 132.148 96.2346C132.332 95.833 132.807 95.6567 133.208 95.8408C133.61 96.0248 133.786 96.4996 133.602 96.9012C130.156 104.42 122.825 115.173 112.307 124.056C101.782 132.943 88.0126 140 71.7069 140C31.0687 140 0.471191 105.005 0.471191 68.1464C0.471191 45.3161 11.1149 28.2609 25.3325 16.9337C39.5289 5.62338 57.3132 0 71.7069 0C86.1348 0 101.128 6.26473 112.965 15.143C124.785 24.0077 133.613 35.5965 135.516 46.3824C135.593 46.8174 135.303 47.2323 134.867 47.3091C134.432 47.3859 134.018 47.0954 133.941 46.6604C132.137 36.4391 123.665 25.1671 112.006 16.4229C100.365 7.6922 85.7005 1.59977 71.7069 1.59977C57.6792 1.59977 40.2455 7.09784 26.3294 18.1849Z" fill="url(#paint0_linear_616_17245)"/>
<path fill-rule="evenodd" clip-rule="evenodd" d="M75.7712 50.5179C76.7192 50.4015 77.6236 50.6795 78.3143 51.2192C79.0051 51.7589 79.4936 52.5691 79.61 53.5171C79.7264 54.4651 79.4484 55.3694 78.9087 56.0602C78.369 56.7509 77.5588 57.2395 76.6108 57.3559C75.6628 57.4723 74.7584 57.1943 74.0677 56.6546C73.3769 56.1149 72.8884 55.3047 72.772 54.3567C72.6556 53.4087 72.9336 52.5043 73.4733 51.8136C74.013 51.1228 74.8232 50.6343 75.7712 50.5179ZM76.9973 52.9165C76.7369 52.713 76.3956 52.6014 76.0325 52.646C75.6694 52.6905 75.364 52.8714 75.1618 53.1419C74.9595 53.4124 74.8466 53.7436 74.8912 54.1067C74.9358 54.4698 75.1166 54.7752 75.3871 54.9774C75.6476 55.1809 75.9889 55.2926 76.352 55.248C76.7151 55.2034 77.0204 55.0226 77.2227 54.7521C77.4262 54.4916 77.5378 54.1503 77.4933 53.7872C77.4487 53.4242 77.2678 53.1188 76.9973 52.9165ZM66.9061 51.6064C67.8541 51.49 68.7584 51.768 69.4492 52.3077C70.1399 52.8474 70.6284 53.6576 70.7449 54.6056C70.8613 55.5536 70.5833 56.4579 70.0436 57.1487C69.5039 57.8394 68.6937 58.328 67.7457 58.4444C66.7977 58.5608 65.8933 58.2828 65.2026 57.7431C64.5118 57.2034 64.0233 56.3932 63.9069 55.4452C63.7905 54.4972 64.0685 53.5928 64.6082 52.9021C65.1479 52.2113 65.9581 51.7228 66.9061 51.6064ZM68.1322 54.005C67.8718 53.8015 67.5305 53.6899 67.1674 53.7345C66.8043 53.779 66.4989 53.9599 66.2967 54.2304C66.0932 54.4908 65.9815 54.8321 66.0261 55.1952C66.0707 55.5583 66.2515 55.8637 66.522 56.0659C66.7926 56.2682 67.1238 56.3811 67.4869 56.3365C67.8499 56.2919 68.1553 56.1111 68.3576 55.8406C68.5598 55.57 68.6727 55.2388 68.6282 54.8757C68.5836 54.5127 68.4027 54.2073 68.1322 54.005ZM58.041 52.6949C57.093 52.8113 56.2828 53.2998 55.7431 53.9906C55.2034 54.6813 54.9254 55.5857 55.0418 56.5337C55.1582 57.4817 55.6467 58.2919 56.3375 58.8316C57.0282 59.3713 57.9326 59.6493 58.8806 59.5329C59.8286 59.4164 60.6388 58.9279 61.1785 58.2372C61.7182 57.5464 61.9962 56.6421 61.8798 55.6941C61.7634 54.7461 61.2748 53.9359 60.5841 53.3962C59.8934 52.8565 58.989 52.5785 58.041 52.6949ZM59.2671 55.0935C59.0067 54.89 58.6654 54.7784 58.3023 54.823C57.9392 54.8675 57.6338 55.0484 57.4316 55.3189C57.2281 55.5793 57.1164 55.9206 57.161 56.2837C57.2056 56.6468 57.3864 56.9522 57.6569 57.1544C57.9174 57.3579 58.2587 57.4696 58.6218 57.425C58.9849 57.3804 59.2903 57.1996 59.4925 56.9291C59.696 56.6686 59.8076 56.3273 59.7631 55.9642C59.7185 55.6012 59.5377 55.2958 59.2671 55.0935ZM63.8856 67.528C63.859 69.3126 63.4441 70.6023 62.8609 71.6055C63.6481 71.2632 64.4493 70.8679 65.214 70.4259C67.0299 69.3737 68.6801 68.0552 69.8189 66.5743C69.9869 66.3591 70.2065 66.2298 70.4562 66.1787C74.3801 65.3693 77.7052 63.5175 79.9488 61.1127C82.1027 58.8109 83.2306 55.9902 82.8776 53.1159C82.4975 50.0196 80.4551 47.3937 77.4593 45.6731C74.364 43.893 70.2798 43.0636 65.9229 43.5986C61.5659 44.1336 57.7949 45.9377 55.231 48.4024C52.7404 50.7966 51.394 53.8387 51.7742 56.9349C52.0627 59.2848 53.2996 61.3545 55.1866 62.9655C57.1881 64.6751 59.8952 65.8784 62.9857 66.3691C63.5489 66.4535 63.9398 66.9686 63.8856 67.528ZM59.1117 72.588C60.1408 71.7143 61.4187 70.6155 61.6896 68.3198C59.0315 67.7657 56.6316 66.7295 54.6748 65.3011L43.3388 66.693L69.7572 87.3333L90.3975 60.9149L82.0568 61.939C81.8786 62.1554 81.6904 62.373 81.4908 62.5818C79.0299 65.2181 75.441 67.2558 71.2471 68.2007C69.9467 69.7834 68.1729 71.1785 66.2711 72.2822C64.064 73.5667 61.6371 74.479 59.5252 74.8714C59.1658 74.9462 58.7741 74.8407 58.5025 74.5465C58.1102 74.1032 58.1407 73.4341 58.5827 73.0317C58.7393 72.8896 58.9148 72.735 59.1004 72.5791L59.1117 72.588ZM52.5578 63.4009L41.9883 64.6987C41.2924 64.7841 40.6917 65.1445 40.2948 65.6642C39.8967 66.1738 39.6822 66.8451 39.7677 67.541L43.7576 100.036C43.843 100.732 44.2035 101.333 44.7231 101.73C45.2327 102.128 45.904 102.342 46.5999 102.257L95.8672 96.2076C96.5631 96.1221 97.1638 95.7617 97.5607 95.2421C97.9576 94.7224 98.1733 94.0612 98.0878 93.3653L94.0979 60.87C94.0125 60.1741 93.6521 59.5734 93.1324 59.1765C92.6128 58.7797 91.9516 58.564 91.2557 58.6494L83.6815 59.5794C84.7977 57.4972 85.2942 55.2045 85.0069 52.8647C84.5401 49.0625 82.0931 45.8924 78.5232 43.8328C75.0428 41.8338 70.4836 40.8887 65.6628 41.4807C60.842 42.0726 56.6469 44.0926 53.7534 46.8741C50.7879 49.7362 49.1805 53.4041 49.6474 57.2063C49.9347 59.5461 50.9711 61.6506 52.5679 63.3997L52.5578 63.4009ZM94.5066 94.2145L77.4983 80.9262L70.8011 89.4983C70.4383 89.9626 69.7626 90.0455 69.2983 89.6828L60.7262 82.9855L47.4379 99.9938L94.5066 94.2145ZM78.8165 79.2389L92.1049 62.2306L95.8236 92.5172L78.8153 79.2289L78.8165 79.2389ZM45.7506 98.6756L59.039 81.6673L42.0307 68.379L45.7494 98.6655L45.7506 98.6756Z" fill="#00506A"/>
<defs>
<linearGradient id="paint0_linear_616_17245" x1="28.42" y1="61.885" x2="122.876" y2="73.7626" gradientUnits="userSpaceOnUse">
<stop stop-color="#BCC602"/>
<stop offset="1" stop-color="#BCC602" stop-opacity="0"/>
</linearGradient>
</defs>
</svg>
