<svg width="24" height="24" viewBox="0 0 24 24" fill="none" xmlns="http://www.w3.org/2000/svg">
<path fill-rule="evenodd" clip-rule="evenodd" d="M24 12C24 18.6274 18.6274 24 12 24C5.37258 24 0 18.6274 0 12C0 5.37258 5.37258 0 12 0C18.6274 0 24 5.37258 24 12ZM15.0522 5.85068C14.2557 5.81335 14.0175 5.80624 11.9997 5.80624C9.98372 5.80624 9.74372 5.81512 8.94727 5.85068C8.21127 5.88446 7.81127 6.00712 7.5446 6.11024C7.19083 6.24712 6.94016 6.41068 6.67527 6.67557C6.41038 6.94046 6.24683 7.1929 6.10994 7.5449C6.00683 7.81157 5.88416 8.21157 5.85038 8.94757C5.81305 9.74401 5.80594 9.98401 5.80594 12C5.80594 14.016 5.81483 14.256 5.85038 15.0525C5.88416 15.7885 6.00683 16.1885 6.10994 16.4551C6.24683 16.8089 6.41038 17.0596 6.67527 17.3245C6.94016 17.5893 7.19261 17.7529 7.5446 17.8898C7.81127 17.9929 8.21127 18.1156 8.94727 18.1493C9.74372 18.1867 9.98194 18.1938 11.9997 18.1938C14.0175 18.1938 14.2557 18.1849 15.0522 18.1493C15.7882 18.1156 16.1882 17.9929 16.4548 17.8898C16.8086 17.7529 17.0593 17.5893 17.3242 17.3245C17.5891 17.0596 17.7526 16.8071 17.8895 16.4551C17.9926 16.1885 18.1153 15.7885 18.149 15.0525C18.1864 14.256 18.1935 14.016 18.1935 12C18.1935 9.98401 18.1846 9.74401 18.149 8.94757C18.1153 8.21157 17.9926 7.81157 17.8895 7.5449C17.7526 7.19112 17.5891 6.94046 17.3242 6.67557C17.0593 6.41068 16.8068 6.24712 16.4548 6.11024C16.1882 6.00712 15.7882 5.88446 15.0522 5.85068ZM8.88505 4.49068C9.69038 4.45335 9.94816 4.44446 11.9997 4.44446C14.0513 4.44446 14.309 4.45335 15.1144 4.49068C15.9197 4.52801 16.469 4.65601 16.949 4.84268C17.4468 5.03468 17.8682 5.29424 18.2877 5.71379C18.7073 6.13512 18.965 6.55646 19.1588 7.05246C19.3473 7.53424 19.4735 8.08357 19.5108 8.88713C19.5482 9.69246 19.5571 9.95024 19.5571 12.0018C19.5571 14.0533 19.5482 14.3111 19.5108 15.1165C19.4735 15.9218 19.3455 16.4711 19.1588 16.9511C18.9668 17.4489 18.7073 17.8702 18.2877 18.2898C17.8664 18.7093 17.445 18.9671 16.949 19.1609C16.4673 19.3493 15.9179 19.4756 15.1144 19.5129C14.309 19.5502 14.0513 19.5591 11.9997 19.5591C9.94816 19.5591 9.69038 19.5502 8.88505 19.5129C8.07972 19.4756 7.53038 19.3476 7.05038 19.1609C6.55261 18.9689 6.13127 18.7093 5.71172 18.2898C5.29216 17.8685 5.03438 17.4471 4.8406 16.9511C4.65216 16.4693 4.52594 15.92 4.48861 15.1165C4.45127 14.3111 4.44238 14.0533 4.44238 12.0018C4.44238 9.95024 4.45127 9.69246 4.48861 8.88713C4.52594 8.08179 4.65394 7.53246 4.8406 7.05246C5.03261 6.55468 5.29216 6.13335 5.71172 5.71379C6.13305 5.29424 6.55438 5.03646 7.05038 4.84268C7.53216 4.65424 8.08149 4.52801 8.88505 4.49068ZM12.0002 8.12085C9.85798 8.12085 8.12109 9.85774 8.12109 12C8.12109 14.1422 9.85798 15.8791 12.0002 15.8791C14.1424 15.8791 15.8793 14.1422 15.8793 12C15.8793 9.85774 14.1424 8.12085 12.0002 8.12085ZM12.0002 14.5191C10.61 14.5191 9.48109 13.392 9.48109 12C9.48109 10.608 10.6082 9.48085 12.0002 9.48085C13.3922 9.48085 14.5193 10.608 14.5193 12C14.5193 13.392 13.3922 14.5191 12.0002 14.5191ZM16.9403 7.96624C16.9403 8.46698 16.5344 8.8729 16.0336 8.8729C15.5329 8.8729 15.127 8.46698 15.127 7.96624C15.127 7.4655 15.5329 7.05957 16.0336 7.05957C16.5344 7.05957 16.9403 7.4655 16.9403 7.96624Z" fill="#BDC700"/>
</svg>
