<svg width="24" height="24" viewBox="0 0 24 24" fill="none" xmlns="http://www.w3.org/2000/svg">
<path fill-rule="evenodd" clip-rule="evenodd" d="M12 0C9.62662 0 7.30655 0.703788 5.33316 2.02237C3.35977 3.34094 1.8217 5.21509 0.91345 7.4078C0.00519939 9.60052 -0.23244 12.0133 0.230582 14.3411C0.693604 16.6689 1.83649 18.8071 3.51472 20.4853C5.19295 22.1635 7.33114 23.3064 9.65891 23.7694C11.9867 24.2325 14.3995 23.9948 16.5922 23.0866C18.7849 22.1783 20.659 20.6402 21.9776 18.6669C23.2962 16.6935 24 14.3734 24 12C24 8.81741 22.7357 5.76516 20.4853 3.51472C18.2348 1.26428 15.1826 0 12 0ZM8.53527 8.50678H5.87737V17.5705H8.53527V8.50678ZM8.74701 5.63283C8.74701 4.73267 8.05844 4.00049 7.20805 4.00049C6.35421 4.00049 5.66736 4.73084 5.66736 5.63283C5.66736 6.53482 6.35766 7.267 7.20805 7.267C8.05844 7.267 8.74701 6.53299 8.74701 5.63283ZM12.8561 17.5705H10.2033H10.2016V8.50678H12.7476V9.74473H12.7838C13.1384 9.03081 14.0043 8.28037 15.2971 8.28037C17.9843 8.28037 18.4817 10.1574 18.4817 12.5986V17.5705H15.829V13.1628V13.1589C15.829 12.1077 15.829 10.7581 14.4484 10.7581C13.0661 10.7581 12.8561 11.9029 12.8561 13.0861V17.5705Z" fill="#BDC700"/>
</svg>
