<svg width="24" height="24" viewBox="0 0 24 24" fill="none" xmlns="http://www.w3.org/2000/svg">
<path fill-rule="evenodd" clip-rule="evenodd" d="M24 12C24 18.6274 18.6274 24 12 24C11.9454 24 11.891 23.9996 11.8366 23.9989C12.3872 23.9914 12.9278 23.9457 13.4572 23.8641V16.0481H16.1117L16.6166 12.8152H13.4555V10.7175C13.4555 9.83264 13.8963 8.971 15.313 8.971H16.75V6.21872C16.75 6.21872 15.4464 6 14.1985 6C11.5947 6 9.89258 7.54764 9.89258 10.3513V12.8152H7V16.0481H9.89427V23.8159C4.27095 22.8205 0 17.909 0 12C0 5.37258 5.37258 0 12 0C18.6274 0 24 5.37258 24 12ZM9.89427 23.8159V23.8641C10.4751 23.9536 11.0695 24 11.6757 24C11.7294 24 11.7831 23.9996 11.8366 23.9989C11.1748 23.9901 10.526 23.9277 9.89427 23.8159Z" fill="#BDC700"/>
</svg>
