<svg width="166" height="69" viewBox="0 0 166 69" fill="none" xmlns="http://www.w3.org/2000/svg">
<g id="logo">
<g id="Group 6">
<path id="Vector" d="M87.4845 31.4395C87.412 31.1499 87.3034 30.8602 87.1947 30.6067C87.0861 30.3532 86.9774 30.136 86.8326 29.9187C86.5428 29.448 86.2169 29.0135 85.8185 28.6152C85.3477 28.1807 84.8406 27.8185 84.2249 27.4927C83.7541 27.2754 83.3195 27.0944 82.8487 26.9857C82.3416 26.8771 81.8346 26.8047 81.2914 26.8047H77.6697C77.2713 26.8047 76.9453 27.1306 76.9453 27.5289V38.7177C76.9453 39.116 77.2713 39.4419 77.6697 39.4419C78.068 39.4419 78.394 39.116 78.394 38.7177V28.2531H81.2551C81.6897 28.2531 82.0881 28.2893 82.4503 28.3979C82.8125 28.4703 83.1746 28.6152 83.5368 28.7962C84.0076 29.0497 84.406 29.3032 84.7682 29.629C85.0579 29.9187 85.3114 30.2446 85.5287 30.6067C85.6374 30.7878 85.7098 30.9688 85.7823 31.1499C85.8547 31.3671 85.9271 31.5482 85.9996 31.7654C86.1082 32.1637 86.1806 32.6345 86.1806 33.069C86.1806 33.5035 86.1082 33.938 85.9996 34.3725C85.9271 34.5898 85.8909 34.7708 85.7823 34.9881C85.7098 35.1691 85.6012 35.3864 85.4925 35.5674C85.2752 35.9295 85.0217 36.2554 84.732 36.5451C84.3698 36.9072 83.9714 37.1969 83.5006 37.4504C83.1384 37.6314 82.7762 37.7763 82.4141 37.8487C82.0519 37.9573 81.6535 37.9935 81.2189 37.9935H80.6757C80.2773 37.9935 79.9513 38.3194 79.9513 38.7177C79.9513 39.116 80.2773 39.4419 80.6757 39.4419H81.2551C81.7984 39.4419 82.3054 39.3695 82.7762 39.2608C83.2471 39.1522 83.7179 38.9712 84.1887 38.7177C84.8044 38.3918 85.3477 37.9935 85.7823 37.559C86.1806 37.1607 86.5066 36.7262 86.7601 36.2554C86.905 36.0382 87.0136 35.7847 87.1223 35.5312C87.2309 35.2778 87.3034 35.0243 87.3758 34.7708C87.5207 34.2277 87.5931 33.6483 87.5931 33.069C87.5931 32.4896 87.5207 31.9103 87.3758 31.3671L87.4845 31.4395Z" fill="#C5BDB4"/>
<path id="Vector_2" d="M100.848 27.5651V27.4202L100.776 27.2392L100.558 26.9495H100.45C100.45 26.9133 100.341 26.8409 100.341 26.8409C100.341 26.8409 100.341 26.8409 100.305 26.8409H100.087H99.9064L99.508 27.0944L95.5604 33.4311C95.4517 33.6483 95.2344 33.757 94.9809 33.757C94.7274 33.757 94.5463 33.6121 94.4014 33.3949L90.49 27.1668L90.3813 27.0219L90.2727 26.9495L90.164 26.8771L89.983 26.8047H89.8019L89.4397 26.8409C89.4397 26.8771 89.2586 27.0219 89.2586 27.0219L89.1138 27.2392V27.384C89.1138 27.4202 89.1138 27.4202 89.1138 27.4565V38.6091C89.1138 38.9712 89.3673 39.2971 89.7294 39.3695C89.9467 39.4057 90.164 39.3695 90.3451 39.1884C90.5262 39.0436 90.5986 38.8263 90.5986 38.6453V30.3894L94.0755 35.5312C94.2566 35.8933 94.5825 36.0744 94.9809 36.0744C95.3793 36.0744 95.7052 35.8571 95.8863 35.5312L99.3632 30.3894V38.6091C99.3632 38.9712 99.6167 39.2971 99.9788 39.3695C100.015 39.3695 100.051 39.3695 100.087 39.3695C100.269 39.3695 100.413 39.2971 100.558 39.1884C100.739 39.0436 100.812 38.8263 100.812 38.6453V27.4565L100.848 27.5651Z" fill="#C5BDB4"/>
</g>
<g id="Group 5">
<path id="Vector_3" d="M112.689 27.0588C111.494 27.0588 110.335 27.3847 109.321 28.0365C107.546 29.159 106.532 31.0057 106.532 33.1421C106.532 35.2785 107.546 37.1251 109.321 38.2477C110.335 38.8632 111.494 39.2253 112.689 39.2253C113.884 39.2253 114.464 39.0443 115.224 38.646C115.369 38.5736 115.478 38.4287 115.514 38.2477C115.514 38.1028 115.514 37.9218 115.369 37.8132C115.261 37.7045 115.116 37.6321 115.007 37.6321C114.898 37.6321 114.898 37.6321 114.826 37.6683C114.138 37.9942 113.377 38.1753 112.617 38.1753C111.856 38.1753 110.733 37.9218 109.9 37.4148C108.379 36.4734 107.546 34.9164 107.546 33.1421C107.546 31.3678 108.416 29.8108 109.9 28.8693C110.733 28.3624 111.639 28.1089 112.617 28.1089C113.595 28.1089 114.138 28.29 114.826 28.6159C114.862 28.6159 114.935 28.6521 115.007 28.6521C115.152 28.6521 115.261 28.5796 115.369 28.5072C115.478 28.3986 115.55 28.2175 115.514 28.0727C115.514 27.8917 115.369 27.7468 115.224 27.6744C114.464 27.3123 113.558 27.095 112.689 27.095" fill="#C5BDB4"/>
<path id="Vector_4" d="M112.689 39.4781C111.457 39.4781 110.262 39.116 109.212 38.4643C107.365 37.3055 106.278 35.3502 106.278 33.1414C106.278 30.9326 107.329 28.9773 109.212 27.8186C110.262 27.1668 111.457 26.8047 112.689 26.8047C113.92 26.8047 114.536 27.0219 115.333 27.384C115.586 27.4927 115.731 27.7099 115.767 27.9634C115.803 28.2169 115.767 28.4703 115.55 28.6514C115.333 28.8686 114.97 28.9411 114.717 28.8324C114.065 28.5065 113.341 28.3617 112.616 28.3617C111.892 28.3617 110.805 28.6152 110.045 29.0859C108.632 29.9549 107.799 31.4395 107.799 33.1414C107.799 34.8433 108.632 36.3279 110.045 37.1969C110.805 37.6676 111.711 37.9211 112.616 37.9211C113.522 37.9211 114.065 37.7401 114.717 37.4504C114.97 37.3055 115.333 37.4142 115.55 37.6314C115.731 37.8125 115.803 38.0659 115.767 38.3194C115.731 38.5729 115.55 38.7901 115.333 38.8988C114.536 39.2971 113.594 39.4781 112.689 39.4781Z" fill="#C5BDB4"/>
<path id="Vector_5" d="M157.308 35.2058C156.257 35.0247 155.606 34.8798 155.606 34.2642C155.606 33.6485 156.547 33.395 157.09 33.395C157.634 33.395 158.177 33.5036 158.612 33.7209C158.938 33.902 159.336 33.7571 159.481 33.4312C159.553 33.2863 159.589 33.069 159.517 32.8879C159.445 32.7068 159.336 32.562 159.191 32.4895C158.612 32.1998 157.815 32.0549 157.09 32.0549C155.316 32.0549 154.193 32.9241 154.193 34.228C154.193 35.5318 155.714 36.1837 156.909 36.401C157.923 36.5821 158.539 36.7269 158.539 37.2702C158.539 37.8134 158.032 38.1032 156.982 38.1032C155.932 38.1032 155.606 37.9221 155.062 37.6324C154.736 37.4513 154.338 37.5599 154.157 37.8859C153.976 38.2118 154.084 38.6102 154.374 38.7913C155.026 39.1897 156.004 39.4432 156.909 39.4432C158.793 39.4432 159.952 38.6102 159.952 37.2702C159.952 35.9302 158.467 35.3869 157.272 35.1696L157.308 35.2058Z" fill="#C5BDB4"/>
<path id="Vector_6" d="M120.511 32.1279C118.483 32.1279 116.854 33.7939 116.854 35.7858C116.854 37.7778 118.519 39.4438 120.511 39.4438C122.503 39.4438 124.206 37.7778 124.206 35.7858C124.206 33.7939 122.54 32.1279 120.511 32.1279ZM122.757 35.7858C122.757 37.0172 121.743 38.0313 120.511 38.0313C119.28 38.0313 118.266 37.0172 118.266 35.7858C118.266 34.5545 119.28 33.5404 120.511 33.5404C121.743 33.5404 122.757 34.5545 122.757 35.7858Z" fill="#C5BDB4"/>
<path id="Vector_7" d="M149.377 32.1279C147.349 32.1279 145.719 33.7939 145.719 35.7858C145.719 37.7778 147.385 39.4438 149.377 39.4438C151.369 39.4438 153.071 37.7778 153.071 35.7858C153.071 33.7939 151.405 32.1279 149.377 32.1279ZM149.377 38.0675C148.145 38.0675 147.131 37.0534 147.131 35.8221C147.131 34.5907 148.145 33.5766 149.377 33.5766C150.608 33.5766 151.622 34.5907 151.622 35.8221C151.622 37.0534 150.608 38.0675 149.377 38.0675Z" fill="#C5BDB4"/>
<path id="Vector_8" d="M165.819 38.2486C165.71 38.1399 165.529 38.0675 165.384 38.0675C164.769 38.0675 164.189 37.8502 163.755 37.4518C163.32 37.0534 163.103 36.4739 163.103 35.8583V34.6269H164.334C164.733 34.6269 165.022 34.3009 165.022 33.9388C165.022 33.5766 164.696 33.2506 164.334 33.2506H163.103V31.0414C163.103 30.643 162.777 30.3533 162.415 30.3533C162.053 30.3533 161.727 30.6792 161.727 31.0414V35.8945C161.727 37.814 163.284 39.4437 165.203 39.5162C165.421 39.5162 165.602 39.4437 165.747 39.2989C165.892 39.154 166 38.9367 166 38.7194C166 38.5021 165.928 38.3934 165.819 38.2848V38.2486Z" fill="#C5BDB4"/>
<path id="Vector_9" d="M136.157 34.6989C135.903 33.5762 135.107 32.7069 134.02 32.4172C132.897 32.0913 131.702 32.4172 130.905 33.214L130.724 33.3951L130.543 33.214C129.746 32.4172 128.551 32.0913 127.429 32.4172C126.306 32.7432 125.545 33.5762 125.292 34.6989C125.219 35.061 125.183 35.2421 125.219 37.0168C125.219 37.4876 125.219 38.0671 125.219 38.7914C125.219 39.1898 125.545 39.4795 125.907 39.4795C126.27 39.4795 126.27 39.4071 126.414 39.2622C126.559 39.1174 126.632 38.9363 126.632 38.7552V37.886C126.632 35.3146 126.632 34.8075 127.103 34.2643C127.429 33.9021 127.863 33.721 128.334 33.721C128.805 33.721 129.276 33.9383 129.565 34.2643C130.036 34.8075 130.036 35.3146 130.036 37.886V38.7552C130.036 38.9363 130.109 39.1174 130.217 39.2622C130.362 39.4071 130.507 39.4795 130.724 39.4795C130.905 39.4795 131.086 39.4071 131.231 39.2622C131.376 39.1174 131.449 38.9363 131.449 38.7552V37.886C131.449 35.4594 131.449 34.8075 131.919 34.2643C132.245 33.9021 132.68 33.721 133.151 33.721C133.622 33.721 134.092 33.9383 134.382 34.2643C134.853 34.8075 134.853 35.3146 134.853 37.886V38.7552C134.853 38.9363 134.925 39.1174 135.034 39.2622C135.179 39.4071 135.324 39.4795 135.541 39.4795C135.94 39.4795 136.229 39.1536 136.229 38.7914C136.229 38.0671 136.229 37.4876 136.229 37.0168C136.229 35.2784 136.229 35.0611 136.157 34.7351V34.6989Z" fill="#C5BDB4"/>
<path id="Vector_10" d="M144.524 35.4587C144.487 34.6983 144.198 33.9741 143.691 33.3948C142.966 32.562 141.952 32.0912 140.866 32.1274C138.91 32.1274 137.353 33.8293 137.353 35.857V41.5058C137.353 41.9041 137.678 42.1938 138.041 42.1938C138.403 42.1938 138.729 41.8679 138.729 41.5058V35.7122C138.729 35.0604 139.019 34.4449 139.489 34.0465C139.96 33.612 140.612 33.431 141.264 33.5396C142.314 33.7207 143.111 34.6259 143.111 35.7122C143.111 36.3278 142.894 36.8709 142.459 37.3054C142.025 37.7399 141.445 37.9572 140.829 37.921C140.648 37.921 140.503 37.9934 140.359 38.1021C140.25 38.2107 140.177 38.3555 140.177 38.5003V38.7176C140.177 39.0435 140.431 39.297 140.721 39.3332C141.699 39.3694 142.64 39.0073 143.328 38.3193C144.089 37.5589 144.487 36.5812 144.415 35.4949L144.524 35.4587Z" fill="#C5BDB4"/>
</g>
<path id="Vector_11" d="M29.7866 45.5605C29.7866 46.3063 29.524 46.9322 28.999 47.4383C28.4739 47.971 27.8569 48.2374 27.148 48.2374H27.0824C26.3735 48.2374 25.7565 47.971 25.2314 47.4383C25.2052 47.4116 25.1789 47.3717 25.1527 47.3451L25.3758 47.1852C26.0585 46.6925 26.6492 46.1864 27.2005 45.627C27.4499 45.374 27.6862 45.121 27.9225 44.8546C28.5658 44.1088 29.7866 44.5616 29.7866 45.5605ZM33.9873 0C33.0553 0 32.1364 0.0399548 31.2306 0.119862C30.4298 0.186451 29.826 0.865663 29.826 1.67805V21.4551C29.826 22.0011 29.5372 22.5072 29.0646 22.7736C28.1194 23.3196 27.2399 24.0121 26.4391 24.8112C25.0345 26.2495 24.05 27.861 23.4855 29.6456C23.2886 30.2715 22.501 30.4846 22.0153 30.0451C22.0153 30.0451 21.989 30.0318 21.989 30.0185C20.6763 28.8465 18.9697 28.2339 17.2107 28.2472C15.2416 28.2605 13.5482 28.9797 12.1698 30.3914C10.7783 31.8164 10.0826 33.5477 10.0826 35.5854C10.0826 37.623 10.7783 39.3277 12.1698 40.7527C13.5744 42.1777 15.281 42.8969 17.2895 42.8969C19.2979 42.8969 20.9782 42.191 22.3828 40.7527C22.5797 40.5529 22.7635 40.3532 22.9342 40.1401C23.2361 39.7672 23.4855 39.381 23.6956 38.9681C24.1156 38.169 24.3782 37.2901 24.4569 36.3445C24.4832 36.0914 24.4832 35.8384 24.4832 35.5854C24.4832 35.3323 24.4832 35.066 24.4569 34.8262V33.4279C24.4569 30.5113 25.4809 28.0075 27.5287 25.9166C28.2507 25.1974 29.0121 24.6114 29.826 24.132C30.0754 23.9855 30.3379 23.8523 30.5874 23.7325C30.8368 23.6126 31.0993 23.5061 31.3487 23.4128C32.4514 23 33.646 22.8002 34.9193 22.8002C38.3718 22.8002 40.9841 23.9589 42.7301 26.2895C44.476 23.9589 47.062 22.8002 50.5276 22.8002C53.9932 22.8002 55.8836 23.839 57.9314 25.9166C58.614 26.6091 59.1785 27.3549 59.638 28.154C61.5414 30.9241 61.909 33.9606 61.909 38.7817C61.909 43.6027 60.78 46.5726 58.7978 49.5958C56.3168 53.3914 52.6543 55.4823 48.4667 55.5089C47.1014 55.5089 45.9462 54.4168 45.92 53.0185C45.8937 51.5935 47.0227 50.4348 48.4142 50.4348C50.9608 50.4348 53.0481 49.2096 54.6233 46.799C56.0542 44.6149 56.8944 41.6184 56.8944 38.7817C56.8944 33.4012 56.1198 31.8564 54.177 29.7521C53.1793 28.74 51.9585 28.2339 50.5276 28.2339C49.0968 28.2339 47.9022 28.74 46.8914 29.7521C45.8937 30.7643 45.3949 32.0029 45.3949 33.4412V43.0567C45.3949 43.8025 45.1323 44.4284 44.6073 44.9345C44.1215 45.4672 43.5046 45.7336 42.7563 45.7336H42.7169C41.9949 45.7336 41.3648 45.4672 40.8529 44.9345C40.3278 44.4284 40.0652 43.8158 40.0652 43.0567V33.4412C40.0652 32.0029 39.5664 30.7776 38.5687 29.7521C37.5711 28.74 36.3502 28.2339 34.9325 28.2339C33.5147 28.2339 32.3464 28.7267 31.3619 29.6989C31.3356 29.7255 31.3225 29.7388 31.2962 29.7655C31.0206 30.0451 30.7974 30.3381 30.6005 30.6444C30.1804 31.3103 29.9179 32.0428 29.8391 32.8419C29.8128 33.0417 29.7997 33.2414 29.7997 33.4545V36.3445C29.6291 39.5408 28.4214 42.2843 26.1372 44.5616C25.6121 45.081 25.0739 45.5471 24.4963 45.96C24.26 46.1331 24.0237 46.2929 23.7874 46.4394C23.5512 46.5859 23.3149 46.7191 23.0654 46.8523C21.3326 47.7845 19.4161 48.264 17.3026 48.264C13.8501 48.264 10.8965 47.0254 8.44169 44.535C5.9869 42.0579 4.76606 39.0613 4.76606 35.5454C4.76606 32.0295 5.9869 29.0463 8.44169 26.5558C10.8965 24.0654 13.8501 22.8268 17.3026 22.8268C20.755 22.8268 20.3612 23.0266 21.5821 23.4128C23.0261 23.879 24.4963 22.7869 24.4963 21.242V3.54256C24.4963 2.45049 23.433 1.70469 22.4222 2.07759C9.26871 6.91198 -0.104144 19.7371 0.000873697 34.773C0.132146 53.6844 15.4254 69.0399 34.0661 68.9999C52.8118 68.96 68 53.5379 68 34.5066C68 15.4754 52.7724 0.0133187 34.0004 0.0133187" fill="#BDC700"/>
</g>
</svg>
