<svg width="190" height="282" viewBox="0 0 190 282" fill="none" xmlns="http://www.w3.org/2000/svg">
<path opacity="0.16" d="M160.375 99.9789C154.507 91.6035 147.237 83.6689 138.479 76.2485C112.203 54.2079 80.4086 43.1141 43.2717 43.1141C-1.22241 43.1141 -34.593 55.4569 -57.0153 80.2159C-79.6127 55.4569 -113.071 43.1141 -157.565 43.1141C-173.944 43.1141 -189.184 45.3182 -203.461 49.6529C-206.789 50.6814 -210.117 51.7835 -213.358 53.0324C-216.686 54.2814 -220.015 55.6773 -223.255 57.2202C-233.766 62.216 -243.663 68.5343 -252.86 76.175C-279.136 98.4361 -292.274 125.032 -292.274 156.036V170.95C-292.011 173.595 -291.923 176.313 -291.923 179.031C-291.923 181.75 -292.099 184.468 -292.274 187.113C-293.412 197.178 -296.741 206.435 -302.171 214.957C-304.974 219.292 -308.215 223.48 -312.068 227.447C-314.258 229.725 -316.535 231.929 -319.075 233.986C-337.118 249.194 -359.015 256.761 -384.59 256.761C-410.166 256.761 -432.325 249.194 -450.456 233.986C-468.411 218.851 -477.345 200.484 -477.345 179.031C-477.345 157.578 -468.411 138.991 -450.456 123.783C-432.588 108.795 -410.954 101.154 -385.554 101.007C-363.044 100.861 -341.06 107.473 -324.155 119.889C-324.068 119.962 -323.893 120.109 -323.805 120.183C-317.499 124.811 -307.426 122.607 -304.886 115.848C-297.704 96.8198 -285.004 79.6281 -266.961 64.3466C-256.801 55.8242 -245.415 48.5508 -233.24 42.6734C-227.197 39.8081 -223.43 34.4449 -223.43 28.6408V-82.5908V-172.81C-223.43 -180.818 -226.759 -187.431 -233.591 -192.794C-240.335 -198.451 -248.305 -201.243 -257.677 -201.243H-258.202C-267.749 -201.243 -275.72 -198.451 -282.026 -192.794C-288.77 -187.431 -292.186 -180.818 -292.186 -172.81V-146.509V-146.655V26.2898C-292.186 42.6733 -311.105 54.2814 -329.761 49.359C-345.527 45.1713 -363.92 43.1141 -384.853 43.1141C-429.347 43.1141 -467.36 56.3385 -498.891 82.8607C-530.423 109.309 -546.188 141.195 -546.188 178.443C-546.188 215.692 -530.51 247.651 -498.891 274.026C-467.36 300.475 -429.347 313.773 -384.853 313.773C-357.701 313.773 -333.002 308.703 -310.667 298.712C-307.514 297.316 -304.448 295.92 -301.383 294.304C-298.23 292.687 -295.164 290.997 -292.186 289.161C-284.916 284.753 -277.822 279.904 -271.165 274.32C-241.824 250.002 -226.233 220.835 -224.044 186.819V156.109C-224.044 153.905 -223.868 151.701 -223.606 149.57C-222.467 141.048 -219.226 133.26 -213.708 126.207C-211.168 122.975 -208.19 119.815 -204.687 116.877C-204.424 116.656 -204.074 116.436 -203.811 116.215C-191.111 105.93 -175.783 100.64 -157.915 100.64C-140.048 100.64 -124.019 106.077 -111.144 116.877C-98.2687 127.677 -91.7873 140.754 -91.7873 156.109V258.377C-91.7873 266.385 -88.459 272.998 -81.6272 278.361C-74.883 284.018 -66.9126 286.81 -57.5408 286.81H-57.0153C-47.4683 286.81 -39.4979 284.018 -33.1917 278.361C-26.4474 272.998 -23.0316 266.385 -23.0316 258.377V156.109C-23.0316 140.754 -16.5501 127.677 -3.67487 116.877C9.20044 106.077 24.7909 100.64 43.0966 100.64C61.4022 100.64 77.2554 106.077 90.1307 116.877C115.093 139.358 125.078 155.668 125.078 212.974C125.078 243.169 114.13 275.055 95.8239 298.271C75.5037 323.985 48.6145 336.989 15.857 336.989C-2.09833 336.989 -16.6378 349.332 -16.2874 364.54C-15.937 379.307 -1.04724 391.062 16.5577 390.988C70.3361 390.841 117.545 368.507 149.427 328.173C174.827 295.993 189.454 254.043 189.454 213.047C189.454 161.84 184.725 129.44 160.288 100.052L160.375 99.9789Z" fill="#C5BDB4"/>
</svg>
