<svg width="273" height="338" viewBox="0 0 273 338" fill="none" xmlns="http://www.w3.org/2000/svg">
<path opacity="0.1" d="M396.347 -149.633C386.294 -165.453 373.841 -180.44 358.837 -194.456C313.826 -236.088 259.363 -257.042 195.748 -257.042C119.529 -257.042 62.3648 -233.729 23.9554 -186.962C-14.7541 -233.729 -72.0681 -257.042 -148.287 -257.042C-176.344 -257.042 -202.45 -252.879 -226.906 -244.692C-232.607 -242.749 -238.309 -240.667 -243.86 -238.308C-249.562 -235.949 -255.263 -233.312 -260.814 -230.398C-278.819 -220.962 -295.773 -209.027 -311.527 -194.595C-356.538 -152.547 -379.043 -102.312 -379.043 -43.7499V-15.5792C-378.593 -10.5834 -378.443 -5.44885 -378.443 -0.31427C-378.443 4.82025 -378.743 9.95483 -379.043 14.9506C-380.994 33.9624 -386.695 51.4477 -395.998 67.5452C-400.799 75.7327 -406.35 83.6427 -412.952 91.1364C-416.703 95.4383 -420.604 99.6015 -424.955 103.487C-455.862 132.213 -493.371 146.506 -537.182 146.506C-580.993 146.506 -618.952 132.213 -650.01 103.487C-680.767 74.9001 -696.071 40.2071 -696.071 -0.31427C-696.071 -40.8357 -680.767 -75.9449 -650.01 -104.671C-619.402 -132.98 -582.343 -147.412 -538.833 -147.69C-500.273 -147.968 -462.614 -135.478 -433.657 -112.026C-433.507 -111.887 -433.207 -111.609 -433.057 -111.471C-422.254 -102.728 -405 -106.891 -400.649 -119.658C-388.346 -155.6 -366.59 -188.073 -335.683 -216.937C-318.278 -233.035 -298.774 -246.773 -277.919 -257.875C-267.566 -263.287 -261.114 -273.417 -261.114 -284.38V-494.481V-664.893C-261.114 -680.019 -266.816 -692.509 -278.519 -702.639C-290.072 -713.324 -303.725 -718.598 -319.779 -718.598H-320.679C-337.033 -718.598 -350.686 -713.324 -361.489 -702.639C-373.042 -692.509 -378.893 -680.019 -378.893 -664.893V-615.213V-615.49V-288.821C-378.893 -257.875 -411.301 -235.949 -443.259 -245.247C-470.266 -253.157 -501.773 -257.042 -537.632 -257.042C-613.851 -257.042 -678.967 -232.063 -732.98 -181.967C-786.993 -132.009 -814 -71.7818 -814 -1.42444C-814 68.9329 -787.143 129.299 -732.98 179.118C-678.967 229.076 -613.851 254.193 -537.632 254.193C-491.121 254.193 -448.81 244.618 -410.551 225.745C-405.15 223.109 -399.898 220.472 -394.647 217.419C-389.246 214.366 -383.995 211.174 -378.893 207.705C-366.44 199.378 -354.287 190.22 -342.885 179.673C-292.622 133.739 -265.916 78.6469 -262.165 14.3956V-43.6111C-262.165 -47.7743 -261.865 -51.9374 -261.415 -55.9618C-259.464 -72.0593 -253.913 -86.7692 -244.46 -100.091C-240.109 -106.197 -235.008 -112.164 -229.007 -117.715C-228.556 -118.132 -227.956 -118.548 -227.506 -118.964C-205.751 -138.392 -179.494 -148.384 -148.887 -148.384C-118.279 -148.384 -90.8227 -138.115 -68.7673 -117.715C-46.7119 -97.3159 -35.6092 -72.6144 -35.6092 -43.6111V149.559C-35.6092 164.686 -29.9078 177.175 -18.205 187.305C-6.6521 197.991 7.00122 203.264 23.0552 203.264H23.9554C40.3094 203.264 53.9627 197.991 64.7654 187.305C76.3182 177.175 82.1696 164.686 82.1696 149.559V-43.6111C82.1696 -72.6144 93.2724 -97.3159 115.328 -117.715C137.383 -138.115 164.09 -148.384 195.447 -148.384C226.805 -148.384 253.962 -138.115 276.017 -117.715C318.778 -75.2511 335.882 -44.4437 335.882 63.7983C335.882 120.834 317.127 181.061 285.77 224.912C250.961 273.483 204.9 298.045 148.786 298.045C118.028 298.045 93.1223 321.359 93.7225 350.085C94.3226 377.978 119.829 400.182 149.986 400.043C242.109 399.765 322.979 357.578 377.592 281.393C421.103 220.611 446.159 141.372 446.159 63.9371C446.159 -32.7869 438.057 -93.9854 396.197 -149.494L396.347 -149.633Z" fill="#C36900"/>
</svg>
