<svg width="344" height="320" viewBox="0 0 344 320" fill="none" xmlns="http://www.w3.org/2000/svg">
<path d="M343.993 61.4874C343.99 50.0332 343.404 39.7623 342.124 33.5699C341.127 32.2028 339.992 31.1228 339.009 30.5024C338.271 30.5484 337.439 30.8356 336.54 31.3641C336.344 32.2028 336.142 33.0644 335.961 33.8227C335.24 34.2707 334.647 34.3396 334.081 33.501C334.047 33.455 334.017 33.3861 333.99 33.3172C333.896 33.0414 333.829 32.6049 333.707 32.1453C334.034 31.5019 334.32 30.985 334.647 30.3301C334.384 29.4914 334.078 28.7791 333.903 27.8026C333.728 26.7686 333.684 25.5968 333.596 24.5628C330.841 20.7485 328.174 18.6117 325.001 17.7615C324.563 17.6351 324.081 16.9803 323.687 18.2095C323.906 19.3125 324.277 19.0482 324.583 19.1172C324.91 19.1861 325.196 19.5078 325.435 20.1511C323.425 20.1511 321.478 18.6576 319.487 18.2095C319.093 18.0832 318.679 18.0832 318.285 17.8189C318.043 17.6236 317.696 17.233 317.608 16.716C317.302 14.6481 316.689 14.5102 316.099 14.2574C315.16 13.8668 314.22 13.7405 313.3 13.4188C311.899 12.9018 310.502 12.1206 309.1 11.8678C306.409 11.3508 303.722 10.9602 301.031 10.7074C298.276 10.4432 295.521 10.7764 292.766 10.5811C291.627 10.5121 290.425 10.133 289.354 10.8453C288.172 11.684 287.1 10.3972 285.965 10.5811C285.77 10.5811 285.571 10.7074 285.352 10.65C284.281 10.5236 283.21 10.3858 282.139 10.2594C279.448 10.0641 276.761 9.81133 274.07 9.74239C272.254 9.74239 270.439 10.2594 268.623 10.2594C263.245 10.2594 257.842 10.1905 252.464 10.0641C251.874 10.0641 251.305 9.67346 250.716 9.42071C250.978 8.38673 251.393 7.86974 251.743 8.19142C252.595 8.90372 253.494 8.38673 254.323 9.35178C254.542 9.61602 254.892 9.61602 255.087 9.28285C255.657 8.37524 256.246 8.50162 256.859 8.63948C258.193 8.90372 259.55 8.51311 260.884 9.35178C261.079 9.47816 261.278 9.35178 261.497 9.28285C262.635 9.15647 263.77 8.96117 264.885 8.83479C265.761 8.70842 266.633 8.83479 267.488 8.38673C268.539 7.93867 269.566 6.64045 270.658 7.86974C271.729 6.8932 272.8 7.74337 273.871 7.74337C274.002 7.74337 274.134 7.61699 274.265 7.61699C277.219 7.49062 280.169 7.35275 283.123 7.16893C284.261 7.16893 285.396 7.04256 286.555 6.84725C286.686 6.84725 286.794 6.06602 286.949 5.54903C286.117 3.60744 285.177 3.41214 284.238 3.3432C281.132 3.21683 278.047 3.07896 274.945 3.02152C274.332 3.02152 273.719 2.89515 273.13 3.21683C271.86 3.86019 270.594 3.3432 269.324 3.21683C269.129 3.21683 268.822 3.41214 268.755 2.18285C270.045 1.91861 271.335 2.50453 272.581 1.34417C272.756 1.2178 272.995 1.34417 273.17 1.53948C274.659 2.76877 276.1 2.1254 277.589 1.09142C278.465 2.1254 279.361 2.44709 280.324 1.67735C280.762 1.35566 281.243 1.67735 281.722 1.55097C281.766 1.55097 281.789 0.965049 281.833 0.712298C281.722 0.585922 281.594 0.264239 281.483 0.264239C280.233 0.17233 278.987 0.068932 277.737 0H274.551C273.231 0.0804207 271.914 0.287217 270.594 0.712298C270.004 0.907605 269.391 0.976537 268.778 0.976537C266.087 0.976537 263.4 0.712298 260.688 0.976537C258.129 1.17184 255.572 0.850162 253.013 0.459547C249.843 0.0114887 246.691 0.137864 243.521 0.068932C243.063 0.068932 242.602 0.26424 242.232 1.04547C242.646 1.36715 243.04 1.88414 243.521 1.95307C245.468 2.14838 247.415 2.539 249.362 2.14838C249.405 2.14838 249.469 2.34369 249.537 2.47006C249.473 2.66537 249.429 3.11343 249.362 3.11343C246.869 3.23981 244.377 3.30874 241.905 3.37767C241.117 3.37767 240.332 3.11343 239.5 2.92961C239.807 1.25227 240.265 2.28625 240.615 1.95307C240.965 1.56246 241.359 1.36715 241.709 1.1144C241.208 -0.114887 240.595 0.0804207 240.005 0.137864C237.119 0.137864 234.232 0.264239 231.346 0.333172C231.04 0.333172 230.733 0.78123 230.427 1.1144H227.823C227.756 1.1144 227.668 1.1144 227.624 1.30971C227.581 1.43608 227.581 1.63139 227.56 1.70032C227.692 2.14838 227.887 2.67686 227.867 3.05599C227.867 3.50405 227.648 4.08997 227.496 4.21634C227.102 4.48058 226.708 4.60696 226.294 4.6644C225.617 4.73333 224.937 4.6644 224.283 4.85971C221.266 5.50307 218.248 6.21537 215.23 6.47961C214.573 6.47961 213.896 6.35324 213.24 6.47961C212.037 6.60599 210.835 6.9966 209.632 7.06553C207.204 7.06553 204.776 7.06553 202.351 6.9966C200.603 6.9966 198.851 6.92767 197.08 6.9966C196.403 6.9966 195.746 7.31828 195.069 7.58252C194.938 7.58252 194.85 8.36375 194.675 9.1335C195.264 9.3288 195.726 9.65049 196.184 9.71942C198.875 9.84579 201.586 10.2364 204.274 9.98366C207.029 9.71942 209.808 9.71942 212.563 10.179C213.371 10.3053 214.159 10.3743 214.967 10.0526C216.082 9.60453 217.241 9.34029 218.379 9.46667C220.259 9.66197 222.141 9.78835 224.021 9.46667C224.765 9.34029 225.506 9.46667 226.25 9.59304C226.358 9.59304 226.489 9.91472 226.776 10.3053C225.967 10.5696 225.29 11.144 224.654 10.9487C223.34 10.5581 222.118 11.9827 220.848 12.0516C220.279 12.0516 219.733 13.1545 219.097 12.6375C218.527 12.1895 217.914 13.2235 217.305 12.3159C217.086 11.9942 216.759 12.1206 216.517 12.3159C216.059 12.7639 215.597 12.6375 215.116 12.5801C214.459 12.4537 213.758 12.132 213.105 12.4537C211.508 13.235 209.868 12.5227 208.272 13.166C207.615 13.4303 206.914 13.166 206.261 13.166C205.517 13.166 204.772 12.9707 204.031 13.0396C203.287 13.1086 202.566 13.5566 201.822 13.5566C201.034 13.5566 200.225 13.1086 199.437 13.1086C197.753 13.0396 196.069 13.3039 194.385 13.1086C191.957 12.7869 189.532 13.3039 187.104 12.5916C186.514 12.3963 185.901 12.7869 185.288 12.718C184.15 12.5916 183.035 12.201 181.9 12.201C177.111 12.0057 172.321 11.9367 167.532 11.9367C166.461 11.9367 165.39 12.3848 164.319 12.649C164.255 12.649 164.167 13.235 164.124 13.5566C164.124 13.683 164.167 13.9472 164.211 14.0736C164.386 14.717 164.824 14.0736 164.932 15.234H162.658C162.635 15.234 162.615 14.9697 162.571 14.8434C162.679 14.3953 162.854 13.7405 162.594 13.4188C162.376 13.0971 162.093 13.0282 161.83 13.0971C160.277 13.2235 158.725 13.3613 157.192 12.649C155.707 11.9367 154.238 12.0057 152.753 12.3273C151.682 12.5916 150.631 12.5227 149.56 12.3273C148.422 12.132 147.243 11.9367 146.128 12.4537C144.97 12.9707 143.875 13.235 142.737 12.3848C142.497 12.1895 142.211 12.4537 141.928 12.5112C141.602 12.5112 141.271 12.5801 140.945 12.5112C140.332 12.3848 139.742 12.1206 139.129 12.1206C133.138 12.1895 127.122 11.7989 121.131 12.9592C119.861 13.2235 118.571 13.0282 117.305 13.1545C115.425 13.2809 113.522 13.7405 111.639 13.4762C109.737 13.2809 107.901 14.3838 105.998 14.2574C104.378 14.1311 102.761 14.5217 101.141 14.5217C96.352 14.5217 91.5627 14.3953 86.7733 14.3264C84.8266 14.3264 82.8597 14.3264 80.9129 14.0047C77.6998 13.4877 74.4632 12.9707 71.2467 11.9942C69.3673 11.4083 67.4846 11.3508 65.6052 10.8338C61.9105 9.79984 58.1922 10.3858 54.4975 10.1215C54.3021 10.1215 54.1034 10.2479 53.8845 10.2479C51.5235 10.5121 49.1625 10.8338 46.7981 10.8913C44.5011 10.9602 42.2277 10.627 39.9307 10.627C39.3413 10.627 38.7048 10.3628 38.2467 11.9252C37.8964 15.6131 38.1389 18.9793 38.7048 22.3455C38.9675 23.8964 39.4255 25.2636 39.338 27.3316C39.1628 27.5269 38.9877 27.8485 38.7923 27.9175C35.4243 28.6298 32.0563 28.7561 28.6882 28.6987C26.59 28.6298 24.5119 28.6987 22.4102 28.6987C21.9286 28.6987 21.4908 28.9629 21.0327 29.4799C18.9782 31.8696 17.183 35.3736 15.3912 40.8078C15.371 42.7494 15.3475 44.7599 15.2835 46.7589C15.2835 47.5401 15.2397 48.3788 15.1319 49.0222C14.6503 52.193 14.6301 55.4903 14.6503 58.8565C14.6503 59.8215 14.7143 60.867 14.8456 61.7746C15.59 66.6917 16.0716 71.8731 16.3343 77.1809C16.4219 79.1225 16.4657 81.133 16.5532 84.166C15.4384 77.56 14.8052 71.2872 12.7911 67.5994C12.3533 61.9699 11.0633 58.9254 9.14018 57.9604C8.55078 58.351 8.06915 59.316 7.56731 60.4189C7.0419 61.5793 6.38513 62.1652 5.75194 63.0039C5.57681 65.4625 5.35788 67.5994 4.78869 69.472C4.37442 70.8966 4.26327 73.0909 4.04435 74.9751C3.78165 77.2384 3.60651 79.5706 3.30002 81.7764C2.46811 87.5322 2.49169 93.4259 2.79818 99.446C3.03731 103.973 3.23602 108.637 3.73786 112.911C4.28348 117.506 4.35084 122.297 4.76511 126.892C4.89646 128.443 5.0716 129.937 5.24674 131.488C5.50945 133.946 5.87993 136.348 5.99107 139.059C5.55323 141.908 5.35788 145.079 4.61355 147.606C4.33063 148.583 4.19928 150.065 4.04435 151.421C3.76144 153.879 3.56272 156.407 3.27981 158.865C2.05384 169.481 2.31655 166.758 2.92953 178.155C3.25623 184.439 1.51496 203.66 1.47118 207.933C1.47118 209.289 1.53517 210.714 1.60253 212.069C1.77767 215.436 0.0397617 218.733 0.12733 222.099C0.214899 225.913 -0.219577 229.601 0.154275 233.232C0.373197 235.564 0.635903 237.827 0.89861 240.09C1.90565 249.603 3.02047 258.989 4.63713 267.789C5.68795 273.488 6.91055 278.669 9.05598 281.185C9.18734 281.312 9.29511 281.576 9.40626 281.771C10.063 282.932 10.7838 283.391 11.5281 283.644C12.6227 284.034 13.6702 283.253 14.6537 282.219C14.9601 282.667 15.1993 283 15.4182 283.38C15.462 283.449 15.462 283.701 15.4822 283.966C15.4182 284.414 15.3508 284.931 15.2633 285.459C14.2562 285.333 13.2526 285.011 12.2017 286.24C12.1579 287.665 12.0939 289.216 12.0266 290.709C11.8312 291.031 11.6325 291.226 11.5012 291.674C11.1745 292.639 10.8882 293.742 10.5379 294.845C10.6457 296.075 10.7568 297.43 10.8646 298.66C11.2149 298.591 11.4776 298.533 11.7167 298.464C12.131 300.015 12.1748 302.416 13.0067 302.6C13.3132 302.347 13.357 300.728 13.8386 301.302C13.9026 302.405 13.9464 303.508 14.0137 304.415C14.3842 305.518 14.7345 304.415 15.0646 304.737C15.2599 306.357 15.3475 308.299 16.1794 308.884C17.0551 308.758 18.0587 307.46 19.0456 308.758C19.1971 309.597 19.3521 310.447 19.5036 311.217C19.6552 311.021 19.8101 310.964 19.9179 310.769C20.9249 308.953 21.9724 308.953 23.003 310.573C23.3735 311.159 23.7473 311.286 24.1616 311.412C24.7746 311.607 25.364 311.929 25.9534 312.32C26.0847 312.389 26.2363 313.158 26.2599 313.618C26.3037 314.261 25.9096 315.1 25.6907 314.973C25.5593 314.973 25.4078 314.974 25.2966 314.778C24.9261 314.33 24.5759 313.744 24.202 313.285C23.8315 312.837 23.4375 312.699 23.0636 313.411C23.0872 314.767 24.0269 314.445 23.6968 316.513C22.2519 316.708 20.7868 316.904 19.1904 317.099C19.1264 317.03 18.9513 316.708 18.7525 316.513C18.5774 316.318 18.3585 316.122 18.1833 316.191C18.0756 316.191 18.0082 316.904 17.8769 317.49C18.5976 318.202 19.2342 318.845 19.8438 319.5C19.736 320.994 19.6686 321.373 19.4497 321.246C18.9243 320.982 18.4225 320.603 17.7455 320.143C17.0685 320.982 16.2804 322.016 15.5597 322.993C15.371 324.98 15.371 327.611 15.5597 330.885C16.2366 332.505 17.0247 332.574 17.8331 331.988C18.729 331.345 19.6249 330.437 20.5241 329.656C20.5241 330.047 20.5679 330.437 20.5881 330.816C20.8508 330.943 21.09 331.069 21.3527 331.207C21.4167 332.31 21.4604 329.771 21.5042 330.862C22.4237 331.184 23.3836 330.989 24.1279 332.999C24.1077 333.964 23.8652 334.424 23.6025 334.493C23.2758 334.619 22.9457 334.493 22.5955 334.493C21.9623 332.942 21.5682 332.815 21.0866 334.171C20.6487 335.331 20.4736 336.756 20.5612 338.445C20.6252 339.479 20.8879 340.122 21.1742 340.318C22.2452 339.801 23.2287 339.215 24.2155 338.962C24.586 338.835 25.0238 338.962 25.2663 340.191C25.3539 342.512 24.7072 343.155 24.2458 344.189C24.2492 344.189 24.2559 344.189 24.2593 344.212H24.2391C24.2391 344.212 24.2458 344.201 24.2492 344.189C23.0939 342.466 22.0061 342.661 21.0495 345.304C21.5312 345.304 22.033 345.235 22.5146 345.235C22.8211 345.235 22.9525 345.752 22.9963 346.533C23.104 346.533 23.2354 346.602 23.323 346.728C23.4307 346.855 23.4981 347.176 23.5857 347.372C23.4981 347.567 23.4341 347.889 23.323 347.957C23.2152 347.957 23.104 347.889 22.9963 347.831C22.8009 348.991 22.7133 350.163 22.9087 351.45C22.7773 351.841 22.6258 352.231 22.4944 352.61C22.2553 353.392 22.1239 354.23 22.4944 355H23.0165C23.4307 354.816 23.7473 354.115 23.9393 352.668C25.4044 352.541 26.8695 352.668 28.2268 350.853C28.402 350.588 28.6209 350.588 28.8162 350.588C30.0186 350.588 31.1132 348.383 32.3594 349.037C32.511 349.106 32.7097 348.52 32.905 348.394C34.2926 347.303 35.6365 345.648 37.1083 345.43C37.1083 345.43 37.1049 345.43 37.1016 345.43C37.1083 345.43 37.1151 345.43 37.1218 345.43C37.1218 345.43 37.1252 345.43 37.1285 345.43H37.1252H37.1487C37.1487 345.43 37.1386 345.43 37.1319 345.43C37.1319 345.43 37.1319 345.43 37.1353 345.43C37.1521 345.43 37.1689 345.43 37.1858 345.441C37.179 345.441 37.1757 345.441 37.1689 345.418C37.8459 344.384 38.5263 343.086 39.4659 343.408C39.247 345.418 38.3713 346.188 38.5465 348.452C38.698 348.52 38.8294 348.773 38.9607 348.716C39.8128 348.072 40.6683 347.613 41.5642 348.003C41.9583 348.199 42.3961 348.13 42.7666 347.739C43.5109 346.901 44.1879 347.027 44.9323 347.613C45.2387 347.877 45.589 347.486 45.8955 347.349C46.1346 346.315 46.5725 345.798 46.5287 344.373C44.7133 341.455 42.7026 343.339 40.7761 342.5C40.931 341.271 41.3015 341.076 41.5844 340.812C42.2412 340.295 42.8946 339.778 43.5514 339.651C45.3027 339.261 47.0507 339.261 48.7988 338.87C50.2638 338.548 51.7491 338.422 53.13 336.48C53.7194 335.642 54.42 334.929 55.0532 334.929C57.3502 334.803 59.3171 331.563 61.3716 329.357C61.4828 329.231 61.5468 331.839 61.5468 331.253C61.5468 331.058 61.3716 330.541 61.284 330.541C60.5397 330.541 59.7987 330.736 59.0746 330.736C57.8049 330.736 56.5149 330.61 55.2687 329.507C52.5777 329.438 49.89 329.311 47.1989 329.254H46.4344C46.4984 327.703 47.2865 328.346 47.1349 326.336C46.5018 325.692 45.8652 324.59 45.1007 324.59C44.0296 324.59 42.935 323.808 41.8876 324.716C41.0994 325.428 40.3113 325.75 39.503 325.75C39.1763 325.75 38.826 325.876 38.5195 326.267C36.8153 328.404 34.9326 327.691 33.161 329.047C32.8545 329.311 32.5278 328.725 32.4166 327.37C33.2688 326.336 34.1209 325.233 34.9764 324.256C35.7847 323.291 36.593 322.384 37.4485 321.602C38.3444 320.821 39.2639 320.247 40.2911 319.534C40.6852 319.856 41.187 320.373 41.6922 320.833C42.2816 320.12 42.807 319.213 43.3998 318.765C43.969 318.305 44.5584 318.121 45.1478 317.984C45.8921 317.788 46.6365 317.788 47.3572 317.719C47.7513 317.719 48.2094 317.846 48.5394 317.398C49.3275 316.295 50.1561 317.271 50.9004 316.812C51.7323 316.295 52.4969 317.007 53.1536 317.202C53.9417 316.616 54.5985 316.168 55.1879 315.778C55.5584 316.616 55.6695 317.984 56.1714 317.788C56.6294 317.662 57.1111 317.719 57.5725 317.524C59.1016 316.938 60.5667 315.387 62.1429 315.456C62.537 315.456 62.931 314.996 63.3251 314.813C63.7831 314.617 64.2648 314.365 64.7262 314.296C65.9286 314.1 67.1747 314.422 68.3569 313.905C70.435 312.94 72.5131 313.514 74.5878 313.262C76.2718 313.066 77.9558 313.066 79.6398 312.618C80.5795 312.354 81.5192 312.228 82.4622 312.354C83.6006 312.48 84.7794 312.48 85.874 311.768C87.4705 310.734 89.7608 310.861 91.3606 310.608C91.7546 310.539 92.1689 310.412 92.4754 310.344C93.0446 310.987 93.5262 311.699 94.0281 312.159C94.3345 312.423 94.705 312.285 95.0351 312.228C97.6588 311.963 100.282 311.642 102.91 312.814C103.499 313.066 104.112 312.814 104.725 312.549C106.298 311.837 107.874 310.539 109.491 311.711C109.817 311.906 110.191 311.963 110.498 311.711C111.175 310.998 111.831 311.446 112.488 311.515C113.691 311.642 114.917 311.837 116.119 311.768C117.126 311.768 118.109 310.665 119.117 311.182C119.204 311.182 119.356 310.47 119.467 310.079C118.985 308.207 118.153 309.045 117.631 307.621C117.392 306.977 116.867 307.299 116.449 307.104C115.641 306.782 114.832 307.104 114.044 307.552C113.586 307.816 113.105 308.011 112.647 308.069H110.11C110.875 307.23 111.643 307.104 112.384 305.932C112.798 305.289 113.435 305.806 113.96 305.668C114.485 305.541 114.9 304.117 115.489 304.369C116.21 304.634 116.954 304.634 117.699 304.691C119.032 304.886 120.39 304.243 121.68 305.851C121.963 306.242 122.357 306.173 122.687 306.047C124.044 305.587 125.354 306.564 126.668 307.529C125.704 307.851 124.721 307.85 123.737 308.115C122.798 308.379 121.333 309.93 120.871 311.09C121.616 312.389 122.38 313.48 123.168 312.906C123.845 312.389 124.502 312.906 125.159 312.71C125.88 312.446 126.604 312.779 127.324 311.929C128.113 311.021 129.032 310.895 129.884 310.573C130.211 310.447 130.541 310.895 130.736 311.872C130.868 312.515 131.019 313.101 131.15 313.618C132.528 313.423 140.554 313.17 141.824 313.101C142.349 313.101 142.918 313.101 143.42 313.618C143.946 314.135 144.471 314.261 145.017 314.204C146.896 313.951 148.779 314.33 150.638 313.17C150.837 313.043 151.052 313.043 151.251 313.101C151.908 313.365 152.564 313.882 153.241 313.94C153.898 313.94 154.599 313.227 155.232 313.423C156.916 314.066 158.556 313.227 160.26 313.354C160.348 312.768 160.415 312.32 160.503 311.803C160.742 311.998 161.028 311.803 161.18 312.584C161.136 312.974 161.092 313.296 161.049 313.687C161.399 315.111 161.924 315.559 162.47 315.559C163.672 315.559 164.898 315.686 166.101 315.559C167.259 315.364 168.374 315.169 169.401 317.237C169.597 317.627 169.927 317.88 170.166 317.754C171.304 317.168 172.463 317.754 173.598 317.754C174.473 317.754 175.346 317.754 176.201 316.973C176.572 316.582 177.033 316.387 177.383 316.708C178.434 317.616 179.526 317.616 180.597 317.742C181.735 317.811 182.826 319.293 183.988 318.259C184.163 318.133 184.382 318.259 184.578 318.455C185.517 319.293 186.437 319.098 187.376 318.455C187.703 318.259 188.053 318.007 188.36 318.259C190.02 319.557 191.704 319.098 193.345 319.557C193.87 320.591 194.372 321.625 194.766 322.407C195.423 322.602 195.992 322.407 196.494 322.993C197.39 323.958 198.178 324.348 198.834 321.694C198.902 321.43 199.097 321.246 199.205 321.304C199.905 321.625 200.232 319.557 200.758 319.109C201.677 318.845 202.287 320.787 202.879 321.246C205.065 320.66 207.056 319.695 209.046 320.798C209.659 320.281 210.249 319.374 210.818 319.443C212.283 319.638 213.748 319.178 215.193 320.35C215.87 320.936 216.614 321.648 217.359 320.35C217.514 320.097 217.753 320.224 217.948 320.224H220.572C221.117 320.224 221.687 319.96 222.168 320.419C223.02 321.2 223.896 321.258 224.772 321.453C225.317 321.579 225.822 322.039 226.173 323.395C226.217 324.176 226.26 324.946 226.324 325.796C226.937 326.634 227.527 327.542 228.163 328.323C228.972 329.288 229.803 330.139 230.635 330.908C231.137 331.356 231.686 331.494 232.208 331.873C232.404 332 232.734 331.747 232.666 332.976C230.831 332.976 229.059 334.137 227.2 335.113C225.472 332.264 223.418 333.689 221.559 331.873C221.383 331.678 221.165 331.873 220.946 331.873C219.807 332.069 218.649 332.333 217.554 330.908C217.379 330.713 217.16 330.644 216.965 330.713C215.87 331.035 214.822 330.391 213.751 329.932C212.899 329.61 212 329.736 211.128 329.736C210.953 329.736 210.626 329.415 210.538 330.449C211.633 331.747 212.748 332.39 213.883 332.655C214.082 332.655 214.364 332.459 214.472 332.781C215.237 334.849 216.288 334.01 217.096 334.987C217.335 335.894 217.554 336.664 217.665 337.055C218.147 337.181 218.43 337.055 218.672 337.319C219.548 338.158 220.376 338.353 221.208 337.055C221.316 336.859 221.471 336.607 221.579 336.733C222.956 337.641 224.421 336.469 225.779 338.158C226.392 338.87 227.025 339.709 227.725 338.87C227.901 338.675 228.12 338.87 228.315 338.87C229.716 339.192 231.137 339.835 232.535 339.709C233.805 339.582 235.095 339.973 236.341 338.927C236.452 338.801 236.604 338.996 236.779 339.054C237.281 339.835 237.83 340.605 238.308 341.386C239.881 340.03 241.369 339.18 242.966 340.283C243.73 340.8 244.562 340.283 245.371 340.214C245.633 340.214 245.94 339.628 246.159 339.892C247.055 340.926 247.886 340.019 248.739 339.502C249.395 339.111 250.072 339.054 250.749 338.985C251.187 338.985 251.537 339.502 251.8 340.536C251.952 341.179 252.063 341.891 252.194 342.477C252.433 342.742 252.632 343.121 252.807 343.121C253.791 343.121 254.447 344.476 254.929 346.935C254.996 347.257 255.148 347.326 255.367 347.716C255.805 347.59 256.35 347.073 256.852 347.326C258.536 348.164 260.197 347.326 261.86 346.613C261.972 346.613 262.056 346.165 262.167 345.97C262.056 345.384 261.928 344.741 261.796 344.097C261.992 343.707 262.147 343.19 262.322 343.132C262.716 343.006 263.13 343.006 263.524 343.259C264.902 344.097 266.236 345.396 267.68 344.683C267.923 344.557 268.206 344.81 268.469 345.131C268.927 345.648 269.364 345.775 269.846 345.717C270.371 345.591 270.917 345.717 271.466 345.717C272.8 345.844 274.157 346.039 275.511 346.165C276.868 349.6 278.509 350.244 280.213 350.117C280.364 350.117 280.651 350.117 280.54 349.083C279.469 346.82 277.98 348.049 276.757 345.269C278.441 344.821 279.906 345.269 281.371 345.66C281.435 345.66 281.503 345.66 281.567 345.786C282.18 346.82 282.857 346.625 283.534 346.694C284.605 346.763 285.676 346.763 286.703 348.118C287.447 349.095 288.124 348.831 288.801 347.475C289.064 346.958 289.414 346.694 289.741 346.567C290.199 346.441 290.681 346.567 291.162 346.567C291.883 346.567 292.452 347.406 292.89 349.152C292.957 349.405 293.129 349.348 293.261 349.474C293.587 348.831 293.894 348.118 294.113 347.728C295.251 347.463 296.278 346.82 297.262 347.211C298.289 347.67 299.296 349.152 300.3 350.129C300.387 350.198 300.519 349.865 300.626 349.681C300.802 348.9 300.212 347.739 300.626 347.291C301.698 347.291 302.637 347.418 303.58 347.418C303.712 347.418 303.843 346.774 303.907 346.579C303.84 344.901 302.967 345.418 303.099 343.213C304.325 344.316 305.503 345.545 306.793 345.671C308.063 345.798 309.309 346.705 310.643 345.993C310.555 345.281 310.468 344.637 310.36 343.982C311.455 342.879 312.546 342.558 313.573 344.373C314.843 342.753 316.066 342.558 317.355 343.592C318.602 344.568 319.871 344.89 321.094 343.006C321.377 342.546 321.619 341.834 321.946 341.133C321.727 340.295 321.596 339.513 321.401 339.192C321.326 339.065 321.252 338.95 321.175 338.835C326.816 340.455 331.99 330.862 333.596 330.253C335.445 329.553 338.732 321.844 339.942 316.938C341.147 312.032 340.585 302.221 342.141 281.886C342.899 272.006 342.356 261.953 341.622 252.142C340.844 241.768 339.854 231.669 339.948 222.306C340.133 204.085 340.174 206.888 339.968 191.459C339.763 176.029 341.201 112.244 342.845 91.2201C343.596 81.604 344.003 71.1264 344 61.4759L343.993 61.4874ZM267.293 2.63091C266.879 3.27427 266.704 3.79126 266.572 3.66489C265.457 3.07896 264.343 4.64142 263.228 3.66489C263.204 3.66489 263.204 3.3432 263.16 2.63091H267.293ZM257.583 2.36667C258.765 2.4356 259.944 2.56197 261.126 2.75728C261.214 2.75728 261.301 3.20534 261.564 3.91764C259.991 3.6534 258.698 3.40065 257.32 3.20534C257.452 2.75728 257.516 2.36667 257.583 2.36667ZM16.4387 89.4278H16.3074V88.9109C16.3511 88.9109 16.4387 88.9109 16.4387 88.9798V89.4278ZM16.7014 94.4714H16.6778C16.6778 94.4714 16.6846 94.4369 16.6879 94.4139C16.6711 94.3105 16.6341 94.0922 16.6341 93.9544C16.6341 93.828 16.698 93.6901 16.7216 93.5063C16.7216 93.7016 16.7654 93.828 16.7856 94.0233C16.7452 94.1382 16.7216 94.2646 16.6879 94.4254C16.6947 94.4599 16.698 94.4829 16.698 94.4829L16.7014 94.4714ZM26.5024 323.475H25.7816C26.1521 322.694 26.1959 322.694 26.5024 323.475ZM23.3533 321.729C23.3533 321.534 23.3971 321.407 23.4846 320.752C23.7473 320.948 23.9427 321.017 24.1178 321.212C24.4243 321.534 24.5557 322.372 24.4243 322.889C24.229 323.602 23.9663 323.475 23.7238 323.349C23.4173 323.222 23.2859 322.568 23.3533 321.729ZM20.7498 329.3V329.231C20.7498 329.231 20.5544 329.3 20.4669 329.357C20.5544 329.036 20.5982 328.519 20.7936 328.909C20.7936 328.909 20.7734 329.231 20.7498 329.3ZM20.4231 322.303C20.4669 321.591 20.5107 320.879 20.5544 320.293C20.7734 320.166 20.9047 319.971 21.0125 320.04C21.5143 320.431 21.996 320.879 22.5449 321.396C22.033 322.177 21.3291 322.476 20.4231 322.303ZM26.3912 332.907V332.838C26.2161 332.838 26.1723 332.586 26.2835 332.252C26.3037 332.184 26.4148 332.184 26.4586 332.252C26.5024 332.252 26.5226 332.517 26.5462 332.643C26.5024 332.712 26.4384 332.907 26.3946 332.907H26.3912ZM28.4255 329.162C28.4255 329.162 28.439 329.162 28.4457 329.162H28.4222C26.6573 329.036 24.9598 328.84 23.259 328.645C23.2152 328.645 23.1714 328.381 23.0838 328.059C23.1478 326.439 23.4543 325.21 24.0471 325.084C24.6601 324.957 25.2293 324.693 25.7075 323.533C25.7715 324.118 25.7951 324.888 26.1016 324.831C26.3407 324.831 26.4956 324.245 26.5159 323.533C27.5229 324.957 28.6141 325.279 29.6885 325.865C29.2507 326.968 28.8364 328.059 28.4222 329.162H28.4255ZM30.3285 325.934L30.3049 325.865H29.8031C29.9344 325.612 30.086 325.279 30.2409 325.084C30.3925 324.888 30.5036 325.152 30.48 325.669C30.48 325.796 30.3723 325.922 30.3285 325.922V325.934ZM30.7865 315.387C31.9013 313.836 32.9084 314.996 34.3735 315.651C32.8646 316.754 31.8138 315.973 30.7865 315.387ZM90.4175 301.601C90.4175 301.601 90.2424 301.336 90.111 301.21C90.2626 301.21 90.3737 301.084 90.5051 301.084C90.5691 301.084 90.6129 301.21 90.6802 301.279C90.5927 301.405 90.5051 301.601 90.4175 301.601ZM95.1429 300.371L95.1193 300.245C95.1193 300.245 94.8566 300.44 94.7488 300.371C94.5535 300.245 94.3783 299.981 94.1156 299.728C93.7654 300.05 93.3275 300.371 92.9132 300.762C93.0244 300.119 93.1322 299.464 93.2635 298.82H95.3854C95.2742 299.533 95.254 300.05 95.1462 300.371H95.1429ZM105.267 301.532V301.463C105.092 301.532 104.897 301.785 104.698 301.716C104.24 301.52 103.822 301.451 103.364 302.164C102.357 303.715 101.31 303.588 100.39 301.325C100.107 300.613 99.7773 300.682 99.4506 300.682C99.2755 300.682 99.1239 300.417 98.7062 300.038C99.9322 298.878 100.916 298.028 101.963 297.832C102.202 298.223 102.445 298.545 102.684 298.935C103.186 299.326 103.384 297.258 103.93 297.706C104.368 298.028 104.85 297.775 105.264 297.775C105.496 299.027 105.496 300.279 105.264 301.532H105.267ZM145.923 297.453V297.522C146.142 297.132 146.448 297.396 146.492 298.683C145.946 299.464 145.485 300.946 144.458 300.498C145.071 299.2 145.485 298.234 145.923 297.453ZM131.467 307.092C131.642 307.092 138.553 307.092 138.816 307.023C138.621 307.862 131.686 307.471 131.467 307.092ZM140.325 307.805H140.301V307.793C140.197 307.724 140.096 307.609 139.971 307.483C139.992 307.357 140.035 307.092 140.035 307.161C140.147 307.161 140.254 307.356 140.362 307.425C140.342 307.54 140.305 307.759 140.298 307.793C140.305 307.793 140.312 307.805 140.318 307.805H140.325ZM138.466 295.064L138.489 295.133C138.163 295.328 131.076 295.259 130.77 295.006C129.699 294.294 128.648 294.099 127.577 294.558C127.469 294.558 127.358 294.236 127.163 293.972C127.294 293.26 127.382 292.479 127.557 291.962C127.712 291.514 127.884 291.18 128.059 290.801L140.83 293.455C140.042 294.041 139.257 294.616 138.469 295.075L138.466 295.064ZM142.73 294.282H142.753C142.753 294.282 142.622 294.351 142.534 294.409C141.945 294.73 141.376 294.535 140.85 293.432L142.73 294.271V294.282ZM149.072 310.792L149.095 310.861C147.368 309.827 145.707 309.631 144.023 309.758C143.41 309.758 142.821 310.01 142.208 309.758C141.925 309.689 141.551 309.172 141.575 307.621C142.252 306.782 142.952 306.782 143.673 306.908C144.262 307.035 144.875 306.908 145.468 306.782C145.993 306.587 146.519 306.001 147.041 305.817C147.566 305.622 148.112 305.817 148.745 305.817C149.796 307.885 151.019 308.54 152.332 308.471C151.173 308.862 150.059 309.31 149.075 310.803L149.072 310.792ZM158.169 311.171C157.842 311.044 157.448 310.918 157.074 310.78C156.943 309.804 157.162 309.677 157.357 309.62C157.62 309.551 157.903 309.424 158.145 309.62C158.388 309.815 158.408 310.401 158.169 311.171ZM160.004 311.24C160.159 310.723 160.203 311.113 160.267 311.366C160.18 311.366 160.092 311.297 160.004 311.24ZM162.608 313.25V313.319C162.608 313.319 162.456 312.733 162.369 312.412C162.369 312.412 162.433 312.147 162.477 312.021C162.588 312.216 162.695 312.411 162.803 312.607C162.736 312.802 162.672 313.055 162.608 313.25ZM160.18 303.025L160.156 302.899C159.041 303.025 157.903 301.934 156.788 301.405C156.394 301.21 156 300.819 155.606 300.888C155.016 301.015 154.467 301.336 153.834 301.015C153.289 300.693 152.696 301.21 152.083 300.693C151.601 300.245 151.012 300.429 150.486 300.693C149.59 301.141 148.735 300.762 147.883 300.302C147.6 299.142 147.688 298.108 148.014 296.81H148.385L149.436 297.258C150.136 298.292 150.857 298.935 151.621 299.073C152.079 299.073 152.561 299.004 153.023 298.878L162.82 303.152C161.944 302.956 161.049 302.887 160.173 303.025H160.18ZM166.39 14.8663H166.367C166.562 13.7634 166.956 13.6371 167.242 14.3494C167.286 14.4757 167.31 14.671 167.353 14.8663H166.39ZM229.702 9.94919H229.726H229.719L229.834 10.0756H229.682L229.719 9.96068H229.702V9.94919ZM228.17 9.23689V9.30583L228.106 9.62751L228.062 9.23689H228.17ZM231.427 326.255H231.403C230.09 325.807 228.78 325.221 227.291 323.406C228.429 320.683 229.389 322.108 230.396 322.499C230.811 323.406 231.228 324.371 231.642 325.348C231.555 325.738 231.467 326.324 231.424 326.255H231.427ZM233.623 9.5356L233.636 9.54709H233.613C233.613 9.54709 233.616 9.54709 233.619 9.5356C233.582 9.50113 233.424 9.34029 233.33 9.2254C233.353 9.09903 233.397 8.77735 233.397 8.77735C233.505 8.84628 233.593 8.97265 233.704 9.09903C233.683 9.27136 233.646 9.50113 233.623 9.5356ZM235.058 333.436H235.081C234.755 333.505 234.424 333.367 234.162 332.597C234.445 331.816 234.775 332.149 235.058 332.275C235.125 332.275 235.165 332.792 235.209 333.114C235.209 333.183 235.122 333.436 235.058 333.436ZM234.664 3.27427L234.687 3.3432H231.474C231.191 3.3432 230.992 2.95259 230.841 2.30922C232.37 2.37816 233.879 2.57346 235.391 1.7233C235.873 1.45906 236.331 1.7233 236.769 2.11392C237.206 2.50453 237.688 0.884628 238.126 2.50453C237.971 2.76877 237.843 3.28576 237.688 3.28576C236.681 3.35469 235.677 3.28576 234.67 3.28576L234.664 3.27427ZM236.634 333.378C236.482 332.471 236.678 332.08 236.853 332.08C237.442 332.08 238.035 332.206 238.624 332.344C239.194 332.471 239.763 332.666 240.44 333.7C239.042 334.929 237.816 333.964 236.634 333.378ZM237.988 9.68495C237.988 9.68495 237.92 9.42071 237.856 9.16796C238.533 7.74337 239.365 8.32929 240.11 8.00761C240.787 7.68592 241.511 8.5246 242.208 8.84628C240.763 9.29434 239.386 9.94919 237.988 9.68495ZM244.134 9.04159H244.114L243.983 8.84628L244.134 8.7199V9.04159ZM250.278 9.94919H250.254C250.254 9.94919 250.254 9.94919 250.258 9.94919C248.732 9.82282 247.21 9.62751 245.64 9.50113C245.704 8.14547 245.99 8.46715 246.186 8.39822C246.644 8.39822 247.125 8.5246 247.583 8.39822C248.041 8.27184 248.503 7.95016 249.028 7.68592C249.51 8.27184 250.055 8.91521 250.601 9.55858C250.493 9.68495 250.362 9.9377 250.254 9.94919C250.261 9.94919 250.268 9.94919 250.271 9.94919H250.278ZM253.252 339.846C254.521 338.893 255.431 338.985 255.987 340.111C255.518 341.145 254.609 341.064 253.252 339.846ZM258.415 341.018C258.415 341.018 258.327 340.501 258.307 340.18C258.307 340.111 258.439 339.858 258.459 339.915C258.546 340.111 258.634 340.375 258.698 340.559C258.61 340.685 258.503 340.88 258.415 341.007V341.018ZM259.813 341.076V340.685L259.968 340.88L259.813 341.076ZM266.704 340.823C266.07 340.559 265.434 340.18 264.45 339.663C265.006 338.801 265.885 338.537 267.098 338.881C267.142 339.846 266.946 340.892 266.704 340.823ZM269.678 339.915H269.701C269.701 339.915 269.614 339.329 269.57 339.077C269.725 338.95 269.897 338.755 270.051 338.755C270.115 338.755 270.159 339.341 270.227 339.789C270.031 339.858 269.856 339.984 269.681 339.915H269.678ZM277.593 340.49C277.505 340.685 277.394 341.133 277.31 341.133C275.43 341.65 273.571 341.397 271.756 339.778C271.712 339.778 271.688 339.513 271.648 339.387C271.712 339.065 271.779 338.548 271.843 338.479C272.433 338.353 273.046 338.284 273.635 338.284C273.83 338.284 274.029 338.548 274.224 338.606C275.232 339.054 276.171 338.41 277.003 336.79C277.461 337.824 277.66 338.927 277.593 340.478V340.49ZM283.608 32.0189V31.95C283.608 31.95 283.5 31.8236 283.456 31.7547C283.48 31.6283 283.5 31.4905 283.524 31.433C283.588 31.433 283.655 31.3641 283.699 31.433C283.83 31.6972 283.786 31.95 283.611 32.0189H283.608ZM299.66 341.145L299.683 341.214C299.401 341.731 299.114 342.179 298.808 342.638C298.676 343.419 298.545 343.672 298.393 342.638C297.912 341.926 297.386 341.673 296.841 341.731C295.419 341.857 294.042 341.34 292.708 339.984C291.156 338.491 289.539 339.146 287.963 338.629C287.218 339.341 286.541 338.95 285.821 338.112C285.494 337.721 285.1 337.916 284.726 337.847C284.878 337.583 285.033 337.204 285.208 337.135C286.541 336.94 287.875 336.492 289.189 337.526C289.559 337.847 289.977 338.043 290.371 337.974C291.422 337.71 292.449 337.193 293.52 337.974C294.547 338.617 295.642 338.617 296.693 338.686C297.413 338.686 298.158 338.422 298.99 338.227C299.232 338.812 299.559 339.525 299.865 340.237C299.778 340.628 299.754 341.018 299.667 341.145H299.66ZM304.163 339.915L304.008 339.72V339.651L304.163 339.456V339.904V339.915ZM308.538 344.706V344.58C307.949 343.994 307.248 343.282 306.571 342.569C306.265 342.248 306.046 341.145 306.201 340.949C306.419 340.628 306.682 340.501 306.921 340.432C307.032 340.432 307.228 340.501 307.292 340.754C307.905 343.017 308.78 342.96 309.633 343.339C309.808 343.408 309.959 343.661 310.134 343.925C309.633 344.189 309.127 344.384 308.538 344.706ZM326.055 20.3005C326.23 20.3005 326.294 20.5647 326.186 21.0128C326.163 21.1392 326.055 21.1392 326.011 21.0817C325.856 20.8864 325.705 20.6337 325.573 20.4383C325.728 20.4383 325.9 20.312 326.055 20.312V20.3005ZM331.828 268.387C331.676 266.319 331.545 264.894 331.828 263.401C332.572 264.504 332.592 265.859 331.828 268.387Z" fill="white"/>
</svg>
