<svg width="1022" height="309" viewBox="0 0 1022 309" fill="none" xmlns="http://www.w3.org/2000/svg">
<path d="M1021.36 53.54C1021.35 43.57 1019.61 34.63 1015.81 29.24C1012.85 28.05 1009.48 27.11 1006.56 26.57C1004.37 26.61 1001.9 26.86 999.23 27.32C998.65 28.05 998.05 28.8 997.51 29.46C995.37 29.85 993.61 29.91 991.93 29.18C991.83 29.14 991.74 29.08 991.66 29.02C991.38 28.78 991.18 28.4 990.82 28C991.79 27.44 992.64 26.99 993.61 26.42C992.83 25.69 991.92 25.07 991.4 24.22C990.88 23.32 990.75 22.3 990.49 21.4C982.31 18.08 974.39 16.22 964.97 15.48C963.67 15.37 962.24 14.8 961.07 15.87C961.72 16.83 962.82 16.6 963.73 16.66C964.7 16.72 965.55 17 966.26 17.56C960.29 17.56 954.51 16.26 948.6 15.87C947.43 15.76 946.2 15.76 945.03 15.53C944.31 15.36 943.28 15.02 943.02 14.57C942.11 12.77 940.29 12.65 938.54 12.43C935.75 12.09 932.96 11.98 930.23 11.7C926.07 11.25 921.92 10.57 917.76 10.35C909.77 9.90002 901.79 9.56002 893.8 9.34002C885.62 9.11002 877.44 9.40002 869.26 9.23002C865.88 9.17002 862.31 8.84002 859.13 9.46002C855.62 10.19 852.44 9.07002 849.07 9.23002C848.49 9.23002 847.9 9.34002 847.25 9.29002C844.07 9.18002 840.89 9.06002 837.71 8.95002C829.72 8.78002 821.74 8.56002 813.75 8.50002C808.36 8.50002 802.97 8.95002 797.58 8.95002C781.61 8.95002 765.57 8.89002 749.6 8.78002C747.85 8.78002 746.16 8.44002 744.41 8.22002C745.19 7.32002 746.42 6.87002 747.46 7.15002C749.99 7.77002 752.66 7.32002 755.12 8.16002C755.77 8.39002 756.81 8.39002 757.39 8.10002C759.08 7.31002 760.83 7.42002 762.65 7.54002C766.61 7.77002 770.64 7.43002 774.6 8.16002C775.18 8.27002 775.77 8.16002 776.42 8.10002C779.8 7.99002 783.17 7.82002 786.48 7.71002C789.08 7.60002 791.67 7.71002 794.21 7.32002C797.33 6.93002 800.38 5.80002 803.62 6.87002C806.8 6.02002 809.98 6.76002 813.16 6.76002C813.55 6.76002 813.94 6.65002 814.33 6.65002C823.1 6.54002 831.86 6.42002 840.63 6.26002C844.01 6.26002 847.38 6.15002 850.82 5.98002C851.21 5.98002 851.53 5.30002 851.99 4.85002C849.52 3.16002 846.73 2.99002 843.94 2.93002C834.72 2.82002 825.56 2.70002 816.35 2.65002C814.53 2.65002 812.71 2.54002 810.96 2.82002C807.19 3.38002 803.43 2.93002 799.66 2.82002C799.08 2.82002 798.17 2.99002 797.97 1.92002C801.8 1.69002 805.63 2.20002 809.33 1.19002C809.85 1.08002 810.56 1.19002 811.08 1.36002C815.5 2.43002 819.78 1.87002 824.2 0.97002C826.8 1.87002 829.46 2.15002 832.32 1.48002C833.62 1.20002 835.05 1.48002 836.47 1.37002C836.6 1.37002 836.67 0.86002 836.8 0.64002C836.47 0.53002 836.09 0.25002 835.76 0.25002C832.05 0.17002 828.35 0.0800195 824.64 0.0200195H815.18C811.26 0.0900195 807.35 0.27002 803.43 0.64002C801.68 0.81002 799.86 0.87002 798.04 0.87002C790.05 0.87002 782.07 0.64002 774.02 0.87002C766.42 1.04002 758.83 0.76002 751.23 0.42002C741.82 0.0300195 732.46 0.14002 723.05 0.0800195C721.69 0.0800195 720.32 0.25002 719.22 0.93002C720.45 1.21002 721.62 1.66002 723.05 1.72002C728.83 1.89002 734.61 2.23002 740.39 1.89002C740.52 1.89002 740.71 2.06002 740.91 2.17002C740.72 2.34002 740.59 2.73002 740.39 2.73002C732.99 2.84002 725.59 2.90002 718.25 2.96002C715.91 2.96002 713.58 2.73002 711.11 2.57002C712.02 1.11002 713.38 2.01002 714.42 1.72002C715.46 1.38002 716.63 1.21002 717.67 0.99002C716.18 -0.0799805 714.36 0.0900195 712.61 0.14002C704.04 0.14002 695.47 0.25002 686.9 0.31002C685.99 0.31002 685.08 0.70002 684.17 0.99002H676.44C676.24 0.99002 675.98 0.99002 675.85 1.16002C675.72 1.27002 675.72 1.44002 675.66 1.50002C676.05 1.89002 676.63 2.35002 676.57 2.68002C676.57 3.07002 675.92 3.58002 675.47 3.69002C674.3 3.92002 673.13 4.03002 671.9 4.08002C669.89 4.14002 667.87 4.08002 665.93 4.25002C656.97 4.81002 648.01 5.43002 639.05 5.66002C637.1 5.66002 635.09 5.55002 633.14 5.66002C629.57 5.77002 626 6.11002 622.43 6.17002C615.22 6.17002 608.01 6.17002 600.81 6.11002C595.62 6.11002 590.42 6.05002 585.16 6.11002C583.15 6.11002 581.2 6.39002 579.19 6.62002C578.8 6.62002 578.54 7.30002 578.02 7.97002C579.77 8.14002 581.14 8.42002 582.5 8.48002C590.49 8.59002 598.54 8.93002 606.52 8.71002C614.7 8.48002 622.95 8.48002 631.13 8.88002C633.53 8.99002 635.87 9.05002 638.27 8.77002C641.58 8.38002 645.02 8.15002 648.4 8.26002C653.98 8.43002 659.57 8.54002 665.15 8.26002C667.36 8.15002 669.56 8.26002 671.77 8.37002C672.09 8.37002 672.48 8.65002 673.33 8.99002C670.93 9.22002 668.92 9.72002 667.03 9.55002C663.13 9.21002 659.5 10.45 655.73 10.51C654.04 10.51 652.42 11.47 650.53 11.02C648.84 10.63 647.02 11.53 645.21 10.74C644.56 10.46 643.59 10.57 642.87 10.74C641.51 11.13 640.14 11.02 638.71 10.97C636.76 10.86 634.68 10.58 632.74 10.86C628 11.54 623.13 10.92 618.39 11.48C616.44 11.71 614.36 11.48 612.42 11.48C610.21 11.48 608 11.31 605.8 11.37C603.59 11.43 601.45 11.82 599.24 11.82C596.9 11.82 594.5 11.43 592.16 11.43C587.16 11.37 582.16 11.6 577.16 11.43C569.95 11.15 562.75 11.6 555.54 10.98C553.79 10.81 551.97 11.15 550.15 11.09C546.77 10.98 543.46 10.64 540.09 10.64C525.87 10.47 511.65 10.41 497.43 10.41C494.25 10.41 491.07 10.8 487.89 11.03C487.7 11.03 487.44 11.54 487.31 11.82C487.31 11.93 487.44 12.16 487.57 12.27C488.09 12.83 489.39 12.27 489.71 13.28H482.96C482.89 13.28 482.83 13.05 482.7 12.94C483.02 12.55 483.54 11.98 482.77 11.7C482.12 11.42 481.28 11.36 480.5 11.42C475.89 11.53 471.28 11.65 466.73 11.03C462.32 10.41 457.96 10.47 453.55 10.75C450.37 10.98 447.25 10.92 444.07 10.75C440.69 10.58 437.19 10.41 433.88 10.86C430.44 11.31 427.19 11.54 423.81 10.8C423.1 10.63 422.25 10.86 421.41 10.91C420.44 10.91 419.46 10.97 418.49 10.91C416.67 10.8 414.92 10.57 413.1 10.57C395.31 10.63 377.45 10.29 359.66 11.3C355.89 11.53 352.06 11.36 348.3 11.47C342.72 11.58 337.07 11.98 331.48 11.75C325.83 11.58 320.38 12.54 314.73 12.43C309.92 12.32 305.12 12.66 300.31 12.66C286.09 12.66 271.87 12.55 257.65 12.49C251.87 12.49 246.03 12.49 240.25 12.21C230.71 11.76 221.1 11.31 211.55 10.46C205.97 9.95002 200.38 9.90002 194.8 9.45002C183.83 8.55002 172.79 9.06002 161.82 8.83002C161.24 8.83002 160.65 8.94002 160 8.94002C152.99 9.17002 145.98 9.45002 138.96 9.50002C132.14 9.56002 125.39 9.27002 118.57 9.27002C116.82 9.27002 114.93 9.04002 113.57 10.4C112.53 13.61 113.25 16.54 114.93 19.47C115.71 20.82 117.07 22.01 116.81 23.81C116.29 23.98 115.77 24.26 115.19 24.32C105.19 24.94 95.19 25.05 85.19 25C78.96 24.94 72.79 25 66.55 25C65.12 25 63.82 25.23 62.46 25.68C56.36 27.76 51.03 30.81 45.71 35.54C45.65 37.23 45.58 38.98 45.39 40.72C45.39 41.4 45.26 42.13 44.94 42.69C43.51 45.45 43.45 48.32 43.51 51.25C43.51 52.09 43.7 53 44.09 53.79C46.3 58.07 47.73 62.58 48.51 67.2C48.77 68.89 48.9 70.64 49.16 73.28C45.85 67.53 43.97 62.07 37.99 58.86C36.69 53.96 32.86 51.31 27.15 50.47C25.4 50.81 23.97 51.65 22.48 52.61C20.92 53.62 18.97 54.13 17.09 54.86C16.57 57 15.92 58.86 14.23 60.49C13 61.73 12.67 63.64 12.02 65.28C11.24 67.25 10.72 69.28 9.81002 71.2C7.34002 76.21 7.41002 81.34 8.32002 86.58C9.03002 90.52 9.62002 94.58 11.11 98.3C12.73 102.3 12.93 106.47 14.16 110.47C14.55 111.82 15.07 113.12 15.59 114.47C16.37 116.61 17.47 118.7 17.8 121.06C16.5 123.54 15.92 126.3 13.71 128.5C12.87 129.35 12.48 130.64 12.02 131.82C11.18 133.96 10.59 136.16 9.75002 138.3C6.11002 147.54 6.89002 145.17 8.71002 155.09C9.68002 160.56 4.51002 177.29 4.38002 181.01C4.38002 182.19 4.57002 183.43 4.77002 184.61C5.29002 187.54 0.130019 190.41 0.390019 193.34C0.650019 196.66 -0.639981 199.87 0.470019 203.03C1.12002 205.06 1.90002 207.03 2.68002 209C5.67002 217.28 8.98002 225.45 13.78 233.11C16.9 238.07 20.53 242.58 26.9 244.77C27.29 244.88 27.61 245.11 27.94 245.28C29.89 246.29 32.03 246.69 34.24 246.91C37.49 247.25 40.6 246.57 43.52 245.67C44.43 246.06 45.14 246.35 45.79 246.68C45.92 246.74 45.92 246.96 45.98 247.19C45.79 247.58 45.59 248.03 45.33 248.49C42.34 248.38 39.36 248.1 36.24 249.17C36.11 250.41 35.92 251.76 35.72 253.06C35.14 253.34 34.55 253.51 34.16 253.9C33.19 254.74 32.34 255.7 31.3 256.66C31.62 257.73 31.95 258.91 32.27 259.98C33.31 259.92 34.09 259.87 34.8 259.81C36.03 261.16 36.16 263.25 38.63 263.41C39.54 263.19 39.67 261.78 41.1 262.28C41.29 263.24 41.42 264.2 41.62 264.99C42.72 265.95 43.76 264.99 44.74 265.27C45.32 266.68 45.58 268.37 48.05 268.88C50.65 268.77 53.63 267.64 56.56 268.77C57.01 269.5 57.47 270.24 57.92 270.91C58.37 270.74 58.83 270.69 59.15 270.52C62.14 268.94 65.25 268.94 68.31 270.35C69.41 270.86 70.52 270.97 71.75 271.08C73.57 271.25 75.32 271.53 77.07 271.87C77.46 271.93 77.91 272.6 77.98 273C78.11 273.56 76.94 274.29 76.29 274.18C75.9 274.18 75.45 274.18 75.12 274.01C74.02 273.62 72.98 273.11 71.87 272.71C70.77 272.32 69.6 272.2 68.49 272.82C68.56 274 71.35 273.72 70.37 275.52C66.08 275.69 61.73 275.86 56.99 276.03C56.8 275.97 56.28 275.69 55.69 275.52C55.17 275.35 54.52 275.18 54 275.24C53.68 275.24 53.48 275.86 53.09 276.37C55.23 276.99 57.12 277.55 58.93 278.12C58.61 279.42 58.41 279.75 57.76 279.64C56.2 279.41 54.71 279.08 52.7 278.68C50.69 279.41 48.35 280.31 46.21 281.16C45.65 282.89 45.65 285.18 46.21 288.03C48.22 289.44 50.56 289.5 52.96 288.99C55.62 288.43 58.28 287.64 60.95 286.96C60.95 287.3 61.08 287.64 61.14 287.97C61.92 288.08 62.63 288.19 63.41 288.31C63.6 289.27 63.73 287.06 63.86 288.01C66.59 288.29 69.44 288.12 71.65 289.87C71.59 290.71 70.87 291.11 70.09 291.17C69.12 291.28 68.14 291.17 67.1 291.17C65.22 289.82 64.05 289.71 62.62 290.89C61.32 291.9 60.8 293.14 61.06 294.61C61.25 295.51 62.03 296.07 62.88 296.24C66.06 295.79 68.98 295.28 71.91 295.06C73.01 294.95 74.31 295.06 75.03 296.13C75.29 298.15 73.37 298.71 72 299.61C72.01 299.61 72.03 299.61 72.04 299.63H71.98C71.98 299.63 72 299.62 72.01 299.61C68.58 298.11 65.35 298.28 62.51 300.58C63.94 300.58 65.43 300.52 66.86 300.52C67.77 300.52 68.16 300.97 68.29 301.65C68.61 301.65 69 301.71 69.26 301.82C69.58 301.93 69.78 302.21 70.04 302.38C69.78 302.55 69.59 302.83 69.26 302.89C68.94 302.89 68.61 302.83 68.29 302.78C67.71 303.79 67.45 304.81 68.03 305.93C67.64 306.27 67.19 306.61 66.8 306.94C66.09 307.62 65.7 308.35 66.8 309.02H68.35C69.58 308.86 70.52 308.25 71.09 306.99C75.44 306.88 79.79 306.99 83.82 305.41C84.34 305.18 84.99 305.18 85.57 305.18C89.14 305.18 92.39 303.26 96.09 303.83C96.54 303.89 97.13 303.38 97.71 303.27C101.83 302.32 105.82 300.88 110.19 300.69C110.19 300.69 110.18 300.69 110.17 300.69C110.19 300.69 110.21 300.69 110.23 300.69C110.23 300.69 110.24 300.69 110.25 300.69H110.24H110.31C110.31 300.69 110.28 300.69 110.26 300.69C110.26 300.69 110.26 300.69 110.27 300.69C110.32 300.69 110.37 300.69 110.42 300.7C110.4 300.7 110.39 300.7 110.37 300.68C112.38 299.78 114.4 298.65 117.19 298.93C116.54 300.68 113.94 301.35 114.46 303.32C114.91 303.38 115.3 303.6 115.69 303.55C118.22 302.99 120.76 302.59 123.42 302.93C124.59 303.1 125.89 303.04 126.99 302.7C129.2 301.97 131.21 302.08 133.42 302.59C134.33 302.82 135.37 302.48 136.28 302.36C136.99 301.46 138.29 301.01 138.16 299.77C132.77 297.23 126.8 298.87 121.08 298.14C121.54 297.07 122.64 296.9 123.48 296.67C125.43 296.22 127.37 295.77 129.32 295.66C134.52 295.32 139.71 295.32 144.9 294.98C149.25 294.7 153.66 294.59 157.76 292.9C159.51 292.17 161.59 291.55 163.47 291.55C170.29 291.44 176.13 288.62 182.23 286.7C182.56 286.59 182.75 288.86 182.75 288.35C182.75 288.18 182.23 287.73 181.97 287.73C179.76 287.73 177.56 287.9 175.41 287.9C171.64 287.9 167.81 287.79 164.11 286.83C156.12 286.77 148.14 286.66 140.15 286.61H137.88C138.07 285.26 140.41 285.82 139.96 284.07C138.08 283.51 136.19 282.55 133.92 282.55C130.74 282.55 127.49 281.87 124.38 282.66C122.04 283.28 119.7 283.56 117.3 283.56C116.33 283.56 115.29 283.67 114.38 284.01C109.32 285.87 103.73 285.25 98.47 286.43C97.56 286.66 96.59 286.15 96.26 284.97C98.79 284.07 101.32 283.11 103.86 282.26C106.26 281.42 108.66 280.63 111.2 279.95C113.86 279.27 116.59 278.77 119.64 278.15C120.81 278.43 122.3 278.88 123.8 279.28C125.55 278.66 127.11 277.87 128.87 277.48C130.56 277.08 132.31 276.92 134.06 276.8C136.27 276.63 138.48 276.63 140.62 276.57C141.79 276.57 143.15 276.68 144.13 276.29C146.47 275.33 148.93 276.18 151.14 275.78C153.61 275.33 155.88 275.95 157.83 276.12C160.17 275.61 162.12 275.22 163.87 274.88C164.97 275.61 165.3 276.8 166.79 276.63C168.15 276.52 169.58 276.57 170.95 276.4C175.49 275.89 179.84 274.54 184.52 274.6C185.69 274.6 186.86 274.2 188.03 274.04C189.39 273.87 190.82 273.65 192.19 273.59C195.76 273.42 199.46 273.7 202.97 273.25C209.14 272.41 215.31 272.91 221.47 272.69C226.47 272.52 231.47 272.52 236.47 272.13C239.26 271.9 242.05 271.79 244.85 271.9C248.23 272.01 251.73 272.01 254.98 271.39C259.72 270.49 266.52 270.6 271.27 270.38C272.44 270.32 273.67 270.21 274.58 270.15C276.27 270.71 277.7 271.33 279.19 271.73C280.1 271.96 281.2 271.84 282.18 271.79C289.97 271.56 297.76 271.28 305.56 272.3C307.31 272.52 309.13 272.3 310.95 272.07C315.62 271.45 320.3 270.32 325.1 271.34C326.07 271.51 327.18 271.56 328.09 271.34C330.1 270.72 332.05 271.11 334 271.17C337.57 271.28 341.21 271.45 344.78 271.39C347.77 271.39 350.69 270.43 353.68 270.88C353.94 270.88 354.39 270.26 354.72 269.92C353.29 268.29 350.82 269.02 349.27 267.78C348.56 267.22 347 267.5 345.76 267.33C343.36 267.05 340.96 267.33 338.62 267.72C337.26 267.95 335.83 268.12 334.47 268.17H326.94C329.21 267.44 331.49 267.33 333.69 266.31C334.92 265.75 336.81 266.2 338.37 266.08C339.93 265.97 341.16 264.73 342.91 264.95C345.05 265.18 347.26 265.18 349.47 265.23C353.43 265.4 357.46 264.84 361.29 266.24C362.13 266.58 363.3 266.52 364.28 266.41C368.31 266.01 372.2 266.86 376.1 267.7C373.24 267.98 370.32 267.98 367.4 268.21C364.61 268.44 360.26 269.79 358.89 270.8C361.1 271.93 363.37 272.88 365.71 272.38C367.72 271.93 369.67 272.38 371.62 272.21C373.76 271.98 375.91 272.27 378.05 271.53C380.39 270.74 383.12 270.63 385.65 270.35C386.62 270.24 387.6 270.63 388.18 271.48C388.57 272.04 389.02 272.55 389.41 273C393.5 272.83 417.33 272.61 421.1 272.55C422.66 272.55 424.35 272.55 425.84 273C427.4 273.45 428.96 273.56 430.58 273.51C436.16 273.29 441.75 273.62 447.27 272.61C447.86 272.5 448.5 272.5 449.09 272.55C451.04 272.78 452.99 273.23 455 273.28C456.95 273.28 459.03 272.66 460.91 272.83C465.91 273.39 470.78 272.66 475.84 272.77C476.1 272.26 476.3 271.87 476.56 271.42C477.27 271.59 478.12 271.42 478.57 272.1C478.44 272.44 478.31 272.72 478.18 273.06C479.22 274.3 480.78 274.69 482.4 274.69C485.97 274.69 489.61 274.8 493.18 274.69C496.62 274.52 499.93 274.35 502.98 276.15C503.56 276.49 504.54 276.71 505.25 276.6C508.63 276.09 512.07 276.6 515.44 276.6C518.04 276.6 520.63 276.6 523.17 275.92C524.27 275.58 525.64 275.41 526.68 275.69C529.8 276.48 533.04 276.48 536.22 276.59C539.6 276.65 542.84 277.94 546.29 277.04C546.81 276.93 547.46 277.04 548.04 277.21C550.83 277.94 553.56 277.77 556.35 277.21C557.32 277.04 558.36 276.82 559.27 277.04C564.2 278.17 569.2 277.77 574.07 278.17C575.63 279.07 577.12 279.97 578.29 280.65C580.24 280.82 581.93 280.65 583.42 281.16C586.08 282 588.42 282.34 590.37 280.03C590.57 279.8 591.15 279.64 591.47 279.69C593.55 279.97 594.52 278.17 596.08 277.78C598.81 277.55 600.62 279.24 602.38 279.64C608.87 279.13 614.78 278.29 620.69 279.25C622.51 278.8 624.26 278.01 625.95 278.07C630.3 278.24 634.65 277.84 638.94 278.86C640.95 279.37 643.16 279.99 645.37 278.86C645.83 278.64 646.54 278.75 647.12 278.75H654.91C656.53 278.75 658.22 278.52 659.65 278.92C662.18 279.6 664.78 279.65 667.38 279.82C669 279.93 670.5 280.33 671.54 281.51C671.67 282.19 671.8 282.86 671.99 283.6C673.81 284.33 675.56 285.12 677.45 285.8C679.85 286.64 682.32 287.38 684.79 288.05C686.28 288.44 687.91 288.56 689.46 288.89C690.04 289 691.02 288.78 690.82 289.85C685.37 289.85 680.11 290.86 674.59 291.71C669.46 289.23 663.36 290.47 657.84 288.89C657.32 288.72 656.67 288.89 656.02 288.89C652.64 289.06 649.2 289.29 645.95 288.05C645.43 287.88 644.78 287.82 644.2 287.88C640.95 288.16 637.84 287.6 634.66 287.2C632.13 286.92 629.46 287.03 626.87 287.03C626.35 287.03 625.38 286.75 625.12 287.65C628.37 288.78 631.68 289.34 635.05 289.57C635.64 289.57 636.48 289.4 636.8 289.68C639.07 291.48 642.19 290.75 644.59 291.6C645.3 292.39 645.95 293.06 646.28 293.4C647.71 293.51 648.55 293.4 649.27 293.63C651.87 294.36 654.33 294.53 656.8 293.4C657.12 293.23 657.58 293.01 657.9 293.12C661.99 293.91 666.34 292.89 670.37 294.36C672.19 294.98 674.07 295.71 676.15 294.98C676.67 294.81 677.32 294.98 677.9 294.98C682.06 295.26 686.28 295.82 690.43 295.71C694.2 295.6 698.03 295.94 701.73 295.03C702.06 294.92 702.51 295.09 703.03 295.14C704.52 295.82 706.15 296.49 707.57 297.17C712.24 295.99 716.66 295.25 721.4 296.21C723.67 296.66 726.14 296.21 728.54 296.15C729.32 296.15 730.23 295.64 730.88 295.87C733.54 296.77 736.01 295.98 738.54 295.53C740.49 295.19 742.5 295.14 744.51 295.08C745.81 295.08 746.85 295.53 747.63 296.43C748.08 296.99 748.41 297.61 748.8 298.12C749.51 298.35 750.1 298.68 750.62 298.68C753.54 298.68 755.49 299.86 756.92 302C757.12 302.28 757.57 302.34 758.22 302.68C759.52 302.57 761.14 302.12 762.63 302.34C767.63 303.07 772.56 302.34 777.5 301.72C777.83 301.72 778.08 301.33 778.41 301.16C778.08 300.65 777.7 300.09 777.31 299.53C777.89 299.19 778.35 298.74 778.87 298.69C780.04 298.58 781.27 298.58 782.44 298.8C786.53 299.53 790.49 300.66 794.78 300.04C795.5 299.93 796.34 300.15 797.12 300.43C798.48 300.88 799.78 300.99 801.21 300.94C802.77 300.83 804.39 300.94 806.02 300.94C809.98 301.05 814.01 301.22 818.03 301.33C822.06 304.32 826.93 304.88 831.99 304.77C832.44 304.77 833.29 304.77 832.96 303.87C829.78 301.9 825.36 302.97 821.73 300.55C826.73 300.16 831.08 300.55 835.43 300.89C835.62 300.89 835.82 300.89 836.01 301C837.83 301.9 839.84 301.73 841.85 301.79C845.03 301.85 848.21 301.85 851.26 303.03C853.47 303.88 855.48 303.65 857.49 302.47C858.27 302.02 859.31 301.79 860.28 301.68C861.64 301.57 863.07 301.68 864.5 301.68C866.64 301.68 868.33 302.41 869.63 303.93C869.83 304.15 870.34 304.1 870.73 304.21C871.7 303.65 872.61 303.03 873.26 302.69C876.64 302.46 879.69 301.9 882.61 302.24C885.66 302.64 888.65 303.93 891.63 304.78C891.89 304.84 892.28 304.55 892.6 304.39C893.12 303.71 891.37 302.7 892.6 302.31C895.78 302.31 898.57 302.42 901.37 302.42C901.76 302.42 902.15 301.86 902.34 301.69C902.14 300.23 899.55 300.68 899.94 298.76C903.58 299.72 907.08 300.79 910.91 300.9C914.68 301.01 918.38 301.8 922.34 301.18C922.08 300.56 921.82 300 921.5 299.43C924.75 298.47 927.99 298.19 931.04 299.77C934.81 298.36 938.44 298.19 942.27 299.09C945.97 299.94 949.74 300.22 953.37 298.58C954.21 298.18 954.93 297.56 955.9 296.95C955.25 296.22 954.86 295.54 954.28 295.26C954.06 295.15 953.84 295.05 953.61 294.95C970.36 296.36 985.72 288.01 990.49 287.48C995.98 286.87 1005.74 280.16 1009.33 275.89C1012.91 271.62 1011.24 263.08 1015.86 245.38C1018.11 236.78 1016.5 228.03 1014.32 219.49C1012.01 210.46 1009.07 201.67 1009.35 193.52C1009.9 177.66 1010.02 180.1 1009.41 166.67C1008.8 153.24 1013.07 97.72 1017.95 79.42C1020.18 71.05 1021.39 61.93 1021.38 53.53L1021.36 53.54ZM793.63 2.31002C792.4 2.87002 791.88 3.32002 791.49 3.21002C788.18 2.70002 784.87 4.06002 781.56 3.21002C781.49 3.21002 781.49 2.93002 781.36 2.31002H793.63ZM764.8 2.08002C768.31 2.14002 771.81 2.25002 775.32 2.42002C775.58 2.42002 775.84 2.81002 776.62 3.43002C771.95 3.20002 768.11 2.98002 764.02 2.81002C764.41 2.42002 764.6 2.08002 764.8 2.08002ZM48.82 77.86H48.43V77.41C48.56 77.41 48.82 77.41 48.82 77.47V77.86ZM49.6 82.25H49.53C49.53 82.25 49.55 82.22 49.56 82.2C49.51 82.11 49.4 81.92 49.4 81.8C49.4 81.69 49.59 81.57 49.66 81.41C49.66 81.58 49.79 81.69 49.85 81.86C49.73 81.96 49.66 82.07 49.56 82.21C49.58 82.24 49.59 82.26 49.59 82.26L49.6 82.25ZM78.7 281.58H76.56C77.66 280.9 77.79 280.9 78.7 281.58ZM69.35 280.06C69.35 279.89 69.48 279.78 69.74 279.21C70.52 279.38 71.1 279.44 71.62 279.61C72.53 279.89 72.92 280.62 72.53 281.07C71.95 281.69 71.17 281.58 70.45 281.47C69.54 281.36 69.15 280.79 69.35 280.06ZM61.62 286.65V286.59C61.62 286.59 61.04 286.65 60.78 286.7C61.04 286.42 61.17 285.97 61.75 286.31C61.75 286.31 61.69 286.59 61.62 286.65ZM60.65 280.56C60.78 279.94 60.91 279.32 61.04 278.81C61.69 278.7 62.08 278.53 62.4 278.59C63.89 278.93 65.32 279.32 66.95 279.77C65.43 280.45 63.34 280.71 60.65 280.56ZM78.37 289.79V289.73C77.85 289.73 77.72 289.51 78.05 289.22C78.11 289.16 78.44 289.16 78.57 289.22C78.7 289.22 78.76 289.45 78.83 289.56C78.7 289.62 78.51 289.79 78.38 289.79H78.37ZM84.41 286.53C84.41 286.53 84.45 286.53 84.47 286.53H84.4C79.16 286.42 74.12 286.25 69.07 286.08C68.94 286.08 68.81 285.85 68.55 285.57C68.74 284.16 69.65 283.09 71.41 282.98C73.23 282.87 74.92 282.64 76.34 281.63C76.53 282.14 76.6 282.81 77.51 282.76C78.22 282.76 78.68 282.25 78.74 281.63C81.73 282.87 84.97 283.15 88.16 283.66C86.86 284.62 85.63 285.57 84.4 286.53H84.41ZM90.06 283.72L89.99 283.66H88.5C88.89 283.44 89.34 283.15 89.8 282.98C90.25 282.81 90.58 283.04 90.51 283.49C90.51 283.6 90.19 283.71 90.06 283.71V283.72ZM91.42 274.54C94.73 273.19 97.72 274.2 102.07 274.77C97.59 275.73 94.47 275.05 91.42 274.54ZM268.47 262.54C268.47 262.54 267.95 262.31 267.56 262.2C268.01 262.2 268.34 262.09 268.73 262.09C268.92 262.09 269.05 262.2 269.25 262.26C268.99 262.37 268.73 262.54 268.47 262.54ZM282.5 261.47L282.43 261.36C282.43 261.36 281.65 261.53 281.33 261.47C280.75 261.36 280.23 261.13 279.45 260.91C278.41 261.19 277.11 261.47 275.88 261.81C276.21 261.25 276.53 260.68 276.92 260.12H283.22C282.89 260.74 282.83 261.19 282.51 261.47H282.5ZM312.56 262.48V262.42C312.04 262.48 311.46 262.7 310.87 262.64C309.51 262.47 308.27 262.41 306.91 263.03C303.92 264.38 300.81 264.27 298.08 262.3C297.24 261.68 296.26 261.74 295.29 261.74C294.77 261.74 294.32 261.51 293.08 261.18C296.72 260.17 299.64 259.43 302.75 259.26C303.46 259.6 304.18 259.88 304.89 260.22C306.38 260.56 306.97 258.76 308.59 259.15C309.89 259.43 311.32 259.21 312.55 259.21C313.24 260.3 313.24 261.39 312.55 262.48H312.56ZM433.27 258.93V258.99C433.92 258.65 434.83 258.88 434.96 260C433.34 260.68 431.97 261.97 428.92 261.58C430.74 260.45 431.97 259.61 433.27 258.93ZM390.35 267.32C390.87 267.32 411.39 267.32 412.17 267.26C411.59 267.99 391 267.65 390.35 267.32ZM416.65 267.94H416.58V267.93C416.27 267.87 415.97 267.77 415.6 267.66C415.66 267.55 415.79 267.32 415.79 267.38C416.12 267.38 416.44 267.55 416.76 267.61C416.7 267.71 416.59 267.9 416.57 267.93C416.59 267.93 416.61 267.94 416.63 267.94H416.65ZM411.13 256.85L411.2 256.91C410.23 257.08 389.19 257.02 388.28 256.8C385.1 256.18 381.98 256.01 378.8 256.41C378.48 256.41 378.15 256.13 377.57 255.9C377.96 255.28 378.22 254.6 378.74 254.15C379.2 253.76 379.71 253.47 380.23 253.14L418.15 255.45C415.81 255.96 413.48 256.46 411.14 256.86L411.13 256.85ZM423.79 256.17H423.86C423.86 256.17 423.47 256.23 423.21 256.28C421.46 256.56 419.77 256.39 418.21 255.43L423.79 256.16V256.17ZM442.62 270.54L442.69 270.6C437.56 269.7 432.63 269.53 427.63 269.64C425.81 269.64 424.06 269.86 422.24 269.64C421.4 269.58 420.29 269.13 420.36 267.78C422.37 267.05 424.45 267.05 426.59 267.16C428.34 267.27 430.16 267.16 431.92 267.05C433.48 266.88 435.04 266.37 436.59 266.21C438.15 266.04 439.77 266.21 441.65 266.21C444.77 268.01 448.4 268.58 452.3 268.52C448.86 268.86 445.55 269.25 442.63 270.55L442.62 270.54ZM469.63 270.87C468.66 270.76 467.49 270.65 466.38 270.53C465.99 269.68 466.64 269.57 467.22 269.52C468 269.46 468.84 269.35 469.56 269.52C470.28 269.69 470.34 270.2 469.63 270.87ZM475.08 270.93C475.54 270.48 475.67 270.82 475.86 271.04C475.6 271.04 475.34 270.98 475.08 270.93ZM482.81 272.68V272.74C482.81 272.74 482.36 272.23 482.1 271.95C482.1 271.95 482.29 271.72 482.42 271.61C482.75 271.78 483.07 271.95 483.39 272.12C483.19 272.29 483 272.51 482.81 272.68ZM475.6 263.78L475.53 263.67C472.22 263.78 468.84 262.83 465.53 262.37C464.36 262.2 463.19 261.86 462.02 261.92C460.27 262.03 458.64 262.31 456.76 262.03C455.14 261.75 453.38 262.2 451.56 261.75C450.13 261.36 448.38 261.52 446.82 261.75C444.16 262.14 441.62 261.81 439.09 261.41C438.25 260.4 438.51 259.5 439.48 258.37H440.58L443.7 258.76C445.78 259.66 447.92 260.22 450.19 260.34C451.55 260.34 452.98 260.28 454.35 260.17L483.44 263.89C480.84 263.72 478.18 263.66 475.58 263.78H475.6ZM494.04 12.96H493.97C494.55 12 495.72 11.89 496.57 12.51C496.7 12.62 496.77 12.79 496.9 12.96H494.04ZM682.02 8.68002H682.09H682.07L682.41 8.79002H681.96L682.07 8.69002H682.02V8.68002ZM677.47 8.06002V8.12002L677.28 8.40002L677.15 8.06002H677.47ZM687.14 284H687.07C683.17 283.61 679.28 283.1 674.86 281.52C678.24 279.15 681.09 280.39 684.08 280.73C685.31 281.52 686.55 282.36 687.78 283.21C687.52 283.55 687.26 284.06 687.13 284H687.14ZM693.66 8.32002L693.7 8.33002H693.63C693.63 8.33002 693.64 8.33002 693.65 8.32002C693.54 8.29002 693.07 8.15002 692.79 8.05002C692.86 7.94002 692.99 7.66002 692.99 7.66002C693.31 7.72002 693.57 7.83002 693.9 7.94002C693.84 8.09002 693.73 8.29002 693.66 8.32002ZM697.92 290.25H697.99C697.02 290.31 696.04 290.19 695.26 289.52C696.1 288.84 697.08 289.13 697.92 289.24C698.12 289.24 698.24 289.69 698.37 289.97C698.37 290.03 698.11 290.25 697.92 290.25ZM696.75 2.87002L696.82 2.93002H687.28C686.44 2.93002 685.85 2.59002 685.4 2.03002C689.94 2.09002 694.42 2.26002 698.91 1.52002C700.34 1.29002 701.7 1.52002 703 1.86002C704.3 2.20002 705.73 0.79002 707.03 2.20002C706.57 2.43002 706.19 2.88002 705.73 2.88002C702.74 2.94002 699.76 2.88002 696.77 2.88002L696.75 2.87002ZM702.6 290.2C702.15 289.41 702.73 289.07 703.25 289.07C705 289.07 706.76 289.18 708.51 289.3C710.2 289.41 711.89 289.58 713.9 290.48C709.75 291.55 706.11 290.71 702.6 290.2ZM706.62 8.45002C706.62 8.45002 706.42 8.22002 706.23 8.00002C708.24 6.76002 710.71 7.27002 712.92 6.99002C714.93 6.71002 717.08 7.44002 719.15 7.72002C714.86 8.11002 710.77 8.68002 706.62 8.45002ZM724.87 7.89002H724.81L724.42 7.72002L724.87 7.61002V7.89002ZM743.11 8.68002H743.04C743.04 8.68002 743.04 8.68002 743.05 8.68002C738.52 8.57002 734 8.40002 729.34 8.29002C729.53 7.11002 730.38 7.39002 730.96 7.33002C732.32 7.33002 733.75 7.44002 735.11 7.33002C736.47 7.22002 737.84 6.94002 739.4 6.71002C740.83 7.22002 742.45 7.78002 744.07 8.34002C743.75 8.45002 743.36 8.67002 743.04 8.68002C743.06 8.68002 743.08 8.68002 743.09 8.68002H743.11ZM751.94 295.83C755.71 295 758.41 295.08 760.06 296.06C758.67 296.96 755.97 296.89 751.94 295.83ZM767.27 296.85C767.27 296.85 767.01 296.4 766.95 296.12C766.95 296.06 767.34 295.84 767.4 295.89C767.66 296.06 767.92 296.29 768.11 296.45C767.85 296.56 767.53 296.73 767.27 296.84V296.85ZM771.42 296.9V296.56L771.88 296.73L771.42 296.9ZM791.88 296.68C790 296.45 788.11 296.12 785.19 295.67C786.84 294.92 789.45 294.69 793.05 294.99C793.18 295.83 792.6 296.74 791.88 296.68ZM800.71 295.89H800.78C800.78 295.89 800.52 295.38 800.39 295.16C800.85 295.05 801.36 294.88 801.82 294.88C802.01 294.88 802.14 295.39 802.34 295.78C801.76 295.84 801.24 295.95 800.72 295.89H800.71ZM824.21 296.39C823.95 296.56 823.62 296.95 823.37 296.95C817.79 297.4 812.27 297.18 806.88 295.77C806.75 295.77 806.68 295.54 806.56 295.43C806.75 295.15 806.95 294.7 807.14 294.64C808.89 294.53 810.71 294.47 812.46 294.47C813.04 294.47 813.63 294.7 814.21 294.75C817.2 295.14 819.99 294.58 822.46 293.17C823.82 294.07 824.41 295.03 824.21 296.38V296.39ZM842.07 27.89V27.83C842.07 27.83 841.75 27.72 841.62 27.66C841.69 27.55 841.75 27.43 841.82 27.38C842.01 27.38 842.21 27.32 842.34 27.38C842.73 27.61 842.6 27.83 842.08 27.89H842.07ZM889.73 296.96L889.8 297.02C888.96 297.47 888.11 297.86 887.2 298.26C886.81 298.94 886.42 299.16 885.97 298.26C884.54 297.64 882.98 297.42 881.36 297.47C877.14 297.58 873.05 297.13 869.09 295.95C864.48 294.65 859.68 295.22 855 294.77C852.79 295.39 850.78 295.05 848.64 294.32C847.67 293.98 846.5 294.15 845.39 294.09C845.84 293.86 846.3 293.53 846.82 293.47C850.78 293.3 854.74 292.91 858.64 293.81C859.74 294.09 860.98 294.26 862.15 294.2C865.27 293.97 868.32 293.52 871.5 294.2C874.55 294.76 877.8 294.76 880.92 294.82C883.06 294.82 885.27 294.59 887.74 294.42C888.46 294.93 889.43 295.55 890.34 296.17C890.08 296.51 890.01 296.85 889.75 296.96H889.73ZM903.1 295.89L902.64 295.72V295.66L903.1 295.49V295.88V295.89ZM916.09 300.06V299.95C914.34 299.44 912.26 298.82 910.25 298.2C909.34 297.92 908.69 296.96 909.15 296.79C909.8 296.51 910.58 296.4 911.29 296.34C911.62 296.34 912.2 296.4 912.39 296.62C914.21 298.59 916.81 298.54 919.34 298.87C919.86 298.93 920.31 299.15 920.83 299.38C919.34 299.61 917.84 299.78 916.09 300.06ZM968.1 17.69C968.62 17.69 968.81 17.92 968.49 18.31C968.42 18.42 968.1 18.42 967.97 18.37C967.51 18.2 967.06 17.98 966.67 17.81C967.13 17.81 967.64 17.7 968.1 17.7V17.69ZM985.24 233.63C984.79 231.83 984.4 230.59 985.24 229.29C987.45 230.25 987.51 231.43 985.24 233.63Z" fill="white"/>
</svg>
