<svg width="530" height="171" viewBox="0 0 530 171" fill="none" xmlns="http://www.w3.org/2000/svg">
<g style="mix-blend-mode:soft-light" opacity="0.3">
<path d="M850.017 50.5082C842.958 39.2935 834.212 28.669 823.675 18.7332C792.064 -10.7793 753.815 -25.6339 709.138 -25.6339C655.61 -25.6339 615.464 -9.10693 588.49 24.0454C561.304 -9.10693 521.053 -25.6339 467.525 -25.6339C447.821 -25.6339 429.487 -22.6826 412.312 -16.8785C408.308 -15.5013 404.303 -14.0257 400.405 -12.3533C396.401 -10.6809 392.397 -8.81183 388.498 -6.74594C375.854 -0.0564575 363.947 8.40375 352.883 18.6347C321.272 48.4423 305.467 84.054 305.467 125.568V145.538C305.783 149.08 305.888 152.72 305.888 156.359C305.888 159.999 305.677 163.639 305.467 167.181C304.097 180.658 300.093 193.053 293.56 204.465C290.188 210.269 286.289 215.876 281.653 221.189C279.019 224.238 276.279 227.189 273.224 229.944C251.517 250.307 225.175 260.44 194.407 260.44C163.639 260.44 136.981 250.307 115.169 229.944C93.5683 209.679 82.8206 185.085 82.8206 156.359C82.8206 127.634 93.5683 102.745 115.169 82.3817C136.664 62.3132 162.691 52.0822 193.248 51.8854C220.328 51.6887 246.776 60.5424 267.112 77.1678C267.218 77.2661 267.428 77.4629 267.534 77.5613C275.12 83.7589 287.238 80.8076 290.294 71.7572C298.934 46.2781 314.212 23.2584 335.919 2.79642C348.141 -8.61505 361.84 -18.3542 376.486 -26.2242C383.756 -30.0608 388.287 -37.2421 388.287 -45.0138V-193.953V-314.758C388.287 -325.48 384.283 -334.334 376.064 -341.516C367.951 -349.09 358.362 -352.829 347.088 -352.829H346.456C334.97 -352.829 325.382 -349.09 317.795 -341.516C309.682 -334.334 305.572 -325.48 305.572 -314.758V-279.539V-279.736V-48.1618C305.572 -26.2242 282.812 -10.6809 260.369 -17.272C241.402 -22.8794 219.274 -25.6339 194.091 -25.6339C140.563 -25.6339 94.8327 -7.92645 56.8996 27.5869C18.9665 63.0018 0 105.697 0 155.573C0 205.449 18.8612 248.242 56.8996 283.558C94.8327 318.973 140.563 336.779 194.091 336.779C226.756 336.779 256.47 329.991 283.339 316.612C287.132 314.743 290.82 312.874 294.508 310.71C298.302 308.545 301.99 306.283 305.572 303.823C314.318 297.921 322.853 291.428 330.861 283.952C366.16 251.39 384.915 212.335 387.55 166.787V125.667C387.55 122.715 387.76 119.764 388.077 116.911C389.446 105.5 393.345 95.072 399.983 85.628C403.039 81.2995 406.622 77.0694 410.836 73.1344C411.153 72.8393 411.574 72.5442 411.89 72.249C427.169 58.4766 445.608 51.3936 467.104 51.3936C488.599 51.3936 507.882 58.6733 523.371 73.1344C538.861 87.5955 546.658 105.106 546.658 125.667V262.604C546.658 273.327 550.662 282.181 558.881 289.362C566.994 296.937 576.583 300.675 587.858 300.675H588.49C599.975 300.675 609.564 296.937 617.15 289.362C625.264 282.181 629.373 273.327 629.373 262.604V125.667C629.373 105.106 637.171 87.5955 652.66 73.1344C668.149 58.6733 686.905 51.3936 708.927 51.3936C730.95 51.3936 750.021 58.6733 765.511 73.1344C795.541 103.237 807.553 125.076 807.553 201.809C807.553 242.241 794.382 284.935 772.36 316.022C747.914 350.453 715.566 367.865 676.157 367.865C654.557 367.865 637.065 384.392 637.487 404.756C637.908 424.529 655.821 440.269 677 440.171C741.697 439.974 798.492 410.068 836.846 356.06C867.403 312.972 885 256.8 885 201.907C885 133.34 879.31 89.9565 849.912 50.6066L850.017 50.5082Z" fill="white"/>
</g>
</svg>
