<svg width="373" height="305" viewBox="0 0 373 305" fill="none" xmlns="http://www.w3.org/2000/svg">
<mask id="mask0_1759_9766" style="mask-type:luminance" maskUnits="userSpaceOnUse" x="0" y="0" width="373" height="305">
<path d="M0 152.5C0 68.2766 68.2766 0 152.5 0H373V305H152.5C68.2766 305 0 236.723 0 152.5V152.5Z" fill="white"/>
</mask>
<g mask="url(#mask0_1759_9766)">
<g style="mix-blend-mode:soft-light" opacity="0.3">
<path d="M840.017 49.9198C832.958 38.7051 824.212 28.0806 813.675 18.1448C782.064 -11.3677 743.815 -26.2223 699.138 -26.2223C645.61 -26.2223 605.464 -9.69531 578.49 23.457C551.304 -9.69531 511.053 -26.2223 457.525 -26.2223C437.821 -26.2223 419.487 -23.271 402.312 -17.4669C398.308 -16.0897 394.304 -14.6141 390.405 -12.9417C386.401 -11.2693 382.397 -9.40019 378.498 -7.33432C365.854 -0.644834 353.947 7.81538 342.883 18.0464C311.272 47.8539 295.467 83.4657 295.467 124.98V144.95C295.783 148.491 295.888 152.131 295.888 155.771C295.888 159.411 295.677 163.051 295.467 166.592C294.097 180.07 290.093 192.465 283.56 203.876C280.188 209.681 276.289 215.288 271.653 220.6C269.019 223.65 266.279 226.601 263.224 229.356C241.517 249.719 215.175 259.852 184.407 259.852C153.639 259.852 126.981 249.719 105.169 229.356C83.5683 209.09 72.8206 184.497 72.8206 155.771C72.8206 127.046 83.5683 102.157 105.169 81.7933C126.664 61.7248 152.691 51.4938 183.248 51.2971C210.328 51.1003 236.776 59.9541 257.112 76.5794C257.218 76.6778 257.428 76.8745 257.534 76.9729C265.12 83.1705 277.238 80.2193 280.294 71.1688C288.934 45.6897 304.212 22.67 325.919 2.20805C338.141 -9.20343 351.84 -18.9425 366.486 -26.8125C373.756 -30.6492 378.287 -37.8305 378.287 -45.6021V-194.542V-315.346C378.287 -326.069 374.283 -334.923 366.064 -342.104C357.951 -349.679 348.362 -353.417 337.088 -353.417H336.456C324.97 -353.417 315.382 -349.679 307.795 -342.104C299.682 -334.923 295.572 -326.069 295.572 -315.346V-280.128V-280.324V-48.7501C295.572 -26.8125 272.812 -11.2693 250.369 -17.8604C231.402 -23.4678 209.274 -26.2223 184.091 -26.2223C130.563 -26.2223 84.8327 -8.51484 46.8996 26.9985C8.96655 62.4134 -10 105.108 -10 154.984C-10 204.86 8.86118 247.653 46.8996 282.97C84.8327 318.385 130.563 336.191 184.091 336.191C216.756 336.191 246.47 329.403 273.339 316.024C277.132 314.155 280.82 312.285 284.508 310.121C288.302 307.957 291.99 305.694 295.572 303.235C304.318 297.333 312.853 290.84 320.861 283.363C356.16 250.801 374.916 211.746 377.55 166.199V125.078C377.55 122.127 377.76 119.176 378.077 116.323C379.446 104.911 383.345 94.4836 389.983 85.0396C393.039 80.7111 396.622 76.481 400.836 72.546C401.153 72.2509 401.574 71.9558 401.89 71.6607C417.169 57.8882 435.608 50.8052 457.104 50.8052C478.599 50.8052 497.882 58.0849 513.371 72.546C528.861 87.0071 536.658 104.518 536.658 125.078V262.016C536.658 272.739 540.662 281.593 548.881 288.774C556.994 296.349 566.583 300.087 577.858 300.087H578.49C589.975 300.087 599.564 296.349 607.15 288.774C615.264 281.593 619.373 272.739 619.373 262.016V125.078C619.373 104.518 627.171 87.0071 642.66 72.546C658.149 58.0849 676.905 50.8052 698.927 50.8052C720.95 50.8052 740.021 58.0849 755.511 72.546C785.541 102.649 797.553 124.488 797.553 201.22C797.553 241.652 784.382 284.347 762.36 315.433C737.914 349.865 705.566 367.277 666.157 367.277C644.557 367.277 627.065 383.804 627.487 404.168C627.908 423.941 645.821 439.681 667 439.583C731.697 439.386 788.492 409.48 826.846 355.472C857.403 312.384 875 256.212 875 201.319C875 132.751 869.31 89.3681 839.912 50.0182L840.017 49.9198Z" fill="white"/>
</g>
</g>
</svg>
