<?xml version="1.0" encoding="UTF-8"?>
<svg id="Calque_1" xmlns="http://www.w3.org/2000/svg" xmlns:xlink="http://www.w3.org/1999/xlink" version="1.1" viewBox="0 0 3008.7 1457">
  <!-- Generator: Adobe Illustrator 29.0.0, SVG Export Plug-In . SVG Version: 2.1.0 Build 186)  -->
  <defs>
    <style>
      .st0 {
        mask: url(#mask);
      }

      .st1 {
        fill: url(#Dégradé_sans_nom);
      }

      .st2 {
        fill: url(#Dégradé_sans_nom_2);
        isolation: isolate;
        opacity: .5;
      }
    </style>
    <linearGradient id="Dégradé_sans_nom" data-name="Dégradé sans nom" x1="1898.5" y1="1456.3" x2="1898.1" y2="534" gradientTransform="translate(0 1455.9) scale(1 -1)" gradientUnits="userSpaceOnUse">
      <stop offset="0" stop-color="#d9d9d9" stop-opacity="0"/>
      <stop offset="1" stop-color="#d9d9d9"/>
    </linearGradient>
    <mask id="mask" x="750.7" y="-722" width="2295" height="2179" maskUnits="userSpaceOnUse">
      <g id="mask0_969_7929">
        <rect class="st1" x="750.7" y="0" width="2295" height="1457"/>
      </g>
    </mask>
    <linearGradient id="Dégradé_sans_nom_2" data-name="Dégradé sans nom 2" x1="2061.4" y1="570.7" x2="1629.4" y2="1389.6" gradientTransform="translate(0 1455.9) scale(1 -1)" gradientUnits="userSpaceOnUse">
      <stop offset="0" stop-color="#bcc602"/>
      <stop offset="1" stop-color="#006f93"/>
    </linearGradient>
  </defs>
  <g class="st0">
    <path class="st2" d="M2924.5,341c-17.4-29.6-38.9-57.6-64.9-83.7-77.9-77.8-172.1-116.9-282.1-116.9s-230.7,43.6-297.2,130.9c-67-87.4-166.1-130.9-298-130.9s-93.7,7.8-136,23.1c-9.9,3.6-19.7,7.5-29.3,11.9-9.9,4.4-19.7,9.3-29.3,14.8-31.1,17.6-60.5,39.9-87.7,66.9-77.9,78.6-116.8,172.4-116.8,281.8v52.6c.8,9.3,1,18.9,1,28.5s-.5,19.2-1,28.5c-3.4,35.5-13.2,68.2-29.3,98.3-8.3,15.3-17.9,30.1-29.3,44.1-6.5,8-13.2,15.8-20.8,23.1-53.5,53.7-118.4,80.4-194.1,80.4s-141.5-26.7-195.2-80.4c-53.2-53.4-79.7-118.2-79.7-193.9s26.5-141.3,79.7-195c52.9-52.9,117.1-79.9,192.3-80.4,66.7-.5,131.9,22.8,181.9,66.6.3.3.8.8,1,1,18.7,16.3,48.5,8.6,56.1-15.3,21.3-67.2,58.9-127.8,112.4-181.8,30.1-30.1,63.9-55.7,99.9-76.5,17.9-10.1,29.1-29,29.1-49.5v-710.9c0-28.3-9.9-51.6-30.1-70.5-20-20-43.6-29.8-71.4-29.8h-1.6c-28.3,0-51.9,9.9-70.6,29.8-20,18.9-30.1,42.3-30.1,70.5v92.8-.5V81c0,57.8-56.1,98.8-111.3,81.4-46.7-14.8-101.2-22-163.3-22-131.9,0-244.5,46.7-337.9,140.3-93.4,93.3-140.2,205.9-140.2,337.3s46.5,244.2,140.2,337.3c93.4,93.3,206.1,140.3,337.9,140.3s153.7-17.9,219.8-53.2c9.3-4.9,18.4-9.8,27.5-15.5,9.3-5.7,18.4-11.7,27.3-18.2,21.5-15.6,42.6-32.7,62.3-52.4,87-85.8,133.2-188.8,139.6-308.8v-108.4c0-7.8.5-15.6,1.3-23.1,3.4-30.1,13-57.6,29.3-82.4,7.5-11.4,16.3-22.6,26.7-32.9.8-.8,1.8-1.6,2.6-2.3,37.6-36.3,83.1-55,136-55s100.4,19.2,138.6,57.3c38.2,38.1,57.4,84.3,57.4,138.5v360.9c0,28.3,9.9,51.6,30.1,70.5,20,20,43.6,29.8,71.4,29.8h1.5c28.3,0,51.9-9.9,70.6-29.8,20-18.9,30.1-42.3,30.1-70.5v-360.9c0-54.2,19.2-100.3,57.4-138.5,38.2-38.1,84.4-57.3,138.6-57.3s101.2,19.2,139.4,57.3c74,79.3,103.6,136.9,103.6,339.1s-32.4,219.1-86.7,301c-60.2,90.7-139.9,136.6-237,136.6s-96.3,43.6-95.2,97.2c1,52.1,45.2,93.6,97.3,93.3,159.4-.5,299.3-79.3,393.7-221.7,75.3-113.6,118.6-261.6,118.6-406.3s-14-295.1-86.4-398.8l.3-.3Z"/>
  </g>
</svg>