<svg width="1512" height="1327" viewBox="0 0 1512 1327" fill="none" xmlns="http://www.w3.org/2000/svg">
<mask id="mask0_456_4909" style="mask-type:alpha" maskUnits="userSpaceOnUse" x="-823" y="0" width="3158" height="1327">
<rect x="-823" width="3158" height="1327" fill="url(#paint0_linear_456_4909)"/>
</mask>
<g mask="url(#mask0_456_4909)">
<path opacity="0.5" d="M2193.83 341.019C2176.44 311.462 2154.89 283.46 2128.94 257.274C2051.07 179.492 1956.85 140.342 1846.8 140.342C1714.95 140.342 1616.06 183.9 1549.61 271.275C1482.65 183.9 1383.5 140.342 1251.64 140.342C1203.11 140.342 1157.95 148.12 1115.64 163.417C1105.77 167.047 1095.91 170.936 1086.31 175.344C1076.44 179.751 1066.58 184.677 1056.98 190.122C1025.83 207.753 996.502 230.05 969.249 257.014C891.382 335.574 852.449 429.431 852.449 538.844V591.477C853.228 600.81 853.487 610.403 853.487 619.996C853.487 629.59 852.968 639.183 852.449 648.517C849.075 684.037 839.212 716.705 823.119 746.781C814.814 762.078 805.21 776.857 793.79 790.857C787.301 798.895 780.552 806.673 773.025 813.933C719.557 867.602 654.668 894.307 578.878 894.307C503.088 894.307 437.421 867.602 383.693 813.933C330.485 760.522 304.01 695.704 304.01 619.996C304.01 544.289 330.485 478.693 383.693 425.023C436.642 372.132 500.752 345.167 576.023 344.649C642.729 344.13 707.877 367.465 757.971 411.282C758.231 411.541 758.75 412.06 759.009 412.319C777.697 428.653 807.546 420.875 815.073 397.022C836.357 329.87 873.992 269.2 927.46 215.272C957.569 185.196 991.311 159.528 1027.39 138.786C1045.3 128.674 1056.46 109.747 1056.46 89.265V-303.274V-621.661C1056.46 -649.922 1046.6 -673.257 1026.35 -692.184C1006.37 -712.148 982.746 -722 954.973 -722H953.416C925.124 -722 901.505 -712.148 882.817 -692.184C862.831 -673.257 852.709 -649.922 852.709 -621.661V-528.842V-529.36V80.9681C852.709 138.786 796.645 179.751 741.36 162.38C694.64 147.601 640.133 140.342 578.1 140.342C446.246 140.342 333.599 187.011 240.16 280.608C146.72 373.947 100 486.471 100 617.922C100 749.374 146.46 862.157 240.16 955.236C333.599 1048.57 446.246 1095.5 578.1 1095.5C658.562 1095.5 731.756 1077.61 797.943 1042.35C807.287 1037.43 816.371 1032.5 825.455 1026.8C834.799 1021.09 843.884 1015.13 852.709 1008.65C874.252 993.09 895.276 975.978 915.002 956.274C1001.95 870.454 1048.15 767.523 1054.64 647.479V539.103C1054.64 531.325 1055.16 523.547 1055.94 516.028C1059.31 485.952 1068.92 458.469 1085.27 433.579C1092.8 422.171 1101.62 411.023 1112 400.652C1112.78 399.874 1113.82 399.096 1114.6 398.318C1152.23 362.02 1197.66 343.352 1250.61 343.352C1303.56 343.352 1351.05 362.539 1389.21 400.652C1427.36 438.765 1446.57 484.915 1446.57 539.103V900.011C1446.57 928.272 1456.43 951.607 1476.68 970.533C1496.66 990.497 1520.28 1000.35 1548.06 1000.35H1549.61C1577.9 1000.35 1601.52 990.497 1620.21 970.533C1640.2 951.607 1650.32 928.272 1650.32 900.011V539.103C1650.32 484.915 1669.53 438.765 1707.68 400.652C1745.84 362.539 1792.04 343.352 1846.28 343.352C1900.53 343.352 1947.51 362.539 1985.67 400.652C2059.64 479.989 2089.23 537.548 2089.23 739.781C2089.23 846.342 2056.78 958.866 2002.54 1040.8C1942.32 1131.54 1862.64 1177.43 1765.56 1177.43C1712.35 1177.43 1669.27 1220.99 1670.31 1274.66C1671.34 1326.77 1715.47 1368.26 1767.64 1368C1927.01 1367.48 2066.91 1288.66 2161.38 1146.32C2236.65 1032.76 2280 884.714 2280 740.04C2280 559.327 2265.98 444.987 2193.57 341.278L2193.83 341.019Z" fill="#00384A"/>
</g>
<defs>
<linearGradient id="paint0_linear_456_4909" x1="534.606" y1="3.03406e-09" x2="534.407" y2="840" gradientUnits="userSpaceOnUse">
<stop stop-color="#D9D9D9" stop-opacity="0"/>
<stop offset="0.55" stop-color="#D9D9D9"/>
<stop offset="1" stop-color="#D9D9D9" stop-opacity="0"/>
</linearGradient>
</defs>
</svg>
