<svg width="2740" height="1200" viewBox="0 0 2740 1200" fill="none" xmlns="http://www.w3.org/2000/svg">
<mask id="mask0_1532_7166" style="mask-type:alpha" maskUnits="userSpaceOnUse" x="0" y="0" width="2740" height="1200">
<rect width="2740" height="1200" fill="url(#paint0_linear_1532_7166)"/>
</mask>
<g mask="url(#mask0_1532_7166)">
<path opacity="0.5" d="M2807.83 341.019C2790.44 311.462 2768.89 283.46 2742.94 257.274C2665.07 179.492 2570.85 140.342 2460.8 140.342C2328.95 140.342 2230.06 183.9 2163.61 271.275C2096.65 183.9 1997.5 140.342 1865.64 140.342C1817.11 140.342 1771.95 148.12 1729.64 163.417C1719.77 167.047 1709.91 170.936 1700.31 175.344C1690.44 179.751 1680.58 184.677 1670.98 190.122C1639.83 207.753 1610.5 230.05 1583.25 257.014C1505.38 335.574 1466.45 429.431 1466.45 538.844V591.477C1467.23 600.81 1467.49 610.403 1467.49 619.996C1467.49 629.59 1466.97 639.183 1466.45 648.517C1463.07 684.037 1453.21 716.705 1437.12 746.781C1428.81 762.078 1419.21 776.857 1407.79 790.857C1401.3 798.895 1394.55 806.673 1387.03 813.933C1333.56 867.602 1268.67 894.307 1192.88 894.307C1117.09 894.307 1051.42 867.602 997.693 813.933C944.485 760.522 918.01 695.704 918.01 619.996C918.01 544.289 944.485 478.693 997.693 425.023C1050.64 372.132 1114.75 345.167 1190.02 344.649C1256.73 344.13 1321.88 367.465 1371.97 411.282C1372.23 411.541 1372.75 412.06 1373.01 412.319C1391.7 428.653 1421.55 420.875 1429.07 397.022C1450.36 329.87 1487.99 269.2 1541.46 215.272C1571.57 185.196 1605.31 159.528 1641.39 138.786C1659.3 128.674 1670.46 109.747 1670.46 89.265V-303.274V-621.661C1670.46 -649.922 1660.6 -673.257 1640.35 -692.184C1620.37 -712.148 1596.75 -722 1568.97 -722H1567.42C1539.12 -722 1515.51 -712.148 1496.82 -692.184C1476.83 -673.257 1466.71 -649.922 1466.71 -621.661V-528.842V-529.36V80.9681C1466.71 138.786 1410.64 179.751 1355.36 162.38C1308.64 147.601 1254.13 140.342 1192.1 140.342C1060.25 140.342 947.599 187.011 854.16 280.608C760.72 373.947 714 486.471 714 617.922C714 749.374 760.46 862.157 854.16 955.236C947.599 1048.57 1060.25 1095.5 1192.1 1095.5C1272.56 1095.5 1345.76 1077.61 1411.94 1042.35C1421.29 1037.43 1430.37 1032.5 1439.46 1026.8C1448.8 1021.09 1457.88 1015.13 1466.71 1008.65C1488.25 993.09 1509.28 975.978 1529 956.274C1615.95 870.454 1662.15 767.523 1668.64 647.479V539.103C1668.64 531.325 1669.16 523.547 1669.94 516.028C1673.31 485.952 1682.92 458.469 1699.27 433.579C1706.8 422.171 1715.62 411.023 1726 400.652C1726.78 399.874 1727.82 399.096 1728.6 398.318C1766.23 362.02 1811.66 343.352 1864.61 343.352C1917.56 343.352 1965.05 362.539 2003.21 400.652C2041.36 438.765 2060.57 484.915 2060.57 539.103V900.011C2060.57 928.272 2070.43 951.607 2090.68 970.533C2110.66 990.497 2134.28 1000.35 2162.06 1000.35H2163.61C2191.9 1000.35 2215.52 990.497 2234.21 970.533C2254.2 951.607 2264.32 928.272 2264.32 900.011V539.103C2264.32 484.915 2283.53 438.765 2321.68 400.652C2359.84 362.539 2406.04 343.352 2460.28 343.352C2514.53 343.352 2561.51 362.539 2599.67 400.652C2673.64 479.989 2703.23 537.548 2703.23 739.781C2703.23 846.342 2670.78 958.866 2616.54 1040.8C2556.32 1131.54 2476.64 1177.43 2379.56 1177.43C2326.35 1177.43 2283.27 1220.99 2284.31 1274.66C2285.34 1326.77 2329.47 1368.26 2381.64 1368C2541.01 1367.48 2680.91 1288.66 2775.38 1146.32C2850.65 1032.76 2894 884.714 2894 740.04C2894 559.327 2879.98 444.987 2807.57 341.278L2807.83 341.019Z" fill="url(#paint1_linear_1532_7166)"/>
</g>
<defs>
<linearGradient id="paint0_linear_1532_7166" x1="1177.91" y1="2.74368e-09" x2="1177.72" y2="759.608" gradientUnits="userSpaceOnUse">
<stop stop-color="#D9D9D9" stop-opacity="0"/>
<stop offset="0.55" stop-color="#D9D9D9"/>
<stop offset="1" stop-color="#D9D9D9" stop-opacity="0"/>
</linearGradient>
<linearGradient id="paint1_linear_1532_7166" x1="2040.06" y1="834.958" x2="1608.05" y2="15.9736" gradientUnits="userSpaceOnUse">
<stop stop-color="#BCC602"/>
<stop offset="1" stop-color="#006F93"/>
</linearGradient>
</defs>
</svg>
