<svg width="2200" height="1110" viewBox="0 0 2200 1110" fill="none" xmlns="http://www.w3.org/2000/svg">
<mask id="mask0_969_7929" style="mask-type:alpha" maskUnits="userSpaceOnUse" x="-297" y="0" width="2794" height="1110">
<rect x="-297" width="2794" height="1110" fill="url(#paint0_linear_969_7929)"/>
</mask>
<g mask="url(#mask0_969_7929)">
<path opacity="0.5" d="M2526.83 341.019C2509.44 311.462 2487.89 283.46 2461.94 257.274C2384.07 179.492 2289.85 140.342 2179.8 140.342C2047.95 140.342 1949.06 183.9 1882.61 271.275C1815.65 183.9 1716.5 140.342 1584.64 140.342C1536.11 140.342 1490.95 148.12 1448.64 163.417C1438.77 167.047 1428.91 170.936 1419.31 175.344C1409.44 179.751 1399.58 184.677 1389.98 190.122C1358.83 207.753 1329.5 230.05 1302.25 257.014C1224.38 335.574 1185.45 429.431 1185.45 538.844V591.477C1186.23 600.81 1186.49 610.403 1186.49 619.996C1186.49 629.59 1185.97 639.183 1185.45 648.517C1182.07 684.037 1172.21 716.705 1156.12 746.781C1147.81 762.078 1138.21 776.857 1126.79 790.857C1120.3 798.895 1113.55 806.673 1106.03 813.933C1052.56 867.602 987.668 894.307 911.878 894.307C836.088 894.307 770.421 867.602 716.693 813.933C663.485 760.522 637.01 695.704 637.01 619.996C637.01 544.289 663.485 478.693 716.693 425.023C769.642 372.132 833.752 345.167 909.023 344.649C975.729 344.13 1040.88 367.465 1090.97 411.282C1091.23 411.541 1091.75 412.06 1092.01 412.319C1110.7 428.653 1140.55 420.875 1148.07 397.022C1169.36 329.87 1206.99 269.2 1260.46 215.272C1290.57 185.196 1324.31 159.528 1360.39 138.786C1378.3 128.674 1389.46 109.747 1389.46 89.2649V-303.274V-621.661C1389.46 -649.922 1379.6 -673.257 1359.35 -692.184C1339.37 -712.148 1315.75 -722 1287.97 -722H1286.42C1258.12 -722 1234.5 -712.148 1215.82 -692.184C1195.83 -673.257 1185.71 -649.922 1185.71 -621.661V-528.842V-529.36V80.9682C1185.71 138.786 1129.64 179.751 1074.36 162.38C1027.64 147.601 973.133 140.342 911.1 140.342C779.246 140.342 666.599 187.011 573.16 280.608C479.72 373.946 433 486.471 433 617.922C433 749.374 479.46 862.157 573.16 955.236C666.599 1048.57 779.246 1095.5 911.1 1095.5C991.562 1095.5 1064.76 1077.61 1130.94 1042.35C1140.29 1037.43 1149.37 1032.5 1158.46 1026.8C1167.8 1021.09 1176.88 1015.13 1185.71 1008.65C1207.25 993.09 1228.28 975.978 1248 956.274C1334.95 870.454 1381.15 767.523 1387.64 647.479V539.103C1387.64 531.325 1388.16 523.547 1388.94 516.028C1392.31 485.952 1401.92 458.47 1418.27 433.579C1425.8 422.171 1434.62 411.023 1445 400.652C1445.78 399.874 1446.82 399.096 1447.6 398.318C1485.23 362.02 1530.66 343.352 1583.61 343.352C1636.56 343.352 1684.05 362.539 1722.21 400.652C1760.36 438.765 1779.57 484.915 1779.57 539.103V900.011C1779.57 928.272 1789.43 951.607 1809.68 970.533C1829.66 990.497 1853.28 1000.35 1881.06 1000.35H1882.61C1910.9 1000.35 1934.52 990.497 1953.21 970.533C1973.2 951.607 1983.32 928.272 1983.32 900.011V539.103C1983.32 484.915 2002.53 438.765 2040.68 400.652C2078.84 362.539 2125.04 343.352 2179.28 343.352C2233.53 343.352 2280.51 362.539 2318.67 400.652C2392.64 479.989 2422.23 537.548 2422.23 739.781C2422.23 846.342 2389.78 958.866 2335.54 1040.8C2275.32 1131.54 2195.64 1177.43 2098.56 1177.43C2045.35 1177.43 2002.27 1220.99 2003.31 1274.66C2004.34 1326.77 2048.47 1368.26 2100.64 1368C2260.01 1367.48 2399.91 1288.66 2494.38 1146.32C2569.65 1032.76 2613 884.714 2613 740.04C2613 559.327 2598.98 444.987 2526.57 341.278L2526.83 341.019Z" fill="url(#paint1_linear_969_7929)"/>
</g>
<defs>
<linearGradient id="paint0_linear_969_7929" x1="904.124" y1="2.53791e-09" x2="903.967" y2="702.638" gradientUnits="userSpaceOnUse">
<stop stop-color="#D9D9D9" stop-opacity="0"/>
<stop offset="1" stop-color="#D9D9D9"/>
</linearGradient>
<linearGradient id="paint1_linear_969_7929" x1="1759.06" y1="834.958" x2="1327.05" y2="15.9736" gradientUnits="userSpaceOnUse">
<stop stop-color="#BCC602"/>
<stop offset="1" stop-color="#006F93"/>
</linearGradient>
</defs>
</svg>
