<svg width="2790" height="1327" viewBox="0 0 2790 1327" fill="none" xmlns="http://www.w3.org/2000/svg">
<mask id="mask0_1532_7205" style="mask-type:alpha" maskUnits="userSpaceOnUse" x="0" y="0" width="2790" height="1327">
<rect width="2790" height="1327" fill="url(#paint0_linear_1532_7205)"/>
</mask>
<g mask="url(#mask0_1532_7205)">
<path opacity="0.5" d="M2832.83 341.019C2815.44 311.462 2793.89 283.46 2767.94 257.274C2690.07 179.492 2595.85 140.342 2485.8 140.342C2353.95 140.342 2255.06 183.9 2188.61 271.275C2121.65 183.9 2022.5 140.342 1890.64 140.342C1842.11 140.342 1796.95 148.12 1754.64 163.417C1744.77 167.047 1734.91 170.936 1725.31 175.344C1715.44 179.751 1705.58 184.677 1695.98 190.122C1664.83 207.753 1635.5 230.05 1608.25 257.014C1530.38 335.574 1491.45 429.431 1491.45 538.844V591.477C1492.23 600.81 1492.49 610.403 1492.49 619.996C1492.49 629.59 1491.97 639.183 1491.45 648.517C1488.07 684.037 1478.21 716.705 1462.12 746.781C1453.81 762.078 1444.21 776.857 1432.79 790.857C1426.3 798.895 1419.55 806.673 1412.03 813.933C1358.56 867.602 1293.67 894.307 1217.88 894.307C1142.09 894.307 1076.42 867.602 1022.69 813.933C969.485 760.522 943.01 695.704 943.01 619.996C943.01 544.289 969.485 478.693 1022.69 425.023C1075.64 372.132 1139.75 345.167 1215.02 344.649C1281.73 344.13 1346.88 367.465 1396.97 411.282C1397.23 411.541 1397.75 412.06 1398.01 412.319C1416.7 428.653 1446.55 420.875 1454.07 397.022C1475.36 329.87 1512.99 269.2 1566.46 215.272C1596.57 185.196 1630.31 159.528 1666.39 138.786C1684.3 128.674 1695.46 109.747 1695.46 89.265V-303.274V-621.661C1695.46 -649.922 1685.6 -673.257 1665.35 -692.184C1645.37 -712.148 1621.75 -722 1593.97 -722H1592.42C1564.12 -722 1540.51 -712.148 1521.82 -692.184C1501.83 -673.257 1491.71 -649.922 1491.71 -621.661V-528.842V-529.36V80.9681C1491.71 138.786 1435.64 179.751 1380.36 162.38C1333.64 147.601 1279.13 140.342 1217.1 140.342C1085.25 140.342 972.599 187.011 879.16 280.608C785.72 373.947 739 486.471 739 617.922C739 749.374 785.46 862.157 879.16 955.236C972.599 1048.57 1085.25 1095.5 1217.1 1095.5C1297.56 1095.5 1370.76 1077.61 1436.94 1042.35C1446.29 1037.43 1455.37 1032.5 1464.46 1026.8C1473.8 1021.09 1482.88 1015.13 1491.71 1008.65C1513.25 993.09 1534.28 975.978 1554 956.274C1640.95 870.454 1687.15 767.523 1693.64 647.479V539.103C1693.64 531.325 1694.16 523.547 1694.94 516.028C1698.31 485.952 1707.92 458.469 1724.27 433.579C1731.8 422.171 1740.62 411.023 1751 400.652C1751.78 399.874 1752.82 399.096 1753.6 398.318C1791.23 362.02 1836.66 343.352 1889.61 343.352C1942.56 343.352 1990.05 362.539 2028.21 400.652C2066.36 438.765 2085.57 484.915 2085.57 539.103V900.011C2085.57 928.272 2095.43 951.607 2115.68 970.533C2135.66 990.497 2159.28 1000.35 2187.06 1000.35H2188.61C2216.9 1000.35 2240.52 990.497 2259.21 970.533C2279.2 951.607 2289.32 928.272 2289.32 900.011V539.103C2289.32 484.915 2308.53 438.765 2346.68 400.652C2384.84 362.539 2431.04 343.352 2485.28 343.352C2539.53 343.352 2586.51 362.539 2624.67 400.652C2698.64 479.989 2728.23 537.548 2728.23 739.781C2728.23 846.342 2695.78 958.866 2641.54 1040.8C2581.32 1131.54 2501.64 1177.43 2404.56 1177.43C2351.35 1177.43 2308.27 1220.99 2309.31 1274.66C2310.34 1326.77 2354.47 1368.26 2406.64 1368C2566.01 1367.48 2705.91 1288.66 2800.38 1146.32C2875.65 1032.76 2919 884.714 2919 740.04C2919 559.327 2904.98 444.987 2832.57 341.278L2832.83 341.019Z" fill="url(#paint1_linear_1532_7205)"/>
</g>
<defs>
<linearGradient id="paint0_linear_1532_7205" x1="1199.4" y1="3.03406e-09" x2="1199.18" y2="840" gradientUnits="userSpaceOnUse">
<stop stop-color="#D9D9D9" stop-opacity="0"/>
<stop offset="0.55" stop-color="#D9D9D9"/>
<stop offset="1" stop-color="#D9D9D9" stop-opacity="0"/>
</linearGradient>
<linearGradient id="paint1_linear_1532_7205" x1="2065.06" y1="834.958" x2="1633.05" y2="15.9736" gradientUnits="userSpaceOnUse">
<stop stop-color="#DBE605"/>
<stop offset="1" stop-color="#048F4C"/>
</linearGradient>
</defs>
</svg>
