<svg width="273" height="338" viewBox="0 0 273 338" fill="none" xmlns="http://www.w3.org/2000/svg">
<path opacity="0.1" d="M952.155 86.9519C942.073 71.0851 929.583 56.0534 914.535 41.996C869.391 0.241241 814.767 -20.7754 750.963 -20.7754C674.519 -20.7754 617.185 2.60736 578.662 49.5118C539.838 2.60736 482.355 -20.7754 405.911 -20.7754C377.771 -20.7754 351.587 -16.5998 327.059 -8.38806C321.34 -6.43951 315.622 -4.35178 310.054 -1.98569C304.336 0.380432 298.618 3.0249 293.05 5.94772C274.992 15.4121 257.988 27.3818 242.188 41.8568C197.043 84.0291 174.471 134.413 174.471 193.148V221.402C174.923 226.413 175.073 231.562 175.073 236.712C175.073 241.862 174.772 247.012 174.471 252.022C172.515 271.09 166.797 288.627 157.467 304.773C152.652 312.984 147.084 320.918 140.463 328.434C136.701 332.748 132.788 336.924 128.424 340.821C97.4251 369.632 59.805 383.967 15.8646 383.967C-28.0757 383.967 -66.1473 369.632 -97.2968 340.821C-128.145 312.149 -143.494 277.354 -143.494 236.712C-143.494 196.071 -128.145 160.858 -97.2968 132.047C-66.5988 103.654 -29.4301 89.1788 14.2094 88.9005C52.8829 88.6221 90.6535 101.148 119.696 124.67C119.847 124.81 120.148 125.088 120.298 125.227C131.133 133.996 148.438 129.82 152.802 117.015C165.141 80.9671 186.961 48.3984 217.96 19.4484C235.416 3.30328 254.978 -10.4758 275.895 -21.6104C286.278 -27.0385 292.749 -37.1989 292.749 -48.1943V-258.917V-429.833C292.749 -445.004 287.031 -457.53 275.293 -467.69C263.706 -478.407 250.013 -483.696 233.911 -483.696H233.008C216.606 -483.696 202.912 -478.407 192.078 -467.69C180.491 -457.53 174.622 -445.004 174.622 -429.833V-380.005V-380.284V-52.6481C174.622 -21.6104 142.118 0.380432 110.066 -8.94479C82.979 -16.8782 51.3781 -20.7754 15.4132 -20.7754C-61.031 -20.7754 -126.34 4.2775 -180.513 54.5224C-234.686 104.628 -261.772 165.033 -261.772 235.599C-261.772 306.164 -234.836 366.709 -180.513 416.675C-126.34 466.781 -61.031 491.973 15.4132 491.973C62.0622 491.973 104.498 482.369 142.87 463.441C148.288 460.796 153.554 458.152 158.821 455.09C164.239 452.028 169.505 448.826 174.622 445.347C187.112 436.996 199.301 427.81 210.737 417.232C261.148 371.163 287.934 315.907 291.696 251.466V193.287C291.696 189.112 291.997 184.936 292.448 180.9C294.404 164.755 299.972 150.002 309.452 136.64C313.816 130.516 318.933 124.531 324.952 118.964C325.403 118.546 326.005 118.129 326.457 117.711C348.276 98.2257 374.611 88.2046 405.309 88.2046C436.007 88.2046 463.545 98.5041 485.665 118.964C507.786 139.424 518.922 164.198 518.922 193.287V387.029C518.922 402.2 524.64 414.727 536.377 424.887C547.964 435.604 561.658 440.893 577.759 440.893H578.662C595.065 440.893 608.758 435.604 619.593 424.887C631.18 414.727 637.049 402.2 637.049 387.029V193.287C637.049 164.198 648.184 139.424 670.305 118.964C692.426 98.5041 719.211 88.2046 750.662 88.2046C782.112 88.2046 809.349 98.5041 831.47 118.964C874.357 161.554 891.512 192.452 891.512 301.015C891.512 358.219 872.702 418.624 841.251 462.605C806.34 511.319 760.142 535.955 703.862 535.955C673.014 535.955 648.034 559.337 648.636 588.148C649.238 616.124 674.819 638.393 705.066 638.254C797.461 637.975 878.57 595.664 933.345 519.253C976.985 458.291 1002.11 378.818 1002.11 301.154C1002.11 204.144 993.989 142.764 952.005 87.0911L952.155 86.9519Z" fill="#A13202"/>
</svg>
