<svg width="393" height="852" viewBox="0 0 393 852" fill="none" xmlns="http://www.w3.org/2000/svg">
<path d="M63.7846 -278.546C58.9508 -266.542 62.1286 -247.52 72.2697 -233.95C89.78 -210.55 122.45 -196.617 148.932 -187.077C156.158 -184.48 163.428 -181.995 171.103 -179.395C202.504 -168.707 234.974 -157.659 265.299 -137.593C346.951 -83.539 384.616 27.0787 352.885 119.707C330.944 183.762 281.195 232.032 244.877 267.265L243.711 268.4C206.427 304.589 171.195 338.759 154.709 380.482C141.681 413.435 144.27 459.187 171.123 478.664C182.294 486.778 199.124 492.106 216.958 497.737C249.286 507.977 289.509 520.709 314.084 558.478C341.884 601.21 332.572 648.682 325.073 686.828C320.066 712.326 315.322 736.384 322.277 751.456C330.292 768.907 357.651 778.088 381.188 779.427C397.443 780.376 414.676 779.021 432.912 777.596C453.224 776.014 474.201 774.402 496.318 775.648C574.634 780.14 648.002 821.322 692.613 885.774C737.224 950.227 749.86 1033.38 726.422 1108.22C716.508 1139.87 701.242 1167.44 686.456 1194.12C676.564 1211.98 667.221 1228.83 660.003 1245.98C647.531 1275.52 640.192 1318.36 660.489 1341.83C665.002 1347.05 671.901 1352.52 679.232 1358.3C692.736 1368.98 708.014 1381.07 719.779 1399.59C721.716 1402.63 723.392 1405.82 724.901 1409.12L634.072 1433.46C631.306 1431.14 628.336 1428.8 625.294 1426.37C615.62 1418.73 604.643 1410.04 594.777 1398.61C555.458 1353.17 549.931 1283.52 579.975 1212.31C589.014 1190.89 599.909 1171.19 610.483 1152.14C623.731 1128.19 636.265 1105.58 643.546 1082.34C658.816 1033.57 650.24 977.195 621.161 935.178C592.083 893.162 542.334 865.251 491.302 862.314C475.053 861.388 457.837 862.714 439.625 864.132C419.313 865.714 398.289 867.338 376.166 866.069C313.94 862.47 264.297 833.186 243.365 787.717C224.729 747.186 232.748 706.236 239.844 670.117C245.233 642.698 249.878 619.015 241.272 605.781C233.637 594.03 213.738 587.756 190.72 580.451C168.195 573.312 142.654 565.238 120.099 548.868C92.0702 528.536 74.8523 499.903 66.5032 468.743C55.8131 428.847 59.6517 384.76 73.9574 348.576C97.3007 289.475 142.951 245.167 183.246 206.079L184.413 204.944C223.317 167.175 256.668 132.588 270.724 91.5651C289.735 36.0155 266.294 -32.8639 217.329 -65.2932C196.362 -79.1751 170.499 -87.9845 143.11 -97.2815C135.405 -99.8989 127.424 -102.617 119.505 -105.476C81.6022 -119.128 34.0532 -140.132 2.71711 -182.017C-13.7902 -204.092 -23.0144 -229.587 -25.0401 -254.82L63.7892 -278.622L63.7846 -278.546Z" fill="url(#paint0_linear_1756_5811)"/>
<defs>
<linearGradient id="paint0_linear_1756_5811" x1="688.985" y1="1015.02" x2="374.573" y2="-160.11" gradientUnits="userSpaceOnUse">
<stop offset="0.015" stop-color="white" stop-opacity="0.1"/>
<stop offset="0.58625" stop-color="white" stop-opacity="0.4"/>
<stop offset="0.894785" stop-color="white" stop-opacity="0"/>
</linearGradient>
</defs>
</svg>
