<svg width="136" height="140" viewBox="0 0 136 140" fill="none" xmlns="http://www.w3.org/2000/svg">
<path id="Vector 4 (Stroke)" fill-rule="evenodd" clip-rule="evenodd" d="M25.8582 18.1849C11.9632 29.255 1.59977 45.8731 1.59977 68.1464C1.59977 104.195 31.5524 138.4 71.2357 138.4C87.0587 138.4 100.475 131.555 110.803 122.834C121.137 114.107 128.326 103.545 131.677 96.2346C131.861 95.833 132.335 95.6567 132.737 95.8408C133.139 96.0248 133.315 96.4996 133.131 96.9012C129.685 104.42 122.354 115.173 111.835 124.056C101.311 132.943 87.5414 140 71.2357 140C30.5975 140 0 105.005 0 68.1464C0 45.3161 10.6437 28.2609 24.8613 16.9337C39.0577 5.62338 56.842 0 71.2357 0C85.6637 0 100.657 6.26473 112.494 15.143C124.314 24.0077 133.142 35.5965 135.045 46.3824C135.122 46.8174 134.831 47.2323 134.396 47.3091C133.961 47.3859 133.546 47.0954 133.47 46.6604C131.666 36.4391 123.193 25.1671 111.534 16.4229C99.8936 7.6922 85.2293 1.59977 71.2357 1.59977C57.208 1.59977 39.7743 7.09784 25.8582 18.1849Z" fill="url(#paint0_linear_458_5004)"/>
<defs>
<linearGradient id="paint0_linear_458_5004" x1="27.9488" y1="61.885" x2="122.405" y2="73.7626" gradientUnits="userSpaceOnUse">
<stop stop-color="#BCC602"/>
<stop offset="1" stop-color="#BCC602" stop-opacity="0"/>
</linearGradient>
</defs>
</svg>
