<?xml version="1.0" encoding="UTF-8"?>
<svg id="Calque_1" xmlns="http://www.w3.org/2000/svg" xmlns:xlink="http://www.w3.org/1999/xlink" version="1.1" viewBox="0 0 2609.3 1214">
  <!-- Generator: Adobe Illustrator 29.0.1, SVG Export Plug-In . SVG Version: 2.1.0 Build 192)  -->
  <defs>
    <style>
      .st0 {
        fill: url(#Dégradé_sans_nom);
      }
    </style>
    <linearGradient id="Dégradé_sans_nom" data-name="Dégradé sans nom" x1="2542.3" y1="979" x2="357.1" y2="463.1" gradientTransform="translate(0 1211.9) scale(1 -1)" gradientUnits="userSpaceOnUse">
      <stop offset="0" stop-color="#c5bdb4" stop-opacity="0"/>
      <stop offset=".5" stop-color="#c5bdb4" stop-opacity=".4"/>
      <stop offset="1" stop-color="#c5bdb4" stop-opacity="0"/>
    </linearGradient>
  </defs>
  <path class="st0" d="M-832.3,761.1c24.5,18.4,70.1,22.8,107.4,7.9,64.4-25.7,116.4-92,154.5-146.8,10.4-15,20.6-30.1,31.2-46.1,43.8-65.3,89-132.9,153.6-190.1,174-153.8,450.7-172.2,643.5-42.7,133.3,89.5,213.4,233.1,271.9,337.9l1.9,3.4c60,107.6,116.7,209.2,202.2,272.6,67.5,50.1,174,72.2,235.1,22.7,25.5-20.6,48-55.9,71.9-93.3,43.3-67.7,97.2-152,198.9-185.1,115-37.4,218.1,13,300.9,53.6,55.4,27.1,107.6,52.7,146.4,46.1,44.9-7.6,82.8-64.7,100.3-117.7,12.2-36.6,19.6-76.9,27.6-119.6,8.8-47.5,18-96.5,34.5-146.4,58.4-176.6,197.8-319.3,372.9-381.9,175.1-62.6,373.5-40.5,530.6,59.1,66.4,42.1,120.3,94,172.3,144.2,34.9,33.6,67.8,65.4,102.6,92.4,60,46.7,153.7,89.8,220,57.7,14.7-7.1,31.5-19.6,49.3-32.8,32.8-24.4,69.9-51.9,119.5-67.5,8.2-2.6,16.5-4.5,25-5.9v222.9c-7,4.9-14.2,10.3-21.6,15.8-23.5,17.5-50.1,37.3-82.4,52.9-128.3,62.2-291.3,32.1-436.1-80.4-43.6-33.8-82-70.9-119.2-106.8-46.8-45-90.9-87.6-139.7-118.5-102.4-64.9-236.9-79.8-351-39-114.2,40.8-208.7,137.6-246.8,252.7-12.1,36.6-19.6,76.9-27.6,119.5-8.8,47.5-18,96.6-34.5,146.5-46.5,140.3-144.1,236-261.1,256-104.3,17.8-193.3-25.7-271.7-64.1-59.5-29.2-111-54.3-146.6-42.7-31.6,10.3-58.2,52-89.1,100.2-30.2,47.2-64.4,100.7-115.8,142.3-63.8,51.7-140,73.6-216.6,73.6s-196.7-35.8-270.8-90.8c-121.1-89.7-194.6-221.4-259.5-337.7l-1.9-3.4c-62.7-112.3-121.5-209.9-206.8-267.2-115.6-77.6-287.9-66.2-392.3,26-44.7,39.5-80.8,93.3-118.9,150.3-10.7,16-21.9,32.6-33.3,49-54.6,78.4-131.9,174.4-247.1,220.5-60.7,24.3-124.8,29.7-183.9,18.9v-218h.2Z"/>
</svg>