<svg width="30" height="30" viewBox="0 0 30 30" fill="none" xmlns="http://www.w3.org/2000/svg">
<ellipse cx="15" cy="15" rx="15" ry="15" fill="white"/>
<path d="M11.6387 20.2675C11.2812 19.8944 11.2801 19.3062 11.6363 18.9318L14.0187 16.4275C14.7533 15.6553 14.7533 14.4427 14.0187 13.6705L11.6363 11.1663C11.2801 10.7919 11.2812 10.2037 11.6387 9.83054C12.0204 9.43214 12.6575 9.43326 13.0378 9.83301L16.6885 13.6705C17.4231 14.4427 17.4231 15.6553 16.6885 16.4275L13.0378 20.265C12.6575 20.6648 12.0204 20.6659 11.6387 20.2675Z" fill="#3F2204"/>
<path d="M11.6387 20.2675C11.2812 19.8944 11.2801 19.3062 11.6363 18.9318L14.0187 16.4275C14.7533 15.6553 14.7533 14.4427 14.0187 13.6705L11.6363 11.1663C11.2801 10.7919 11.2812 10.2037 11.6387 9.83054C12.0204 9.43214 12.6575 9.43326 13.0378 9.83301L16.6885 13.6705C17.4231 14.4427 17.4231 15.6553 16.6885 16.4275L13.0378 20.265C12.6575 20.6648 12.0204 20.6659 11.6387 20.2675Z" fill="black" fill-opacity="0.2"/>
</svg>
