<svg width="112" height="112" viewBox="0 0 112 112" fill="none" xmlns="http://www.w3.org/2000/svg">
<mask id="mask0_950_5368" style="mask-type:alpha" maskUnits="userSpaceOnUse" x="0" y="0" width="112" height="112">
<rect width="112" height="112" fill="#D9D9D9"/>
</mask>
<g mask="url(#mask0_950_5368)">
<path fill-rule="evenodd" clip-rule="evenodd" d="M26.8373 46.5354C23.9304 54.7646 23.985 63.9271 29.6329 72.9655C39.1182 88.1453 60.827 94.4368 77.158 84.2321C83.053 80.5485 86.8103 74.6748 88.9653 67.971C91.1569 61.1536 91.3495 54.4622 90.8812 50.8444C90.0352 44.3093 94.6471 38.3256 101.182 37.4796C107.717 36.6335 113.701 41.2455 114.547 47.7806C115.454 54.7885 114.979 65.0246 111.684 75.2742C108.352 85.6373 101.805 96.97 89.8036 104.469C61.3931 122.222 25.2871 111.043 9.39556 85.6112C-0.655847 69.5256 -0.620263 52.6191 4.33648 38.5871C9.15831 24.937 18.7539 13.532 28.9849 7.13901C43.9799 -2.23094 59.8707 -1.85861 77.9671 4.85426C84.1454 7.14611 87.296 14.0125 85.0042 20.1908C82.7123 26.3692 75.8459 29.5198 69.6676 27.2279C55.9761 22.149 48.3721 23.1638 41.6305 27.3763C36.0299 30.876 29.8791 37.9243 26.8373 46.5354Z" fill="url(#paint0_linear_950_5368)"/>
<path fill-rule="evenodd" clip-rule="evenodd" d="M35.73 30.97C35.73 34.12 33.21 36.69 30.11 36.69V36.68C27.01 36.68 24.5 34.12 24.5 30.97C24.5 27.82 27.01 25.25 30.11 25.25C33.21 25.25 35.73 27.82 35.73 30.97ZM34.36 30.97C34.36 28.58 32.45 26.64 30.11 26.64C27.76 26.64 25.86 28.58 25.86 30.97C25.86 33.36 27.76 35.3 30.11 35.3C32.46 35.3 34.36 33.36 34.36 30.97ZM51.95 41.13C52.49 41.03 52.98 41.06 53.41 41.19L54.55 41.9C54.87 42.25 55.09 42.68 55.18 43.13C55.43 44.37 54.78 45.84 53.04 46.28L44.89 48.32C43.72 48.62 42.71 48.34 41.87 48.03L38.41 46.74L38.11 85.64C38.1 87.96 36.32 89.17 34.56 89.17C33.46 89.17 32.34 88.69 31.66 87.76C30.9 88.74 29.62 89.25 28.35 89.25C26.34 89.25 24.31 88 24.31 85.62V61.57H22.06C21.69 61.57 21.38 61.25 21.38 60.87V57.33L19.46 57.36H19.43C18.78 57.36 18.21 57.1 17.79 56.6C17.36 56.1 17.18 55.47 17.28 54.81L19.02 43.2C19.24 41.74 19.76 38.31 23.12 38.31H36.01C36.79 38.31 37.47 38.48 38.16 38.85L44.48 42.24C44.72 42.37 44.89 42.4 45.08 42.37L51.95 41.13ZM31.08 57.22L22.75 57.32V60.19H31.08V57.22ZM44.59 46.97L52.74 44.93L52.75 44.97C53.76 44.72 53.99 44 53.88 43.46C53.76 42.86 53.19 42.34 52.2 42.52L45.33 43.76C44.84 43.85 44.35 43.76 43.85 43.49L37.53 40.1C37.04 39.84 36.58 39.72 36.02 39.72H23.13C21.56 39.72 20.79 40.76 20.39 43.43L18.64 55.04C18.6 55.29 18.66 55.5 18.83 55.7C18.99 55.88 19.19 55.98 19.44 55.98H19.45L31.85 55.82C32.51 55.81 33.05 55.25 33.04 54.57V54.43C33.04 53.75 32.49 53.21 31.83 53.22H23.77C23.57 53.22 23.38 53.13 23.25 52.97C23.12 52.82 23.07 52.6 23.1 52.4L24.03 47.23C24.1 46.85 24.46 46.6 24.83 46.67C25.2 46.74 25.45 47.1 25.38 47.48L25.13 48.87H31.79C32.16 48.87 32.47 49.19 32.47 49.57V51.9C33.58 52.18 34.41 53.2 34.42 54.41V54.55C34.43 55.78 33.6 56.83 32.47 57.12V60.88C32.47 61.27 32.17 61.58 31.79 61.58H25.7V85.63C25.7 87.17 27.08 87.88 28.37 87.88C29.36 87.88 31.03 87.41 31.03 85.63V65.12C31.03 64.73 31.34 64.42 31.71 64.42C32.08 64.42 32.39 64.74 32.39 65.12V85.62C32.39 87.11 33.5 87.78 34.58 87.78C35.66 87.78 36.76 87.13 36.77 85.64L37.07 45.75C37.08 45.52 37.19 45.31 37.37 45.18C37.55 45.05 37.78 45.02 37.99 45.1L42.36 46.72C43.28 47.06 43.93 47.13 44.59 46.97ZM31.08 50.26H24.86L24.58 51.81H31.08V50.26ZM54.85 68.2299H56.58V88.9299C56.58 89.0799 56.65 89.2399 56.75 89.3499C56.86 89.4599 57.01 89.5199 57.17 89.5199H92.95C93.11 89.5199 93.26 89.4499 93.37 89.3499C93.48 89.2399 93.54 89.0899 93.54 88.9299V68.2299H95.27C95.43 68.2299 95.58 68.1599 95.69 68.0599C95.8 67.9499 95.86 67.7999 95.86 67.6399V61.8699C95.86 61.7099 95.79 61.5599 95.69 61.4499C95.58 61.3399 95.43 61.2799 95.27 61.2799H93.57C93.51 58.2599 91.3 55.7899 88.4 55.3099C87.56 53.5599 85.78 52.3399 83.71 52.3399C83.6587 52.3399 83.6074 52.3452 83.5574 52.3503C83.51 52.3552 83.4638 52.3599 83.42 52.3599C83.37 52.3099 83.33 52.2699 83.26 52.2399L82.62 51.9199L82.97 51.2299L84.55 52.0199C84.84 52.1699 85.2 52.0499 85.35 51.7499C85.5 51.4599 85.38 51.0999 85.08 50.9499L83.5 50.1599L83.85 49.4699L84.49 49.7899C84.78 49.9399 85.14 49.8199 85.29 49.5199C85.44 49.2299 85.32 48.8699 85.02 48.7199L84.38 48.3999L84.81 47.5399C84.96 47.6399 85.14 47.7599 85.36 47.8899C85.91 48.1899 86.65 48.5299 87.48 48.5299C87.74 48.5299 88.02 48.4899 88.29 48.3999C88.78 48.2299 89.18 47.9299 89.54 47.5899C90.06 47.0799 90.47 46.4599 90.76 45.9699C91.05 45.4799 91.21 45.1099 91.21 45.0999C91.34 44.8199 91.22 44.4899 90.96 44.3399C90.9548 44.3399 90.9213 44.3223 90.8632 44.2919C90.6978 44.2054 90.3337 44.0149 89.86 43.8299C89.22 43.5799 88.4 43.3099 87.56 43.3099C87.26 43.3099 86.95 43.3499 86.65 43.4499C86.52 43.4899 86.39 43.5499 86.28 43.6099C86.26 43.4799 86.23 43.3499 86.18 43.2199C86.01 42.7299 85.71 42.3299 85.37 41.9699C84.86 41.4499 84.24 41.0399 83.75 40.7499C83.26 40.4599 82.89 40.2999 82.88 40.2999C82.6 40.1699 82.27 40.2899 82.12 40.5499C82.12 40.5551 82.1025 40.5887 82.0721 40.6467L82.072 40.6468C81.9855 40.8122 81.795 41.1763 81.61 41.6499C81.36 42.2899 81.09 43.1099 81.09 43.9499C81.09 44.2499 81.13 44.5599 81.23 44.8599C81.39 45.3499 81.7 45.7399 82.04 46.0499C82.55 46.5099 83.14 46.7999 83.61 46.9899C83.6214 46.9945 83.6323 46.999 83.6429 47.0035C83.6788 47.0185 83.7114 47.0322 83.75 47.0399L83.33 47.8699L82.66 47.5299C82.37 47.3799 82.01 47.4999 81.86 47.7999C81.71 48.0999 81.83 48.4499 82.13 48.5999L82.8 48.9399L82.45 49.6299L80.84 48.8199C80.55 48.6699 80.19 48.7899 80.04 49.0899C79.89 49.3799 80.01 49.7399 80.31 49.8899L81.92 50.6999L81.57 51.3899L80.9 51.0499C80.69 50.9499 80.46 50.9799 80.29 51.0999C79.35 50.1899 78.08 49.6399 76.67 49.6299C74.66 49.6299 72.92 50.7599 72.05 52.4299C71.84 52.0099 71.66 51.5399 71.56 50.9999C71.47 50.5299 71.43 50.1199 71.43 49.7499C71.43 49.1099 71.54 48.5899 71.74 48.1199C71.94 47.6399 72.22 47.1999 72.58 46.7399C72.68 46.6099 72.72 46.4399 72.7 46.2699C72.67 46.1099 72.58 45.9599 72.44 45.8699C71.62 45.3299 70.62 45.0899 69.65 45.0899C69.11 45.0899 68.59 45.1599 68.12 45.3199C67.36 45.5599 66.72 46.0199 66.22 46.6099C66.07 46.1399 65.93 45.5499 65.94 45.0199C65.94 44.5999 66.02 44.2099 66.2 43.8999C66.36 43.6099 66.26 43.2499 65.97 43.0899C65.68 42.9299 65.32 43.0299 65.16 43.3199C64.85 43.8599 64.75 44.4699 64.75 45.0299C64.75 45.7199 64.9 46.3699 65.07 46.9099C64.78 46.8499 64.5 46.8099 64.21 46.8099C63.79 46.8099 63.36 46.8799 62.95 47.0099C62.28 47.2299 61.63 47.6199 61.07 48.1399C60.51 48.6499 60.04 49.2799 59.77 49.9899C59.71 50.1499 59.72 50.3199 59.79 50.4699C59.86 50.6199 60 50.7299 60.15 50.7699C60.87 50.9799 61.47 51.2399 62 51.6499C62.53 52.0699 63.01 52.6599 63.47 53.6199C63.4832 53.6462 63.4944 53.6743 63.5054 53.7019L63.5054 53.7019C63.5195 53.7374 63.5332 53.7718 63.55 53.7999C63.05 54.4599 62.68 55.2099 62.47 56.0299C62.26 55.9999 62.04 55.9899 61.82 55.9899C58.93 55.9899 56.6 58.3299 56.6 61.2099C56.6 61.2199 56.6025 61.2299 56.605 61.2398L56.605 61.2399L56.605 61.2399C56.6075 61.2499 56.61 61.2599 56.61 61.2699H54.87C54.71 61.2699 54.56 61.3399 54.45 61.4399C54.34 61.5499 54.28 61.6999 54.28 61.8599V67.6299C54.28 67.7799 54.35 67.9399 54.45 68.0499C54.56 68.1599 54.71 68.2199 54.87 68.2199L54.85 68.2299ZM87.02 44.5799C87.17 44.5299 87.35 44.4999 87.56 44.4999C88.13 44.4999 88.86 44.7099 89.42 44.9399C89.59 45.0099 89.73 45.0699 89.87 45.1299C89.74 45.3699 89.57 45.6599 89.36 45.9599C89.15 46.2599 88.91 46.5599 88.66 46.7899C88.41 47.0299 88.15 47.1999 87.92 47.2699C87.79 47.3099 87.65 47.3399 87.49 47.3399C87.01 47.3399 86.41 47.1099 85.96 46.8499C85.79 46.7499 85.64 46.6599 85.52 46.5799C85.59 46.3699 85.7 46.0899 85.85 45.8099C85.99 45.5399 86.17 45.2599 86.37 45.0299C86.57 44.8099 86.79 44.6499 87.03 44.5799H87.02ZM83.57 45.6599C83.3 45.5199 83.02 45.3399 82.79 45.1399C82.57 44.9399 82.41 44.7199 82.34 44.4799C82.29 44.3299 82.26 44.1499 82.26 43.9399C82.26 43.3699 82.47 42.6399 82.7 42.0799C82.7699 41.9103 82.8297 41.7706 82.8896 41.6309L82.89 41.6299C83.13 41.7599 83.42 41.9299 83.72 42.1399C84.02 42.3499 84.32 42.5899 84.55 42.8399C84.79 43.0899 84.96 43.3499 85.03 43.5799C85.07 43.7099 85.1 43.8499 85.1 44.0099C85.1 44.4899 84.87 45.0899 84.61 45.5399C84.51 45.7099 84.42 45.8599 84.34 45.9799C84.13 45.9099 83.85 45.7999 83.57 45.6499V45.6599ZM92.36 88.3299H57.77V68.2299H92.36V88.3299ZM62.71 50.6999C62.22 50.3099 61.68 50.0499 61.14 49.8499C61.33 49.5499 61.56 49.2699 61.84 49.0199C62.28 48.6099 62.81 48.2999 63.28 48.1499C63.57 48.0499 63.87 48.0099 64.17 48.0099C64.7 48.0099 65.25 48.1499 65.78 48.4199C65.79 48.4199 65.81 48.4199 65.83 48.4299C65.8551 48.4424 65.8802 48.4471 65.9029 48.4513C65.9163 48.4538 65.9289 48.4562 65.94 48.4599C65.9575 48.4599 65.9731 48.4618 65.9884 48.464L65.995 48.4649C66.0125 48.4674 66.03 48.4699 66.05 48.4699C66.09 48.4699 66.13 48.4699 66.17 48.4599H66.24C66.2517 48.4599 66.26 48.453 66.2669 48.4473C66.2717 48.4433 66.2759 48.4399 66.28 48.4399C66.3 48.4399 66.31 48.4399 66.33 48.4299C66.35 48.4199 66.37 48.3999 66.38 48.3899C66.42 48.3699 66.45 48.3499 66.47 48.3199C66.5 48.2899 66.52 48.2599 66.54 48.2199C66.545 48.2099 66.5525 48.2024 66.56 48.1949C66.5675 48.1874 66.575 48.1799 66.58 48.1699C67.01 47.3399 67.65 46.7399 68.45 46.4799C68.79 46.3699 69.2 46.3099 69.62 46.3099C70.16 46.3099 70.71 46.4199 71.19 46.6099C70.97 46.9399 70.77 47.2999 70.61 47.6799C70.35 48.2899 70.2 48.9799 70.2 49.7699C70.2 50.2199 70.25 50.7099 70.35 51.2399C70.38 51.4099 70.42 51.5699 70.46 51.7299C69.82 51.4999 69.14 51.3799 68.42 51.3799C66.88 51.3799 65.47 51.9499 64.38 52.8799C63.9 51.9299 63.34 51.2199 62.69 50.7199L62.71 50.6999ZM57.77 61.1999C57.77 60.0799 58.22 59.0799 58.95 58.3499C59.68 57.6199 60.69 57.1699 61.8 57.1699C62.13 57.1699 62.46 57.2199 62.77 57.2999C62.93 57.3399 63.1 57.3099 63.25 57.2199C63.39 57.1199 63.48 56.9799 63.51 56.8099C63.87 54.3999 65.94 52.5499 68.44 52.5499C69.75 52.5499 70.94 53.0599 71.83 53.8899C71.98 54.0299 72.19 54.0799 72.39 54.0299C72.59 53.9799 72.74 53.8299 72.81 53.6299C73.32 51.9999 74.85 50.8099 76.66 50.8099C78.47 50.8099 80.12 52.0999 80.56 53.8499C80.61 54.0299 80.74 54.1899 80.92 54.2599C81.1 54.3299 81.31 54.3099 81.47 54.1899C82.11 53.7499 82.88 53.4999 83.72 53.4999C85.42 53.4999 86.87 54.5499 87.46 56.0399C87.54 56.2399 87.73 56.3899 87.95 56.4099C90.41 56.6799 92.33 58.7299 92.39 61.2499H57.75C57.75 61.2499 57.76 61.2099 57.76 61.1899L57.77 61.1999ZM55.44 62.4599H94.68V67.0399H55.44V62.4599ZM71.15 76.4997C71.44 76.6697 71.8 76.5697 71.97 76.2797L74.02 72.7397C74.26 72.3197 74.66 72.1297 75.09 72.1197C75.51 72.1197 75.92 72.3197 76.16 72.7397L77.38 74.8497L76.93 74.7397C76.61 74.6597 76.29 74.8597 76.21 75.1797C76.13 75.4997 76.33 75.8197 76.65 75.8997L78.5 76.3597C78.82 76.4397 79.14 76.2397 79.22 75.9197L79.68 74.0697C79.76 73.7497 79.56 73.4297 79.24 73.3497C78.92 73.2697 78.6 73.4697 78.52 73.7897L78.41 74.2597L77.19 72.1497C76.72 71.3397 75.9 70.9297 75.08 70.9297C74.26 70.9297 73.44 71.3397 72.97 72.1497L70.92 75.6897C70.75 75.9797 70.85 76.3397 71.14 76.5097L71.15 76.4997ZM68.4 83.5401C67.9722 83.0925 67.7226 82.4964 67.72 81.8601H67.71C67.71 81.4601 67.82 81.0401 68.04 80.6502L69.26 78.5401L68.8 78.6701C68.48 78.7601 68.16 78.5801 68.06 78.2601C67.97 77.9401 68.15 77.6101 68.47 77.5201L70.31 76.9902C70.46 76.9402 70.62 76.9601 70.76 77.0401C70.9 77.1202 71.01 77.2501 71.05 77.4002L71.58 79.2402C71.67 79.5602 71.49 79.8901 71.17 79.9801C70.85 80.0701 70.52 79.8901 70.43 79.5701L70.3 79.1301L69.08 81.2402C68.96 81.4402 68.91 81.6501 68.91 81.8501C68.91 82.1701 69.04 82.4801 69.26 82.7101C69.48 82.9501 69.78 83.0901 70.15 83.0901H74.04C74.37 83.0901 74.64 83.3601 74.64 83.6901C74.64 84.0201 74.37 84.2901 74.04 84.2901H70.15C69.45 84.2901 68.83 83.9902 68.4 83.5401ZM78.95 77.6104C78.79 77.3204 78.88 76.9604 79.17 76.7904H79.16C79.45 76.6304 79.81 76.7204 79.98 77.0104L82.07 80.6404C82.29 81.0204 82.4 81.4404 82.4 81.8504C82.4 82.4904 82.15 83.0904 81.72 83.5404C81.29 84.0004 80.67 84.2904 79.97 84.2904H77.54L77.89 84.6204C78.13 84.8504 78.14 85.2204 77.91 85.4604C77.68 85.7004 77.31 85.7104 77.07 85.4804L75.69 84.1604C75.45 83.9304 75.44 83.5604 75.67 83.3204L76.99 81.9404C77.22 81.7004 77.59 81.6904 77.83 81.9204C78.07 82.1504 78.08 82.5204 77.85 82.7604L77.53 83.0904H79.97C80.34 83.0904 80.64 82.9404 80.86 82.7104C81.08 82.4804 81.21 82.1704 81.21 81.8504C81.21 81.6504 81.16 81.4404 81.04 81.2404L78.95 77.6104Z" fill="#3F2204"/>
<path d="M30.11 36.69H29.86V36.94H30.11V36.69ZM30.11 36.68H30.36V36.43H30.11V36.68ZM53.41 41.19L53.5422 40.9778L53.5141 40.9603L53.4824 40.9507L53.41 41.19ZM51.95 41.13L51.9944 41.376L51.9955 41.3758L51.95 41.13ZM54.55 41.9L54.7345 41.7313L54.7113 41.706L54.6822 41.6878L54.55 41.9ZM55.18 43.13L54.9349 43.179L54.9349 43.1794L55.18 43.13ZM53.04 46.28L53.1007 46.5225L53.1013 46.5224L53.04 46.28ZM44.89 48.32L44.8293 48.0775L44.8279 48.0778L44.89 48.32ZM41.87 48.03L41.7827 48.2643L41.7835 48.2645L41.87 48.03ZM38.41 46.74L38.4973 46.5058L38.1628 46.381L38.16 46.7381L38.41 46.74ZM38.11 85.64L37.86 85.6381L37.86 85.6389L38.11 85.64ZM31.66 87.76L31.8618 87.6124L31.6659 87.3445L31.4625 87.6068L31.66 87.76ZM24.31 61.57H24.56V61.32H24.31V61.57ZM21.38 57.33H21.63V57.0761L21.3761 57.08L21.38 57.33ZM19.46 57.36V57.61L19.4639 57.61L19.46 57.36ZM17.79 56.6L17.9814 56.4392L17.9796 56.437L17.79 56.6ZM17.28 54.81L17.5272 54.8475L17.5272 54.8471L17.28 54.81ZM19.02 43.2L18.7728 43.1628L18.7728 43.1629L19.02 43.2ZM38.16 38.85L38.2782 38.6297L38.2782 38.6297L38.16 38.85ZM44.48 42.24L44.5991 42.0202L44.5982 42.0197L44.48 42.24ZM45.08 42.37L45.119 42.617L45.1244 42.616L45.08 42.37ZM22.75 57.32L22.747 57.07L22.5 57.073V57.32H22.75ZM31.08 57.22H31.33V56.967L31.077 56.97L31.08 57.22ZM22.75 60.19H22.5V60.44H22.75V60.19ZM31.08 60.19V60.44H31.33V60.19H31.08ZM52.74 44.93L52.9826 44.8694L52.9219 44.6268L52.6793 44.6875L52.74 44.93ZM44.59 46.97L44.6489 47.213L44.6507 47.2125L44.59 46.97ZM52.75 44.97L52.5075 45.0306L52.568 45.2726L52.8101 45.2127L52.75 44.97ZM53.88 43.46L53.6349 43.509L53.635 43.5099L53.88 43.46ZM52.2 42.52L52.2444 42.766L52.2447 42.766L52.2 42.52ZM45.33 43.76L45.2856 43.514L45.2848 43.5141L45.33 43.76ZM43.85 43.49L43.9688 43.27L43.9682 43.2697L43.85 43.49ZM37.53 40.1L37.6482 39.8797L37.6472 39.8792L37.53 40.1ZM20.39 43.43L20.6372 43.4673L20.6373 43.467L20.39 43.43ZM18.64 55.04L18.8869 55.0795L18.8872 55.0773L18.64 55.04ZM18.83 55.7L18.6395 55.862L18.6432 55.8661L18.83 55.7ZM19.45 55.98V56.23L19.4532 56.23L19.45 55.98ZM31.85 55.82L31.8532 56.07L31.8538 56.07L31.85 55.82ZM33.04 54.57H32.79L32.79 54.5737L33.04 54.57ZM31.83 53.22V53.47L31.8338 53.47L31.83 53.22ZM23.25 52.97L23.4441 52.8123L23.4389 52.8063L23.25 52.97ZM23.1 52.4L22.8539 52.3557L22.8528 52.3629L23.1 52.4ZM24.03 47.23L23.7841 47.1847L23.784 47.1857L24.03 47.23ZM25.38 47.48L25.1341 47.4347L25.134 47.4357L25.38 47.48ZM25.13 48.87L24.884 48.8257L24.831 49.12H25.13V48.87ZM32.47 51.9H32.22V52.0948L32.4089 52.1424L32.47 51.9ZM34.42 54.41H34.67L34.67 54.4079L34.42 54.41ZM34.42 54.55H34.17L34.17 54.552L34.42 54.55ZM32.47 57.12L32.4079 56.8778L32.22 56.9261V57.12H32.47ZM25.7 61.58V61.33H25.45V61.58H25.7ZM36.77 85.64L36.52 85.6381L36.52 85.6383L36.77 85.64ZM37.07 45.75L36.8201 45.7391L36.82 45.7481L37.07 45.75ZM37.99 45.1L37.901 45.3336L37.9031 45.3344L37.99 45.1ZM42.36 46.72L42.2731 46.9544L42.2733 46.9545L42.36 46.72ZM24.86 50.26V50.01H24.6511L24.614 50.2156L24.86 50.26ZM31.08 50.26H31.33V50.01H31.08V50.26ZM24.58 51.81L24.334 51.7656L24.2808 52.06H24.58V51.81ZM31.08 51.81V52.06H31.33V51.81H31.08ZM56.58 68.2299H56.83V67.9799H56.58V68.2299ZM54.85 68.2299L54.7383 68.0063L53.7905 68.4799H54.85V68.2299ZM56.75 89.3499L56.5648 89.5182L56.5733 89.5267L56.75 89.3499ZM93.37 89.3499L93.5384 89.5351L93.5468 89.5267L93.37 89.3499ZM93.54 68.2299V67.9799H93.29V68.2299H93.54ZM95.69 68.0599L95.8584 68.2451L95.8668 68.2367L95.69 68.0599ZM95.69 61.4499L95.8752 61.2815L95.8668 61.2731L95.69 61.4499ZM93.57 61.2799L93.3201 61.2849L93.325 61.5299H93.57V61.2799ZM88.4 55.3099L88.1747 55.4181L88.2309 55.5353L88.3592 55.5565L88.4 55.3099ZM83.5574 52.3503L83.583 52.599L83.5574 52.3503ZM83.42 52.3599L83.2433 52.5367L83.3165 52.6099H83.42V52.3599ZM83.26 52.2399L83.1482 52.4635L83.1548 52.4668L83.1616 52.4697L83.26 52.2399ZM82.62 51.9199L82.3971 51.8068L82.2833 52.031L82.5082 52.1435L82.62 51.9199ZM82.97 51.2299L83.0818 51.0063L82.8595 50.8951L82.7471 51.1168L82.97 51.2299ZM84.55 52.0199L84.6649 51.7978L84.6618 51.7963L84.55 52.0199ZM85.35 51.7499L85.128 51.635L85.1264 51.6381L85.35 51.7499ZM85.08 50.9499L84.9682 51.1735V51.1735L85.08 50.9499ZM83.5 50.1599L83.2771 50.0468L83.1633 50.271L83.3882 50.3835L83.5 50.1599ZM83.85 49.4699L83.9618 49.2463L83.7395 49.1351L83.6271 49.3568L83.85 49.4699ZM84.49 49.7899L84.6049 49.5678L84.6018 49.5663L84.49 49.7899ZM85.29 49.5199L85.068 49.405L85.0664 49.4081L85.29 49.5199ZM85.02 48.7199L85.1318 48.4963L85.02 48.7199ZM84.38 48.3999L84.1564 48.2881L84.0446 48.5117L84.2682 48.6235L84.38 48.3999ZM84.81 47.5399L84.9487 47.3319L84.7131 47.1748L84.5864 47.4281L84.81 47.5399ZM85.36 47.8899L85.2328 48.1052L85.2403 48.1094L85.36 47.8899ZM88.29 48.3999L88.3691 48.6371L88.372 48.6361L88.29 48.3999ZM89.54 47.5899L89.7117 47.7717L89.7151 47.7684L89.54 47.5899ZM91.21 45.0999L90.9833 44.9946L90.96 45.0447V45.0999H91.21ZM90.96 44.3399L91.085 44.1233L91.027 44.0899H90.96V44.3399ZM90.8632 44.2919L90.7473 44.5135H90.7473L90.8632 44.2919ZM89.86 43.8299L89.7691 44.0628L89.86 43.8299ZM86.65 43.4499L86.7236 43.6889L86.7291 43.6871L86.65 43.4499ZM86.28 43.6099L86.0329 43.6479L86.0871 43.9999L86.3997 43.8294L86.28 43.6099ZM86.18 43.2199L85.9437 43.3019L85.9467 43.3096L86.18 43.2199ZM85.37 41.9699L85.5518 41.7982L85.5485 41.7948L85.37 41.9699ZM82.88 40.2999L82.7747 40.5266L82.8248 40.5499H82.88V40.2999ZM82.12 40.5499L81.9035 40.425L81.87 40.4829V40.5499H82.12ZM82.0721 40.6467L82.291 40.7675L82.2936 40.7626L82.0721 40.6467ZM82.072 40.6468L81.8531 40.526L81.8505 40.5309L82.072 40.6468ZM81.61 41.6499L81.8429 41.7409V41.7409L81.61 41.6499ZM81.23 44.8599L81.4677 44.7823L81.4672 44.7808L81.23 44.8599ZM82.04 46.0499L81.8716 46.2346L81.8726 46.2355L82.04 46.0499ZM83.61 46.9899L83.5163 47.2217L83.5172 47.222L83.61 46.9899ZM83.6429 47.0035L83.7396 46.7729L83.7396 46.7729L83.6429 47.0035ZM83.75 47.0399L83.9731 47.1528L84.1216 46.8593L83.7991 46.7947L83.75 47.0399ZM83.33 47.8699L83.2169 48.0928L83.4401 48.2061L83.5531 47.9828L83.33 47.8699ZM82.66 47.5299L82.5452 47.752L82.5469 47.7528L82.66 47.5299ZM82.13 48.5999L82.2432 48.3769L82.2418 48.3763L82.13 48.5999ZM82.8 48.9399L83.023 49.053L83.1361 48.8301L82.9132 48.717L82.8 48.9399ZM82.45 49.6299L82.3377 49.8532L82.5603 49.9652L82.673 49.743L82.45 49.6299ZM80.84 48.8199L80.7252 49.042L80.7277 49.0432L80.84 48.8199ZM80.04 49.0899L80.2621 49.2048L80.2636 49.2017L80.04 49.0899ZM80.31 49.8899L80.4224 49.6666L80.4218 49.6663L80.31 49.8899ZM81.92 50.6999L82.143 50.813L82.2565 50.5893L82.0324 50.4766L81.92 50.6999ZM81.57 51.3899L81.4569 51.6128L81.6799 51.726L81.793 51.503L81.57 51.3899ZM80.9 51.0499L81.0132 50.8269L81.0075 50.8242L80.9 51.0499ZM80.29 51.0999L80.1161 51.2795L80.265 51.4236L80.4342 51.3041L80.29 51.0999ZM76.67 49.6299L76.6718 49.3799H76.67V49.6299ZM72.05 52.4299L71.8264 52.5417L72.0455 52.9798L72.2717 52.5454L72.05 52.4299ZM71.56 50.9999L71.8059 50.9544L71.8056 50.9529L71.56 50.9999ZM71.74 48.1199L71.9701 48.2178L71.9708 48.216L71.74 48.1199ZM72.58 46.7399L72.7769 46.894L72.7782 46.8923L72.58 46.7399ZM72.7 46.2699L72.9483 46.2407L72.9473 46.2322L72.9457 46.2238L72.7 46.2699ZM72.44 45.8699L72.3025 46.0787L72.3048 46.0802L72.44 45.8699ZM68.12 45.3199L68.1953 45.5583L68.2006 45.5566L68.12 45.3199ZM66.22 46.6099L65.9819 46.6859L66.119 47.1157L66.4108 46.7715L66.22 46.6099ZM65.94 45.0199L66.19 45.0246V45.0199H65.94ZM66.2 43.8999L66.4163 44.0255L66.4189 44.0207L66.2 43.8999ZM65.16 43.3199L65.3769 43.4444L65.3789 43.4407L65.16 43.3199ZM65.07 46.9099L65.0194 47.1547L65.4364 47.241L65.3085 46.8348L65.07 46.9099ZM62.95 47.0099L62.8745 46.7716L62.872 46.7724L62.95 47.0099ZM61.07 48.1399L61.2384 48.3247L61.2401 48.3231L61.07 48.1399ZM59.77 49.9899L59.5364 49.901L59.5359 49.9021L59.77 49.9899ZM60.15 50.7699L60.2201 50.5298L60.2144 50.5283L60.15 50.7699ZM62 51.6499L62.1553 51.4539L62.153 51.4522L62 51.6499ZM63.47 53.6199L63.2445 53.7279L63.2464 53.7317L63.47 53.6199ZM63.5054 53.7019L63.7425 53.6228L63.7403 53.6161L63.7376 53.6095L63.5054 53.7019ZM63.5054 53.7019L63.2682 53.781L63.2705 53.7878L63.2731 53.7944L63.5054 53.7019ZM63.55 53.7999L63.7493 53.9509L63.8513 53.8162L63.7644 53.6713L63.55 53.7999ZM62.47 56.0299L62.4347 56.2774L62.6566 56.3091L62.7122 56.0919L62.47 56.0299ZM56.605 61.2398L56.8504 61.1908L56.8476 61.1792L56.605 61.2398ZM56.605 61.2399L56.3596 61.289L56.3625 61.3006L56.605 61.2399ZM56.61 61.2699V61.5199H56.86V61.2699H56.61ZM54.45 61.4399L54.2817 61.2547L54.2733 61.2631L54.45 61.4399ZM54.45 68.0499L54.2648 68.2182L54.2733 68.2267L54.45 68.0499ZM54.87 68.2199L54.9818 68.4435L55.9296 67.9699H54.87V68.2199ZM87.02 44.5799L86.941 44.3427L85.4794 44.8299H87.02V44.5799ZM89.42 44.9399L89.5152 44.7087L89.515 44.7086L89.42 44.9399ZM89.87 45.1299L90.0899 45.249L90.2204 45.008L89.9685 44.9001L89.87 45.1299ZM88.66 46.7899L88.4907 46.6059L88.4869 46.6095L88.66 46.7899ZM87.92 47.2699L87.8472 47.0307L87.8465 47.0309L87.92 47.2699ZM85.96 46.8499L85.8333 47.0654L85.835 47.0664L85.96 46.8499ZM85.52 46.5799L85.2829 46.5008L85.2225 46.682L85.3814 46.7879L85.52 46.5799ZM85.85 45.8099L86.0704 45.928L86.072 45.925L85.85 45.8099ZM86.37 45.0299L86.185 44.8617L86.1814 44.8658L86.37 45.0299ZM87.03 44.5799L87.1 44.8199L88.7801 44.3299H87.03V44.5799ZM82.79 45.1399L82.6218 45.3249L82.626 45.3285L82.79 45.1399ZM83.57 45.6599L83.4549 45.8818L83.82 46.0711V45.6599H83.57ZM82.34 44.4799L82.5802 44.4098L82.5772 44.4008L82.34 44.4799ZM82.7 42.0799L82.4689 41.9847L82.4688 41.9849L82.7 42.0799ZM82.8896 41.6309L82.6605 41.5308L82.6598 41.5324L82.8896 41.6309ZM82.89 41.6299L83.0091 41.4101L82.7698 41.2805L82.6609 41.5298L82.89 41.6299ZM84.55 42.8399L84.366 43.0092L84.3697 43.013L84.55 42.8399ZM85.03 43.5799L84.7909 43.6527L84.7911 43.6534L85.03 43.5799ZM84.61 45.5399L84.8255 45.6666L84.8265 45.665L84.61 45.5399ZM84.34 45.9799L84.261 46.2171L84.4421 46.2774L84.548 46.1186L84.34 45.9799ZM83.57 45.6499L83.6881 45.4295L83.32 45.2323V45.6499H83.57ZM57.77 88.3299H57.52V88.5799H57.77V88.3299ZM92.36 88.3299V88.5799H92.61V88.3299H92.36ZM57.77 68.2299V67.9799H57.52V68.2299H57.77ZM92.36 68.2299H92.61V67.9799H92.36V68.2299ZM61.14 49.8499L60.9288 49.7161L60.7636 49.9771L61.0532 50.0843L61.14 49.8499ZM62.71 50.6999L62.8868 50.8767L63.0848 50.6787L62.8657 50.5043L62.71 50.6999ZM61.84 49.0199L62.0066 49.2064L62.0105 49.2028L61.84 49.0199ZM63.28 48.1499L63.3561 48.3881L63.3615 48.3862L63.28 48.1499ZM65.78 48.4199L65.6665 48.6427L65.72 48.6699H65.78V48.4199ZM65.9029 48.4513L65.9486 48.2056L65.9029 48.4513ZM65.94 48.4599L65.861 48.6971L65.8995 48.7099H65.94V48.4599ZM65.9884 48.464L66.0236 48.2164L66.0231 48.2164L65.9884 48.464ZM65.995 48.4649L66.0304 48.2174L66.0302 48.2174L65.995 48.4649ZM66.17 48.4599V48.2099H66.1393L66.1094 48.2174L66.17 48.4599ZM66.2669 48.4473L66.4264 48.6399L66.4264 48.6398L66.2669 48.4473ZM66.38 48.3899L66.2682 48.1663L66.2319 48.1844L66.2032 48.2131L66.38 48.3899ZM66.47 48.3199L66.2933 48.1431L66.2757 48.1606L66.262 48.1812L66.47 48.3199ZM66.54 48.2199L66.3164 48.1081L66.3164 48.1081L66.54 48.2199ZM66.58 48.1699L66.358 48.0549L66.3564 48.0581L66.58 48.1699ZM68.45 46.4799L68.3731 46.242L68.3728 46.2421L68.45 46.4799ZM71.19 46.6099L71.398 46.7486L71.5696 46.4913L71.282 46.3774L71.19 46.6099ZM70.61 47.6799L70.84 47.7779L70.8404 47.7769L70.61 47.6799ZM70.35 51.2399L70.5962 51.1964L70.5957 51.1935L70.35 51.2399ZM70.46 51.7299L70.3755 51.9652L70.8161 52.1235L70.7026 51.6693L70.46 51.7299ZM64.38 52.8799L64.1569 52.9926L64.3003 53.2765L64.5423 53.0701L64.38 52.8799ZM62.69 50.7199L62.5133 50.5431L62.3119 50.7444L62.5376 50.918L62.69 50.7199ZM58.95 58.3499L59.1268 58.5267L58.95 58.3499ZM57.77 61.1999L57.5933 61.3767L58.02 61.8034V61.1999H57.77ZM62.77 57.2999L62.7076 57.542L62.7094 57.5424L62.77 57.2999ZM63.25 57.2199L63.3787 57.4343L63.3872 57.4291L63.3953 57.4233L63.25 57.2199ZM63.51 56.8099L63.7563 56.8533L63.7573 56.8468L63.51 56.8099ZM71.83 53.8899L72.0006 53.7071L72.0005 53.7071L71.83 53.8899ZM72.81 53.6299L73.0461 53.7125L73.0486 53.7045L72.81 53.6299ZM80.56 53.8499L80.3175 53.9109L80.3192 53.9168L80.56 53.8499ZM81.47 54.1899L81.3283 53.9837L81.32 53.9899L81.47 54.1899ZM87.46 56.0399L87.2276 56.1319L87.2279 56.1327L87.46 56.0399ZM87.95 56.4099L87.9773 56.1613L87.9727 56.1609L87.95 56.4099ZM92.39 61.2499V61.4999H92.646L92.64 61.2439L92.39 61.2499ZM57.75 61.2499L57.5075 61.1893L57.4299 61.4999H57.75V61.2499ZM57.76 61.1899L57.9368 61.0131L57.51 60.5863V61.1899H57.76ZM94.68 62.4599H94.93V62.2099H94.68V62.4599ZM55.44 62.4599V62.2099H55.19V62.4599H55.44ZM94.68 67.0399V67.2899H94.93V67.0399H94.68ZM55.44 67.0399H55.19V67.2899H55.44V67.0399ZM71.97 76.2797L72.1857 76.4061L72.1863 76.405L71.97 76.2797ZM71.15 76.4997L71.2764 76.284L71.1098 76.1864L70.9733 76.3229L71.15 76.4997ZM74.02 72.7397L74.2364 72.865L74.2371 72.8637L74.02 72.7397ZM75.09 72.1197V71.8696L75.0842 71.8698L75.09 72.1197ZM76.16 72.7397L75.9429 72.8637L75.9436 72.8648L76.16 72.7397ZM77.38 74.8497L77.3206 75.0925L77.8896 75.2316L77.5964 74.7245L77.38 74.8497ZM76.93 74.7397L76.8694 74.9822L76.8706 74.9825L76.93 74.7397ZM76.21 75.1797L75.9675 75.1191V75.1191L76.21 75.1797ZM76.65 75.8997L76.5894 76.1422L76.5897 76.1423L76.65 75.8997ZM78.5 76.3597L78.5606 76.1172L78.5603 76.1171L78.5 76.3597ZM79.22 75.9197L79.4625 75.9803L79.4626 75.98L79.22 75.9197ZM79.68 74.0697L79.4375 74.0091L79.4374 74.0094L79.68 74.0697ZM78.52 73.7897L78.2774 73.729L78.2766 73.7327L78.52 73.7897ZM78.41 74.2597L78.1936 74.3848L78.5096 74.9313L78.6534 74.3167L78.41 74.2597ZM77.19 72.1497L77.4064 72.0246L77.4062 72.0242L77.19 72.1497ZM72.97 72.1497L72.7538 72.0242L72.7537 72.0244L72.97 72.1497ZM70.92 75.6897L71.1357 75.8161L71.1363 75.815L70.92 75.6897ZM71.14 76.5097L71.0136 76.7254L71.1802 76.823L71.3167 76.6865L71.14 76.5097ZM67.72 81.8601L67.97 81.8591L67.969 81.6101H67.72V81.8601ZM68.4 83.5401L68.5807 83.3674L68.4 83.5401ZM67.71 81.8601H67.46V82.1101H67.71V81.8601ZM68.04 80.6502L67.8235 80.525L67.8222 80.5273L68.04 80.6502ZM69.26 78.5401L69.4764 78.6653L69.7847 78.1321L69.192 78.2996L69.26 78.5401ZM68.8 78.6701L68.8676 78.9108L68.868 78.9107L68.8 78.6701ZM68.06 78.2601L67.8192 78.3279L67.8213 78.3347L68.06 78.2601ZM68.47 77.5201L68.5377 77.7608L68.5392 77.7604L68.47 77.5201ZM70.31 76.9902L70.3792 77.2306L70.389 77.2273L70.31 76.9902ZM71.05 77.4002L70.8084 77.4646L70.8097 77.4693L71.05 77.4002ZM71.58 79.2402L71.8206 79.1725L71.8202 79.171L71.58 79.2402ZM70.43 79.5701L70.6706 79.5025L70.6697 79.4993L70.43 79.5701ZM70.3 79.1301L70.5397 79.0593L70.3748 78.5012L70.0835 79.005L70.3 79.1301ZM69.08 81.2402L69.2944 81.3688L69.2964 81.3653L69.08 81.2402ZM69.26 82.7101L69.4443 82.5412L69.4406 82.5373L69.26 82.7101ZM79.17 76.7904L79.2964 77.0061L80.0908 76.5404H79.17V76.7904ZM78.95 77.6104L78.731 77.7312L78.7333 77.7352L78.95 77.6104ZM79.16 76.7904L79.0392 76.5715L78.1893 77.0404H79.16V76.7904ZM79.98 77.0104L80.1966 76.8857L80.1956 76.884L79.98 77.0104ZM82.07 80.6404L81.8533 80.7652L81.8536 80.7657L82.07 80.6404ZM81.72 83.5404L81.5392 83.3677L81.5373 83.3697L81.72 83.5404ZM77.54 84.2904V84.0404H76.9104L77.3685 84.4723L77.54 84.2904ZM77.89 84.6204L78.063 84.4399L78.0615 84.4385L77.89 84.6204ZM77.91 85.4604L77.7295 85.2875V85.2875L77.91 85.4604ZM77.07 85.4804L77.2429 85.2999L77.2428 85.2998L77.07 85.4804ZM75.69 84.1604L75.517 84.3409L75.5172 84.3411L75.69 84.1604ZM75.67 83.3204L75.8505 83.4934L75.8506 83.4932L75.67 83.3204ZM76.99 81.9404L76.8095 81.7675L76.8093 81.7676L76.99 81.9404ZM77.83 81.9204L78.0029 81.7399L77.83 81.9204ZM77.85 82.7604L78.0294 82.9345L78.0305 82.9334L77.85 82.7604ZM77.53 83.0904L77.3505 82.9164L76.9393 83.3404H77.53V83.0904ZM80.86 82.7104L80.6793 82.5376L80.6793 82.5376L80.86 82.7104ZM81.04 81.2404L80.8233 81.3652L80.8256 81.3691L81.04 81.2404ZM30.11 36.94C33.3524 36.94 35.98 34.2537 35.98 30.97H35.48C35.48 33.9863 33.0677 36.44 30.11 36.44V36.94ZM29.86 36.68V36.69H30.36V36.68H29.86ZM24.25 30.97C24.25 34.2537 26.8676 36.93 30.11 36.93V36.43C27.1524 36.43 24.75 33.9863 24.75 30.97H24.25ZM30.11 25C26.8671 25 24.25 27.6868 24.25 30.97H24.75C24.75 27.9532 27.1529 25.5 30.11 25.5V25ZM35.98 30.97C35.98 27.6863 33.3524 25 30.11 25V25.5C33.0677 25.5 35.48 27.9537 35.48 30.97H35.98ZM30.11 26.89C32.3078 26.89 34.11 28.7139 34.11 30.97H34.61C34.61 28.4461 32.5922 26.39 30.11 26.39V26.89ZM26.11 30.97C26.11 28.7135 27.9026 26.89 30.11 26.89V26.39C27.6174 26.39 25.61 28.4465 25.61 30.97H26.11ZM30.11 35.05C27.9026 35.05 26.11 33.2265 26.11 30.97H25.61C25.61 33.4935 27.6174 35.55 30.11 35.55V35.05ZM34.11 30.97C34.11 33.2265 32.3174 35.05 30.11 35.05V35.55C32.6026 35.55 34.61 33.4935 34.61 30.97H34.11ZM53.4824 40.9507C53.0112 40.8083 52.4806 40.7775 51.9045 40.8842L51.9955 41.3758C52.4994 41.2825 52.9488 41.3117 53.3377 41.4293L53.4824 40.9507ZM54.6822 41.6878L53.5422 40.9778L53.2778 41.4022L54.4178 42.1122L54.6822 41.6878ZM55.4252 43.081C55.3259 42.5849 55.0843 42.1138 54.7345 41.7313L54.3655 42.0687C54.6558 42.3862 54.8541 42.7751 54.9349 43.179L55.4252 43.081ZM53.1013 46.5224C54.9789 46.0476 55.6997 44.4427 55.4251 43.0806L54.9349 43.1794C55.1603 44.2973 54.5811 45.6324 52.9787 46.0376L53.1013 46.5224ZM44.9507 48.5625L53.1007 46.5225L52.9793 46.0375L44.8293 48.0775L44.9507 48.5625ZM41.7835 48.2645C42.6377 48.5798 43.7071 48.8814 44.9521 48.5622L44.8279 48.0778C43.7329 48.3586 42.7823 48.1002 41.9566 47.7955L41.7835 48.2645ZM38.3227 46.9742L41.7827 48.2642L41.9573 47.7958L38.4973 46.5058L38.3227 46.9742ZM38.36 85.6419L38.66 46.7419L38.16 46.7381L37.86 85.6381L38.36 85.6419ZM34.56 89.42C36.4304 89.42 38.3493 88.1245 38.36 85.6411L37.86 85.6389C37.8507 87.7955 36.2096 88.92 34.56 88.92V89.42ZM31.4582 87.9076C32.1918 88.9108 33.3919 89.42 34.56 89.42V88.92C33.5281 88.92 32.4883 88.4692 31.8618 87.6124L31.4582 87.9076ZM28.35 89.5C29.68 89.5 31.0405 88.9668 31.8576 87.9132L31.4625 87.6068C30.7595 88.5132 29.5601 89 28.35 89V89.5ZM24.06 85.62C24.06 86.8891 24.6046 87.8671 25.4196 88.5223C26.2289 89.173 27.2965 89.5 28.35 89.5V89C27.3936 89 26.4411 88.702 25.7329 88.1327C25.0305 87.5679 24.56 86.7309 24.56 85.62H24.06ZM24.06 61.57V85.62H24.56V61.57H24.06ZM22.06 61.82H24.31V61.32H22.06V61.82ZM21.13 60.87C21.13 61.381 21.545 61.82 22.06 61.82V61.32C21.8351 61.32 21.63 61.119 21.63 60.87H21.13ZM21.13 57.33V60.87H21.63V57.33H21.13ZM19.4639 57.61L21.3839 57.58L21.3761 57.08L19.4561 57.11L19.4639 57.61ZM19.43 57.61H19.46V57.11H19.43V57.61ZM17.5986 56.7608C18.0669 57.3184 18.7075 57.61 19.43 57.61V57.11C18.8525 57.11 18.3531 56.8816 17.9814 56.4392L17.5986 56.7608ZM17.0328 54.7725C16.922 55.5038 17.1224 56.2072 17.6005 56.763L17.9796 56.437C17.5976 55.9928 17.438 55.4362 17.5272 54.8475L17.0328 54.7725ZM18.7728 43.1629L17.0328 54.7729L17.5272 54.8471L19.2672 43.2371L18.7728 43.1629ZM23.12 38.06C21.3311 38.06 20.286 38.9839 19.6739 40.0861C19.0715 41.1711 18.8821 42.4371 18.7728 43.1628L19.2672 43.2373C19.3779 42.5029 19.5585 41.324 20.1111 40.3289C20.654 39.3511 21.5489 38.56 23.12 38.56V38.06ZM36.01 38.06H23.12V38.56H36.01V38.06ZM38.2782 38.6297C37.5517 38.2401 36.8311 38.06 36.01 38.06V38.56C36.7489 38.56 37.3883 38.7199 38.0419 39.0703L38.2782 38.6297ZM44.5982 42.0197L38.2782 38.6297L38.0418 39.0703L44.3618 42.4603L44.5982 42.0197ZM45.041 42.1231C44.9168 42.1427 44.8022 42.1302 44.5991 42.0202L44.3609 42.4598C44.6378 42.6098 44.8632 42.6573 45.119 42.6169L45.041 42.1231ZM51.9056 40.884L45.0356 42.124L45.1244 42.616L51.9944 41.376L51.9056 40.884ZM22.753 57.57L31.083 57.47L31.077 56.97L22.747 57.07L22.753 57.57ZM23 60.19V57.32H22.5V60.19H23ZM31.08 59.94H22.75V60.44H31.08V59.94ZM30.83 57.22V60.19H31.33V57.22H30.83ZM52.6793 44.6875L44.5293 46.7275L44.6507 47.2125L52.8007 45.1725L52.6793 44.6875ZM52.9925 44.9094L52.9826 44.8694L52.4975 44.9906L52.5075 45.0306L52.9925 44.9094ZM53.635 43.5099C53.6794 43.7275 53.654 43.9764 53.5216 44.1936C53.3915 44.4068 53.1424 44.6153 52.6899 44.7273L52.8101 45.2127C53.3676 45.0747 53.7385 44.7982 53.9484 44.4539C54.156 44.1136 54.1907 43.7325 54.125 43.4101L53.635 43.5099ZM52.2447 42.766C52.6883 42.6853 53.0113 42.7652 53.2302 42.9072C53.4507 43.0503 53.5871 43.27 53.6349 43.509L54.1252 43.411C54.053 43.05 53.8443 42.7097 53.5023 42.4878C53.1588 42.2648 52.7017 42.1747 52.1553 42.274L52.2447 42.766ZM45.3744 44.006L52.2444 42.766L52.1556 42.274L45.2856 43.514L45.3744 44.006ZM43.7312 43.71C44.2736 44.0029 44.8211 44.1077 45.3752 44.0059L45.2848 43.5141C44.8589 43.5923 44.4264 43.5171 43.9688 43.27L43.7312 43.71ZM37.4118 40.3203L43.7318 43.7103L43.9682 43.2697L37.6482 39.8797L37.4118 40.3203ZM36.02 39.97C36.5376 39.97 36.9575 40.0792 37.4128 40.3208L37.6472 39.8792C37.1225 39.6008 36.6224 39.47 36.02 39.47V39.97ZM23.13 39.97H36.02V39.47H23.13V39.97ZM20.6373 43.467C20.8359 42.141 21.1215 41.2647 21.5223 40.7223C21.9071 40.2016 22.4121 39.97 23.13 39.97V39.47C22.2779 39.47 21.6129 39.7584 21.1202 40.4252C20.6435 41.0703 20.3441 42.049 20.1428 43.393L20.6373 43.467ZM18.8872 55.0773L20.6372 43.4673L20.1428 43.3927L18.3928 55.0027L18.8872 55.0773ZM19.0205 55.5381C18.8962 55.3918 18.8588 55.2549 18.8869 55.0795L18.3932 55.0005C18.3412 55.3251 18.4239 55.6082 18.6395 55.8619L19.0205 55.5381ZM19.44 55.73C19.2674 55.73 19.1335 55.6651 19.0169 55.5339L18.6432 55.8661C18.8465 56.0949 19.1127 56.23 19.44 56.23V55.73ZM19.45 55.73H19.44V56.23H19.45V55.73ZM31.8468 55.57L19.4468 55.73L19.4532 56.23L31.8532 56.07L31.8468 55.57ZM32.79 54.5737C32.7981 55.1193 32.3646 55.5622 31.8462 55.57L31.8538 56.07C32.6554 56.0578 33.302 55.3807 33.29 54.5663L32.79 54.5737ZM32.79 54.43V54.57H33.29V54.43H32.79ZM31.8338 53.47C32.352 53.4621 32.79 53.8873 32.79 54.43H33.29C33.29 53.6127 32.628 52.9579 31.8262 52.97L31.8338 53.47ZM23.77 53.47H31.83V52.97H23.77V53.47ZM23.056 53.1276C23.2329 53.3454 23.4939 53.47 23.77 53.47V52.97C23.6462 52.97 23.5271 52.9146 23.444 52.8124L23.056 53.1276ZM22.8528 52.3629C22.8139 52.6221 22.8752 52.9193 23.0611 53.1337L23.4389 52.8063C23.3648 52.7207 23.3261 52.5779 23.3472 52.4371L22.8528 52.3629ZM23.784 47.1857L22.854 52.3557L23.3461 52.4443L24.2761 47.2743L23.784 47.1857ZM24.8765 46.4244C24.3663 46.3278 23.8785 46.6725 23.7841 47.1847L24.2759 47.2753C24.3215 47.0275 24.5537 46.8722 24.7835 46.9156L24.8765 46.4244ZM25.6259 47.5253C25.7207 47.0105 25.3822 46.52 24.8765 46.4244L24.7835 46.9156C25.0178 46.96 25.1793 47.1895 25.1341 47.4347L25.6259 47.5253ZM25.3761 48.9143L25.6261 47.5243L25.134 47.4357L24.884 48.8257L25.3761 48.9143ZM31.79 48.62H25.13V49.12H31.79V48.62ZM32.72 49.57C32.72 49.059 32.3051 48.62 31.79 48.62V49.12C32.015 49.12 32.22 49.321 32.22 49.57H32.72ZM32.72 51.9V49.57H32.22V51.9H32.72ZM34.67 54.4079C34.6591 53.0837 33.751 51.9653 32.5312 51.6576L32.4089 52.1424C33.409 52.3947 34.161 53.3163 34.17 54.4121L34.67 54.4079ZM34.67 54.55V54.41H34.17V54.55H34.67ZM32.5322 57.3622C33.7738 57.0435 34.6809 55.8925 34.67 54.548L34.17 54.552C34.1791 55.6675 33.4262 56.6165 32.4079 56.8778L32.5322 57.3622ZM32.72 60.88V57.12H32.22V60.88H32.72ZM31.79 61.83C32.3151 61.83 32.72 61.4009 32.72 60.88H32.22C32.22 61.1391 32.0249 61.33 31.79 61.33V61.83ZM25.7 61.83H31.79V61.33H25.7V61.83ZM25.95 85.63V61.58H25.45V85.63H25.95ZM28.37 87.63C27.7663 87.63 27.1536 87.4631 26.6988 87.1307C26.252 86.8041 25.95 86.3143 25.95 85.63H25.45C25.45 86.4857 25.838 87.1209 26.4037 87.5343C26.9614 87.9419 27.6837 88.13 28.37 88.13V87.63ZM30.78 85.63C30.78 86.4251 30.4146 86.9116 29.9383 87.2108C29.4483 87.5186 28.8336 87.63 28.37 87.63V88.13C28.8964 88.13 29.6117 88.0064 30.2042 87.6342C30.8104 87.2534 31.28 86.6149 31.28 85.63H30.78ZM30.78 65.12V85.63H31.28V65.12H30.78ZM31.71 64.17C31.1972 64.17 30.78 64.5967 30.78 65.12H31.28C31.28 64.8633 31.4828 64.67 31.71 64.67V64.17ZM32.64 65.12C32.64 64.609 32.2251 64.17 31.71 64.17V64.67C31.935 64.67 32.14 64.871 32.14 65.12H32.64ZM32.64 85.62V65.12H32.14V85.62H32.64ZM34.58 87.53C34.0886 87.53 33.6022 87.3772 33.2428 87.069C32.8892 86.7658 32.64 86.2969 32.64 85.62H32.14C32.14 86.4331 32.4458 87.0442 32.9173 87.4485C33.3828 87.8478 33.9914 88.03 34.58 88.03V87.53ZM36.52 85.6383C36.5155 86.3161 36.2661 86.78 35.9146 87.0781C35.557 87.3813 35.073 87.53 34.58 87.53V88.03C35.167 88.03 35.773 87.8537 36.238 87.4594C36.7089 87.06 37.0146 86.4539 37.02 85.6417L36.52 85.6383ZM36.82 45.7481L36.52 85.6381L37.02 85.6419L37.32 45.7519L36.82 45.7481ZM37.2236 44.9773C36.9786 45.1543 36.8334 45.4367 36.8202 45.7391L37.3198 45.7609C37.3266 45.6033 37.4015 45.4657 37.5164 45.3827L37.2236 44.9773ZM38.079 44.8664C37.7911 44.7567 37.4725 44.7976 37.2236 44.9773L37.5164 45.3827C37.6275 45.3024 37.7689 45.2833 37.901 45.3336L38.079 44.8664ZM42.4469 46.4856L38.0769 44.8656L37.9031 45.3344L42.2731 46.9544L42.4469 46.4856ZM44.5311 46.727C43.9357 46.8714 43.3387 46.8152 42.4467 46.4855L42.2733 46.9545C43.2213 47.3048 43.9244 47.3886 44.6489 47.213L44.5311 46.727ZM24.86 50.51H31.08V50.01H24.86V50.51ZM24.826 51.8544L25.106 50.3044L24.614 50.2156L24.334 51.7656L24.826 51.8544ZM31.08 51.56H24.58V52.06H31.08V51.56ZM30.83 50.26V51.81H31.33V50.26H30.83ZM56.58 67.9799H54.85V68.4799H56.58V67.9799ZM56.83 88.9299V68.2299H56.33V88.9299H56.83ZM56.935 89.1817C56.871 89.1114 56.83 89.0096 56.83 88.9299H56.33C56.33 89.1502 56.429 89.3684 56.565 89.5181L56.935 89.1817ZM57.17 89.2699C57.073 89.2699 56.9876 89.2339 56.9268 89.1731L56.5733 89.5267C56.7325 89.6859 56.9471 89.7699 57.17 89.7699V89.2699ZM92.95 89.2699H57.17V89.7699H92.95V89.2699ZM93.2019 89.1649C93.1298 89.2305 93.0377 89.2699 92.95 89.2699V89.7699C93.1824 89.7699 93.3903 89.6693 93.5382 89.5349L93.2019 89.1649ZM93.29 88.9299C93.29 89.0269 93.2541 89.1123 93.1933 89.1731L93.5468 89.5267C93.706 89.3675 93.79 89.1529 93.79 88.9299H93.29ZM93.29 68.2299V88.9299H93.79V68.2299H93.29ZM95.27 67.9799H93.54V68.4799H95.27V67.9799ZM95.5219 67.8749C95.4498 67.9405 95.3577 67.9799 95.27 67.9799V68.4799C95.5024 68.4799 95.7103 68.3793 95.8582 68.2449L95.5219 67.8749ZM95.61 67.6399C95.61 67.7369 95.5741 67.8223 95.5133 67.8831L95.8668 68.2367C96.026 68.0775 96.11 67.8628 96.11 67.6399H95.61ZM95.61 61.8699V67.6399H96.11V61.8699H95.61ZM95.505 61.6181C95.5706 61.6902 95.61 61.7823 95.61 61.8699H96.11C96.11 61.6375 96.0095 61.4296 95.875 61.2817L95.505 61.6181ZM95.27 61.5299C95.3671 61.5299 95.4525 61.5659 95.5133 61.6267L95.8668 61.2731C95.7076 61.1139 95.493 61.0299 95.27 61.0299V61.5299ZM93.57 61.5299H95.27V61.0299H93.57V61.5299ZM88.3592 55.5565C91.1426 56.0172 93.2625 58.3875 93.3201 61.2849L93.82 61.2749C93.7575 58.1323 91.4575 55.5625 88.4409 55.0632L88.3592 55.5565ZM83.71 52.5899C85.6788 52.5899 87.374 53.7501 88.1747 55.4181L88.6254 55.2017C87.746 53.3697 85.8813 52.0899 83.71 52.0899V52.5899ZM83.583 52.599C83.635 52.5936 83.6736 52.5899 83.71 52.5899V52.0899C83.6438 52.0899 83.5798 52.0967 83.5319 52.1016L83.583 52.599ZM83.42 52.6099C83.479 52.6099 83.5383 52.6036 83.583 52.599L83.5319 52.1016C83.4817 52.1067 83.4487 52.1099 83.42 52.1099V52.6099ZM83.1616 52.4697C83.1738 52.4749 83.1821 52.4802 83.1914 52.4876C83.2037 52.4974 83.2164 52.5098 83.2433 52.5367L83.5968 52.1831C83.5474 52.1337 83.4774 52.0611 83.3585 52.0101L83.1616 52.4697ZM82.5082 52.1435L83.1482 52.4635L83.3718 52.0163L82.7318 51.6963L82.5082 52.1435ZM82.7471 51.1168L82.3971 51.8068L82.843 52.033L83.193 51.343L82.7471 51.1168ZM84.6618 51.7963L83.0818 51.0063L82.8582 51.4535L84.4382 52.2435L84.6618 51.7963ZM85.1264 51.6381C85.0368 51.8174 84.8271 51.8817 84.6649 51.7978L84.4352 52.2419C84.853 52.458 85.3633 52.2824 85.5736 51.8617L85.1264 51.6381ZM84.9682 51.1735C85.1476 51.2632 85.2119 51.4728 85.128 51.635L85.5721 51.8647C85.7882 51.447 85.6125 50.9366 85.1918 50.7263L84.9682 51.1735ZM83.3882 50.3835L84.9682 51.1735L85.1918 50.7263L83.6118 49.9363L83.3882 50.3835ZM83.6271 49.3568L83.2771 50.0468L83.723 50.273L84.073 49.583L83.6271 49.3568ZM84.6018 49.5663L83.9618 49.2463L83.7382 49.6935L84.3782 50.0135L84.6018 49.5663ZM85.0664 49.4081C84.9768 49.5874 84.7671 49.6517 84.6049 49.5678L84.3752 50.0119C84.793 50.228 85.3033 50.0524 85.5136 49.6317L85.0664 49.4081ZM84.9082 48.9435C85.0876 49.0332 85.1519 49.2428 85.068 49.405L85.5121 49.6347C85.7282 49.217 85.5525 48.7066 85.1318 48.4963L84.9082 48.9435ZM84.2682 48.6235L84.9082 48.9435L85.1318 48.4963L84.4918 48.1763L84.2682 48.6235ZM84.5864 47.4281L84.1564 48.2881L84.6036 48.5117L85.0336 47.6517L84.5864 47.4281ZM85.4872 47.6747C85.2737 47.5485 85.0987 47.4319 84.9487 47.3319L84.6714 47.7479C84.8214 47.8479 85.0064 47.9713 85.2328 48.1051L85.4872 47.6747ZM87.48 48.2799C86.7151 48.2799 86.0211 47.9657 85.4797 47.6704L85.2403 48.1094C85.7989 48.4141 86.5849 48.7799 87.48 48.7799V48.2799ZM88.211 48.1627C87.9684 48.2436 87.7153 48.2799 87.48 48.2799V48.7799C87.7648 48.7799 88.0717 48.7362 88.3691 48.6371L88.211 48.1627ZM89.3684 47.4081C89.0212 47.736 88.6512 48.01 88.2081 48.1637L88.372 48.6361C88.9088 48.4498 89.3388 48.1238 89.7117 47.7716L89.3684 47.4081ZM90.5449 45.8426C90.259 46.3256 89.862 46.9239 89.365 47.4114L89.7151 47.7684C90.258 47.2359 90.681 46.5942 90.9752 46.0972L90.5449 45.8426ZM90.96 45.0999C90.96 45.069 90.9661 45.0451 90.9666 45.0433C90.9683 45.036 90.97 45.0304 90.9707 45.0281C90.9723 45.023 90.9735 45.0197 90.9735 45.0196C90.9738 45.0188 90.9733 45.0203 90.9713 45.0251C90.9677 45.034 90.9613 45.0488 90.9522 45.0692C90.9341 45.1099 90.9064 45.1695 90.8695 45.2445C90.7957 45.3945 90.6862 45.6038 90.5449 45.8426L90.9752 46.0972C91.1239 45.846 91.2394 45.6253 91.3181 45.4652C91.3575 45.3853 91.3879 45.3199 91.4088 45.2731C91.4192 45.2498 91.4276 45.2301 91.4338 45.215C91.4368 45.2077 91.44 45.1998 91.4428 45.1922C91.4441 45.1887 91.4462 45.1827 91.4484 45.1757C91.4495 45.1723 91.4514 45.1659 91.4532 45.158C91.4538 45.1555 91.46 45.1311 91.46 45.0999H90.96ZM90.8351 44.5564C90.9912 44.6465 91.0548 44.8405 90.9833 44.9946L91.4368 45.2052C91.6252 44.7993 91.4489 44.3333 91.085 44.1233L90.8351 44.5564ZM90.7473 44.5135C90.7755 44.5282 90.8006 44.5414 90.8192 44.5507C90.8282 44.5552 90.8391 44.5606 90.8496 44.5652C90.8545 44.5674 90.8632 44.5712 90.8736 44.5748C90.8787 44.5766 90.8874 44.5796 90.8982 44.5823C90.9062 44.5842 90.9296 44.5899 90.96 44.5899V44.0899C90.9765 44.0899 90.9899 44.0916 90.9982 44.0929C91.007 44.0942 91.0142 44.0959 91.0192 44.0971C91.029 44.0995 91.0363 44.102 91.04 44.1033C91.044 44.1048 91.0471 44.106 91.0488 44.1067C91.0505 44.1074 91.0517 44.1079 91.0522 44.1081C91.053 44.1085 91.0528 44.1084 91.051 44.1075C91.0493 44.1067 91.0469 44.1056 91.0437 44.1039C91.037 44.1006 91.0284 44.0962 91.0173 44.0904C91.0063 44.0847 90.9937 44.0781 90.9791 44.0704L90.7473 44.5135ZM89.7691 44.0628C90.2295 44.2426 90.5838 44.4279 90.7473 44.5135L90.9791 44.0704C90.8118 43.9829 90.4379 43.7872 89.951 43.597L89.7691 44.0628ZM87.56 43.5599C88.3514 43.5599 89.1353 43.8152 89.7691 44.0628L89.951 43.597C89.3047 43.3446 88.4487 43.0599 87.56 43.0599V43.5599ZM86.7291 43.6871C86.9992 43.597 87.2818 43.5599 87.56 43.5599V43.0599C87.2382 43.0599 86.9009 43.1028 86.571 43.2127L86.7291 43.6871ZM86.3997 43.8294C86.5 43.7747 86.6142 43.7225 86.7236 43.6888L86.5765 43.2109C86.4259 43.2573 86.2801 43.3251 86.1603 43.3904L86.3997 43.8294ZM85.9467 43.3096C85.9886 43.4186 86.0148 43.5303 86.0329 43.6479L86.5271 43.5719C86.5052 43.4295 86.4715 43.2812 86.4134 43.1302L85.9467 43.3096ZM85.1883 42.1415C85.5161 42.4887 85.7901 42.8587 85.9438 43.3018L86.4162 43.1379C86.23 42.6011 85.9039 42.1711 85.5518 41.7982L85.1883 42.1415ZM83.6227 40.965C84.1057 41.2509 84.704 41.6479 85.1916 42.1449L85.5485 41.7948C85.016 41.2519 84.3744 40.8289 83.8774 40.5347L83.6227 40.965ZM82.88 40.5499C82.8491 40.5499 82.8253 40.5438 82.8234 40.5433C82.8161 40.5416 82.8106 40.5399 82.8082 40.5392C82.8032 40.5377 82.7999 40.5364 82.7998 40.5364C82.799 40.5361 82.8005 40.5366 82.8052 40.5386C82.8142 40.5423 82.8289 40.5486 82.8494 40.5577C82.89 40.5758 82.9497 40.6036 83.0247 40.6405C83.1747 40.7143 83.3839 40.8237 83.6227 40.965L83.8774 40.5347C83.6261 40.3861 83.4054 40.2705 83.2454 40.1918C83.1654 40.1525 83.1001 40.1221 83.0532 40.1011C83.0299 40.0907 83.0103 40.0823 82.9952 40.0761C82.9879 40.0731 82.9799 40.0699 82.9724 40.0671C82.9689 40.0658 82.9629 40.0637 82.9558 40.0615C82.9525 40.0605 82.9461 40.0586 82.9381 40.0567C82.9356 40.0561 82.9112 40.0499 82.88 40.0499V40.5499ZM82.3366 40.6748C82.4266 40.5187 82.6206 40.4551 82.7747 40.5266L82.9853 40.0731C82.5794 39.8847 82.1134 40.061 81.9035 40.425L82.3366 40.6748ZM82.2936 40.7626C82.3083 40.7345 82.3215 40.7093 82.3308 40.6907C82.3354 40.6817 82.3407 40.6708 82.3454 40.6604C82.3476 40.6554 82.3513 40.6467 82.355 40.6364C82.3568 40.6312 82.3597 40.6225 82.3624 40.6117C82.3644 40.6037 82.37 40.5803 82.37 40.5499H81.87C81.87 40.5334 81.8717 40.5201 81.873 40.5117C81.8744 40.5029 81.876 40.4957 81.8773 40.4907C81.8797 40.481 81.8822 40.4736 81.8835 40.47C81.8849 40.4659 81.8861 40.4628 81.8868 40.4612C81.8875 40.4594 81.888 40.4582 81.8883 40.4577C81.8886 40.4569 81.8886 40.4571 81.8877 40.4589C81.8869 40.4606 81.8857 40.463 81.8841 40.4663C81.8807 40.4729 81.8763 40.4815 81.8705 40.4926C81.8648 40.5036 81.8582 40.5162 81.8506 40.5308L82.2936 40.7626ZM82.2909 40.7676L82.291 40.7675L81.8532 40.526L81.8531 40.5261L82.2909 40.7676ZM81.8429 41.7409C82.0227 41.2805 82.208 40.9263 82.2936 40.7627L81.8505 40.5309C81.763 40.6982 81.5673 41.0721 81.3772 41.5589L81.8429 41.7409ZM81.34 43.9499C81.34 43.1585 81.5953 42.3746 81.8429 41.7409L81.3772 41.5589C81.1247 42.2052 80.84 43.0613 80.84 43.9499H81.34ZM81.4672 44.7808C81.3772 44.5107 81.34 44.2281 81.34 43.9499H80.84C80.84 44.2717 80.8829 44.6091 80.9929 44.9389L81.4672 44.7808ZM82.2085 45.8652C81.8885 45.5735 81.61 45.2182 81.4677 44.7823L80.9924 44.9375C81.17 45.4815 81.5115 45.9063 81.8716 46.2346L82.2085 45.8652ZM83.7037 46.7581C83.2463 46.5732 82.6866 46.2964 82.2075 45.8642L81.8726 46.2355C82.4135 46.7234 83.0337 47.0266 83.5163 47.2217L83.7037 46.7581ZM83.7396 46.7729C83.7292 46.7685 83.7165 46.7632 83.7029 46.7578L83.5172 47.222C83.5264 47.2257 83.5355 47.2295 83.5463 47.234L83.7396 46.7729ZM83.7991 46.7947C83.7886 46.7927 83.7781 46.789 83.7396 46.7729L83.5463 47.234C83.5795 47.2479 83.6342 47.2717 83.701 47.285L83.7991 46.7947ZM83.5531 47.9828L83.9731 47.1528L83.527 46.927L83.107 47.757L83.5531 47.9828ZM82.5469 47.7528L83.2169 48.0928L83.4432 47.647L82.7732 47.307L82.5469 47.7528ZM82.0836 47.9117C82.1733 47.7324 82.383 47.668 82.5452 47.7519L82.7749 47.3078C82.3571 47.0917 81.8468 47.2674 81.6364 47.6881L82.0836 47.9117ZM82.2418 48.3763C82.0631 48.2869 81.9965 48.086 82.0836 47.9117L81.6364 47.6881C81.4236 48.1138 81.5969 48.6129 82.0182 48.8235L82.2418 48.3763ZM82.9132 48.717L82.2432 48.377L82.0169 48.8228L82.6869 49.1628L82.9132 48.717ZM82.673 49.743L83.023 49.053L82.5771 48.8268L82.2271 49.5168L82.673 49.743ZM80.7277 49.0432L82.3377 49.8532L82.5624 49.4066L80.9524 48.5966L80.7277 49.0432ZM80.2636 49.2017C80.3533 49.0224 80.563 48.958 80.7252 49.0419L80.9549 48.5978C80.5371 48.3817 80.0268 48.5574 79.8164 48.9781L80.2636 49.2017ZM80.4218 49.6663C80.2425 49.5766 80.1782 49.367 80.2621 49.2047L79.818 48.975C79.6019 49.3928 79.7776 49.9032 80.1982 50.1135L80.4218 49.6663ZM82.0324 50.4766L80.4224 49.6666L80.1977 50.1132L81.8077 50.9232L82.0324 50.4766ZM81.793 51.503L82.143 50.813L81.6971 50.5868L81.3471 51.2768L81.793 51.503ZM80.7869 51.2728L81.4569 51.6128L81.6832 51.167L81.0132 50.827L80.7869 51.2728ZM80.4342 51.3041C80.5335 51.234 80.6675 51.2161 80.7925 51.2756L81.0075 50.8242C80.7125 50.6837 80.3866 50.7257 80.1459 50.8956L80.4342 51.3041ZM76.6683 49.8799C78.0127 49.8894 79.2214 50.4133 80.1161 51.2795L80.4639 50.9203C79.4787 49.9665 78.1474 49.3904 76.6718 49.3799L76.6683 49.8799ZM72.2717 52.5454C73.1002 50.9552 74.7564 49.8799 76.67 49.8799V49.3799C74.5636 49.3799 72.7399 50.5646 71.8283 52.3144L72.2717 52.5454ZM71.3142 51.0454C71.4194 51.6133 71.6084 52.1057 71.8264 52.5417L72.2736 52.3181C72.0716 51.9141 71.9007 51.4665 71.8059 50.9544L71.3142 51.0454ZM71.18 49.7499C71.18 50.1381 71.222 50.564 71.3145 51.0469L71.8056 50.9529C71.7181 50.4958 71.68 50.1017 71.68 49.7499H71.18ZM71.51 48.022C71.2957 48.5255 71.18 49.0791 71.18 49.7499H71.68C71.68 49.1407 71.7843 48.6543 71.9701 48.2178L71.51 48.022ZM72.3832 46.5858C72.0143 47.0571 71.7205 47.5167 71.5093 48.0237L71.9708 48.216C72.1595 47.7631 72.4258 47.3426 72.7769 46.894L72.3832 46.5858ZM72.4517 46.2991C72.4652 46.4133 72.4369 46.5159 72.3819 46.5875L72.7782 46.8923C72.9231 46.7039 72.9749 46.4665 72.9483 46.2407L72.4517 46.2991ZM72.3048 46.0802C72.3794 46.1281 72.4352 46.2141 72.4543 46.316L72.9457 46.2238C72.9048 46.0056 72.7807 45.7917 72.5752 45.6596L72.3048 46.0802ZM69.65 45.3399C70.5815 45.3399 71.5312 45.5707 72.3025 46.0787L72.5775 45.6611C71.7089 45.0891 70.6586 44.8399 69.65 44.8399V45.3399ZM68.2006 45.5566C68.639 45.4073 69.1307 45.3399 69.65 45.3399V44.8399C69.0893 44.8399 68.5411 44.9125 68.0395 45.0832L68.2006 45.5566ZM66.4108 46.7715C66.8841 46.213 67.4855 45.7824 68.1953 45.5583L68.0447 45.0815C67.2345 45.3374 66.556 45.8268 66.0293 46.4483L66.4108 46.7715ZM65.6901 45.0152C65.6793 45.5858 65.8288 46.2064 65.9819 46.6859L66.4582 46.5339C66.3112 46.0734 66.1808 45.514 66.19 45.0246L65.6901 45.0152ZM65.9838 43.7744C65.775 44.1339 65.69 44.5712 65.69 45.0199H66.19C66.19 44.6285 66.265 44.2858 66.4162 44.0254L65.9838 43.7744ZM65.8493 43.3088C66.0158 43.4007 66.0759 43.6074 65.9811 43.7791L66.4189 44.0207C66.6442 43.6124 66.5043 43.0991 66.0908 42.871L65.8493 43.3088ZM65.3789 43.4407C65.4708 43.2742 65.6775 43.214 65.8493 43.3088L66.0908 42.871C65.6825 42.6457 65.1693 42.7856 64.9411 43.1991L65.3789 43.4407ZM65 45.0299C65 44.4971 65.0955 43.9344 65.3768 43.4444L64.9432 43.1954C64.6045 43.7854 64.5 44.4427 64.5 45.0299H65ZM65.3085 46.8348C65.1427 46.3081 65 45.685 65 45.0299H64.5C64.5 45.7548 64.6574 46.4317 64.8316 46.985L65.3085 46.8348ZM64.21 47.0599C64.4769 47.0599 64.7388 47.0966 65.0194 47.1547L65.1207 46.6651C64.8213 46.6031 64.5231 46.5599 64.21 46.5599V47.0599ZM63.0256 47.2482C63.4128 47.1254 63.8173 47.0599 64.21 47.0599V46.5599C63.7628 46.5599 63.3073 46.6343 62.8745 46.7716L63.0256 47.2482ZM61.2401 48.3231C61.7758 47.8257 62.3949 47.4553 63.028 47.2474L62.872 46.7724C62.1652 47.0045 61.4843 47.4141 60.8999 47.9567L61.2401 48.3231ZM60.0037 50.0788C60.2572 49.4122 60.7015 48.8136 61.2384 48.3247L60.9017 47.9551C60.3186 48.4861 59.8229 49.1476 59.5364 49.901L60.0037 50.0788ZM60.0166 50.3642C59.9739 50.2727 59.9686 50.1724 60.0041 50.0777L59.5359 49.9021C59.4515 50.1274 59.4662 50.3671 59.5635 50.5756L60.0166 50.3642ZM60.2144 50.5283C60.1321 50.5064 60.0537 50.4437 60.0166 50.3642L59.5635 50.5756C59.6664 50.7961 59.8679 50.9534 60.0856 51.0115L60.2144 50.5283ZM62.153 51.4522C61.5896 51.0163 60.9574 50.745 60.22 50.5299L60.08 51.0099C60.7827 51.2148 61.3505 51.4635 61.8471 51.8476L62.153 51.4522ZM63.6955 53.5119C63.2226 52.525 62.7209 51.9021 62.1553 51.454L61.8448 51.8458C62.3392 52.2376 62.7975 52.7948 63.2446 53.7279L63.6955 53.5119ZM63.7376 53.6095C63.7274 53.5837 63.7123 53.5455 63.6936 53.5081L63.2464 53.7317C63.254 53.7468 63.2614 53.7649 63.2731 53.7943L63.7376 53.6095ZM63.7425 53.6229L63.7425 53.6228L63.2682 53.781L63.2682 53.781L63.7425 53.6229ZM63.7644 53.6713C63.76 53.6639 63.7537 53.6499 63.7376 53.6095L63.2731 53.7944C63.2852 53.8248 63.3063 53.8796 63.3356 53.9285L63.7644 53.6713ZM62.7122 56.0919C62.9137 55.3052 63.2687 54.5853 63.7493 53.9509L63.3508 53.6489C62.8314 54.3345 62.4464 55.1146 62.2278 55.9679L62.7122 56.0919ZM61.82 56.2399C62.0332 56.2399 62.2404 56.2496 62.4347 56.2774L62.5054 55.7824C62.2796 55.7502 62.0469 55.7399 61.82 55.7399V56.2399ZM56.85 61.2099C56.85 58.4677 59.0684 56.2399 61.82 56.2399V55.7399C58.7916 55.7399 56.35 58.1921 56.35 61.2099H56.85ZM56.8476 61.1792C56.8469 61.1764 56.8467 61.1757 56.8466 61.1753C56.8465 61.1751 56.8469 61.1765 56.8473 61.1788C56.8481 61.1832 56.85 61.1945 56.85 61.2099H56.35C56.35 61.256 56.3615 61.2963 56.3625 61.3004L56.8476 61.1792ZM56.8502 61.1909L56.8502 61.1908L56.3599 61.2889L56.3599 61.2889L56.8502 61.1909ZM56.8502 61.1909L56.8502 61.1909L56.3599 61.2889L56.3599 61.289L56.8502 61.1909ZM56.86 61.2699C56.86 61.2238 56.8486 61.1834 56.8476 61.1793L56.3625 61.3006C56.3632 61.3034 56.3634 61.3041 56.3635 61.3045C56.3635 61.3047 56.3632 61.3033 56.3628 61.301C56.3619 61.2966 56.36 61.2853 56.36 61.2699H56.86ZM54.87 61.5199H56.61V61.0199H54.87V61.5199ZM54.6182 61.6249C54.6903 61.5593 54.7824 61.5199 54.87 61.5199V61.0199C54.6377 61.0199 54.4298 61.1205 54.2819 61.2549L54.6182 61.6249ZM54.53 61.8599C54.53 61.7628 54.566 61.6775 54.6268 61.6167L54.2733 61.2631C54.1141 61.4223 54.03 61.6369 54.03 61.8599H54.53ZM54.53 67.6299V61.8599H54.03V67.6299H54.53ZM54.635 67.8817C54.571 67.8114 54.53 67.7096 54.53 67.6299H54.03C54.03 67.8502 54.129 68.0684 54.265 68.2181L54.635 67.8817ZM54.87 67.9699C54.773 67.9699 54.6876 67.9339 54.6268 67.8731L54.2733 68.2267C54.4324 68.3859 54.6471 68.4699 54.87 68.4699V67.9699ZM54.9618 68.4535L54.9818 68.4435L54.7583 67.9963L54.7383 68.0063L54.9618 68.4535ZM87.56 44.2499C87.3264 44.2499 87.1193 44.2833 86.941 44.3427L87.0991 44.8171C87.2207 44.7765 87.3737 44.7499 87.56 44.7499V44.2499ZM89.515 44.7086C88.943 44.4737 88.1777 44.2499 87.56 44.2499V44.7499C88.0824 44.7499 88.7771 44.9461 89.3251 45.1711L89.515 44.7086ZM89.9685 44.9001C89.8285 44.8401 89.687 44.7795 89.5152 44.7087L89.3248 45.1711C89.493 45.2403 89.6315 45.2997 89.7716 45.3597L89.9685 44.9001ZM89.5648 46.1033C89.7817 45.7934 89.9567 45.4949 90.0899 45.249L89.6502 45.0108C89.5234 45.2449 89.3583 45.5263 89.1552 45.8165L89.5648 46.1033ZM88.8293 46.9739C89.098 46.7266 89.3499 46.4104 89.5648 46.1033L89.1552 45.8165C88.9502 46.1094 88.722 46.3932 88.4908 46.6059L88.8293 46.9739ZM87.9928 47.5091C88.2741 47.4235 88.5673 47.2255 88.8332 46.9702L88.4869 46.6095C88.2528 46.8343 88.026 46.9763 87.8472 47.0307L87.9928 47.5091ZM87.49 47.5899C87.6825 47.5899 87.8482 47.5535 87.9935 47.5088L87.8465 47.0309C87.7318 47.0662 87.6175 47.0899 87.49 47.0899V47.5899ZM85.835 47.0664C86.3016 47.336 86.9467 47.5899 87.49 47.5899V47.0899C87.0734 47.0899 86.5185 46.8838 86.0851 46.6334L85.835 47.0664ZM85.3814 46.7879C85.5079 46.8723 85.6634 46.9655 85.8333 47.0654L86.0868 46.6344C85.9166 46.5343 85.7722 46.4475 85.6587 46.3719L85.3814 46.7879ZM85.6297 45.6918C85.4715 45.9871 85.3562 46.2807 85.2829 46.5008L85.7572 46.6589C85.8238 46.4591 85.9286 46.1927 86.0704 45.9279L85.6297 45.6918ZM86.1814 44.8658C85.9656 45.114 85.775 45.4114 85.6281 45.6948L86.072 45.925C86.205 45.6683 86.3745 45.4058 86.5587 45.1939L86.1814 44.8658ZM86.96 44.3399C86.6613 44.427 86.404 44.6209 86.1851 44.8617L86.555 45.1981C86.7361 44.9989 86.9188 44.8728 87.1 44.8199L86.96 44.3399ZM87.02 44.8299H87.03V44.3299H87.02V44.8299ZM82.626 45.3285C82.8741 45.5443 83.1716 45.7349 83.4549 45.8818L83.6851 45.438C83.4285 45.3049 83.1659 45.1355 82.9541 44.9512L82.626 45.3285ZM82.1 44.5499C82.1872 44.8486 82.3811 45.106 82.6219 45.3249L82.9582 44.9549C82.759 44.7738 82.6329 44.5912 82.58 44.4099L82.1 44.5499ZM82.01 43.9399C82.01 44.1735 82.0434 44.3806 82.1029 44.559L82.5772 44.4008C82.5367 44.2792 82.51 44.1262 82.51 43.9399H82.01ZM82.4688 41.9849C82.2338 42.5569 82.01 43.3222 82.01 43.9399H82.51C82.51 43.4176 82.7062 42.7228 82.9313 42.1749L82.4688 41.9849ZM82.6598 41.5324C82.6 41.672 82.5394 41.8133 82.4689 41.9847L82.9312 42.1751C83.0003 42.0073 83.0595 41.8691 83.1194 41.7294L82.6598 41.5324ZM82.6609 41.5298L82.6605 41.5308L83.1187 41.731L83.1191 41.73L82.6609 41.5298ZM83.8634 41.9351C83.5536 41.7182 83.255 41.5433 83.0091 41.4101L82.771 41.8497C83.0051 41.9765 83.2865 42.1416 83.5767 42.3447L83.8634 41.9351ZM84.734 42.6706C84.4868 42.4019 84.1705 42.1501 83.8634 41.9351L83.5767 42.3447C83.8696 42.5497 84.1533 42.7779 84.3661 43.0092L84.734 42.6706ZM85.2692 43.5071C85.1836 43.2258 84.9856 42.9326 84.7304 42.6668L84.3697 43.013C84.5945 43.2472 84.7365 43.474 84.7909 43.6527L85.2692 43.5071ZM85.35 44.0099C85.35 43.8174 85.3137 43.6517 85.269 43.5064L84.7911 43.6534C84.8264 43.7681 84.85 43.8824 84.85 44.0099H85.35ZM84.8265 45.665C85.0961 45.1983 85.35 44.5532 85.35 44.0099H84.85C84.85 44.4265 84.644 44.9814 84.3936 45.4148L84.8265 45.665ZM84.548 46.1186C84.6324 45.992 84.7256 45.8365 84.8255 45.6666L84.3945 45.4131C84.2945 45.5833 84.2077 45.7277 84.132 45.8412L84.548 46.1186ZM83.452 45.8703C83.7472 46.0284 84.0409 46.1437 84.261 46.2171L84.4191 45.7427C84.2192 45.6761 83.9528 45.5713 83.6881 45.4295L83.452 45.8703ZM83.82 45.6599V45.6499H83.32V45.6599H83.82ZM57.77 88.5799H92.36V88.0799H57.77V88.5799ZM57.52 68.2299V88.3299H58.02V68.2299H57.52ZM92.36 67.9799H57.77V68.4799H92.36V67.9799ZM92.61 88.3299V68.2299H92.11V88.3299H92.61ZM61.0532 50.0843C61.5784 50.2789 62.0921 50.5276 62.5543 50.8955L62.8657 50.5043C62.348 50.0922 61.7816 49.8209 61.2269 49.6155L61.0532 50.0843ZM61.6735 48.8334C61.3748 49.1001 61.1301 49.3983 60.9288 49.7161L61.3512 49.9837C61.5299 49.7015 61.7452 49.4397 62.0065 49.2064L61.6735 48.8334ZM63.204 47.9117C62.6956 48.074 62.134 48.4042 61.6696 48.837L62.0105 49.2028C62.426 48.8155 62.9244 48.5258 63.356 48.3881L63.204 47.9117ZM64.17 47.7599C63.8479 47.7599 63.5196 47.8028 63.1985 47.9135L63.3615 48.3862C63.6205 48.2969 63.8921 48.2599 64.17 48.2599V47.7599ZM65.8935 48.1971C65.3327 47.9114 64.7441 47.7599 64.17 47.7599V48.2599C64.656 48.2599 65.1674 48.3884 65.6665 48.6427L65.8935 48.1971ZM65.9418 48.2063C65.8649 48.1678 65.7922 48.1699 65.78 48.1699V48.6699C65.7842 48.6699 65.7762 48.6701 65.7659 48.6686C65.7553 48.6671 65.738 48.6634 65.7182 48.6535L65.9418 48.2063ZM65.9486 48.2056C65.9426 48.2044 65.9392 48.2038 65.9361 48.2032C65.9333 48.2026 65.9321 48.2023 65.9318 48.2022C65.9314 48.2021 65.9355 48.2031 65.9418 48.2063L65.7182 48.6535C65.779 48.6839 65.8372 48.6934 65.8571 48.6971L65.9486 48.2056ZM66.0191 48.2227C65.9884 48.2125 65.9579 48.2073 65.9486 48.2056L65.8571 48.6971C65.8607 48.6978 65.863 48.6982 65.8652 48.6986C65.8672 48.699 65.8683 48.6992 65.8688 48.6994C65.8701 48.6996 65.8667 48.699 65.861 48.6971L66.0191 48.2227ZM66.0231 48.2164C66.0054 48.2139 65.9756 48.2099 65.94 48.2099V48.7099C65.9394 48.7099 65.9408 48.7097 65.9537 48.7115L66.0231 48.2164ZM66.0302 48.2174L66.0236 48.2164L65.9533 48.7115L65.9599 48.7124L66.0302 48.2174ZM66.05 48.2199C66.0506 48.2199 66.05 48.2199 66.0473 48.2197C66.0439 48.2193 66.0398 48.2188 66.0304 48.2174L65.9597 48.7124C65.9758 48.7147 66.0099 48.7199 66.05 48.7199V48.2199ZM66.1094 48.2174C66.1084 48.2176 66.1043 48.2185 66.0944 48.2191C66.0835 48.2198 66.0713 48.2199 66.05 48.2199V48.7199C66.0854 48.7199 66.156 48.7211 66.2307 48.7024L66.1094 48.2174ZM66.24 48.2099H66.17V48.7099H66.24V48.2099ZM66.1074 48.2548C66.1016 48.2596 66.1151 48.2476 66.1344 48.2369C66.1577 48.224 66.1941 48.2099 66.24 48.2099V48.7099C66.2977 48.7099 66.3441 48.6923 66.3762 48.6746C66.4042 48.6591 66.4253 48.6407 66.4264 48.6399L66.1074 48.2548ZM66.28 48.1899C66.2092 48.1899 66.1592 48.2188 66.1405 48.2306C66.1295 48.2375 66.1211 48.2439 66.1165 48.2475C66.112 48.251 66.108 48.2543 66.1074 48.2548L66.4264 48.6398C66.4324 48.6349 66.4213 48.6446 66.407 48.6537C66.3926 48.6627 66.3467 48.6899 66.28 48.6899V48.1899ZM66.2182 48.2063C66.2206 48.2051 66.2264 48.2023 66.2348 48.1994C66.2438 48.1963 66.2537 48.1938 66.2639 48.192C66.2737 48.1904 66.2811 48.19 66.2839 48.1899C66.2855 48.1899 66.2863 48.1899 66.28 48.1899V48.6899C66.2851 48.6899 66.3144 48.6905 66.3461 48.6852C66.3841 48.6789 66.4156 48.6666 66.4418 48.6535L66.2182 48.2063ZM66.2032 48.2131C66.2007 48.2157 66.1994 48.217 66.198 48.2183C66.1974 48.2189 66.1969 48.2193 66.1966 48.2196C66.1962 48.22 66.1961 48.2201 66.1961 48.2201C66.1961 48.2201 66.1964 48.2198 66.197 48.2193C66.1976 48.2188 66.1987 48.218 66.2002 48.217C66.2028 48.2151 66.2089 48.211 66.2182 48.2063L66.4418 48.6535C66.5047 48.6221 66.5531 48.5704 66.5568 48.5667L66.2032 48.2131ZM66.262 48.1812C66.266 48.1752 66.2703 48.1701 66.2742 48.1661C66.2781 48.1621 66.2811 48.1597 66.2825 48.1586C66.2838 48.1577 66.2837 48.1579 66.2812 48.1593C66.2787 48.1608 66.2747 48.1631 66.2682 48.1663L66.4918 48.6135C66.5425 48.5882 66.621 48.5442 66.678 48.4586L66.262 48.1812ZM66.3164 48.1081C66.3054 48.1301 66.3 48.1364 66.2933 48.1431L66.6468 48.4967C66.7001 48.4434 66.7347 48.3897 66.7636 48.3317L66.3164 48.1081ZM66.3833 48.0181C66.3797 48.0216 66.3424 48.0562 66.3164 48.1081L66.7636 48.3317C66.7548 48.3493 66.7454 48.3615 66.7399 48.3679C66.7355 48.3731 66.7318 48.3766 66.7368 48.3717L66.3833 48.0181ZM66.3564 48.0581C66.3652 48.0405 66.3747 48.0283 66.3801 48.0218C66.3845 48.0166 66.3882 48.0132 66.3833 48.0181L66.7368 48.3717C66.7403 48.3682 66.7777 48.3336 66.8036 48.2817L66.3564 48.0581ZM68.3728 46.2421C67.4984 46.5263 66.812 47.1786 66.3581 48.0549L66.802 48.2849C67.208 47.5012 67.8016 46.9535 68.5273 46.7176L68.3728 46.2421ZM69.62 46.0599C69.1781 46.0599 68.7416 46.1228 68.3731 46.242L68.527 46.7178C68.8385 46.617 69.222 46.5599 69.62 46.5599V46.0599ZM71.282 46.3774C70.7736 46.1762 70.1924 46.0599 69.62 46.0599V46.5599C70.1277 46.5599 70.6465 46.6636 71.098 46.8423L71.282 46.3774ZM70.8404 47.7769C70.9935 47.4133 71.1856 47.0672 71.398 46.7486L70.982 46.4712C70.7544 46.8126 70.5465 47.1865 70.3796 47.5829L70.8404 47.7769ZM70.45 49.7699C70.45 49.0127 70.5936 48.3561 70.84 47.7779L70.3801 47.5819C70.1065 48.2237 69.95 48.9471 69.95 49.7699H70.45ZM70.5957 51.1935C70.498 50.6759 70.45 50.2016 70.45 49.7699H69.95C69.95 50.2381 70.002 50.7439 70.1044 51.2862L70.5957 51.1935ZM70.7026 51.6693C70.6623 51.5081 70.6245 51.3564 70.5962 51.1964L70.1038 51.2833C70.1356 51.4633 70.1778 51.6317 70.2175 51.7905L70.7026 51.6693ZM68.42 51.6299C69.1117 51.6299 69.763 51.7451 70.3755 51.9652L70.5446 51.4946C69.877 51.2547 69.1684 51.1299 68.42 51.1299V51.6299ZM64.5423 53.0701C65.5897 52.1764 66.9429 51.6299 68.42 51.6299V51.1299C66.8171 51.1299 65.3503 51.7234 64.2178 52.6897L64.5423 53.0701ZM62.5376 50.918C63.1512 51.39 63.6894 52.0675 64.1569 52.9926L64.6032 52.7671C64.1106 51.7923 63.5289 51.0498 62.8425 50.5217L62.5376 50.918ZM62.5333 50.5231L62.5133 50.5431L62.8668 50.8967L62.8868 50.8767L62.5333 50.5231ZM58.7733 58.1731C57.9984 58.948 57.52 60.0108 57.52 61.1999H58.02C58.02 60.149 58.4417 59.2118 59.1268 58.5267L58.7733 58.1731ZM61.8 56.9199C60.6213 56.9199 59.5484 57.398 58.7733 58.1731L59.1268 58.5267C59.8117 57.8418 60.7588 57.4199 61.8 57.4199V56.9199ZM62.8325 57.0578C62.5059 56.9735 62.1547 56.9199 61.8 56.9199V57.4199C62.1053 57.4199 62.4141 57.4662 62.7076 57.542L62.8325 57.0578ZM63.1214 57.0055C63.0219 57.0652 62.9195 57.0796 62.8307 57.0574L62.7094 57.5424C62.9405 57.6002 63.1781 57.5546 63.3787 57.4343L63.1214 57.0055ZM63.2638 56.7664C63.2455 56.8705 63.1926 56.9537 63.1047 57.0165L63.3953 57.4233C63.5874 57.2861 63.7146 57.0893 63.7562 56.8533L63.2638 56.7664ZM68.44 52.2999C65.8134 52.2999 63.6406 54.2433 63.2628 56.773L63.7573 56.8468C64.0994 54.5565 66.0666 52.7999 68.44 52.7999V52.2999ZM72.0005 53.7071C71.0665 52.836 69.8164 52.2999 68.44 52.2999V52.7999C69.6837 52.7999 70.8135 53.2838 71.6595 54.0727L72.0005 53.7071ZM72.3294 53.7874C72.2075 53.8178 72.0856 53.7865 72.0006 53.7071L71.6595 54.0727C71.8744 54.2733 72.1726 54.342 72.4507 54.2724L72.3294 53.7874ZM72.5741 53.5473C72.5283 53.6781 72.4377 53.7603 72.3294 53.7874L72.4507 54.2724C72.7423 54.1995 72.9518 53.9816 73.046 53.7125L72.5741 53.5473ZM76.66 50.5599C74.7379 50.5599 73.1132 51.8236 72.5714 53.5552L73.0486 53.7045C73.5268 52.1762 74.9621 51.0599 76.66 51.0599V50.5599ZM80.8025 53.7889C80.3346 51.9279 78.5848 50.5599 76.66 50.5599V51.0599C78.3553 51.0599 79.9055 52.2719 80.3176 53.9109L80.8025 53.7889ZM81.0106 54.0269C80.9127 53.9888 80.8324 53.8964 80.8009 53.783L80.3192 53.9168C80.3877 54.1634 80.5674 54.391 80.8294 54.4929L81.0106 54.0269ZM81.32 53.9899C81.2347 54.0539 81.1168 54.0682 81.0106 54.0269L80.8294 54.4929C81.0833 54.5916 81.3854 54.5659 81.62 54.3899L81.32 53.9899ZM83.72 53.2499C82.8292 53.2499 82.0099 53.5154 81.3284 53.9839L81.6117 54.3959C82.2102 53.9844 82.9308 53.7499 83.72 53.7499V53.2499ZM87.6925 55.9479C87.0659 54.3656 85.5259 53.2499 83.72 53.2499V53.7499C85.3142 53.7499 86.6741 54.7342 87.2276 56.1319L87.6925 55.9479ZM87.9727 56.1609C87.8511 56.1499 87.7391 56.0643 87.6921 55.947L87.2279 56.1327C87.341 56.4155 87.609 56.6299 87.9274 56.6589L87.9727 56.1609ZM92.64 61.2439C92.577 58.5975 90.5606 56.4449 87.9773 56.1614L87.9228 56.6584C90.2595 56.9149 92.0831 58.8623 92.1401 61.2558L92.64 61.2439ZM57.75 61.4999H92.39V60.9999H57.75V61.4999ZM57.51 61.1899C57.51 61.1826 57.5105 61.1775 57.5106 61.1756C57.5107 61.1744 57.5108 61.1735 57.5109 61.1731C57.5109 61.1728 57.5109 61.1726 57.511 61.1725C57.511 61.1724 57.511 61.1724 57.511 61.1724C57.511 61.1724 57.511 61.1724 57.511 61.1725C57.5109 61.1726 57.5109 61.1727 57.5109 61.1729C57.5108 61.1732 57.5108 61.1737 57.5107 61.1742C57.5105 61.1754 57.5102 61.1768 57.5099 61.1784C57.5092 61.1816 57.5085 61.1848 57.508 61.1871C57.5077 61.1883 57.5075 61.1891 57.5074 61.1895C57.5074 61.1897 57.5074 61.1898 57.5074 61.1898C57.5074 61.1897 57.5074 61.1897 57.5074 61.1896C57.5074 61.1896 57.5074 61.1895 57.5074 61.1895C57.5075 61.1894 57.5075 61.1894 57.5075 61.1894C57.5075 61.1894 57.5075 61.1893 57.5075 61.1893C57.5075 61.1893 57.5075 61.1893 57.5075 61.1893C57.5075 61.1893 57.5075 61.1893 57.75 61.2499C57.9926 61.3105 57.9926 61.3105 57.9926 61.3105C57.9926 61.3105 57.9926 61.3105 57.9926 61.3105C57.9926 61.3104 57.9926 61.3104 57.9926 61.3104C57.9926 61.3104 57.9926 61.3103 57.9926 61.3103C57.9927 61.3102 57.9927 61.3101 57.9927 61.3099C57.9928 61.3097 57.9928 61.3094 57.9929 61.3091C57.9931 61.3085 57.9933 61.3077 57.9935 61.3068C57.9939 61.3049 57.9945 61.3025 57.9952 61.2995C57.9965 61.2938 57.9983 61.2857 58.0002 61.2764C58.0024 61.265 58.01 61.2277 58.01 61.1899H57.51ZM57.9468 61.0231L57.9368 61.0131L57.5833 61.3667L57.5933 61.3767L57.9468 61.0231ZM94.68 62.2099H55.44V62.7099H94.68V62.2099ZM94.93 67.0399V62.4599H94.43V67.0399H94.93ZM55.44 67.2899H94.68V66.7899H55.44V67.2899ZM55.19 62.4599V67.0399H55.69V62.4599H55.19ZM71.7543 76.1533C71.6519 76.3281 71.4434 76.3819 71.2764 76.284L71.0236 76.7154C71.4366 76.9575 71.9482 76.8113 72.1857 76.4061L71.7543 76.1533ZM73.8037 72.6144L71.7537 76.1544L72.1863 76.405L74.2363 72.865L73.8037 72.6144ZM75.0842 71.8698C74.5799 71.8815 74.0927 72.1087 73.8029 72.6157L74.2371 72.8637C74.4274 72.5307 74.7401 72.3779 75.0958 72.3696L75.0842 71.8698ZM76.3771 72.6157C76.0888 72.1112 75.5919 71.8697 75.09 71.8697V72.3697C75.4281 72.3697 75.7512 72.5282 75.9429 72.8637L76.3771 72.6157ZM77.5964 74.7245L76.3764 72.6146L75.9436 72.8648L77.1636 74.9748L77.5964 74.7245ZM76.8706 74.9825L77.3206 75.0925L77.4394 74.6068L76.9894 74.4968L76.8706 74.9825ZM76.4525 75.2403C76.5003 75.0491 76.6884 74.937 76.8694 74.9822L76.9906 74.4972C76.5316 74.3824 76.0797 74.6703 75.9675 75.1191L76.4525 75.2403ZM76.7106 75.6572C76.5194 75.6093 76.4073 75.4213 76.4525 75.2403L75.9675 75.1191C75.8527 75.5781 76.1406 76.03 76.5894 76.1422L76.7106 75.6572ZM78.5603 76.1171L76.7103 75.6571L76.5897 76.1423L78.4397 76.6023L78.5603 76.1171ZM78.9775 75.8591C78.9297 76.0503 78.7416 76.1624 78.5606 76.1172L78.4394 76.6022C78.8984 76.717 79.3503 76.4291 79.4625 75.9803L78.9775 75.8591ZM79.4374 74.0094L78.9774 75.8594L79.4626 75.98L79.9226 74.13L79.4374 74.0094ZM79.1794 73.5922C79.3706 73.64 79.4827 73.8281 79.4375 74.0091L79.9225 74.1303C80.0373 73.6713 79.7494 73.2193 79.3006 73.1072L79.1794 73.5922ZM78.7625 73.8503C78.8103 73.6591 78.9984 73.547 79.1794 73.5922L79.3006 73.1072C78.8416 72.9924 78.3897 73.2803 78.2775 73.7291L78.7625 73.8503ZM78.6534 74.3167L78.7634 73.8467L78.2766 73.7327L78.1666 74.2027L78.6534 74.3167ZM76.9736 72.2748L78.1936 74.3848L78.6264 74.1345L77.4064 72.0246L76.9736 72.2748ZM75.08 71.1797C75.8167 71.1797 76.5513 71.5471 76.9738 72.2752L77.4062 72.0242C76.8887 71.1323 75.9833 70.6797 75.08 70.6797V71.1797ZM73.1862 72.2752C73.6087 71.5471 74.3433 71.1797 75.08 71.1797V70.6797C74.1767 70.6797 73.2713 71.1323 72.7538 72.0242L73.1862 72.2752ZM71.1363 75.815L73.1863 72.275L72.7537 72.0244L70.7037 75.5644L71.1363 75.815ZM71.2664 76.294C71.0916 76.1915 71.0378 75.9831 71.1357 75.8161L70.7043 75.5633C70.4622 75.9763 70.6084 76.4878 71.0136 76.7254L71.2664 76.294ZM70.9733 76.3229L70.9633 76.3329L71.3167 76.6865L71.3267 76.6765L70.9733 76.3229ZM67.47 81.8612C67.4728 82.563 67.7483 83.2201 68.2192 83.7129L68.5807 83.3674C68.1961 82.9649 67.9723 82.4298 67.97 81.8591L67.47 81.8612ZM67.71 82.1101H67.72V81.6101H67.71V82.1101ZM67.8222 80.5273C67.5822 80.9527 67.46 81.4148 67.46 81.8601H67.96C67.96 81.5055 68.0577 81.1276 68.2577 80.773L67.8222 80.5273ZM69.0435 78.415L67.8235 80.525L68.2564 80.7753L69.4764 78.6653L69.0435 78.415ZM68.868 78.9107L69.3279 78.7807L69.192 78.2996L68.732 78.4296L68.868 78.9107ZM67.8213 78.3347C67.9602 78.7789 68.4125 79.0388 68.8676 78.9108L68.7323 78.4295C68.5474 78.4815 68.3598 78.3814 68.2986 78.1856L67.8213 78.3347ZM68.4023 77.2795C67.9461 77.4078 67.6929 77.8783 67.8193 78.3278L68.3006 78.1925C68.2471 78.002 68.3539 77.8125 68.5377 77.7608L68.4023 77.2795ZM70.2408 76.7499L68.4008 77.2799L68.5392 77.7604L70.3792 77.2304L70.2408 76.7499ZM70.884 76.8231C70.6873 76.7107 70.4537 76.6787 70.2309 76.753L70.389 77.2273C70.4663 77.2016 70.5527 77.2096 70.6359 77.2572L70.884 76.8231ZM71.2915 77.3357C71.2317 77.1116 71.0727 76.931 70.884 76.8231L70.6359 77.2572C70.7272 77.3094 70.7882 77.3887 70.8084 77.4646L71.2915 77.3357ZM71.8202 79.171L71.2902 77.331L70.8097 77.4693L71.3397 79.3093L71.8202 79.171ZM71.2376 80.2208C71.6939 80.0925 71.9471 79.6221 71.8206 79.1725L71.3393 79.3078C71.3929 79.4982 71.2861 79.6878 71.1023 79.7395L71.2376 80.2208ZM70.1893 79.6378C70.3176 80.0941 70.7881 80.3473 71.2376 80.2208L71.1023 79.7395C70.9119 79.793 70.7223 79.6862 70.6706 79.5025L70.1893 79.6378ZM70.0602 79.201L70.1902 79.641L70.6697 79.4993L70.5397 79.0593L70.0602 79.201ZM69.2964 81.3653L70.5164 79.2553L70.0835 79.005L68.8635 81.115L69.2964 81.3653ZM69.16 81.8501C69.16 81.6926 69.1991 81.5276 69.2943 81.3688L68.8656 81.1115C68.7209 81.3527 68.66 81.6077 68.66 81.8501H69.16ZM69.4406 82.5373C69.2632 82.3518 69.16 82.103 69.16 81.8501H68.66C68.66 82.2373 68.8167 82.6085 69.0793 82.883L69.4406 82.5373ZM70.15 82.8401C69.8491 82.8401 69.6163 82.7289 69.4442 82.5412L69.0757 82.8791C69.3436 83.1714 69.7108 83.3401 70.15 83.3401V82.8401ZM74.04 82.8401H70.15V83.3401H74.04V82.8401ZM74.89 83.6901C74.89 83.2221 74.508 82.8401 74.04 82.8401V83.3401C74.2319 83.3401 74.39 83.4982 74.39 83.6901H74.89ZM74.04 84.5401C74.508 84.5401 74.89 84.1582 74.89 83.6901H74.39C74.39 83.8821 74.2319 84.0401 74.04 84.0401V84.5401ZM70.15 84.5401H74.04V84.0401H70.15V84.5401ZM68.2192 83.7129C68.6931 84.2088 69.3771 84.5401 70.15 84.5401V84.0401C69.5229 84.0401 68.9668 83.7715 68.5807 83.3674L68.2192 83.7129ZM79.0435 76.5748C78.6321 76.816 78.5082 77.3272 78.7311 77.7312L79.1689 77.4897C79.0718 77.3137 79.1278 77.1049 79.2964 77.0061L79.0435 76.5748ZM79.16 77.0404H79.17V76.5404H79.16V77.0404ZM80.1956 76.884C79.9545 76.4726 79.4432 76.3486 79.0392 76.5715L79.2807 77.0093C79.4567 76.9122 79.6655 76.9683 79.7643 77.1369L80.1956 76.884ZM82.2866 80.5157L80.1966 76.8857L79.7633 77.1352L81.8533 80.7652L82.2866 80.5157ZM82.65 81.8504C82.65 81.396 82.5281 80.9329 82.2863 80.5152L81.8536 80.7657C82.0518 81.108 82.15 81.4849 82.15 81.8504H82.65ZM81.9007 83.7132C82.3741 83.2178 82.65 82.5564 82.65 81.8504H82.15C82.15 82.4245 81.9259 82.9631 81.5392 83.3677L81.9007 83.7132ZM79.97 84.5404C80.7406 84.5404 81.4263 84.2207 81.9026 83.7112L81.5373 83.3697C81.1536 83.7802 80.5993 84.0404 79.97 84.0404V84.5404ZM77.54 84.5404H79.97V84.0404H77.54V84.5404ZM78.0615 84.4385L77.7115 84.1085L77.3685 84.4723L77.7185 84.8023L78.0615 84.4385ZM78.0905 85.6334C78.4171 85.2925 78.4014 84.7643 78.0629 84.4399L77.717 84.8009C77.8585 84.9366 77.8628 85.1483 77.7295 85.2875L78.0905 85.6334ZM76.897 85.6609C77.2379 85.9876 77.7661 85.9719 78.0905 85.6334L77.7295 85.2875C77.5939 85.429 77.3821 85.4333 77.2429 85.2999L76.897 85.6609ZM75.5172 84.3411L76.8972 85.6611L77.2428 85.2998L75.8628 83.9798L75.5172 84.3411ZM75.4895 83.1475C75.1628 83.4883 75.1785 84.0165 75.517 84.3409L75.8629 83.9799C75.7214 83.8443 75.7171 83.6325 75.8505 83.4934L75.4895 83.1475ZM76.8093 81.7676L75.4893 83.1476L75.8506 83.4932L77.1706 82.1132L76.8093 81.7676ZM78.0029 81.7399C77.6621 81.4133 77.1339 81.429 76.8095 81.7675L77.1705 82.1134C77.3061 81.9719 77.5179 81.9676 77.657 82.1009L78.0029 81.7399ZM78.0305 82.9334C78.3571 82.5925 78.3414 82.0643 78.0029 81.7399L77.657 82.1009C77.7985 82.2365 77.8028 82.4483 77.6695 82.5875L78.0305 82.9334ZM77.7094 83.2645L78.0294 82.9345L77.6705 82.5864L77.3505 82.9164L77.7094 83.2645ZM79.97 82.8404H77.53V83.3404H79.97V82.8404ZM80.6793 82.5376C80.5026 82.7224 80.2663 82.8404 79.97 82.8404V83.3404C80.4136 83.3404 80.7773 83.1585 81.0406 82.8832L80.6793 82.5376ZM80.96 81.8504C80.96 82.1033 80.8567 82.3521 80.6793 82.5376L81.0406 82.8832C81.3032 82.6087 81.46 82.2376 81.46 81.8504H80.96ZM80.8256 81.3691C80.9209 81.5278 80.96 81.6929 80.96 81.8504H81.46C81.46 81.608 81.3991 81.353 81.2543 81.1118L80.8256 81.3691ZM78.7333 77.7352L80.8233 81.3652L81.2566 81.1157L79.1666 77.4857L78.7333 77.7352Z" fill="#3F2204"/>
</g>
<defs>
<linearGradient id="paint0_linear_950_5368" x1="4.54254" y1="77.4174" x2="115.034" y2="47.2648" gradientUnits="userSpaceOnUse">
<stop stop-color="#BDC700"/>
<stop offset="1" stop-color="#BDC700" stop-opacity="0"/>
</linearGradient>
</defs>
</svg>
