<svg width="112" height="112" viewBox="0 0 112 112" fill="none" xmlns="http://www.w3.org/2000/svg">
<mask id="mask0_950_5332" style="mask-type:alpha" maskUnits="userSpaceOnUse" x="0" y="0" width="112" height="112">
<rect width="112" height="112" fill="#D9D9D9"/>
</mask>
<g mask="url(#mask0_950_5332)">
<path fill-rule="evenodd" clip-rule="evenodd" d="M67.2443 26.4758C58.9187 23.8579 49.7637 24.2322 40.9279 30.1921C26.0884 40.2014 20.5584 62.1166 31.3268 78.0814C35.2139 83.8443 41.2151 87.3944 47.99 89.3141C54.8798 91.2664 61.5738 91.2254 65.1731 90.6311C71.6747 89.5575 77.8157 93.9578 78.8893 100.459C79.9629 106.961 75.5625 113.102 69.0609 114.176C62.089 115.327 51.8425 115.209 41.4842 112.274C31.0111 109.306 19.4568 103.158 11.5431 91.4257C-7.19044 63.652 2.72194 27.1779 27.5836 10.4084C43.3087 -0.198226 60.2061 -0.752693 74.4026 3.71132C88.2126 8.05383 99.9455 17.2455 106.692 27.2472C116.579 41.9061 116.762 57.8002 110.685 76.1198C108.61 82.3744 101.857 85.7627 95.6028 83.6879C89.3483 81.613 85.96 74.8607 88.0348 68.6062C92.6328 54.7458 91.3533 47.1818 86.908 40.5914C83.215 35.1163 75.9563 29.2153 67.2443 26.4758Z" fill="url(#paint0_linear_950_5332)"/>
<path fill-rule="evenodd" clip-rule="evenodd" d="M84.5366 65.2376L82.1458 61.0584C81.9051 60.6198 82.0335 60.0653 82.4587 59.8005C82.6913 59.6515 82.9802 59.6432 83.2208 59.726L90.8024 62.6887C91.1313 62.8211 91.3479 63.1356 91.372 63.4749C91.5084 65.1879 90.7302 68.7961 90.0803 71.8498C89.8075 73.116 89.5669 74.2746 89.4064 75.2014C89.3182 75.698 88.8609 76.0373 88.3715 75.9545C87.9944 75.88 87.7056 75.5738 87.6414 75.2014L86.5744 70.054C85.1383 71.196 83.6781 72.3381 82.1859 73.4635C80.3166 74.8704 78.4393 76.2193 76.5459 77.4524C74.4199 78.8427 72.1976 80.142 69.9432 81.2013C67.6567 82.2688 65.314 83.0716 62.9553 83.4688C60.7892 83.8329 58.6551 83.8329 56.5371 83.6012C54.4432 83.3778 52.3653 82.9226 50.2713 82.3599C49.2765 82.095 48.3699 81.8385 47.4633 81.5737C46.5247 81.3006 45.578 81.0358 44.7356 80.8206C43.9413 80.6137 43.131 80.4068 42.2726 80.233C41.4623 80.0675 40.652 79.9351 39.8417 79.8689C36.8412 79.6041 34.0493 80.2165 31.3135 81.284C28.5055 82.3847 25.7698 83.9653 22.9136 85.6205L21.7824 86.2825C21.3492 86.5225 20.8117 86.3818 20.579 85.9349C20.5389 85.8605 20.5068 85.786 20.4908 85.7198L19.6323 82.2854C19.52 81.855 19.7286 81.4247 20.0977 81.2344L21.0203 80.7047C21.4695 77.2207 23.1222 74.1256 25.5291 71.8829C28.0322 69.5574 31.3295 68.134 34.9558 68.134C36.3759 68.134 37.7478 68.3492 39.0555 68.763C40.0984 69.094 41.1013 69.5492 42.0319 70.1036C42.8182 68.945 43.7568 67.9106 44.8238 67.0334C47.2307 65.0555 50.2713 63.8721 53.5767 63.8721C55.8712 63.8721 58.0454 64.4348 59.9548 65.4527C61.2304 63.8721 62.8189 62.5563 64.6241 61.6211C66.5896 60.6032 68.8039 60.0239 71.1546 60.0239C73.7379 60.0239 76.1688 60.7273 78.2788 61.9604C80.1802 63.0693 81.8088 64.6003 83.0604 66.421C83.5578 66.032 84.0472 65.6431 84.5366 65.2541H84.5446L84.5366 65.2376ZM88.8769 41.9499L90.4654 46.0795L94.7736 46.3691C95.263 46.4022 95.6321 46.8408 95.6 47.3456C95.5839 47.6105 95.4636 47.8422 95.2791 47.9994L91.9576 50.838L93.0327 55.1496C93.153 55.6378 92.8642 56.1426 92.3909 56.2668C92.1181 56.3413 91.8534 56.2668 91.6448 56.1178L88.0586 53.7758L84.4082 56.1592C83.991 56.4323 83.4455 56.2999 83.1807 55.8695C83.0443 55.6544 83.0123 55.3896 83.0684 55.1578L84.1435 50.8462L80.822 48.0077C80.445 47.6849 80.3888 47.1056 80.7017 46.7167C80.8702 46.5098 81.1189 46.3939 81.3596 46.3857L85.6357 46.1043L87.2242 41.9747C87.4007 41.503 87.9142 41.2796 88.3715 41.4617C88.6041 41.561 88.7887 41.7513 88.8689 41.9747V41.9582L88.8769 41.9499ZM89.0293 47.3125L88.0586 44.7802L87.1039 47.2546C86.9915 47.6022 86.6867 47.867 86.3096 47.8918L83.6862 48.0656L85.6919 49.7704C85.9727 49.9856 86.109 50.358 86.0208 50.7304L85.371 53.3703L87.5852 51.9221C87.866 51.7317 88.2431 51.7152 88.548 51.9138L90.7783 53.3703L90.1285 50.7304C90.0402 50.3993 90.1525 50.0352 90.4253 49.8035L92.4551 48.0739L89.8316 47.9001C89.5027 47.8753 89.1898 47.6601 89.0614 47.3208H89.0454L89.0293 47.3125ZM65.9318 62.9866C67.1592 65.8251 68.2183 68.1423 69.173 70.0705C70.0314 71.8001 70.7936 73.2318 71.5076 74.4483C72.5746 73.8359 73.6256 73.1822 74.6605 72.5118L74.6766 72.4953C74.9895 71.2043 75.3024 69.7643 75.6153 68.1671C75.9201 66.6361 76.225 64.9314 76.5379 63.0445C74.9093 62.2583 73.072 61.828 71.1546 61.828C69.2372 61.828 67.5203 62.2418 65.9398 62.9783L65.9318 62.9866ZM69.9351 75.3173C69.2051 74.0759 68.4429 72.6443 67.5845 70.9064C66.6378 68.9782 65.5788 66.6775 64.3513 63.8555C63.2762 64.5507 62.3215 65.4114 61.4952 66.3796C62.1611 66.8513 62.7949 67.381 63.3805 67.9768C65.5868 70.1864 67.087 73.1491 67.5123 76.4511C67.8733 76.2938 68.2423 76.1366 68.6114 75.9628C69.0606 75.7559 69.5019 75.5325 69.9351 75.309V75.3173ZM78.1825 64.021C77.9098 65.6182 77.645 67.1327 77.3562 68.5478C77.1877 69.425 77.0112 70.2609 76.8427 71.0471C77.8777 70.3188 78.9126 69.5657 79.9395 68.8044C80.5091 68.374 81.0788 67.9437 81.6404 67.5134C80.7097 66.1396 79.5384 64.9562 78.1906 64.021H78.1825ZM71.1546 43.6381C73.2405 43.6381 75.1339 44.5071 76.4978 45.9222C77.8697 47.3374 78.712 49.2821 78.712 51.4338C78.712 53.5855 77.8697 55.5385 76.4978 56.9454C75.1259 58.3522 73.2405 59.2294 71.1546 59.2294C69.0687 59.2294 67.1753 58.3605 65.8114 56.9454C64.4476 55.5302 63.5971 53.5855 63.5971 51.4338C63.5971 49.2821 64.4395 47.3291 65.8114 45.9222C67.1833 44.5071 69.0687 43.6381 71.1546 43.6381ZM75.2382 47.2132C74.1952 46.1374 72.7431 45.4671 71.1546 45.4671C69.5661 45.4671 68.114 46.1374 67.071 47.2132C66.028 48.2891 65.3782 49.7869 65.3782 51.4255C65.3782 53.0641 66.028 54.562 67.071 55.6378C68.114 56.7137 69.5661 57.384 71.1546 57.384C72.7431 57.384 74.1952 56.7137 75.2382 55.6378C76.2811 54.562 76.931 53.0641 76.931 51.4255C76.931 49.7869 76.2811 48.2891 75.2382 47.2132ZM53.5767 48.0573C51.5469 48.0573 49.7177 48.9015 48.394 50.2669C47.0702 51.6324 46.2519 53.5275 46.2519 55.613C46.2519 57.6985 47.0702 59.5936 48.394 60.9591C49.7177 62.3245 51.555 63.1687 53.5767 63.1687C55.5984 63.1687 57.4276 62.3245 58.7594 60.9591C60.0912 59.5936 60.9015 57.6985 60.9015 55.613C60.9015 53.5275 60.0832 51.6407 58.7594 50.2669C57.4356 48.9015 55.5984 48.0573 53.5767 48.0573ZM57.5079 51.5745C56.505 50.54 55.1171 49.9028 53.5927 49.9028C52.0684 49.9028 50.6724 50.5483 49.6776 51.5745C48.6748 52.6089 48.057 54.0406 48.057 55.613C48.057 57.1854 48.6828 58.6253 49.6776 59.6515C50.6805 60.686 52.0684 61.3232 53.5927 61.3232C55.1171 61.3232 56.513 60.6777 57.5079 59.6515C58.5107 58.6171 59.1285 57.1854 59.1285 55.613C59.1285 54.0406 58.5027 52.6007 57.5079 51.5745ZM41.1013 71.676C40.299 71.196 39.4406 70.8071 38.534 70.5174C37.4108 70.1616 36.1994 69.9795 34.9558 69.9795C31.7868 69.9795 28.8986 71.2208 26.7245 73.2484C24.9514 74.9035 23.6517 77.08 23.042 79.5461C25.4809 78.1558 27.8637 76.8897 30.3106 75.9462C33.4155 74.7545 36.6005 74.0925 40.0663 74.3821C40.3311 73.4387 40.6841 72.545 41.1093 71.6926L41.1013 71.676ZM41.8554 74.5808C44.0537 74.9366 46.2359 75.5656 48.402 76.1945C49.3647 76.4759 50.3275 76.749 51.1378 76.9724C53.0311 77.469 54.9165 77.891 56.8099 78.1062C58.6792 78.3131 60.5405 78.3214 62.4178 78.0069C63.549 77.8165 64.6802 77.5186 65.8034 77.1297C65.5146 74.0677 64.1668 71.3367 62.145 69.3092C59.9307 67.0913 56.9061 65.7176 53.5767 65.7176C50.6805 65.7176 48.0169 66.7437 45.923 68.4816C44.0296 70.0374 42.5855 72.1643 41.8554 74.6056V74.589V74.5808ZM34.9558 52.3276C32.9261 52.3276 31.0969 53.1717 29.7731 54.5372C28.4494 55.9026 27.631 57.7978 27.631 59.8832C27.631 61.9687 28.4494 63.8638 29.7731 65.2293C31.0969 66.5948 32.9341 67.4389 34.9558 67.4389C36.9776 67.4389 38.8148 66.5948 40.1385 65.2293C41.4623 63.8638 42.2806 61.9687 42.2806 59.8832C42.2806 57.7978 41.4623 55.9109 40.1385 54.5372C38.8148 53.1717 36.9776 52.3276 34.9558 52.3276ZM38.879 55.8447C37.8761 54.8103 36.4882 54.173 34.9639 54.173C33.4395 54.173 32.0436 54.8185 31.0487 55.8447C30.0539 56.8709 29.4281 58.3109 29.4281 59.8832C29.4281 61.4556 30.0539 62.8956 31.0487 63.9217C32.0436 64.9479 33.4395 65.5934 34.9639 65.5934C36.4882 65.5934 37.8841 64.9479 38.879 63.9217C39.8738 62.8956 40.4996 61.4556 40.4996 59.8832C40.4996 58.3109 39.8738 56.8709 38.879 55.8447ZM84.9698 62.3742L86.454 64.9727C86.6947 65.3617 86.6145 65.8996 86.2535 66.1893C84.4884 67.6044 82.7315 68.9864 80.9905 70.2857C79.2255 71.6098 77.4444 72.8843 75.6072 74.0759C73.5855 75.3918 71.4835 76.6331 69.3414 77.6345C67.1673 78.6524 64.945 79.4303 62.7066 79.8027C60.6608 80.142 58.6391 80.142 56.6253 79.9185C54.6517 79.7034 52.6701 79.2565 50.7045 78.7351C49.6937 78.462 48.8112 78.2138 47.9287 77.9572C45.2892 77.1876 42.6096 76.418 39.9941 76.2028C36.785 75.9214 33.8326 76.5421 30.9444 77.651C28.0001 78.7848 25.0958 80.4399 22.0713 82.2026L21.5418 82.5171L21.9429 84.1143L22.0713 84.0398C24.9835 82.3433 27.8075 80.7213 30.7038 79.5792C33.6722 78.4124 36.7208 77.7586 40.0102 78.0483C40.8847 78.1227 41.7672 78.2634 42.6336 78.4372C43.46 78.6027 44.3264 78.8179 45.1929 79.0579C46.1797 79.3227 47.0702 79.571 47.9527 79.8275C48.9074 80.1006 49.8621 80.3737 50.7206 80.6054C52.7263 81.1351 54.7239 81.5737 56.7377 81.7888C58.7113 82.004 60.6929 82.004 62.6906 81.6647C64.8888 81.3006 67.079 80.5392 69.2371 79.5379C71.4274 78.5282 73.5614 77.2621 75.6313 75.9131C77.5167 74.6883 79.3539 73.3725 81.175 71.9988C82.9641 70.6498 84.7853 69.2181 86.6065 67.7616C86.7188 67.6623 86.8471 67.5961 87.0076 67.563C87.489 67.4637 87.9623 67.7699 88.0666 68.2664L88.564 70.6581C89.0695 68.2747 89.599 65.701 89.6471 64.2114L84.9939 62.3907L84.9698 62.3742Z" fill="#3F2204"/>
<path fill-rule="evenodd" clip-rule="evenodd" d="M84.5366 65.2376L82.1458 61.0584C81.9051 60.6198 82.0335 60.0653 82.4587 59.8005C82.6913 59.6515 82.9802 59.6432 83.2208 59.726L90.8024 62.6887C91.1313 62.8211 91.3479 63.1356 91.372 63.4749C91.5084 65.1879 90.7302 68.7961 90.0803 71.8498C89.8075 73.116 89.5669 74.2746 89.4064 75.2014C89.3182 75.698 88.8609 76.0373 88.3715 75.9545C87.9944 75.88 87.7056 75.5738 87.6414 75.2014L86.5744 70.054C85.1383 71.196 83.6781 72.3381 82.1859 73.4635C80.3166 74.8704 78.4393 76.2193 76.5459 77.4524C74.4199 78.8427 72.1976 80.142 69.9432 81.2013C67.6567 82.2688 65.314 83.0716 62.9553 83.4688C60.7892 83.8329 58.6551 83.8329 56.5371 83.6012C54.4432 83.3778 52.3653 82.9226 50.2713 82.3599C49.2765 82.095 48.3699 81.8385 47.4633 81.5737C46.5247 81.3006 45.578 81.0358 44.7356 80.8206C43.9413 80.6137 43.131 80.4068 42.2726 80.233C41.4623 80.0675 40.652 79.9351 39.8417 79.8689C36.8412 79.6041 34.0493 80.2165 31.3135 81.284C28.5055 82.3847 25.7698 83.9653 22.9136 85.6205L21.7824 86.2825C21.3492 86.5225 20.8117 86.3818 20.579 85.9349C20.5389 85.8605 20.5068 85.786 20.4908 85.7198L19.6323 82.2854C19.52 81.855 19.7286 81.4247 20.0977 81.2344L21.0203 80.7047C21.4695 77.2207 23.1222 74.1256 25.5291 71.8829C28.0322 69.5574 31.3295 68.134 34.9558 68.134C36.3759 68.134 37.7478 68.3492 39.0555 68.763C40.0984 69.094 41.1013 69.5492 42.0319 70.1036C42.8182 68.945 43.7568 67.9106 44.8238 67.0334C47.2307 65.0555 50.2713 63.8721 53.5767 63.8721C55.8712 63.8721 58.0454 64.4348 59.9548 65.4527C61.2304 63.8721 62.8189 62.5563 64.6241 61.6211C66.5896 60.6032 68.8039 60.0239 71.1546 60.0239C73.7379 60.0239 76.1688 60.7273 78.2788 61.9604C80.1802 63.0693 81.8088 64.6003 83.0604 66.421C83.5578 66.032 84.0472 65.6431 84.5366 65.2541H84.5446L84.5366 65.2376ZM88.8769 41.9499L90.4654 46.0795L94.7736 46.3691C95.263 46.4022 95.6321 46.8408 95.6 47.3456C95.5839 47.6105 95.4636 47.8422 95.2791 47.9994L91.9576 50.838L93.0327 55.1496C93.153 55.6378 92.8642 56.1426 92.3909 56.2668C92.1181 56.3413 91.8534 56.2668 91.6448 56.1178L88.0586 53.7758L84.4082 56.1592C83.991 56.4323 83.4455 56.2999 83.1807 55.8695C83.0443 55.6544 83.0123 55.3896 83.0684 55.1578L84.1435 50.8462L80.822 48.0077C80.445 47.6849 80.3888 47.1056 80.7017 46.7167C80.8702 46.5098 81.1189 46.3939 81.3596 46.3857L85.6357 46.1043L87.2242 41.9747C87.4007 41.503 87.9142 41.2796 88.3715 41.4617C88.6041 41.561 88.7887 41.7513 88.8689 41.9747V41.9582L88.8769 41.9499ZM89.0293 47.3125L88.0586 44.7802L87.1039 47.2546C86.9915 47.6022 86.6867 47.867 86.3096 47.8918L83.6862 48.0656L85.6919 49.7704C85.9727 49.9856 86.109 50.358 86.0208 50.7304L85.371 53.3703L87.5852 51.9221C87.866 51.7317 88.2431 51.7152 88.548 51.9138L90.7783 53.3703L90.1285 50.7304C90.0402 50.3993 90.1525 50.0352 90.4253 49.8035L92.4551 48.0739L89.8316 47.9001C89.5027 47.8753 89.1898 47.6601 89.0614 47.3208H89.0454L89.0293 47.3125ZM65.9318 62.9866C67.1592 65.8251 68.2183 68.1423 69.173 70.0705C70.0314 71.8001 70.7936 73.2318 71.5076 74.4483C72.5746 73.8359 73.6256 73.1822 74.6605 72.5118L74.6766 72.4953C74.9895 71.2043 75.3024 69.7643 75.6153 68.1671C75.9201 66.6361 76.225 64.9314 76.5379 63.0445C74.9093 62.2583 73.072 61.828 71.1546 61.828C69.2372 61.828 67.5203 62.2418 65.9398 62.9783L65.9318 62.9866ZM69.9351 75.3173C69.2051 74.0759 68.4429 72.6443 67.5845 70.9064C66.6378 68.9782 65.5788 66.6775 64.3513 63.8555C63.2762 64.5507 62.3215 65.4114 61.4952 66.3796C62.1611 66.8513 62.7949 67.381 63.3805 67.9768C65.5868 70.1864 67.087 73.1491 67.5123 76.4511C67.8733 76.2938 68.2423 76.1366 68.6114 75.9628C69.0606 75.7559 69.5019 75.5325 69.9351 75.309V75.3173ZM78.1825 64.021C77.9098 65.6182 77.645 67.1327 77.3562 68.5478C77.1877 69.425 77.0112 70.2609 76.8427 71.0471C77.8777 70.3188 78.9126 69.5657 79.9395 68.8044C80.5091 68.374 81.0788 67.9437 81.6404 67.5134C80.7097 66.1396 79.5384 64.9562 78.1906 64.021H78.1825ZM71.1546 43.6381C73.2405 43.6381 75.1339 44.5071 76.4978 45.9222C77.8697 47.3374 78.712 49.2821 78.712 51.4338C78.712 53.5855 77.8697 55.5385 76.4978 56.9454C75.1259 58.3522 73.2405 59.2294 71.1546 59.2294C69.0687 59.2294 67.1753 58.3605 65.8114 56.9454C64.4476 55.5302 63.5971 53.5855 63.5971 51.4338C63.5971 49.2821 64.4395 47.3291 65.8114 45.9222C67.1833 44.5071 69.0687 43.6381 71.1546 43.6381ZM75.2382 47.2132C74.1952 46.1374 72.7431 45.4671 71.1546 45.4671C69.5661 45.4671 68.114 46.1374 67.071 47.2132C66.028 48.2891 65.3782 49.7869 65.3782 51.4255C65.3782 53.0641 66.028 54.562 67.071 55.6378C68.114 56.7137 69.5661 57.384 71.1546 57.384C72.7431 57.384 74.1952 56.7137 75.2382 55.6378C76.2811 54.562 76.931 53.0641 76.931 51.4255C76.931 49.7869 76.2811 48.2891 75.2382 47.2132ZM53.5767 48.0573C51.5469 48.0573 49.7177 48.9015 48.394 50.2669C47.0702 51.6324 46.2519 53.5275 46.2519 55.613C46.2519 57.6985 47.0702 59.5936 48.394 60.9591C49.7177 62.3245 51.555 63.1687 53.5767 63.1687C55.5984 63.1687 57.4276 62.3245 58.7594 60.9591C60.0912 59.5936 60.9015 57.6985 60.9015 55.613C60.9015 53.5275 60.0832 51.6407 58.7594 50.2669C57.4356 48.9015 55.5984 48.0573 53.5767 48.0573ZM57.5079 51.5745C56.505 50.54 55.1171 49.9028 53.5927 49.9028C52.0684 49.9028 50.6724 50.5483 49.6776 51.5745C48.6748 52.6089 48.057 54.0406 48.057 55.613C48.057 57.1854 48.6828 58.6253 49.6776 59.6515C50.6805 60.686 52.0684 61.3232 53.5927 61.3232C55.1171 61.3232 56.513 60.6777 57.5079 59.6515C58.5107 58.6171 59.1285 57.1854 59.1285 55.613C59.1285 54.0406 58.5027 52.6007 57.5079 51.5745ZM41.1013 71.676C40.299 71.196 39.4406 70.8071 38.534 70.5174C37.4108 70.1616 36.1994 69.9795 34.9558 69.9795C31.7868 69.9795 28.8986 71.2208 26.7245 73.2484C24.9514 74.9035 23.6517 77.08 23.042 79.5461C25.4809 78.1558 27.8637 76.8897 30.3106 75.9462C33.4155 74.7545 36.6005 74.0925 40.0663 74.3821C40.3311 73.4387 40.6841 72.545 41.1093 71.6926L41.1013 71.676ZM41.8554 74.5808C44.0537 74.9366 46.2359 75.5656 48.402 76.1945C49.3647 76.4759 50.3275 76.749 51.1378 76.9724C53.0311 77.469 54.9165 77.891 56.8099 78.1062C58.6792 78.3131 60.5405 78.3214 62.4178 78.0069C63.549 77.8165 64.6802 77.5186 65.8034 77.1297C65.5146 74.0677 64.1668 71.3367 62.145 69.3092C59.9307 67.0913 56.9061 65.7176 53.5767 65.7176C50.6805 65.7176 48.0169 66.7437 45.923 68.4816C44.0296 70.0374 42.5855 72.1643 41.8554 74.6056V74.589V74.5808ZM34.9558 52.3276C32.9261 52.3276 31.0969 53.1717 29.7731 54.5372C28.4494 55.9026 27.631 57.7978 27.631 59.8832C27.631 61.9687 28.4494 63.8638 29.7731 65.2293C31.0969 66.5948 32.9341 67.4389 34.9558 67.4389C36.9776 67.4389 38.8148 66.5948 40.1385 65.2293C41.4623 63.8638 42.2806 61.9687 42.2806 59.8832C42.2806 57.7978 41.4623 55.9109 40.1385 54.5372C38.8148 53.1717 36.9776 52.3276 34.9558 52.3276ZM38.879 55.8447C37.8761 54.8103 36.4882 54.173 34.9639 54.173C33.4395 54.173 32.0436 54.8185 31.0487 55.8447C30.0539 56.8709 29.4281 58.3109 29.4281 59.8832C29.4281 61.4556 30.0539 62.8956 31.0487 63.9217C32.0436 64.9479 33.4395 65.5934 34.9639 65.5934C36.4882 65.5934 37.8841 64.9479 38.879 63.9217C39.8738 62.8956 40.4996 61.4556 40.4996 59.8832C40.4996 58.3109 39.8738 56.8709 38.879 55.8447ZM84.9698 62.3742L86.454 64.9727C86.6947 65.3617 86.6145 65.8996 86.2535 66.1893C84.4884 67.6044 82.7315 68.9864 80.9905 70.2857C79.2255 71.6098 77.4444 72.8843 75.6072 74.0759C73.5855 75.3918 71.4835 76.6331 69.3414 77.6345C67.1673 78.6524 64.945 79.4303 62.7066 79.8027C60.6608 80.142 58.6391 80.142 56.6253 79.9185C54.6517 79.7034 52.6701 79.2565 50.7045 78.7351C49.6937 78.462 48.8112 78.2138 47.9287 77.9572C45.2892 77.1876 42.6096 76.418 39.9941 76.2028C36.785 75.9214 33.8326 76.5421 30.9444 77.651C28.0001 78.7848 25.0958 80.4399 22.0713 82.2026L21.5418 82.5171L21.9429 84.1143L22.0713 84.0398C24.9835 82.3433 27.8075 80.7213 30.7038 79.5792C33.6722 78.4124 36.7208 77.7586 40.0102 78.0483C40.8847 78.1227 41.7672 78.2634 42.6336 78.4372C43.46 78.6027 44.3264 78.8179 45.1929 79.0579C46.1797 79.3227 47.0702 79.571 47.9527 79.8275C48.9074 80.1006 49.8621 80.3737 50.7206 80.6054C52.7263 81.1351 54.7239 81.5737 56.7377 81.7888C58.7113 82.004 60.6929 82.004 62.6906 81.6647C64.8888 81.3006 67.079 80.5392 69.2371 79.5379C71.4274 78.5282 73.5614 77.2621 75.6313 75.9131C77.5167 74.6883 79.3539 73.3725 81.175 71.9988C82.9641 70.6498 84.7853 69.2181 86.6065 67.7616C86.7188 67.6623 86.8471 67.5961 87.0076 67.563C87.489 67.4637 87.9623 67.7699 88.0666 68.2664L88.564 70.6581C89.0695 68.2747 89.599 65.701 89.6471 64.2114L84.9939 62.3907L84.9698 62.3742Z" fill="black" fill-opacity="0.2"/>
</g>
<defs>
<linearGradient id="paint0_linear_950_5332" x1="35.6031" y1="5.27241" x2="69.5934" y2="114.645" gradientUnits="userSpaceOnUse">
<stop stop-color="#BDC700"/>
<stop offset="1" stop-color="#BDC700" stop-opacity="0"/>
</linearGradient>
</defs>
</svg>
