<svg width="34" height="30" viewBox="0 0 34 30" fill="none" xmlns="http://www.w3.org/2000/svg">
<g id="Group 66">
<path id="Vector" d="M20.9273 26.0821C21.3619 21.4636 19.2911 18.3757 16.3646 16.8116C14.8347 15.9946 13.0613 15.5849 11.2824 15.5849C9.50352 15.5849 7.73133 15.9946 6.20019 16.8116C3.27495 18.3741 1.20411 21.4606 1.63883 26.0821C3.43651 27.6578 7.34278 28.4457 11.2824 28.4457C15.222 28.4457 19.1282 27.6578 20.926 26.0821H20.9273ZM25.5707 24.8131C25.1361 24.829 24.7714 24.4932 24.7553 24.0663C24.7391 23.6393 25.0809 23.2811 25.5155 23.2652C27.0454 23.2084 28.5389 22.9929 29.7985 22.6201C30.7687 22.3333 31.5814 21.9566 32.1304 21.4979C32.2959 19.6142 31.9285 18.0702 31.2127 16.8621C30.6301 15.8772 29.8106 15.1053 28.8593 14.5501C27.8932 13.9856 26.7899 13.6406 25.6569 13.5151C23.8982 13.3207 22.0738 13.6539 20.5692 14.5131C20.1924 14.7272 19.7094 14.6016 19.4901 14.2302C19.2721 13.86 19.3999 13.3855 19.778 13.1714C21.5784 12.1429 23.7486 11.7424 25.8302 11.9724C27.1825 12.1218 28.5025 12.5342 29.6637 13.2137C30.8398 13.901 31.853 14.8568 32.5795 16.0848C33.4918 17.6275 33.9426 19.5839 33.6721 21.95H33.6708C33.652 22.1179 33.5793 22.2792 33.4488 22.4087C32.7101 23.1477 31.5852 23.7134 30.2504 24.1087C28.8712 24.5171 27.2404 24.7524 25.5719 24.8145L25.5707 24.8131ZM24.6813 7.93797C25.5788 7.93797 26.3901 7.58105 26.9782 7.0034C27.5662 6.42574 27.9295 5.62732 27.9295 4.74693C27.9295 3.86522 27.5662 3.06814 26.9782 2.49045C26.3902 1.9128 25.5774 1.55588 24.6813 1.55588C23.7838 1.55588 22.9724 1.9128 22.3844 2.49045C21.7964 3.06811 21.4331 3.86654 21.4331 4.74693C21.4331 5.62864 21.7964 6.42571 22.3844 7.0034C22.9724 7.58105 23.7851 7.93797 24.6813 7.93797ZM28.0977 8.10188C27.223 8.96112 26.0147 9.49252 24.6813 9.49252C23.3478 9.49252 22.1395 8.96112 21.2649 8.10188C20.3903 7.24264 19.8507 6.05559 19.8507 4.7456C19.8507 3.43561 20.3916 2.24855 21.2649 1.38931C22.1395 0.530075 23.3478 0 24.6813 0C26.0147 0 27.223 0.531395 28.0977 1.38931C28.9723 2.24855 29.5118 3.43561 29.5118 4.7456C29.5118 6.05559 28.9709 7.24264 28.0977 8.10188ZM11.2838 14.0317C12.48 14.0317 13.5618 13.5559 14.3462 12.7865C15.1293 12.0172 15.6151 10.953 15.6151 9.77789C15.6151 8.60272 15.1307 7.53993 14.3462 6.76928C13.5631 5.99996 12.4799 5.52274 11.2838 5.52274C10.0876 5.52274 9.00574 5.9986 8.22129 6.76928C7.43819 7.53861 6.95377 8.60275 6.95377 9.77789C6.95377 10.9531 7.43816 12.0159 8.22129 12.7865C9.00439 13.5558 10.0876 14.0317 11.2838 14.0317ZM15.4645 13.885C15.2371 14.1084 14.9895 14.3146 14.7271 14.4997C15.5574 14.731 16.362 15.0483 17.1195 15.4528C20.6289 17.3272 23.0967 21.0219 22.468 26.53H22.4667C22.4478 26.6979 22.3752 26.8592 22.2446 26.9888L22.1801 27.0522C20.1442 29.0165 15.6945 30 11.2823 30C6.87009 30 2.42033 29.0179 0.384558 27.0522L0.34688 27.0152C0.21098 26.8936 0.11948 26.7244 0.0979512 26.5301C-0.530417 21.0232 1.93597 17.3272 5.44642 15.4528C6.20261 15.0483 7.00724 14.731 7.83881 14.4997C7.57643 14.3146 7.33018 14.1084 7.10145 13.885C6.03173 12.8341 5.36974 11.3814 5.36974 9.7778C5.36974 8.17435 6.03176 6.72161 7.10145 5.6706C8.17118 4.61969 9.64992 3.96935 11.2822 3.96935C12.9145 3.96935 14.3931 4.61972 15.4629 5.6706C16.5327 6.72151 17.1946 8.17424 17.1946 9.7778C17.1946 11.3813 16.5326 12.834 15.4629 13.885L15.4645 13.885Z" fill="#712222"/>
</g>
</svg>
