<svg width="18" height="16" viewBox="0 0 18 16" fill="none" xmlns="http://www.w3.org/2000/svg">
<path d="M15.1706 9.24378C15.0742 9.68909 14.9388 10.1262 14.7623 10.5469C14.7889 10.4812 14.8177 10.4156 14.8444 10.3499C14.6001 10.9245 14.2862 11.4642 13.9045 11.9588C13.9476 11.9034 13.9907 11.8479 14.0338 11.7925C13.6562 12.2809 13.2191 12.7181 12.7306 13.0977C12.7861 13.0546 12.8415 13.0115 12.8969 12.9684C12.4064 13.346 11.8688 13.66 11.2983 13.9021C11.3639 13.8755 11.4296 13.8467 11.4953 13.8201C10.8981 14.0704 10.2722 14.2387 9.63192 14.3249C9.70374 14.3146 9.77762 14.3044 9.84944 14.2961C9.21533 14.3782 8.57507 14.3782 7.94301 14.2941C8.01483 14.3044 8.08871 14.3146 8.16053 14.3228C7.52642 14.2366 6.90668 14.0643 6.31566 13.8159C6.38133 13.8426 6.447 13.8714 6.51266 13.898C5.93807 13.6518 5.3963 13.3357 4.90174 12.952C4.95714 12.9951 5.01255 13.0382 5.06796 13.0813C4.58776 12.7057 4.15476 12.2748 3.78127 11.7925C3.82436 11.8479 3.86746 11.9034 3.91055 11.9588C3.53091 11.4662 3.21693 10.9265 2.97478 10.354C3.00145 10.4197 3.03018 10.4853 3.05686 10.551C2.89269 10.1549 2.76135 9.74655 2.66695 9.32997C2.57256 8.91133 2.06568 8.62403 1.6573 8.75742C1.21814 8.89902 0.982147 9.31766 1.08475 9.76708C1.39873 11.1502 2.09235 12.439 3.06302 13.4753C4.0029 14.4788 5.21161 15.2237 6.51882 15.6382C7.87734 16.0692 9.35077 16.1082 10.738 15.7922C12.1458 15.47 13.4633 14.7435 14.4996 13.74C15.5092 12.7632 16.2562 11.5073 16.64 10.1549C16.6851 9.99897 16.7221 9.84095 16.7569 9.68294C16.8041 9.46746 16.7877 9.24378 16.6749 9.05088C16.5743 8.88055 16.3794 8.71843 16.1844 8.67329C15.9751 8.62609 15.7391 8.63635 15.5523 8.75537C15.3738 8.86619 15.2158 9.03446 15.1706 9.24378Z" fill="#BDC700"/>
<path d="M1.61365 12.7586C1.91942 11.8844 2.22519 11.0082 2.53096 10.1339C2.57406 10.0108 2.61715 9.88768 2.66025 9.7625C2.32369 9.95335 1.98714 10.1442 1.65059 10.3351C2.5248 10.6408 3.40107 10.9466 4.27528 11.2524C4.39841 11.2955 4.52154 11.3385 4.64672 11.3816C4.83962 11.4494 5.1064 11.4001 5.27878 11.2996C5.4491 11.199 5.61122 11.004 5.65637 10.8091C5.70357 10.5998 5.69331 10.3638 5.57428 10.177C5.45321 9.99029 5.29519 9.87332 5.08382 9.79944C4.20961 9.49367 3.33335 9.1879 2.45914 8.88213C2.33601 8.83904 2.21288 8.79595 2.0877 8.75285C1.90301 8.68718 1.61776 8.73028 1.45564 8.83494C1.26889 8.95601 1.15192 9.11403 1.07805 9.3254C0.772277 10.1996 0.466508 11.0759 0.160739 11.9501C0.117644 12.0732 0.0745492 12.1963 0.0314546 12.3215C-0.0362663 12.5144 0.0129852 12.7812 0.11354 12.9536C0.214095 13.1239 0.409048 13.286 0.604001 13.3312C0.813319 13.3784 1.04931 13.3681 1.23606 13.2491C1.4228 13.1301 1.53978 12.97 1.61365 12.7586Z" fill="#BDC700"/>
<path d="M2.53678 6.75677C2.63323 6.31146 2.76867 5.87435 2.94516 5.45366C2.91848 5.51933 2.88975 5.585 2.86307 5.65067C3.10728 5.07607 3.42125 4.53636 3.80295 4.04179C3.75986 4.0972 3.71676 4.15261 3.67367 4.20802C4.05126 3.71961 4.48837 3.2825 4.97678 2.90285C4.92137 2.94595 4.86596 2.98904 4.81055 3.03214C5.30101 2.65455 5.83868 2.34057 6.40917 2.09841C6.3435 2.12509 6.27783 2.15382 6.21216 2.1805C6.80934 1.93014 7.43524 1.76186 8.07551 1.67567C8.00368 1.68593 7.92981 1.6962 7.85798 1.7044C8.49209 1.62232 9.13236 1.62232 9.76442 1.70646C9.69259 1.69619 9.61872 1.68594 9.54689 1.67773C10.181 1.76392 10.8007 1.9363 11.3918 2.1846C11.3261 2.15793 11.2604 2.1292 11.1948 2.10252C11.7694 2.34878 12.3111 2.66481 12.8057 3.04856C12.7503 3.00546 12.6949 2.96237 12.6395 2.91927C13.1197 3.29481 13.5527 3.72576 13.9262 4.20802C13.8831 4.15261 13.84 4.0972 13.7969 4.04179C14.1765 4.5343 14.4905 5.07402 14.7326 5.64656C14.706 5.5809 14.6772 5.51523 14.6506 5.44956C14.8147 5.84562 14.9461 6.254 15.0405 6.67058C15.1349 7.08922 15.6417 7.37652 16.0501 7.24313C16.4893 7.10153 16.7253 6.6829 16.6227 6.23348C16.3087 4.85034 15.6151 3.56159 14.6444 2.52526C13.7045 1.52176 12.4958 0.776836 11.1886 0.362304C9.83009 -0.0686455 8.35665 -0.107636 6.9694 0.208394C5.56164 0.530579 4.24416 1.25704 3.20783 2.26053C2.19818 3.23735 1.4512 4.49326 1.06745 5.84562C1.0223 6.00159 0.985364 6.1596 0.950478 6.31761C0.903278 6.53309 0.919696 6.75677 1.03256 6.94967C1.13312 7.12 1.32807 7.28212 1.52302 7.32727C1.73234 7.37447 1.96834 7.36421 2.15508 7.24518C2.33362 7.13642 2.49163 6.96609 2.53678 6.75677Z" fill="#BDC700"/>
<path d="M16.0936 3.24429C15.7878 4.1185 15.4821 4.99476 15.1763 5.86898C15.1332 5.9921 15.0901 6.11523 15.047 6.24041C15.3836 6.04957 15.7201 5.85872 16.0567 5.66787C15.1825 5.3621 14.3062 5.05633 13.432 4.75056C13.3088 4.70747 13.1857 4.66437 13.0605 4.62128C12.8676 4.55355 12.6009 4.60281 12.4285 4.70336C12.2582 4.80392 12.096 4.99887 12.0509 5.19382C12.0037 5.40314 12.0139 5.63914 12.133 5.82588C12.254 6.01263 12.4121 6.1296 12.6234 6.20348C13.4976 6.50924 14.3739 6.81501 15.2481 7.12078C15.3712 7.16388 15.4944 7.20697 15.6196 7.25007C15.8042 7.31574 16.0895 7.27264 16.2516 7.16798C16.4384 7.04691 16.5553 6.88889 16.6292 6.67752C16.935 5.80331 17.2407 4.92704 17.5465 4.05283C17.5896 3.9297 17.6327 3.80658 17.6758 3.6814C17.7435 3.48849 17.6943 3.22172 17.5937 3.04934C17.4932 2.87901 17.2982 2.71689 17.1033 2.67174C16.8939 2.62454 16.6579 2.6348 16.4712 2.75383C16.2844 2.8749 16.1675 3.03497 16.0936 3.24429Z" fill="#BDC700"/>
</svg>
