<svg width="88" height="91" viewBox="0 0 88 91" fill="none" xmlns="http://www.w3.org/2000/svg">
<g id="dessin">
<path id="Vector 4 (Stroke)" fill-rule="evenodd" clip-rule="evenodd" d="M17.2118 12.2792C8.2794 19.3957 1.61717 30.0787 1.61717 44.3973C1.61717 67.5713 20.8724 89.5604 46.3831 89.5604C56.555 89.5604 65.18 85.1599 71.8194 79.5533C78.4627 73.9434 83.084 67.1534 85.2379 62.454C85.3562 62.1958 85.6615 62.0825 85.9196 62.2008C86.1778 62.3191 86.2911 62.6243 86.1728 62.8825C83.9576 67.7158 79.2449 74.6289 72.4829 80.3391C65.7169 86.0525 56.8653 90.5889 46.3831 90.5889C20.2586 90.5889 0.588745 68.0923 0.588745 44.3973C0.588745 29.7206 7.43113 18.7566 16.571 11.4748C25.6973 4.2039 37.13 0.588867 46.3831 0.588867C55.6582 0.588867 65.2965 4.6162 72.9065 10.3237C80.5048 16.0224 86.1797 23.4724 87.4033 30.4061C87.4527 30.6858 87.266 30.9525 86.9863 31.0019C86.7066 31.0512 86.4399 30.8645 86.3906 30.5848C85.231 24.014 79.7845 16.7677 72.2894 11.1464C64.806 5.53385 55.379 1.61729 46.3831 1.61729C37.3653 1.61729 26.158 5.15176 17.2118 12.2792Z" fill="url(#paint0_linear_163_389)"/>
<g id="Group 48">
<path id="Vector" d="M48.5755 66.5778C48.5478 66.5778 48.5202 66.5761 48.4928 66.5728C48.3587 66.5556 48.2333 66.4972 48.1338 66.4057C48.0343 66.3142 47.9657 66.1941 47.9373 66.062C47.6819 64.8609 47.2397 61.6703 47.3984 58.1896C47.615 53.4425 48.8193 49.8104 50.9775 47.3935C53.2787 44.817 56.5983 43.721 60.847 44.1343C60.9393 44.1433 61.0287 44.1719 61.1091 44.2182C61.1895 44.2645 61.2591 44.3275 61.3132 44.4029C63.5078 47.4613 64.3393 50.1121 63.8524 52.5117C63.0961 56.2454 59.3211 58.5508 55.6692 60.7776C52.8588 62.4952 50.2014 64.117 49.1557 66.2141C49.1024 66.3226 49.0198 66.4142 48.9173 66.4784C48.8148 66.5427 48.6964 66.5771 48.5755 66.5778ZM59.1674 45.3527C56.0999 45.3527 53.6772 46.3272 51.9504 48.2606C48.2696 52.3811 48.4225 60.1874 48.9524 64.1964C50.3898 62.4804 52.6414 61.1058 54.9964 59.6675C58.4085 57.5837 61.9397 55.4288 62.5803 52.2522C62.9787 50.2874 62.2753 48.0449 60.4312 45.4039C59.9975 45.3703 59.5762 45.3532 59.1674 45.3527Z" fill="white"/>
<path id="Vector_2" d="M52.9704 57.1254C52.8449 57.1252 52.7222 57.0887 52.6169 57.0204C52.5116 56.9521 52.4283 56.8549 52.3769 56.7404C52.3255 56.6259 52.3082 56.499 52.3272 56.3749C52.3461 56.2509 52.4004 56.1349 52.4836 56.041C56.8207 51.1641 60.0419 46.5716 61.6645 40.0093C61.7059 39.8416 61.8123 39.6972 61.9601 39.6079C62.108 39.5186 62.2853 39.4917 62.453 39.5332C62.6207 39.5746 62.7651 39.681 62.8544 39.8289C62.9437 39.9767 62.9706 40.154 62.9291 40.3217C61.2429 47.1436 57.9233 51.8857 53.4573 56.9064C53.3962 56.9752 53.3212 57.0303 53.2373 57.0681C53.1534 57.1058 53.0624 57.1254 52.9704 57.1254Z" fill="white"/>
<path id="Vector_3" d="M34.9004 63.0614C32.1785 63.0614 30.1161 62.4142 28.6291 61.1008C25.7749 58.5789 25.6658 54.1574 25.56 49.8807C25.4773 46.5875 25.4021 43.4763 24.1085 41.523C24.0338 41.4104 23.996 41.2773 24.0003 41.1422C24.0047 41.0071 24.0509 40.8767 24.1326 40.7691C24.2144 40.6615 24.3276 40.5819 24.4566 40.5415C24.5855 40.5011 24.7239 40.5018 24.8524 40.5435C26.0188 40.9205 29.0003 42.1306 31.9396 44.0102C35.9419 46.5727 38.4862 49.4277 39.5012 52.5051C40.584 55.7866 39.874 59.212 37.3909 62.6853C37.3371 62.7609 37.2678 62.8241 37.1875 62.8706C37.1072 62.917 37.0179 62.9458 36.9256 62.9548C36.2136 63.0259 35.5386 63.0614 34.9004 63.0614ZM25.9609 42.3488C26.7288 44.4525 26.7941 47.0901 26.8619 49.8484C26.9652 53.8483 27.0636 57.9812 29.4929 60.1246C30.9965 61.4512 33.2902 61.9629 36.499 61.686C38.5895 58.6541 39.183 55.704 38.2622 52.9134C36.5288 47.6605 29.6929 43.8945 25.9609 42.3488Z" fill="white"/>
<path id="Vector_4" d="M40.098 66.5776C39.9296 66.578 39.7677 66.5127 39.6467 66.3957C34.5805 61.523 32.1355 56.2766 30.0235 49.8987C29.9964 49.8173 29.9856 49.7313 29.9916 49.6457C29.9977 49.5601 30.0206 49.4766 30.059 49.3998C30.0974 49.3231 30.1505 49.2546 30.2153 49.1984C30.2801 49.1422 30.3554 49.0992 30.4368 49.0721C30.5182 49.045 30.6042 49.0341 30.6898 49.0402C30.7754 49.0463 30.859 49.0692 30.9357 49.1076C31.0125 49.1459 31.0809 49.1991 31.1371 49.2639C31.1934 49.3287 31.2363 49.404 31.2634 49.4854C33.3166 55.6798 35.6823 60.7658 40.5551 65.4518C40.6504 65.542 40.7163 65.6589 40.7441 65.7872C40.772 65.9155 40.7605 66.0492 40.7111 66.1708C40.6617 66.2924 40.5767 66.3963 40.4674 66.4689C40.358 66.5415 40.2292 66.5793 40.098 66.5776Z" fill="white"/>
<path id="Vector_5" d="M43.6118 39.8697C42.8434 39.8721 42.0767 39.7957 41.3238 39.6416C37.9431 38.9373 35.3344 36.6096 33.5688 32.7247C33.5306 32.6401 33.5109 32.5484 33.5109 32.4556C33.5109 32.3628 33.5306 32.2711 33.5688 32.1866C35.1178 28.7579 36.9991 26.7121 39.3202 25.9326C42.9307 24.7208 46.8157 26.8369 50.5717 28.8852C53.4648 30.4615 56.1991 31.9493 58.5375 31.8063C58.6713 31.7993 58.8041 31.8336 58.9176 31.9047C59.0312 31.9758 59.12 32.0802 59.1721 32.2037C59.2242 32.3272 59.2369 32.4637 59.2085 32.5946C59.1802 32.7256 59.1121 32.8446 59.0137 32.9355C58.1044 33.7579 55.5593 35.7351 52.4646 37.3387C49.2194 39.0241 46.252 39.8697 43.6118 39.8697ZM34.8798 32.4535C36.4585 35.7781 38.7151 37.7669 41.59 38.3653C47 39.4928 53.6846 35.4574 56.8943 32.9966C54.6881 32.6098 52.372 31.3476 49.9509 30.0275C46.4396 28.1148 42.8092 26.1368 39.7368 27.1684C37.834 27.8106 36.2436 29.5365 34.8798 32.4535Z" fill="white"/>
<path id="Vector_6" d="M29.4086 34.1017C29.2516 34.1018 29.1 34.0451 28.9814 33.9422C28.8629 33.8394 28.7856 33.6972 28.7635 33.5418C28.7415 33.3864 28.7763 33.2283 28.8616 33.0965C28.9468 32.9648 29.0768 32.8682 29.2275 32.8246C35.9816 30.8739 41.7462 31.3789 48.3217 32.742C48.491 32.777 48.6394 32.8777 48.7343 33.0221C48.8293 33.1665 48.863 33.3427 48.828 33.512C48.793 33.6812 48.6923 33.8296 48.5479 33.9246C48.4035 34.0195 48.2273 34.0532 48.058 34.0182C41.6693 32.6957 36.0824 32.1997 29.5863 34.0802C29.5283 34.0955 29.4685 34.1027 29.4086 34.1017Z" fill="white"/>
</g>
</g>
<defs>
<linearGradient id="paint0_linear_163_389" x1="18.5558" y1="40.3721" x2="79.2773" y2="48.0077" gradientUnits="userSpaceOnUse">
<stop stop-color="#BDC700"/>
<stop offset="1" stop-color="#BDC700" stop-opacity="0"/>
</linearGradient>
</defs>
</svg>
