<svg width="112" height="112" viewBox="0 0 112 112" fill="none" xmlns="http://www.w3.org/2000/svg">
<mask id="mask0_950_5344" style="mask-type:alpha" maskUnits="userSpaceOnUse" x="0" y="0" width="112" height="112">
<rect width="112" height="112" fill="#D9D9D9"/>
</mask>
<g mask="url(#mask0_950_5344)">
<path fill-rule="evenodd" clip-rule="evenodd" d="M89.5834 61.5503C91.1672 52.9677 89.6799 43.9266 82.6877 35.8829C70.9445 22.3739 48.5187 19.5558 33.9852 32.1896C28.739 36.7501 25.9468 43.1392 24.867 50.0976C23.7689 57.1739 24.6254 63.813 25.6539 67.313C27.5119 73.6354 23.8927 80.2668 17.5704 82.1247C11.248 83.9827 4.6166 80.3636 2.75866 74.0412C0.76633 67.2616 -0.36509 57.077 1.28583 46.4382C2.95504 35.6815 7.64874 23.4642 18.3294 14.1797C43.613 -7.79902 81.0233 -2.40561 100.698 20.2271C113.142 34.5423 115.751 51.2462 113.051 65.8808C110.423 80.1172 102.73 92.8828 93.6252 100.798C80.2806 112.398 64.5272 114.516 45.6035 110.717C39.1427 109.42 34.9567 103.131 36.2539 96.6698C37.551 90.209 43.84 86.0231 50.3008 87.3202C64.6182 90.1947 71.9699 88.003 77.9694 82.7876C82.9536 78.4549 87.9261 70.5312 89.5834 61.5503Z" fill="url(#paint0_linear_950_5344)"/>
<path fill-rule="evenodd" clip-rule="evenodd" d="M85.8647 45.1195H93.4304H93.4466C93.9789 45.1195 94.3015 45.434 94.3015 45.9745V63.4852C94.3015 64.0176 93.987 64.3402 93.4466 64.3402H85.8809C85.3485 64.3402 85.0259 64.0256 85.0259 63.4852V63.0819H77.7909V63.4852C77.7909 63.9369 77.8232 64.3562 77.8554 64.7756L77.8554 64.7758C77.8877 65.171 77.92 65.5743 77.92 66.0018C77.92 73.4948 73.5564 80.4717 66.8053 83.7868L66.1036 84.1336L66.7892 84.5046C68.1765 85.2628 68.975 86.5614 68.975 88.0616C68.975 90.2313 67.136 92.0703 64.9663 92.0703H41.0191C40.2932 92.0703 39.6237 91.7719 39.051 91.1992L33.5018 84.8998L33.3727 84.7385H33.1872C33.1784 84.7345 33.1693 84.7303 33.1598 84.7259C33.074 84.686 32.9615 84.6337 32.8162 84.6337H31.2756V86.2952C31.2756 86.8276 30.9611 87.1502 30.4207 87.1502H22.855C22.3226 87.1502 22 86.8356 22 86.2952V68.6554C22 68.123 22.3146 67.8004 22.855 67.8004H30.4045C30.9369 67.8004 31.2595 68.115 31.2595 68.6554V69.0587H38.4945V68.6554C38.4945 68.2037 38.4622 67.7843 38.43 67.3649C38.3977 66.9696 38.3654 66.5664 38.3654 66.1389C38.3654 58.6458 42.729 51.6689 49.4801 48.3539L50.1818 48.007L49.4962 47.636C48.1089 46.8778 47.3104 45.5792 47.3104 44.079C47.3104 41.9093 49.1494 40.0703 51.3191 40.0703H75.2663C76.081 40.0703 76.8069 40.4333 77.2344 41.0705L82.7836 47.3698L82.9127 47.5311H83.0982C83.107 47.5352 83.1162 47.5394 83.1256 47.5438C83.2114 47.5837 83.324 47.636 83.4692 47.636H85.0098V45.9745C85.0098 45.4421 85.3243 45.1195 85.8647 45.1195ZM23.7099 85.4483H29.5576V69.5184H23.7099V85.4483ZM64.9502 90.4894C66.1681 90.4894 67.2409 89.4167 67.2409 88.1987L67.2328 88.1907C67.2328 87.1018 66.3859 86.1339 65.3374 85.9323V85.7709H58.2556C56.1263 85.7709 54.1905 85.4886 52.3273 84.9079L51.803 84.7466V85.2951V85.3435C51.5852 86.4243 50.9561 87.3599 49.9801 88.0939C49.1655 88.5617 48.3428 88.7956 47.5362 88.7956C46.2296 88.7956 44.9874 88.1987 44.197 87.1825L38.7849 80.5121C38.5348 80.1814 38.6316 79.5522 38.9542 79.3103C39.2849 79.0683 39.906 79.157 40.1641 79.4958L45.5682 86.1581C46.3344 87.2309 47.8508 87.497 49.0123 86.7711L49.0849 86.7146C49.4801 86.3275 49.9237 85.8758 50.0769 85.1257C50.2302 84.3917 50.085 83.7706 49.6414 83.1818L42.1886 72.0672C41.6079 71.3413 40.7368 70.9057 39.8576 70.9057H31.2595V83.0528H32.8001C33.526 83.0528 34.1954 83.3512 34.7681 83.9239L40.3174 90.2232L40.4464 90.3846H40.6319C40.6408 90.3886 40.6499 90.3928 40.6594 90.3972C40.7451 90.4371 40.8577 90.4894 41.0029 90.4894H64.9502ZM51.553 82.8995C53.5452 83.7706 55.6988 84.1901 58.1427 84.1901L58.1346 84.182C68.0878 84.182 76.1858 76.1404 76.1858 66.2599C76.1858 65.3484 76.0568 64.437 75.9277 63.5578L75.8874 63.2675L75.6051 63.2191C74.3468 62.9852 73.2983 62.3076 72.5966 61.251L65.3132 50.2009C65.2406 50.0638 65.168 49.9509 65.0954 49.846C65.0836 49.8264 65.0714 49.8064 65.0588 49.7857C65.0196 49.7213 64.9768 49.6512 64.9341 49.5718L64.8696 49.4427L64.7324 49.3863C62.7402 48.5152 60.5866 48.0957 58.1427 48.0957C48.1895 48.0957 40.0915 56.1938 40.0915 66.1469C40.0915 67.0664 40.2206 67.9698 40.3496 68.736L40.398 69.0183L40.6803 69.0667C41.9386 69.3006 42.9871 69.9782 43.6888 71.0348L50.9722 82.0849C51.0448 82.222 51.1174 82.3349 51.19 82.4398C51.2018 82.4594 51.214 82.4794 51.2266 82.5C51.2658 82.5645 51.3086 82.6346 51.3513 82.714L51.4159 82.8431L51.553 82.8995ZM76.815 61.3801H85.0098L85.0259 61.3881V49.2411H83.4854C82.7594 49.2411 82.09 48.9427 81.5173 48.37L75.9681 42.0706L75.839 41.9093H75.6535C75.6447 41.9053 75.6355 41.901 75.626 41.8966C75.5403 41.8568 75.4277 41.8045 75.2825 41.8045H51.3352C50.1173 41.8045 49.0445 42.8772 49.0445 44.0951C49.0445 45.3131 50.1092 46.3858 51.3352 46.3858H58.1427C60.3608 46.3858 62.6031 46.8617 64.0872 47.2569L64.5953 47.394V46.8698V46.8214C64.8131 45.7405 65.4342 44.8049 66.4424 44.0467C68.2572 42.8046 70.7818 43.2079 72.1933 44.9743L77.4844 51.7737C77.7345 52.1044 77.6377 52.7336 77.315 52.9755C76.9843 53.2175 76.3633 53.1288 76.1052 52.79L70.7011 46.1277C69.9349 45.055 68.4185 44.7888 67.257 45.5147L67.1844 45.5712C66.7892 45.9664 66.3456 46.41 66.1923 47.1601C66.0472 47.8941 66.1843 48.5152 66.6279 49.104L74.0807 60.3476C74.6614 61.0736 75.5325 61.5091 76.4117 61.5091H76.815V61.3801ZM86.7278 62.7593H92.5755V46.8375H86.7278V62.7593ZM51.2706 75.5676C50.7464 75.5676 50.3995 75.2288 50.3995 74.6965V73.7125C50.3995 70.7039 52.1821 67.9293 54.9486 66.6469L55.1019 66.5743L54.9728 66.4613C53.9243 65.5177 53.3435 64.2513 53.3435 62.9124C53.3435 60.2184 55.4487 58.1133 58.1427 58.1133C60.8366 58.1133 62.9418 60.2184 62.9418 62.9124C62.9418 64.2513 62.3611 65.5177 61.3125 66.4613L61.1835 66.5743L61.3367 66.6469C64.1033 67.9293 65.8858 70.7039 65.8858 73.7125V74.6965C65.8858 75.2288 65.5471 75.5676 65.0147 75.5676H51.2706ZM52.1417 73.8254H64.1517V73.7125C64.1517 70.3974 61.4577 67.7035 58.1427 67.7035C54.8276 67.7035 52.1337 70.3974 52.1337 73.7125V73.8254H52.1417ZM58.1427 59.8555C56.4247 59.8555 55.0857 61.2025 55.0857 62.9124C55.0857 64.6224 56.4327 65.9693 58.1427 65.9693C59.8526 65.9693 61.1996 64.6224 61.1996 62.9124C61.1996 61.2025 59.8526 59.8555 58.1427 59.8555Z" fill="#3F2204"/>
<path fill-rule="evenodd" clip-rule="evenodd" d="M85.8647 45.1195H93.4304H93.4466C93.9789 45.1195 94.3015 45.434 94.3015 45.9745V63.4852C94.3015 64.0176 93.987 64.3402 93.4466 64.3402H85.8809C85.3485 64.3402 85.0259 64.0256 85.0259 63.4852V63.0819H77.7909V63.4852C77.7909 63.9369 77.8232 64.3562 77.8554 64.7756L77.8554 64.7758C77.8877 65.171 77.92 65.5743 77.92 66.0018C77.92 73.4948 73.5564 80.4717 66.8053 83.7868L66.1036 84.1336L66.7892 84.5046C68.1765 85.2628 68.975 86.5614 68.975 88.0616C68.975 90.2313 67.136 92.0703 64.9663 92.0703H41.0191C40.2932 92.0703 39.6237 91.7719 39.051 91.1992L33.5018 84.8998L33.3727 84.7385H33.1872C33.1784 84.7345 33.1693 84.7303 33.1598 84.7259C33.074 84.686 32.9615 84.6337 32.8162 84.6337H31.2756V86.2952C31.2756 86.8276 30.9611 87.1502 30.4207 87.1502H22.855C22.3226 87.1502 22 86.8356 22 86.2952V68.6554C22 68.123 22.3146 67.8004 22.855 67.8004H30.4045C30.9369 67.8004 31.2595 68.115 31.2595 68.6554V69.0587H38.4945V68.6554C38.4945 68.2037 38.4622 67.7843 38.43 67.3649C38.3977 66.9696 38.3654 66.5664 38.3654 66.1389C38.3654 58.6458 42.729 51.6689 49.4801 48.3539L50.1818 48.007L49.4962 47.636C48.1089 46.8778 47.3104 45.5792 47.3104 44.079C47.3104 41.9093 49.1494 40.0703 51.3191 40.0703H75.2663C76.081 40.0703 76.8069 40.4333 77.2344 41.0705L82.7836 47.3698L82.9127 47.5311H83.0982C83.107 47.5352 83.1162 47.5394 83.1256 47.5438C83.2114 47.5837 83.324 47.636 83.4692 47.636H85.0098V45.9745C85.0098 45.4421 85.3243 45.1195 85.8647 45.1195ZM23.7099 85.4483H29.5576V69.5184H23.7099V85.4483ZM64.9502 90.4894C66.1681 90.4894 67.2409 89.4167 67.2409 88.1987L67.2328 88.1907C67.2328 87.1018 66.3859 86.1339 65.3374 85.9323V85.7709H58.2556C56.1263 85.7709 54.1905 85.4886 52.3273 84.9079L51.803 84.7466V85.2951V85.3435C51.5852 86.4243 50.9561 87.3599 49.9801 88.0939C49.1655 88.5617 48.3428 88.7956 47.5362 88.7956C46.2296 88.7956 44.9874 88.1987 44.197 87.1825L38.7849 80.5121C38.5348 80.1814 38.6316 79.5522 38.9542 79.3103C39.2849 79.0683 39.906 79.157 40.1641 79.4958L45.5682 86.1581C46.3344 87.2309 47.8508 87.497 49.0123 86.7711L49.0849 86.7146C49.4801 86.3275 49.9237 85.8758 50.0769 85.1257C50.2302 84.3917 50.085 83.7706 49.6414 83.1818L42.1886 72.0672C41.6079 71.3413 40.7368 70.9057 39.8576 70.9057H31.2595V83.0528H32.8001C33.526 83.0528 34.1954 83.3512 34.7681 83.9239L40.3174 90.2232L40.4464 90.3846H40.6319C40.6408 90.3886 40.6499 90.3928 40.6594 90.3972C40.7451 90.4371 40.8577 90.4894 41.0029 90.4894H64.9502ZM51.553 82.8995C53.5452 83.7706 55.6988 84.1901 58.1427 84.1901L58.1346 84.182C68.0878 84.182 76.1858 76.1404 76.1858 66.2599C76.1858 65.3484 76.0568 64.437 75.9277 63.5578L75.8874 63.2675L75.6051 63.2191C74.3468 62.9852 73.2983 62.3076 72.5966 61.251L65.3132 50.2009C65.2406 50.0638 65.168 49.9509 65.0954 49.846C65.0836 49.8264 65.0714 49.8064 65.0588 49.7857C65.0196 49.7213 64.9768 49.6512 64.9341 49.5718L64.8696 49.4427L64.7324 49.3863C62.7402 48.5152 60.5866 48.0957 58.1427 48.0957C48.1895 48.0957 40.0915 56.1938 40.0915 66.1469C40.0915 67.0664 40.2206 67.9698 40.3496 68.736L40.398 69.0183L40.6803 69.0667C41.9386 69.3006 42.9871 69.9782 43.6888 71.0348L50.9722 82.0849C51.0448 82.222 51.1174 82.3349 51.19 82.4398C51.2018 82.4594 51.214 82.4794 51.2266 82.5C51.2658 82.5645 51.3086 82.6346 51.3513 82.714L51.4159 82.8431L51.553 82.8995ZM76.815 61.3801H85.0098L85.0259 61.3881V49.2411H83.4854C82.7594 49.2411 82.09 48.9427 81.5173 48.37L75.9681 42.0706L75.839 41.9093H75.6535C75.6447 41.9053 75.6355 41.901 75.626 41.8966C75.5403 41.8568 75.4277 41.8045 75.2825 41.8045H51.3352C50.1173 41.8045 49.0445 42.8772 49.0445 44.0951C49.0445 45.3131 50.1092 46.3858 51.3352 46.3858H58.1427C60.3608 46.3858 62.6031 46.8617 64.0872 47.2569L64.5953 47.394V46.8698V46.8214C64.8131 45.7405 65.4342 44.8049 66.4424 44.0467C68.2572 42.8046 70.7818 43.2079 72.1933 44.9743L77.4844 51.7737C77.7345 52.1044 77.6377 52.7336 77.315 52.9755C76.9843 53.2175 76.3633 53.1288 76.1052 52.79L70.7011 46.1277C69.9349 45.055 68.4185 44.7888 67.257 45.5147L67.1844 45.5712C66.7892 45.9664 66.3456 46.41 66.1923 47.1601C66.0472 47.8941 66.1843 48.5152 66.6279 49.104L74.0807 60.3476C74.6614 61.0736 75.5325 61.5091 76.4117 61.5091H76.815V61.3801ZM86.7278 62.7593H92.5755V46.8375H86.7278V62.7593ZM51.2706 75.5676C50.7464 75.5676 50.3995 75.2288 50.3995 74.6965V73.7125C50.3995 70.7039 52.1821 67.9293 54.9486 66.6469L55.1019 66.5743L54.9728 66.4613C53.9243 65.5177 53.3435 64.2513 53.3435 62.9124C53.3435 60.2184 55.4487 58.1133 58.1427 58.1133C60.8366 58.1133 62.9418 60.2184 62.9418 62.9124C62.9418 64.2513 62.3611 65.5177 61.3125 66.4613L61.1835 66.5743L61.3367 66.6469C64.1033 67.9293 65.8858 70.7039 65.8858 73.7125V74.6965C65.8858 75.2288 65.5471 75.5676 65.0147 75.5676H51.2706ZM52.1417 73.8254H64.1517V73.7125C64.1517 70.3974 61.4577 67.7035 58.1427 67.7035C54.8276 67.7035 52.1337 70.3974 52.1337 73.7125V73.8254H52.1417ZM58.1427 59.8555C56.4247 59.8555 55.0857 61.2025 55.0857 62.9124C55.0857 64.6224 56.4327 65.9693 58.1427 65.9693C59.8526 65.9693 61.1996 64.6224 61.1996 62.9124C61.1996 61.2025 59.8526 59.8555 58.1427 59.8555Z" fill="black" fill-opacity="0.2"/>
</g>
<defs>
<linearGradient id="paint0_linear_950_5344" x1="106.773" y1="27.5608" x2="2.35802" y2="74.6269" gradientUnits="userSpaceOnUse">
<stop stop-color="#BDC700"/>
<stop offset="1" stop-color="#BDC700" stop-opacity="0"/>
</linearGradient>
</defs>
</svg>
