<svg width="112" height="112" viewBox="0 0 112 112" fill="none" xmlns="http://www.w3.org/2000/svg">
<mask id="mask0_950_5360" style="mask-type:alpha" maskUnits="userSpaceOnUse" x="0" y="0" width="112" height="112">
<rect width="112" height="112" fill="#D9D9D9"/>
</mask>
<g mask="url(#mask0_950_5360)">
<path fill-rule="evenodd" clip-rule="evenodd" d="M65.6424 25.0774C57.3168 22.4594 48.1618 22.8338 39.326 28.7937C24.4865 38.803 18.9564 60.7181 29.7249 76.683C33.612 82.4459 39.6132 85.9959 46.3881 87.9157C53.2778 89.868 59.9719 89.827 63.5711 89.2326C70.0728 88.1591 76.2137 92.5594 77.2873 99.061C78.3609 105.563 73.9606 111.704 67.459 112.777C60.487 113.928 50.2405 113.81 39.8822 110.875C29.4092 107.907 17.8549 101.76 9.9412 90.0272C-8.79237 62.2536 1.12001 25.7794 25.9817 9.01C41.7067 -1.59666 58.6042 -2.15113 72.8006 2.31288C86.6107 6.65539 98.3436 15.8471 105.09 25.8487C114.977 40.5076 115.16 56.4018 109.083 74.7214C107.008 80.9759 100.255 84.3642 94.0009 82.2894C87.7464 80.2146 84.3581 73.4623 86.4329 67.2078C91.0309 53.3473 89.7514 45.7834 85.3061 39.193C81.6131 33.7179 74.3544 27.8168 65.6424 25.0774Z" fill="url(#paint0_linear_950_5360)"/>
<path fill-rule="evenodd" clip-rule="evenodd" d="M55.9004 39.4103C55.3912 39.4103 54.9797 38.9963 54.9797 38.4871V35.9206C54.9797 35.4114 55.3912 35 55.9004 35C56.4095 35 56.821 35.4115 56.821 35.9206V38.4871C56.821 38.7314 56.7258 38.968 56.551 39.1403C56.3787 39.3126 56.1447 39.4103 55.9004 39.4103ZM60.39 40.3643C60.5546 40.6472 60.8581 40.8247 61.1872 40.8247C61.5164 40.8247 61.8199 40.6498 61.9845 40.3644L63.2677 38.1425C63.5223 37.7001 63.3706 37.1369 62.9308 36.8823C62.4911 36.6277 61.9253 36.7795 61.6707 37.2192H61.6733L60.39 39.4411C60.2255 39.7266 60.2255 40.0789 60.39 40.3643ZM60.8427 59.525V62.4993L60.8432 62.5193L60.8432 62.5316V63.5654C60.8407 65.165 59.5418 66.4636 57.9423 66.4662H56.8236V90.3223C61.7836 87.7697 67.211 86.7002 71.0372 86.2502C73.3337 85.9776 75.6431 85.8567 77.9551 85.8876V61.2759L77.9548 61.2629L77.9548 61.2513L77.9548 61.2402L77.9551 61.2267V57.4834C70.2185 54.8558 64.4669 56.5134 60.8778 58.5133C60.8552 58.7195 60.8434 58.9276 60.8427 59.1368V59.5174L60.8427 59.525ZM59.0019 63.4525H52.8067V63.5654C52.8067 64.1466 53.2773 64.6198 53.8586 64.6249H55.8804L55.903 64.6246L55.9256 64.6249H57.9423C58.5261 64.6223 58.9993 64.1492 59.0019 63.5654V63.4525ZM50.9574 62.5496L50.9578 62.562V63.5654C50.9578 65.1675 52.2564 66.4662 53.8586 66.4662H54.9797V90.3193C50.0198 87.7666 44.5921 86.6946 40.7661 86.2472C38.4694 85.9746 36.1575 85.8537 33.8456 85.8871V61.2712L33.8458 61.2513L33.8456 61.2315V57.483C41.5803 54.8533 47.3342 56.5146 50.9262 58.5144C50.946 58.706 50.9564 58.8991 50.9571 59.0932V59.515L50.9573 59.534V62.5319L50.9574 62.5496ZM52.8015 60.4385L52.8015 61.6084H58.9966L58.9992 60.4385H52.8015ZM49.3601 55.1098C49.6314 55.3962 49.871 55.7071 50.0766 56.0371C46.0201 54.2516 40.1391 53.2226 32.6059 55.9631C32.2408 56.0968 31.999 56.4414 31.999 56.8297V60.3281H27.9207C27.4116 60.3281 27.0001 60.7421 27.0001 61.2513V91.8794C27.0001 92.3886 27.4116 92.8 27.9207 92.8H83.8799C84.1242 92.8 84.3582 92.7049 84.5305 92.53C84.7053 92.3577 84.8005 92.1237 84.8005 91.8794V61.2513C84.8005 60.7422 84.389 60.3281 83.8799 60.3281H79.7992V56.8301C79.8017 56.4418 79.5574 56.0921 79.1922 55.9609V55.9583C71.6667 53.2221 65.7909 54.2479 61.7354 56.0295C61.9415 55.6977 62.1813 55.385 62.4526 55.0968C65.7649 51.5378 65.6491 45.9909 62.1902 42.5731C60.4724 40.8913 58.1862 39.986 55.7509 40.0246C52.2069 40.0812 49.0309 42.2234 47.6473 45.4894C46.2664 48.7527 46.935 52.5227 49.3601 55.1098ZM52.7855 58.5943H59.0166C59.1477 56.8173 59.8832 55.138 61.1048 53.8393C63.067 51.7537 63.589 48.696 62.424 46.0807C61.2617 43.4653 58.6437 41.8041 55.7813 41.8658C51.9213 41.9275 48.7812 45.1215 48.7812 48.9838C48.7786 50.7891 49.4653 52.5301 50.7048 53.8494C51.9264 55.1403 52.6621 56.8199 52.7855 58.5943ZM59.8194 90.9593H82.9592V62.1719H79.7992V86.8466C79.7992 87.1012 79.6937 87.3455 79.5086 87.5178C79.3234 87.6926 79.0739 87.7827 78.8193 87.7672L78.7969 87.7662C78.5031 87.7512 75.3864 87.592 71.2122 88.0861C68.1042 88.4537 63.8977 89.2463 59.8194 90.9593ZM31.999 62.1719H28.8414V90.9593H51.9859C47.9055 89.2442 43.6958 88.4509 40.586 88.0831C36.2193 87.5688 33.0098 87.7616 32.9788 87.7642C32.7242 87.7796 32.4748 87.6896 32.2896 87.5173C32.1045 87.3425 31.999 87.0981 31.999 86.8436V62.1719ZM50.5151 68.9309C50.2502 68.9309 49.9982 68.8177 49.8233 68.6171C49.8053 68.5966 48.8153 67.5062 46.9791 66.7347C44.5206 65.7009 41.7689 65.6906 38.8012 66.7064V66.709C38.5697 66.7913 38.3126 66.7784 38.0888 66.6704C37.8677 66.5649 37.698 66.3721 37.6157 66.1381C37.5359 65.904 37.5539 65.6494 37.6645 65.4283C37.7751 65.2071 37.9705 65.04 38.2046 64.9628C42.5018 63.4918 45.7887 64.2119 47.7913 65.076C49.9589 66.01 51.1295 67.3098 51.2066 67.3954L51.2091 67.3982L51.2065 67.4007C51.4457 67.6733 51.5022 68.0591 51.3531 68.3882C51.2039 68.7174 50.8777 68.9283 50.5151 68.9309ZM49.7259 76.1437C49.9008 76.3417 50.1528 76.4549 50.4177 76.4549C50.7777 76.4549 51.1065 76.244 51.2557 75.9148C51.4048 75.5856 51.3482 75.1999 51.1091 74.9273L51.1117 74.9247L51.1092 74.922C51.0323 74.8366 49.8617 73.5367 47.6939 72.6025C45.6913 71.7411 42.4044 71.0184 38.1072 72.4894C37.8706 72.5665 37.6777 72.7337 37.5671 72.9549C37.4565 73.176 37.4385 73.4306 37.5182 73.6646C37.598 73.8986 37.7703 74.0915 37.9914 74.1969C38.2151 74.305 38.4697 74.3178 38.7038 74.2329C41.6715 73.2172 44.4232 73.2274 46.8817 74.2612C48.7179 75.0327 49.7079 76.1231 49.7259 76.1437ZM50.3194 83.9822C50.0546 83.9822 49.8025 83.8691 49.6277 83.6711C49.6097 83.6505 48.6196 82.5601 46.7834 81.7886C44.3249 80.7548 41.5732 80.7445 38.6055 81.7603C38.3715 81.8452 38.1169 81.8323 37.8932 81.7243C37.672 81.6163 37.4997 81.426 37.42 81.192C37.3403 80.9579 37.3583 80.7033 37.4688 80.4822C37.5794 80.261 37.7723 80.0939 38.0089 80.0167C42.3061 78.5457 45.593 79.2684 47.5957 80.1299C49.7609 81.0654 50.9288 82.3635 51.0081 82.4516L51.0108 82.4546C51.25 82.7272 51.3066 83.113 51.1574 83.4421C51.0083 83.7713 50.6795 83.9822 50.3194 83.9822ZM60.4471 67.8808C60.5962 68.2099 60.9228 68.4208 61.2854 68.4208C61.5503 68.4234 61.8022 68.3076 61.9797 68.1096V68.1071C62.0152 68.0633 65.8882 63.7636 72.999 66.1989C73.2304 66.2838 73.4876 66.2709 73.7113 66.1629C73.9325 66.0575 74.1022 65.8646 74.1845 65.6306C74.2642 65.3966 74.2462 65.142 74.1357 64.9208C74.0251 64.6997 73.8296 64.5325 73.5956 64.4554L73.5982 64.4579C69.3013 62.987 66.0122 63.707 64.0114 64.5711C61.8152 65.5175 60.6425 66.8367 60.5937 66.8933C60.3545 67.1659 60.298 67.5516 60.4471 67.8808ZM61.3828 75.9507C61.0202 75.9533 60.6911 75.7398 60.542 75.4107C60.3928 75.0789 60.4494 74.6932 60.6911 74.4206C60.74 74.364 61.9127 73.0448 64.1088 72.0984C66.1096 71.2344 69.3987 70.5143 73.6956 71.9853L73.693 71.9827C73.9296 72.0598 74.1225 72.227 74.2331 72.4482C74.3437 72.6693 74.3617 72.9239 74.2819 73.1579C74.2022 73.3919 74.0299 73.5848 73.8088 73.6903C73.585 73.7983 73.3304 73.8111 73.0964 73.7263C70.1288 72.7104 67.3771 72.7208 64.9185 73.7545C63.0746 74.5312 62.082 75.6267 62.0743 75.637C61.8994 75.8376 61.6477 75.9533 61.3828 75.9507ZM60.6403 82.9355C60.7894 83.2672 61.1186 83.4781 61.4812 83.4781C61.7461 83.4781 61.9977 83.3649 62.1726 83.1644C62.1803 83.1541 63.173 82.0585 65.0168 81.2819C67.4754 80.2481 70.2271 80.2378 73.1948 81.2536C73.4288 81.3385 73.6834 81.3256 73.9071 81.2176C74.1283 81.1096 74.3006 80.9193 74.3803 80.6853C74.46 80.4513 74.442 80.1941 74.3314 79.9755C74.2208 79.7543 74.028 79.5872 73.7914 79.51L73.7939 79.5126C69.4971 78.0417 66.2079 78.7617 64.2072 79.6258C62.011 80.5721 60.8383 81.8914 60.7894 81.9479C60.5503 82.218 60.4911 82.6063 60.6403 82.9355ZM46.2799 44.5711C46.4214 44.6534 46.5808 44.6945 46.7428 44.6945C47.1595 44.6945 47.5246 44.4142 47.6326 44.0105C47.7381 43.6093 47.5632 43.1824 47.2032 42.9741L44.9813 41.6908C44.5389 41.4363 43.9757 41.588 43.7211 42.0303C43.6003 42.2412 43.5668 42.4932 43.6286 42.7298C43.6928 42.9638 43.8471 43.167 44.058 43.2878L46.2799 44.5711ZM45.3259 49.9815H42.7568C42.2502 49.9815 41.8362 49.5701 41.8362 49.0609C41.8362 48.5517 42.2502 48.1377 42.7568 48.1377H45.3259C45.835 48.1377 46.2465 48.5517 46.2465 49.0609C46.2465 49.5701 45.835 49.9815 45.3259 49.9815ZM66.4721 49.9815H69.0412C69.5504 49.9815 69.9618 49.5701 69.9618 49.0609C69.9618 48.5517 69.5504 48.1377 69.0412 48.1377H66.4721C65.963 48.1377 65.5515 48.5517 65.5515 49.0609C65.5515 49.5701 65.963 49.9815 66.4721 49.9815ZM65.0577 44.6945C64.6411 44.6945 64.2759 44.4142 64.1679 44.0105C64.0624 43.6093 64.2373 43.1824 64.5973 42.9741L66.8192 41.6908C67.2616 41.4363 67.8247 41.588 68.0794 42.0303C68.334 42.4701 68.1822 43.0332 67.7425 43.2879L65.5206 44.5711C65.3791 44.6534 65.2197 44.6945 65.0577 44.6945ZM49.8157 40.3644C49.9803 40.6498 50.2837 40.8247 50.6129 40.8247C50.9421 40.8247 51.2456 40.6472 51.4102 40.3643C51.5748 40.0789 51.5748 39.7266 51.4102 39.4411H51.4128L50.1295 37.2192C49.8749 36.7795 49.3091 36.6277 48.8694 36.8823C48.4296 37.137 48.2779 37.7002 48.5325 38.1425L49.8157 40.3644Z" fill="#3F2204"/>
<path fill-rule="evenodd" clip-rule="evenodd" d="M55.9004 39.4103C55.3912 39.4103 54.9797 38.9963 54.9797 38.4871V35.9206C54.9797 35.4114 55.3912 35 55.9004 35C56.4095 35 56.821 35.4115 56.821 35.9206V38.4871C56.821 38.7314 56.7258 38.968 56.551 39.1403C56.3787 39.3126 56.1447 39.4103 55.9004 39.4103ZM60.39 40.3643C60.5546 40.6472 60.8581 40.8247 61.1872 40.8247C61.5164 40.8247 61.8199 40.6498 61.9845 40.3644L63.2677 38.1425C63.5223 37.7001 63.3706 37.1369 62.9308 36.8823C62.4911 36.6277 61.9253 36.7795 61.6707 37.2192H61.6733L60.39 39.4411C60.2255 39.7266 60.2255 40.0789 60.39 40.3643ZM60.8427 59.525V62.4993L60.8432 62.5193L60.8432 62.5316V63.5654C60.8407 65.165 59.5418 66.4636 57.9423 66.4662H56.8236V90.3223C61.7836 87.7697 67.211 86.7002 71.0372 86.2502C73.3337 85.9776 75.6431 85.8567 77.9551 85.8876V61.2759L77.9548 61.2629L77.9548 61.2513L77.9548 61.2402L77.9551 61.2267V57.4834C70.2185 54.8558 64.4669 56.5134 60.8778 58.5133C60.8552 58.7195 60.8434 58.9276 60.8427 59.1368V59.5174L60.8427 59.525ZM59.0019 63.4525H52.8067V63.5654C52.8067 64.1466 53.2773 64.6198 53.8586 64.6249H55.8804L55.903 64.6246L55.9256 64.6249H57.9423C58.5261 64.6223 58.9993 64.1492 59.0019 63.5654V63.4525ZM50.9574 62.5496L50.9578 62.562V63.5654C50.9578 65.1675 52.2564 66.4662 53.8586 66.4662H54.9797V90.3193C50.0198 87.7666 44.5921 86.6946 40.7661 86.2472C38.4694 85.9746 36.1575 85.8537 33.8456 85.8871V61.2712L33.8458 61.2513L33.8456 61.2315V57.483C41.5803 54.8533 47.3342 56.5146 50.9262 58.5144C50.946 58.706 50.9564 58.8991 50.9571 59.0932V59.515L50.9573 59.534V62.5319L50.9574 62.5496ZM52.8015 60.4385L52.8015 61.6084H58.9966L58.9992 60.4385H52.8015ZM49.3601 55.1098C49.6314 55.3962 49.871 55.7071 50.0766 56.0371C46.0201 54.2516 40.1391 53.2226 32.6059 55.9631C32.2408 56.0968 31.999 56.4414 31.999 56.8297V60.3281H27.9207C27.4116 60.3281 27.0001 60.7421 27.0001 61.2513V91.8794C27.0001 92.3886 27.4116 92.8 27.9207 92.8H83.8799C84.1242 92.8 84.3582 92.7049 84.5305 92.53C84.7053 92.3577 84.8005 92.1237 84.8005 91.8794V61.2513C84.8005 60.7422 84.389 60.3281 83.8799 60.3281H79.7992V56.8301C79.8017 56.4418 79.5574 56.0921 79.1922 55.9609V55.9583C71.6667 53.2221 65.7909 54.2479 61.7354 56.0295C61.9415 55.6977 62.1813 55.385 62.4526 55.0968C65.7649 51.5378 65.6491 45.9909 62.1902 42.5731C60.4724 40.8913 58.1862 39.986 55.7509 40.0246C52.2069 40.0812 49.0309 42.2234 47.6473 45.4894C46.2664 48.7527 46.935 52.5227 49.3601 55.1098ZM52.7855 58.5943H59.0166C59.1477 56.8173 59.8832 55.138 61.1048 53.8393C63.067 51.7537 63.589 48.696 62.424 46.0807C61.2617 43.4653 58.6437 41.8041 55.7813 41.8658C51.9213 41.9275 48.7812 45.1215 48.7812 48.9838C48.7786 50.7891 49.4653 52.5301 50.7048 53.8494C51.9264 55.1403 52.6621 56.8199 52.7855 58.5943ZM59.8194 90.9593H82.9592V62.1719H79.7992V86.8466C79.7992 87.1012 79.6937 87.3455 79.5086 87.5178C79.3234 87.6926 79.0739 87.7827 78.8193 87.7672L78.7969 87.7662C78.5031 87.7512 75.3864 87.592 71.2122 88.0861C68.1042 88.4537 63.8977 89.2463 59.8194 90.9593ZM31.999 62.1719H28.8414V90.9593H51.9859C47.9055 89.2442 43.6958 88.4509 40.586 88.0831C36.2193 87.5688 33.0098 87.7616 32.9788 87.7642C32.7242 87.7796 32.4748 87.6896 32.2896 87.5173C32.1045 87.3425 31.999 87.0981 31.999 86.8436V62.1719ZM50.5151 68.9309C50.2502 68.9309 49.9982 68.8177 49.8233 68.6171C49.8053 68.5966 48.8153 67.5062 46.9791 66.7347C44.5206 65.7009 41.7689 65.6906 38.8012 66.7064V66.709C38.5697 66.7913 38.3126 66.7784 38.0888 66.6704C37.8677 66.5649 37.698 66.3721 37.6157 66.1381C37.5359 65.904 37.5539 65.6494 37.6645 65.4283C37.7751 65.2071 37.9705 65.04 38.2046 64.9628C42.5018 63.4918 45.7887 64.2119 47.7913 65.076C49.9589 66.01 51.1295 67.3098 51.2066 67.3954L51.2091 67.3982L51.2065 67.4007C51.4457 67.6733 51.5022 68.0591 51.3531 68.3882C51.2039 68.7174 50.8777 68.9283 50.5151 68.9309ZM49.7259 76.1437C49.9008 76.3417 50.1528 76.4549 50.4177 76.4549C50.7777 76.4549 51.1065 76.244 51.2557 75.9148C51.4048 75.5856 51.3482 75.1999 51.1091 74.9273L51.1117 74.9247L51.1092 74.922C51.0323 74.8366 49.8617 73.5367 47.6939 72.6025C45.6913 71.7411 42.4044 71.0184 38.1072 72.4894C37.8706 72.5665 37.6777 72.7337 37.5671 72.9549C37.4565 73.176 37.4385 73.4306 37.5182 73.6646C37.598 73.8986 37.7703 74.0915 37.9914 74.1969C38.2151 74.305 38.4697 74.3178 38.7038 74.2329C41.6715 73.2172 44.4232 73.2274 46.8817 74.2612C48.7179 75.0327 49.7079 76.1231 49.7259 76.1437ZM50.3194 83.9822C50.0546 83.9822 49.8025 83.8691 49.6277 83.6711C49.6097 83.6505 48.6196 82.5601 46.7834 81.7886C44.3249 80.7548 41.5732 80.7445 38.6055 81.7603C38.3715 81.8452 38.1169 81.8323 37.8932 81.7243C37.672 81.6163 37.4997 81.426 37.42 81.192C37.3403 80.9579 37.3583 80.7033 37.4688 80.4822C37.5794 80.261 37.7723 80.0939 38.0089 80.0167C42.3061 78.5457 45.593 79.2684 47.5957 80.1299C49.7609 81.0654 50.9288 82.3635 51.0081 82.4516L51.0108 82.4546C51.25 82.7272 51.3066 83.113 51.1574 83.4421C51.0083 83.7713 50.6795 83.9822 50.3194 83.9822ZM60.4471 67.8808C60.5962 68.2099 60.9228 68.4208 61.2854 68.4208C61.5503 68.4234 61.8022 68.3076 61.9797 68.1096V68.1071C62.0152 68.0633 65.8882 63.7636 72.999 66.1989C73.2304 66.2838 73.4876 66.2709 73.7113 66.1629C73.9325 66.0575 74.1022 65.8646 74.1845 65.6306C74.2642 65.3966 74.2462 65.142 74.1357 64.9208C74.0251 64.6997 73.8296 64.5325 73.5956 64.4554L73.5982 64.4579C69.3013 62.987 66.0122 63.707 64.0114 64.5711C61.8152 65.5175 60.6425 66.8367 60.5937 66.8933C60.3545 67.1659 60.298 67.5516 60.4471 67.8808ZM61.3828 75.9507C61.0202 75.9533 60.6911 75.7398 60.542 75.4107C60.3928 75.0789 60.4494 74.6932 60.6911 74.4206C60.74 74.364 61.9127 73.0448 64.1088 72.0984C66.1096 71.2344 69.3987 70.5143 73.6956 71.9853L73.693 71.9827C73.9296 72.0598 74.1225 72.227 74.2331 72.4482C74.3437 72.6693 74.3617 72.9239 74.2819 73.1579C74.2022 73.3919 74.0299 73.5848 73.8088 73.6903C73.585 73.7983 73.3304 73.8111 73.0964 73.7263C70.1288 72.7104 67.3771 72.7208 64.9185 73.7545C63.0746 74.5312 62.082 75.6267 62.0743 75.637C61.8994 75.8376 61.6477 75.9533 61.3828 75.9507ZM60.6403 82.9355C60.7894 83.2672 61.1186 83.4781 61.4812 83.4781C61.7461 83.4781 61.9977 83.3649 62.1726 83.1644C62.1803 83.1541 63.173 82.0585 65.0168 81.2819C67.4754 80.2481 70.2271 80.2378 73.1948 81.2536C73.4288 81.3385 73.6834 81.3256 73.9071 81.2176C74.1283 81.1096 74.3006 80.9193 74.3803 80.6853C74.46 80.4513 74.442 80.1941 74.3314 79.9755C74.2208 79.7543 74.028 79.5872 73.7914 79.51L73.7939 79.5126C69.4971 78.0417 66.2079 78.7617 64.2072 79.6258C62.011 80.5721 60.8383 81.8914 60.7894 81.9479C60.5503 82.218 60.4911 82.6063 60.6403 82.9355ZM46.2799 44.5711C46.4214 44.6534 46.5808 44.6945 46.7428 44.6945C47.1595 44.6945 47.5246 44.4142 47.6326 44.0105C47.7381 43.6093 47.5632 43.1824 47.2032 42.9741L44.9813 41.6908C44.5389 41.4363 43.9757 41.588 43.7211 42.0303C43.6003 42.2412 43.5668 42.4932 43.6286 42.7298C43.6928 42.9638 43.8471 43.167 44.058 43.2878L46.2799 44.5711ZM45.3259 49.9815H42.7568C42.2502 49.9815 41.8362 49.5701 41.8362 49.0609C41.8362 48.5517 42.2502 48.1377 42.7568 48.1377H45.3259C45.835 48.1377 46.2465 48.5517 46.2465 49.0609C46.2465 49.5701 45.835 49.9815 45.3259 49.9815ZM66.4721 49.9815H69.0412C69.5504 49.9815 69.9618 49.5701 69.9618 49.0609C69.9618 48.5517 69.5504 48.1377 69.0412 48.1377H66.4721C65.963 48.1377 65.5515 48.5517 65.5515 49.0609C65.5515 49.5701 65.963 49.9815 66.4721 49.9815ZM65.0577 44.6945C64.6411 44.6945 64.2759 44.4142 64.1679 44.0105C64.0624 43.6093 64.2373 43.1824 64.5973 42.9741L66.8192 41.6908C67.2616 41.4363 67.8247 41.588 68.0794 42.0303C68.334 42.4701 68.1822 43.0332 67.7425 43.2879L65.5206 44.5711C65.3791 44.6534 65.2197 44.6945 65.0577 44.6945ZM49.8157 40.3644C49.9803 40.6498 50.2837 40.8247 50.6129 40.8247C50.9421 40.8247 51.2456 40.6472 51.4102 40.3643C51.5748 40.0789 51.5748 39.7266 51.4102 39.4411H51.4128L50.1295 37.2192C49.8749 36.7795 49.3091 36.6277 48.8694 36.8823C48.4296 37.137 48.2779 37.7002 48.5325 38.1425L49.8157 40.3644Z" fill="black" fill-opacity="0.2"/>
</g>
<defs>
<linearGradient id="paint0_linear_950_5360" x1="34.0012" y1="3.87397" x2="67.9915" y2="113.246" gradientUnits="userSpaceOnUse">
<stop stop-color="#BDC700"/>
<stop offset="1" stop-color="#BDC700" stop-opacity="0"/>
</linearGradient>
</defs>
</svg>
