<svg width="112" height="112" viewBox="0 0 112 112" fill="none" xmlns="http://www.w3.org/2000/svg">
<mask id="mask0_950_5376" style="mask-type:alpha" maskUnits="userSpaceOnUse" x="0" y="0" width="112" height="112">
<rect width="112" height="112" fill="#D9D9D9"/>
</mask>
<g mask="url(#mask0_950_5376)">
<path fill-rule="evenodd" clip-rule="evenodd" d="M87.5834 60.4741C89.1672 51.8915 87.6799 42.8504 80.6877 34.8067C68.9445 21.2977 46.5187 18.4796 31.9852 31.1134C26.739 35.6739 23.9468 42.063 22.867 49.0214C21.7689 56.0977 22.6254 62.7369 23.6539 66.2368C25.5119 72.5592 21.8927 79.1906 15.5704 81.0486C9.24804 82.9065 2.6166 79.2874 0.758659 72.965C-1.23367 66.1854 -2.36509 56.0008 -0.714172 45.3621C0.955038 34.6054 5.64874 22.3881 16.3294 13.1035C41.613 -8.8752 79.0233 -3.48179 98.6976 19.1509C111.142 33.4661 113.751 50.17 111.051 64.8047C108.423 79.041 100.73 91.8066 91.6252 99.7214C78.2806 111.322 62.5272 113.44 43.6035 109.641C37.1427 108.343 32.9567 102.054 34.2539 95.5936C35.551 89.1328 41.84 84.9469 48.3008 86.244C62.6182 89.1186 69.9699 86.9268 75.9694 81.7115C80.9536 77.3788 85.9261 69.455 87.5834 60.4741Z" fill="url(#paint0_linear_950_5376)"/>
<path fill-rule="evenodd" clip-rule="evenodd" d="M45.8617 36.2281L44.5478 34.0804V34.072C41.7347 35.9586 39.7807 38.4853 39.7807 41.9048V46.5035C39.7807 47.3036 40.3955 47.9184 41.1956 47.9184H45.7437C46.5355 47.9184 47.1587 47.3036 47.1587 46.5035V42.8566C47.1587 42.0649 46.5355 41.4416 45.7437 41.4416H43.6129C43.1244 41.4332 42.7538 41.0036 42.8296 40.5236C43.0907 38.7127 44.0256 37.5589 45.8617 36.2281ZM38.1888 41.9133C38.1888 37.6347 40.5303 34.0636 44.3625 32.1264C44.7668 31.9243 45.0952 31.9327 45.3984 32.4212L47.6472 36.0681C47.883 36.4555 47.7483 36.9609 47.3524 37.1799C45.8532 38.0053 44.9857 38.5359 44.5899 39.8582H45.7437C47.3861 39.8582 48.7506 41.2142 48.7506 42.865V46.5119C48.7506 48.1627 47.3945 49.5187 45.7437 49.5187H41.1956C39.5364 49.5187 38.1888 48.1627 38.1888 46.5119V41.9133ZM58.7227 36.2281L57.4089 34.0804V34.072C54.5873 35.9586 52.6418 38.4853 52.6418 41.9048V46.5035C52.6418 47.3036 53.2566 47.9184 54.0483 47.9184H58.5964C59.3965 47.9184 60.0198 47.3036 60.0198 46.5035V42.8566C60.0198 42.0649 59.3965 41.4416 58.5964 41.4416H56.474C55.9855 41.4332 55.6233 41.0036 55.6907 40.5236C55.9518 38.7127 56.8782 37.5589 58.7227 36.2281ZM51.0415 41.9133C51.0415 37.6347 53.3745 34.0636 57.2151 32.1264C57.6278 31.9243 57.9479 31.9327 58.2511 32.4212L60.4999 36.0681C60.7357 36.4555 60.6009 36.9609 60.2051 37.1799C58.6975 38.0053 57.83 38.5359 57.4341 39.8582H58.588C60.2388 39.8582 61.5948 41.2142 61.5948 42.865V46.5119C61.5948 48.1627 60.2388 49.5187 58.588 49.5187H54.0399C52.3891 49.5187 51.0415 48.1627 51.0415 46.5119V41.9133ZM35.6369 41.5421C31.9731 41.5421 29 44.5152 29 48.179V70.6331C29 74.2969 31.9731 77.27 35.6369 77.27H50.6625L55.16 82.9551C56.7434 84.9597 59.8513 83.8985 59.8513 81.616V77.27H76.0055C79.6693 77.27 82.6339 74.2969 82.6339 70.6331V48.179C82.6339 44.5237 79.6693 41.5421 76.0055 41.5421H64.3068C63.2287 41.5253 63.2287 43.1508 64.3068 43.134H76.0055C78.8102 43.134 81.0421 45.3659 81.0421 48.1706V70.6247C81.0421 73.4294 78.8102 75.6698 76.0055 75.6698H59.0596C58.6216 75.6698 58.2595 76.0319 58.2595 76.4699V81.4307C58.2595 82.812 56.9203 82.6098 56.3813 81.9276L51.6731 75.973C51.5215 75.7877 51.2941 75.6782 51.0499 75.6782H35.6369C32.8322 75.6782 30.5918 73.4462 30.5918 70.6331V48.179C30.5918 45.3743 32.8322 43.1424 35.6369 43.1424C36.7065 43.1592 36.7065 41.5337 35.6369 41.5505V41.5421ZM39.4354 56.6269H72.1986C72.6618 56.6269 73.0408 56.2479 73.0408 55.7846C73.0408 55.3214 72.6618 54.9424 72.1986 54.9424H39.4354C38.9721 54.9424 38.5931 55.3214 38.5931 55.7846C38.5931 56.2479 38.9721 56.6269 39.4354 56.6269ZM72.1986 62.9608H39.4354C38.9721 62.9608 38.5931 62.5818 38.5931 62.1186C38.5931 61.6554 38.9721 61.2764 39.4354 61.2764H72.1986C72.6618 61.2764 73.0408 61.6554 73.0408 62.1186C73.0408 62.5818 72.6618 62.9608 72.1986 62.9608ZM39.4354 69.2948H72.1986C72.6618 69.2948 73.0408 68.9158 73.0408 68.4526C73.0408 67.9894 72.6618 67.6104 72.1986 67.6104H39.4354C38.9721 67.6104 38.5931 67.9894 38.5931 68.4526C38.5931 68.9158 38.9721 69.2948 39.4354 69.2948Z" fill="black"/>
</g>
<defs>
<linearGradient id="paint0_linear_950_5376" x1="104.773" y1="26.4847" x2="0.358023" y2="73.5507" gradientUnits="userSpaceOnUse">
<stop stop-color="#BDC700"/>
<stop offset="1" stop-color="#BDC700" stop-opacity="0"/>
</linearGradient>
</defs>
</svg>
