<svg width="24" height="19" viewBox="0 0 24 19" fill="none" xmlns="http://www.w3.org/2000/svg">
<path id="Vector" d="M2.28571 0C1.02931 0 0 1.13121 0 2.512V16.328C0 17.7088 1.02931 18.84 2.28571 18.84H21.7143C22.9707 18.84 24 17.7088 24 16.328V2.512C24 1.13121 22.9707 0 21.7143 0H2.28571ZM2.28571 1.256H21.7143C21.8218 1.256 21.92 1.27619 22.0179 1.30506L12.7857 11.5395C12.3362 12.0387 11.6451 12.0387 11.1964 11.5395L1.99107 1.29525C2.08565 1.26843 2.18223 1.256 2.28571 1.256ZM1.1875 2.198L7.99107 9.76342L1.19643 16.6911C1.16547 16.5753 1.14286 16.4566 1.14286 16.328V2.512C1.14286 2.40133 1.16434 2.29944 1.1875 2.198ZM22.8125 2.198C22.8356 2.29944 22.8571 2.40133 22.8571 2.512V16.328C22.8571 16.4566 22.8345 16.5753 22.8036 16.6911L16.0089 9.75362L22.8125 2.198ZM15.1964 10.6465L21.9643 17.5448C21.883 17.5642 21.8017 17.584 21.7143 17.584H2.28571C2.19826 17.584 2.11697 17.5642 2.03571 17.5448L8.79464 10.6564L10.3839 12.4226C11.2662 13.4042 12.7156 13.4028 13.5982 12.4226L15.1964 10.6465Z" fill="white"/>
</svg>
