<?xml version="1.0" encoding="UTF-8"?>
<svg id="Calque_1" xmlns="http://www.w3.org/2000/svg" version="1.1" viewBox="0 0 29.3 29.5">
  <!-- Generator: Adobe Illustrator 29.0.1, SVG Export Plug-In . SVG Version: 2.1.0 Build 192)  -->
  <defs>
    <style>
      .st0 {
        fill-opacity: .2;
      }

      .st1 {
        fill: #3f2204;
      }

      .st2 {
        stroke: #000;
        stroke-opacity: .2;
      }

      .st2, .st3 {
        fill: none;
      }

      .st3 {
        stroke: #3f2204;
      }
    </style>
  </defs>
  <circle class="st3" cx="14.6" cy="14.7" r="13.5"/>
  <circle class="st2" cx="14.6" cy="14.7" r="13.5"/>
  <path class="st1" d="M9.7,10.6c.3-.3.9-.3,1.2,0l2.2,2.1c.8.7,2,.7,2.8,0l2.2-2.1c.3-.3.9-.3,1.2,0,.4.4.4,1,0,1.3l-3.5,3.3c-.8.7-2,.7-2.8,0l-3.5-3.3c-.4-.4-.4-.9,0-1.3Z"/>
  <path class="st0" d="M9.7,10.6c.3-.3.9-.3,1.2,0l2.2,2.1c.8.7,2,.7,2.8,0l2.2-2.1c.3-.3.9-.3,1.2,0,.4.4.4,1,0,1.3l-3.5,3.3c-.8.7-2,.7-2.8,0l-3.5-3.3c-.4-.4-.4-.9,0-1.3Z"/>
  <path class="st1" d="M19.5,19.9c-.3.3-.9.3-1.2,0l-2.2-2.1c-.8-.7-2-.7-2.8,0l-2.2,2.1c-.3.3-.9.3-1.2,0-.4-.4-.4-1,0-1.3l3.5-3.3c.8-.7,2-.7,2.8,0l3.5,3.3c.4.4.4.9,0,1.3Z"/>
  <path class="st0" d="M19.5,19.9c-.3.3-.9.3-1.2,0l-2.2-2.1c-.8-.7-2-.7-2.8,0l-2.2,2.1c-.3.3-.9.3-1.2,0-.4-.4-.4-1,0-1.3l3.5-3.3c.8-.7,2-.7,2.8,0l3.5,3.3c.4.4.4.9,0,1.3Z"/>
</svg>