<svg width="28" height="28" viewBox="0 0 28 28" fill="none" xmlns="http://www.w3.org/2000/svg">
<circle cx="14" cy="14" r="13.5" transform="rotate(90 14 14)" stroke="#3F2204"/>
<circle cx="14" cy="14" r="13.5" transform="rotate(90 14 14)" stroke="black" stroke-opacity="0.2"/>
<path d="M9.08296 9.86377C9.4312 9.53013 9.9802 9.52916 10.3296 9.86157L12.575 11.9977C13.3472 12.7323 14.5598 12.7323 15.332 11.9977L17.5775 9.86157C17.9269 9.52916 18.4759 9.53013 18.8241 9.86377C19.196 10.22 19.1949 10.8147 18.8218 11.1696L15.332 14.4895C14.5598 15.2241 13.3472 15.2241 12.575 14.4895L9.08526 11.1696C8.71216 10.8147 8.71111 10.22 9.08296 9.86377Z" fill="#3F2204"/>
<path d="M9.08296 9.86377C9.4312 9.53013 9.9802 9.52916 10.3296 9.86157L12.575 11.9977C13.3472 12.7323 14.5598 12.7323 15.332 11.9977L17.5775 9.86157C17.9269 9.52916 18.4759 9.53013 18.8241 9.86377C19.196 10.22 19.1949 10.8147 18.8218 11.1696L15.332 14.4895C14.5598 15.2241 13.3472 15.2241 12.575 14.4895L9.08526 11.1696C8.71216 10.8147 8.71111 10.22 9.08296 9.86377Z" fill="black" fill-opacity="0.2"/>
<path d="M18.8241 19.2046C18.4759 19.5382 17.9269 19.5392 17.5775 19.2068L15.3321 17.0707C14.5599 16.3361 13.3473 16.3361 12.5751 17.0707L10.3296 19.2068C9.98023 19.5392 9.43123 19.5382 9.08298 19.2046C8.71114 18.8483 8.71219 18.2537 9.08529 17.8988L12.5751 14.5789C13.3473 13.8442 14.5599 13.8442 15.3321 14.5789L18.8218 17.8988C19.1949 18.2537 19.196 18.8483 18.8241 19.2046Z" fill="#3F2204"/>
<path d="M18.8241 19.2046C18.4759 19.5382 17.9269 19.5392 17.5775 19.2068L15.3321 17.0707C14.5599 16.3361 13.3473 16.3361 12.5751 17.0707L10.3296 19.2068C9.98023 19.5392 9.43123 19.5382 9.08298 19.2046C8.71114 18.8483 8.71219 18.2537 9.08529 17.8988L12.5751 14.5789C13.3473 13.8442 14.5599 13.8442 15.3321 14.5789L18.8218 17.8988C19.1949 18.2537 19.196 18.8483 18.8241 19.2046Z" fill="black" fill-opacity="0.2"/>
</svg>
