<svg width="29" height="28" viewBox="0 0 29 28" fill="none" xmlns="http://www.w3.org/2000/svg">
<g id="Group 68">
<path id="Vector" d="M26.2 20.72C27.34 18.74 28 16.445 28 14C28 11.555 27.345 9.26 26.2 7.28C26.195 7.27 26.2 7.26 26.19 7.25C26.185 7.24 26.175 7.235 26.17 7.225C24.99 5.2 23.3 3.51 21.275 2.33C21.265 2.325 21.26 2.315 21.25 2.31C21.24 2.305 21.23 2.305 21.22 2.3C19.24 1.16 16.945 0.5 14.5 0.5C12.055 0.5 9.76 1.155 7.78 2.3C7.77 2.305 7.76 2.3 7.75 2.31C7.74 2.315 7.735 2.325 7.725 2.33C5.7 3.51 4.01 5.2 2.83 7.225C2.825 7.235 2.815 7.24 2.81 7.25C2.805 7.26 2.805 7.27 2.8 7.28C1.66 9.26 1 11.555 1 14C1 16.445 1.655 18.74 2.8 20.72C2.805 20.73 2.8 20.74 2.81 20.75C2.82 20.765 2.83 20.775 2.84 20.79C4.02 22.81 5.705 24.495 7.725 25.67C7.735 25.675 7.74 25.685 7.75 25.69C7.765 25.7 7.78 25.7 7.795 25.71C9.77 26.845 12.06 27.5 14.5 27.5C16.94 27.5 19.225 26.845 21.205 25.71C21.22 25.705 21.235 25.7 21.25 25.69C21.26 25.685 21.265 25.675 21.275 25.67C23.295 24.495 24.98 22.81 26.16 20.79C26.17 20.775 26.18 20.765 26.19 20.75C26.195 20.74 26.195 20.73 26.2 20.72ZM21.175 24.565L20.685 23.715C20.545 23.475 20.24 23.395 20 23.53C19.76 23.67 19.68 23.975 19.815 24.215L20.31 25.07C18.71 25.915 16.91 26.42 15 26.495V24.01C15 23.735 14.775 23.51 14.5 23.51C14.225 23.51 14 23.735 14 24.01V26.495C12.09 26.42 10.29 25.915 8.69 25.07L9.185 24.215C9.325 23.975 9.24 23.67 9 23.53C8.76 23.39 8.455 23.475 8.315 23.715L7.825 24.565C6.26 23.575 4.93 22.245 3.94 20.68L4.79 20.19C5.03 20.05 5.11 19.745 4.975 19.505C4.835 19.265 4.53 19.185 4.29 19.32L3.435 19.815C2.59 18.215 2.085 16.415 2.01 14.505H4.495C4.77 14.505 4.995 14.28 4.995 14.005C4.995 13.73 4.77 13.505 4.495 13.505H2.01C2.085 11.595 2.59 9.795 3.435 8.195L4.29 8.69C4.37 8.735 4.455 8.755 4.54 8.755C4.715 8.755 4.88 8.665 4.975 8.505C5.115 8.265 5.03 7.96 4.79 7.82L3.94 7.33C4.93 5.765 6.26 4.435 7.825 3.445L8.315 4.295C8.41 4.455 8.575 4.545 8.75 4.545C8.835 4.545 8.92 4.525 9 4.48C9.24 4.34 9.32 4.035 9.185 3.795L8.69 2.94C10.29 2.095 12.09 1.59 14 1.515V4C14 4.275 14.225 4.5 14.5 4.5C14.775 4.5 15 4.275 15 4V1.515C16.91 1.59 18.71 2.095 20.31 2.94L19.815 3.795C19.675 4.035 19.76 4.34 20 4.48C20.08 4.525 20.165 4.545 20.25 4.545C20.425 4.545 20.59 4.455 20.685 4.295L21.175 3.445C22.74 4.435 24.07 5.765 25.06 7.33L24.21 7.82C23.97 7.96 23.89 8.265 24.025 8.505C24.12 8.665 24.285 8.755 24.46 8.755C24.545 8.755 24.63 8.735 24.71 8.69L25.565 8.195C26.41 9.795 26.915 11.595 26.99 13.505H24.505C24.23 13.505 24.005 13.73 24.005 14.005C24.005 14.28 24.23 14.505 24.505 14.505H26.99C26.915 16.415 26.41 18.215 25.565 19.815L24.71 19.32C24.47 19.18 24.165 19.265 24.025 19.505C23.885 19.745 23.97 20.05 24.21 20.19L25.06 20.68C24.07 22.245 22.74 23.575 21.175 24.565Z" fill="#712222" stroke="#712222" stroke-width="0.5"/>
<path id="Vector_2" d="M14.4996 5.5C14.2246 5.5 13.9996 5.725 13.9996 6V12.07C13.1396 12.295 12.4996 13.07 12.4996 14C12.4996 15.105 13.3946 16 14.4996 16C15.4296 16 16.2046 15.36 16.4296 14.5H22.4996C22.7746 14.5 22.9996 14.275 22.9996 14C22.9996 9.315 19.1846 5.5 14.4996 5.5ZM21.9746 13.5H16.4296C16.2496 12.8 15.6996 12.255 14.9996 12.07V6.525C18.7346 6.775 21.7246 9.765 21.9746 13.5ZM14.4996 15C13.9496 15 13.4996 14.55 13.4996 14C13.4996 13.45 13.9496 13 14.4996 13C15.0496 13 15.4996 13.45 15.4996 14C15.4996 14.55 15.0496 15 14.4996 15Z" fill="#712222" stroke="#712222" stroke-width="0.5"/>
</g>
</svg>
