<svg width="112" height="112" viewBox="0 0 112 112" fill="none" xmlns="http://www.w3.org/2000/svg">
<mask id="mask0_950_5247" style="mask-type:alpha" maskUnits="userSpaceOnUse" x="0" y="0" width="112" height="112">
<rect width="112" height="112" fill="#D9D9D9"/>
</mask>
<g mask="url(#mask0_950_5247)">
<path fill-rule="evenodd" clip-rule="evenodd" d="M58.0667 88.2269C66.7667 87.5354 75.1149 83.7587 81.0747 74.9229C91.0841 60.0834 88.0019 37.6925 72.037 26.924C66.2742 23.0369 59.3801 21.9935 52.3793 22.7514C45.2599 23.5222 39.0687 26.0679 35.9542 27.9672C30.3281 31.3982 22.9859 29.6187 19.5549 23.9927C16.124 18.3666 17.9034 11.0245 23.5295 7.59349C29.5624 3.91435 39.1071 0.185525 49.8107 -0.97333C60.6329 -2.14503 73.6487 -0.773336 85.3813 7.14037C113.155 25.8739 117.628 63.4054 100.858 88.2671C90.2517 103.992 74.7924 110.836 59.9574 112.015C45.5263 113.162 31.2044 109.035 21.2028 102.289C6.54388 92.4013 0.420646 77.7329 -0.807299 58.4707C-1.22654 51.8944 3.76479 46.2233 10.3411 45.8041C16.9175 45.3848 22.5885 50.3762 23.0078 56.9525C23.9368 71.5261 27.9566 78.06 34.547 82.5052C40.0221 86.1982 48.9628 88.9505 58.0667 88.2269Z" fill="url(#paint0_linear_950_5247)"/>
<path fill-rule="evenodd" clip-rule="evenodd" d="M33.7509 60.8556L36.2187 62.4114V62.4191L43.1929 51.3141L43.5301 50.7776L41.0623 49.2218L33.7509 60.8556ZM39.2229 62.1049C39.6675 62.3884 39.8054 62.9785 39.5218 63.4307L39.5295 63.4154C39.3456 63.7066 39.039 63.8676 38.7171 63.8676C38.5409 63.8676 38.3646 63.8216 38.2037 63.7219L37.8128 63.4767L37.3376 64.2354C37.2073 64.45 36.9851 64.6033 36.7398 64.6569C36.6709 64.6723 36.5942 64.6799 36.5253 64.6799C36.3413 64.6799 36.1651 64.6339 36.0118 64.5343L32.7316 62.4727L32.2181 63.2851C32.0342 63.5763 31.7277 63.7373 31.4058 63.7373C31.2295 63.7373 31.0532 63.6913 30.8923 63.5917L22.4467 58.2882C22.0022 58.0047 21.8642 57.4146 22.1478 56.9624C22.4313 56.5179 23.0215 56.3799 23.4736 56.6635L31.1069 61.4611L32.3791 59.4455L39.9587 47.3825L40.4722 46.5701L32.8389 41.7725C32.3944 41.489 32.2565 40.8988 32.54 40.4467C32.8236 40.0022 33.4137 39.8642 33.8659 40.1478L42.3115 45.4512C42.756 45.7348 42.894 46.3249 42.6104 46.7771L42.0969 47.5894L45.3771 49.651C45.5917 49.7813 45.7449 50.0036 45.7986 50.2488C45.8522 50.5017 45.8139 50.7623 45.676 50.9769L45.3387 51.5133L45.8446 51.8276H46.0285C46.5573 51.8276 46.9865 52.2567 46.9865 52.7856C46.9865 53.3144 46.5573 53.7512 46.0285 53.7512H45.5687C45.3847 53.7512 45.2085 53.7052 45.0552 53.6056L44.3118 53.1381L38.8321 61.8596L39.2229 62.1049ZM74.8527 62.9683L68.53 50.7597L71.1204 49.4185L77.4431 61.6271L74.8527 62.9683ZM89.3298 58.7148C89.0846 58.2473 88.5098 58.0634 88.0346 58.301L80.0335 62.4472L71.9404 46.8281L79.9415 42.6819C80.409 42.4367 80.593 41.8619 80.3554 41.3867C80.1101 40.9192 79.5353 40.7353 79.0602 40.9729L70.2007 45.5559C69.9785 45.6709 69.8022 45.8778 69.7256 46.1154C69.6489 46.3606 69.6719 46.6212 69.7869 46.8511L70.2314 47.7018L66.7903 49.4875C66.568 49.6025 66.3918 49.8094 66.3151 50.047C66.2385 50.2922 66.2615 50.5528 66.3764 50.7827L66.7903 51.5721L66.0162 51.9706C65.8093 51.9169 65.6484 51.8786 65.2882 51.848C64.7593 51.802 64.2918 52.1929 64.2459 52.7217C64.1999 53.2505 64.5907 53.718 65.1195 53.7639C65.3648 53.7869 65.4031 53.7946 65.5641 53.8406L65.6122 53.854C65.6867 53.8748 65.7761 53.8999 65.9013 53.9249C65.9779 53.9402 66.0545 53.9555 66.1312 53.9555C66.2845 53.9555 66.4377 53.9172 66.5757 53.8483L67.6793 53.2735L72.4156 62.4165L71.6415 62.8227C71.4806 62.907 71.3426 63.0373 71.2507 63.1906L67.3038 69.9731C67.0355 70.4329 67.1888 71.0231 67.6486 71.2836C67.8019 71.3756 67.9705 71.4139 68.1315 71.4139C68.461 71.4139 68.7829 71.2453 68.9592 70.9388L72.7681 64.4014L73.2969 64.1255L73.5882 64.685C73.7568 65.0146 74.094 65.2062 74.4389 65.2062C74.5845 65.2062 74.7377 65.1678 74.8834 65.0989L78.3244 63.3132L78.769 64.1639C78.8839 64.3938 79.0908 64.5624 79.3284 64.639C79.4204 64.6697 79.52 64.685 79.6196 64.685C79.7729 64.685 79.9262 64.6467 80.0642 64.5777L88.916 59.9947C89.3835 59.7495 89.5751 59.1747 89.3298 58.6995V58.7148ZM49.4465 88.0897V85.1851H63.1879V88.0897H49.4465ZM51.0329 82.4031C51.0329 82.2192 50.9793 82.0429 50.8796 81.8896L41.5143 67.1596C41.4837 67.1136 41.453 67.0677 41.4071 67.0217C41.0315 66.6155 41.0162 65.9871 41.3687 65.5579C41.568 65.3126 41.8516 65.167 42.1734 65.1517C42.4877 65.1364 42.7866 65.2437 43.0165 65.4659L48.3199 70.662C48.5958 70.9303 49.0096 71.0069 49.3622 70.8613C49.7224 70.708 49.9523 70.3631 49.9523 69.9723L49.937 53.104C49.937 52.5599 50.3815 52.1231 50.918 52.1154C51.1785 52.1154 51.4314 52.215 51.6154 52.4066C51.7993 52.5906 51.9066 52.8358 51.9066 53.104V65.2513C51.9143 65.7801 52.3434 66.2093 52.8722 66.2093H52.8723C52.9412 66.2093 53.0025 66.2093 53.0638 66.1863C53.5007 66.0943 53.8302 65.7112 53.8302 65.2437V50.7895C53.8226 50.529 53.9222 50.2761 54.1061 50.0921C54.2901 49.9082 54.5353 49.8009 54.8036 49.8009C55.0641 49.8009 55.317 49.9005 55.501 50.0921C55.6849 50.2761 55.7922 50.5213 55.7922 50.7895V65.2437C55.7999 65.7725 56.229 66.2016 56.7655 66.2016C57.2943 66.2016 57.7235 65.7725 57.7235 65.2437V53.4489C57.7158 52.9048 58.1527 52.4603 58.6968 52.4603C58.9574 52.4603 59.2026 52.5599 59.3942 52.7515C59.5782 52.9354 59.6855 53.1807 59.6855 53.4489V65.2437C59.6931 65.7725 60.1223 66.2016 60.6511 66.2016C60.7201 66.2016 60.7814 66.2016 60.8427 66.1786C61.2795 66.0867 61.6091 65.7035 61.6091 65.236V57.2119C61.6091 56.6677 62.0459 56.2309 62.5901 56.2232C63.1342 56.2232 63.5711 56.6677 63.5711 57.2042L63.5864 75.429C63.5864 75.9041 63.5634 76.3793 63.5174 76.8468C63.3565 78.5175 62.6744 80.081 61.5554 81.3762C61.4022 81.5524 61.3179 81.7747 61.3179 82.0046V83.2462H51.0176V82.3801L51.0329 82.4031ZM66.7516 88.3886C66.5753 88.2124 66.3301 88.1051 66.0695 88.1051H65.1038V84.2271C65.1038 83.6983 64.667 83.2691 64.1382 83.2691H63.2415V82.3801C64.4907 80.8397 65.2418 79.008 65.4334 77.0537C65.487 76.5249 65.51 75.9808 65.51 75.4443L65.4947 57.2195C65.4947 55.6178 64.1918 54.3149 62.5901 54.3149C62.2452 54.3149 61.9156 54.3762 61.6091 54.4912V53.4489C61.6091 52.6749 61.3025 51.9468 60.7584 51.395C60.2066 50.8508 59.4785 50.5443 58.7045 50.5443C58.3596 50.5443 58.0301 50.6056 57.7158 50.7206C57.6928 49.9695 57.3939 49.2721 56.8651 48.7433C56.3133 48.1991 55.5853 47.8926 54.8112 47.8926C53.3474 47.8926 52.1365 48.9809 51.9373 50.3833C51.6154 50.2684 51.2782 50.1994 50.9256 50.1994C49.3239 50.1994 48.021 51.5023 48.021 53.104V67.6808L44.3577 64.0864C43.7522 63.4886 42.9168 63.1744 42.0661 63.228C41.2155 63.274 40.4184 63.6802 39.8819 64.3316C38.9469 65.4736 38.9699 67.1366 39.9279 68.2479L49.1016 82.679V83.2768H48.4732C47.9444 83.2768 47.5152 83.706 47.5152 84.2348V88.1127H46.5572C46.0284 88.1127 45.5992 88.5419 45.5992 89.0707V99.0415C45.5992 99.5703 46.0361 99.9994 46.5649 99.9994C47.0937 99.9994 47.5228 99.5703 47.5228 99.0415V90.0287H56.3133L64.1458 90.0134H65.1115V99.0261C65.1115 99.5549 65.5483 99.9841 66.0771 99.9841C66.606 99.9841 67.0351 99.5549 67.0351 99.0261V89.0554C67.0351 88.8025 66.9278 88.5572 66.7439 88.3733L66.7516 88.3886Z" fill="#3F2204"/>
<path fill-rule="evenodd" clip-rule="evenodd" d="M33.7509 60.8556L36.2187 62.4114V62.4191L43.1929 51.3141L43.5301 50.7776L41.0623 49.2218L33.7509 60.8556ZM39.2229 62.1049C39.6675 62.3884 39.8054 62.9785 39.5218 63.4307L39.5295 63.4154C39.3456 63.7066 39.039 63.8676 38.7171 63.8676C38.5409 63.8676 38.3646 63.8216 38.2037 63.7219L37.8128 63.4767L37.3376 64.2354C37.2073 64.45 36.9851 64.6033 36.7398 64.6569C36.6709 64.6723 36.5942 64.6799 36.5253 64.6799C36.3413 64.6799 36.1651 64.6339 36.0118 64.5343L32.7316 62.4727L32.2181 63.2851C32.0342 63.5763 31.7277 63.7373 31.4058 63.7373C31.2295 63.7373 31.0532 63.6913 30.8923 63.5917L22.4467 58.2882C22.0022 58.0047 21.8642 57.4146 22.1478 56.9624C22.4313 56.5179 23.0215 56.3799 23.4736 56.6635L31.1069 61.4611L32.3791 59.4455L39.9587 47.3825L40.4722 46.5701L32.8389 41.7725C32.3944 41.489 32.2565 40.8988 32.54 40.4467C32.8236 40.0022 33.4137 39.8642 33.8659 40.1478L42.3115 45.4512C42.756 45.7348 42.894 46.3249 42.6104 46.7771L42.0969 47.5894L45.3771 49.651C45.5917 49.7813 45.7449 50.0036 45.7986 50.2488C45.8522 50.5017 45.8139 50.7623 45.676 50.9769L45.3387 51.5133L45.8446 51.8276H46.0285C46.5573 51.8276 46.9865 52.2567 46.9865 52.7856C46.9865 53.3144 46.5573 53.7512 46.0285 53.7512H45.5687C45.3847 53.7512 45.2085 53.7052 45.0552 53.6056L44.3118 53.1381L38.8321 61.8596L39.2229 62.1049ZM74.8527 62.9683L68.53 50.7597L71.1204 49.4185L77.4431 61.6271L74.8527 62.9683ZM89.3298 58.7148C89.0846 58.2473 88.5098 58.0634 88.0346 58.301L80.0335 62.4472L71.9404 46.8281L79.9415 42.6819C80.409 42.4367 80.593 41.8619 80.3554 41.3867C80.1101 40.9192 79.5353 40.7353 79.0602 40.9729L70.2007 45.5559C69.9785 45.6709 69.8022 45.8778 69.7256 46.1154C69.6489 46.3606 69.6719 46.6212 69.7869 46.8511L70.2314 47.7018L66.7903 49.4875C66.568 49.6025 66.3918 49.8094 66.3151 50.047C66.2385 50.2922 66.2615 50.5528 66.3764 50.7827L66.7903 51.5721L66.0162 51.9706C65.8093 51.9169 65.6484 51.8786 65.2882 51.848C64.7593 51.802 64.2918 52.1929 64.2459 52.7217C64.1999 53.2505 64.5907 53.718 65.1195 53.7639C65.3648 53.7869 65.4031 53.7946 65.5641 53.8406L65.6122 53.854C65.6867 53.8748 65.7761 53.8999 65.9013 53.9249C65.9779 53.9402 66.0545 53.9555 66.1312 53.9555C66.2845 53.9555 66.4377 53.9172 66.5757 53.8483L67.6793 53.2735L72.4156 62.4165L71.6415 62.8227C71.4806 62.907 71.3426 63.0373 71.2507 63.1906L67.3038 69.9731C67.0355 70.4329 67.1888 71.0231 67.6486 71.2836C67.8019 71.3756 67.9705 71.4139 68.1315 71.4139C68.461 71.4139 68.7829 71.2453 68.9592 70.9388L72.7681 64.4014L73.2969 64.1255L73.5882 64.685C73.7568 65.0146 74.094 65.2062 74.4389 65.2062C74.5845 65.2062 74.7377 65.1678 74.8834 65.0989L78.3244 63.3132L78.769 64.1639C78.8839 64.3938 79.0908 64.5624 79.3284 64.639C79.4204 64.6697 79.52 64.685 79.6196 64.685C79.7729 64.685 79.9262 64.6467 80.0642 64.5777L88.916 59.9947C89.3835 59.7495 89.5751 59.1747 89.3298 58.6995V58.7148ZM49.4465 88.0897V85.1851H63.1879V88.0897H49.4465ZM51.0329 82.4031C51.0329 82.2192 50.9793 82.0429 50.8796 81.8896L41.5143 67.1596C41.4837 67.1136 41.453 67.0677 41.4071 67.0217C41.0315 66.6155 41.0162 65.9871 41.3687 65.5579C41.568 65.3126 41.8516 65.167 42.1734 65.1517C42.4877 65.1364 42.7866 65.2437 43.0165 65.4659L48.3199 70.662C48.5958 70.9303 49.0096 71.0069 49.3622 70.8613C49.7224 70.708 49.9523 70.3631 49.9523 69.9723L49.937 53.104C49.937 52.5599 50.3815 52.1231 50.918 52.1154C51.1785 52.1154 51.4314 52.215 51.6154 52.4066C51.7993 52.5906 51.9066 52.8358 51.9066 53.104V65.2513C51.9143 65.7801 52.3434 66.2093 52.8722 66.2093H52.8723C52.9412 66.2093 53.0025 66.2093 53.0638 66.1863C53.5007 66.0943 53.8302 65.7112 53.8302 65.2437V50.7895C53.8226 50.529 53.9222 50.2761 54.1061 50.0921C54.2901 49.9082 54.5353 49.8009 54.8036 49.8009C55.0641 49.8009 55.317 49.9005 55.501 50.0921C55.6849 50.2761 55.7922 50.5213 55.7922 50.7895V65.2437C55.7999 65.7725 56.229 66.2016 56.7655 66.2016C57.2943 66.2016 57.7235 65.7725 57.7235 65.2437V53.4489C57.7158 52.9048 58.1527 52.4603 58.6968 52.4603C58.9574 52.4603 59.2026 52.5599 59.3942 52.7515C59.5782 52.9354 59.6855 53.1807 59.6855 53.4489V65.2437C59.6931 65.7725 60.1223 66.2016 60.6511 66.2016C60.7201 66.2016 60.7814 66.2016 60.8427 66.1786C61.2795 66.0867 61.6091 65.7035 61.6091 65.236V57.2119C61.6091 56.6677 62.0459 56.2309 62.5901 56.2232C63.1342 56.2232 63.5711 56.6677 63.5711 57.2042L63.5864 75.429C63.5864 75.9041 63.5634 76.3793 63.5174 76.8468C63.3565 78.5175 62.6744 80.081 61.5554 81.3762C61.4022 81.5524 61.3179 81.7747 61.3179 82.0046V83.2462H51.0176V82.3801L51.0329 82.4031ZM66.7516 88.3886C66.5753 88.2124 66.3301 88.1051 66.0695 88.1051H65.1038V84.2271C65.1038 83.6983 64.667 83.2691 64.1382 83.2691H63.2415V82.3801C64.4907 80.8397 65.2418 79.008 65.4334 77.0537C65.487 76.5249 65.51 75.9808 65.51 75.4443L65.4947 57.2195C65.4947 55.6178 64.1918 54.3149 62.5901 54.3149C62.2452 54.3149 61.9156 54.3762 61.6091 54.4912V53.4489C61.6091 52.6749 61.3025 51.9468 60.7584 51.395C60.2066 50.8508 59.4785 50.5443 58.7045 50.5443C58.3596 50.5443 58.0301 50.6056 57.7158 50.7206C57.6928 49.9695 57.3939 49.2721 56.8651 48.7433C56.3133 48.1991 55.5853 47.8926 54.8112 47.8926C53.3474 47.8926 52.1365 48.9809 51.9373 50.3833C51.6154 50.2684 51.2782 50.1994 50.9256 50.1994C49.3239 50.1994 48.021 51.5023 48.021 53.104V67.6808L44.3577 64.0864C43.7522 63.4886 42.9168 63.1744 42.0661 63.228C41.2155 63.274 40.4184 63.6802 39.8819 64.3316C38.9469 65.4736 38.9699 67.1366 39.9279 68.2479L49.1016 82.679V83.2768H48.4732C47.9444 83.2768 47.5152 83.706 47.5152 84.2348V88.1127H46.5572C46.0284 88.1127 45.5992 88.5419 45.5992 89.0707V99.0415C45.5992 99.5703 46.0361 99.9994 46.5649 99.9994C47.0937 99.9994 47.5228 99.5703 47.5228 99.0415V90.0287H56.3133L64.1458 90.0134H65.1115V99.0261C65.1115 99.5549 65.5483 99.9841 66.0771 99.9841C66.606 99.9841 67.0351 99.5549 67.0351 99.0261V89.0554C67.0351 88.8025 66.9278 88.5572 66.7439 88.3733L66.7516 88.3886Z" fill="black" fill-opacity="0.2"/>
</g>
<defs>
<linearGradient id="paint0_linear_950_5247" x1="95.3469" y1="96.0333" x2="22.86" y2="7.35809" gradientUnits="userSpaceOnUse">
<stop stop-color="#BDC700"/>
<stop offset="1" stop-color="#BDC700" stop-opacity="0"/>
</linearGradient>
</defs>
</svg>
