<svg width="26" height="34" viewBox="0 0 26 34" fill="none" xmlns="http://www.w3.org/2000/svg">
<g id="Group 69">
<path id="Vector" d="M13 1C6.40845 1 1 6.40845 1 13C1 19.4225 11.9859 32.5493 12.493 33.1127L13 33.7324L13.507 33.1127C13.9577 32.5493 25 19.4225 25 13C25 6.40845 19.5915 1 13 1ZM13 31.5916C10.8028 28.831 2.40845 18.1831 2.40845 13C2.40845 7.14085 7.14084 2.40845 13 2.40845C18.8592 2.40845 23.5915 7.14085 23.5915 13C23.5915 18.1831 15.1972 28.831 13 31.5916Z" fill="#712222" stroke="#712222" stroke-width="0.2"/>
<path id="Ellipse 24" d="M16.6164 13.5476C16.6164 15.845 14.754 17.7074 12.4566 17.7074C10.1591 17.7074 8.29669 15.845 8.29669 13.5476C8.29669 11.2501 10.1591 9.3877 12.4566 9.3877C14.754 9.3877 16.6164 11.2501 16.6164 13.5476Z" stroke="#712222" stroke-width="1.5"/>
</g>
</svg>
