<svg width="105" height="102" viewBox="0 0 105 102" fill="none" xmlns="http://www.w3.org/2000/svg">
<g id="Calque_1" clip-path="url(#clip0_458_4368)">
<path id="Vector" d="M42.4025 27.9975C41.6261 27.873 40.8745 27.813 40.1416 27.7677C38.6072 27.6686 37.1581 27.5759 35.8023 26.7275C35.6547 26.6272 35.4819 26.5977 35.282 26.6222L35.2487 26.6263C34.9508 26.6798 34.7108 26.9292 34.6289 27.2268C34.0693 29.8326 35.2161 32.9731 37.5 35.0437C39.9958 37.3251 43.6078 37.6765 47.141 36.008L47.2202 35.9645L47.3096 36.0042C48.6888 36.6298 49.8482 36.8427 50.9813 36.7035L51.0146 36.6995C51.4478 36.6463 51.7381 36.2554 51.687 35.8389C51.6358 35.4223 51.2596 35.1133 50.8243 35.1498C50.1412 35.2337 49.3647 35.1092 48.4597 34.7636L48.3536 34.7259L48.3413 34.6259C47.7111 32.3861 46.8859 30.7622 45.8242 29.6916C44.9349 28.786 43.8013 28.2317 42.4025 27.9975ZM45.3917 33.1952C43.7509 32.2296 42.056 31.2368 40.0784 30.9722C39.9931 30.9658 39.9244 30.9573 39.8411 30.9675C39.6411 30.9921 39.4514 31.0999 39.3365 31.2663C39.2216 31.4326 39.1628 31.6428 39.1874 31.8427C39.2304 32.1927 39.5171 32.4619 39.8606 32.5043C41.4781 32.7285 43.1168 33.6775 44.8638 34.6808L45.3733 34.9734L44.917 35.114C44.4127 35.2774 43.9169 35.3721 43.4503 35.4294C41.5841 35.6586 39.9298 35.1344 38.5395 33.8674C37.2074 32.6609 36.2559 30.6973 36.0975 28.8562L36.0566 28.523L36.375 28.6361C37.7752 29.1577 39.1556 29.2419 40.3839 29.3279C41.0148 29.3688 41.6123 29.4138 42.1473 29.5004C43.2879 29.6986 44.043 30.0626 44.737 30.7554C45.2398 31.2687 45.7107 32.0735 46.1664 33.1677L46.388 33.7325L45.4043 33.1598L45.3917 33.1952Z" fill="white"/>
<path id="Vector_2" d="M50.34 24.3158L50.3522 24.4158C50.3533 26.7667 50.7222 28.5312 51.4732 29.8259C52.0996 30.933 53.0473 31.7638 54.3371 32.3497C55.0547 32.6844 55.7768 32.9171 56.4655 33.1539C57.9137 33.6526 59.2891 34.1096 60.3818 35.2947C60.6747 35.6139 61.1661 35.6213 61.4853 35.3283C61.5458 35.2702 61.6043 35.1953 61.6461 35.1225C62.8611 32.7576 62.5706 29.4274 60.8979 26.8251C59.0385 23.9412 55.7574 22.7034 51.8516 23.4029L51.7516 23.4152L51.6768 23.3567C50.5107 22.4005 49.4312 21.8734 48.2966 21.7251C48.2113 21.7187 48.1426 21.7102 48.0593 21.7204L47.9926 21.7286C47.6155 21.8257 47.3565 22.1958 47.4223 22.5936C47.4652 22.9435 47.7499 23.1961 48.0934 23.2385C48.7824 23.34 49.4981 23.658 50.2777 24.222L50.3692 24.2784L50.34 24.3158ZM51.9881 25.7541L52.7984 26.5679C54.1323 27.9264 55.5202 29.3121 57.3572 30.0845C57.7503 30.2561 58.2172 30.0634 58.3721 29.6723C58.4496 29.4767 58.4584 29.2727 58.3839 29.0789C58.3093 28.8851 58.1556 28.7348 57.96 28.6573C56.4454 28.0314 55.1116 26.6729 53.6862 25.258L53.5512 25.1224L53.5304 25.0911L53.6994 24.952L53.7102 24.7646C53.8935 24.7421 54.0768 24.7196 54.2475 24.7324C56.5692 24.7687 58.3661 25.7659 59.5988 27.6781C60.5617 29.1836 60.9943 31.3293 60.6592 33.1464L60.5981 33.4753L60.3216 33.2893C59.1158 32.4225 57.7945 31.9928 56.6292 31.5946C56.03 31.3976 55.464 31.1964 54.9794 30.9684C53.9226 30.4893 53.297 29.9403 52.8033 29.0875C52.4402 28.4725 52.1924 27.5557 52.0492 26.3893L51.9755 25.7895L51.9881 25.7541Z" fill="white"/>
<path id="Vector_3" d="M25.3243 70.6038C25.3755 71.0204 25.7684 71.3274 26.1849 71.2762L32.5168 70.4988C32.6001 70.4885 32.6668 70.4803 32.7334 70.4722L78.906 64.8029C78.9893 64.7927 79.0559 64.7845 79.1226 64.7763L85.4211 64.0029C85.8377 63.9518 86.1446 63.5589 86.0935 63.1423C86.0423 62.7258 85.6494 62.4188 85.2329 62.4699L80.4507 63.0571L80.5951 62.718C81.1456 61.4157 81.3569 59.969 81.183 58.5527C80.9212 56.4198 79.8592 54.5205 78.1754 53.205C76.4896 51.8728 74.4064 51.2998 72.2903 51.5597L71.857 51.6129L71.8763 51.3568C71.9424 50.6552 71.9272 49.9805 71.8495 49.3473C71.7799 48.7808 71.6604 48.2204 71.4762 47.6848C71.3377 47.2452 71.1491 46.8116 70.948 46.4135L70.8796 46.2697L71.0027 46.17C71.2029 46.0101 71.447 45.794 71.6598 45.5988C72.8222 44.4581 73.5437 43.0333 73.8641 41.2349C74.0308 40.2504 74.0974 39.2781 74.1682 38.3391C74.3039 36.2759 74.4372 34.3313 75.6136 32.4786C75.8393 32.1126 75.73 31.6355 75.364 31.4098C75.2912 31.368 75.2017 31.3283 75.1143 31.3052C74.3318 31.1306 73.4823 31.0996 72.5784 31.1768C72.4117 31.1972 72.2451 31.2177 72.0785 31.2381L71.8619 31.2647C69.2768 31.7005 66.7709 33.0569 64.9655 35.0207C63.3395 36.7934 62.4268 39.0028 62.3341 41.4159L62.3233 41.6033L62.0233 41.6401C61.7067 41.679 61.4235 41.7138 61.163 41.7965L60.9964 41.817L60.93 41.6898C60.9259 41.6565 60.8885 41.6273 60.8677 41.596C59.5535 39.8461 57.6361 38.6945 55.467 38.3858C54.4158 38.2273 53.3579 38.2896 52.3245 38.5518C51.2745 38.816 50.2823 39.2761 49.3854 39.9613C47.7293 41.2133 46.6176 43.0412 46.2632 45.1144L46.2211 45.3225L46.013 45.2805C45.1451 45.0995 44.2581 45.0392 43.3502 45.0831L43.2169 45.0994L43.1505 44.9723C42.5659 43.7924 41.6538 42.8388 40.3729 42.0489C39.6035 41.5683 38.7964 41.1938 38.0413 40.8299C36.3709 40.037 34.8067 39.2819 33.6669 37.7135C33.503 37.48 33.2179 37.3627 32.9513 37.3955C32.9513 37.3955 32.9347 37.3975 32.918 37.3996C32.7014 37.4262 32.5137 37.5507 32.4009 37.7337C30.7024 40.2933 30.5895 44.3327 32.1171 47.5448C32.7058 48.758 33.5094 49.7926 34.5425 50.6298L34.6734 50.7321L34.5898 50.8777C34.2908 51.4726 34.0478 52.1113 33.8715 52.7419C33.6827 53.4078 33.5646 54.0989 33.5131 54.7817C33.4704 55.2606 33.4631 55.752 33.5078 56.2539L33.5242 56.3872L33.397 56.4536C32.313 56.9926 31.3305 57.8067 30.585 58.7608C29.2423 60.4987 28.6442 62.6526 28.9143 64.8521C29.0943 66.3184 29.6722 67.7189 30.5609 68.8953L30.783 69.1894L25.9508 69.7827C25.5176 69.8359 25.2273 70.2267 25.2784 70.6433L25.3243 70.6038ZM66.1564 36.0416C67.7239 34.3437 70.1087 33.1037 72.452 32.7653L72.7853 32.7244C72.9686 32.7019 73.1227 32.7168 73.2767 32.7317C73.3434 32.7235 73.4308 32.7466 73.4995 32.7551L73.8055 32.7682L73.6883 33.0532C72.8741 34.963 72.7387 36.8909 72.6101 38.5981C72.5437 39.4351 72.4878 40.22 72.3738 40.9443C72.106 42.4826 71.5748 43.5288 70.6253 44.4742C69.7635 45.3073 68.3855 46.0685 66.4891 46.7411L65.9869 46.9211L66.2336 46.4511C66.3298 46.2701 66.428 46.1059 66.5263 45.9416L67.0153 45.1035C68.2902 42.9511 69.6069 40.7259 69.956 38.1967C69.9815 37.9906 69.9382 37.776 69.8178 37.6217C69.6953 37.4507 69.5123 37.3378 69.3062 37.3124C69.2562 37.3185 69.1855 37.2934 69.1355 37.2995C68.7502 37.3299 68.4643 37.6187 68.4239 37.9789C68.1319 40.1459 66.859 42.3149 65.5151 44.5942L65.2351 45.0684C65.1807 45.1765 65.1096 45.2867 65.0407 45.4136L64.8129 45.7629L64.6638 45.3753C63.3265 41.7846 63.8458 38.5748 66.1605 36.0749L66.1564 36.0416ZM33.5679 46.8254C32.5668 44.7326 32.4312 41.9754 33.1939 39.7844L33.4041 39.8432L33.5397 39.7081C34.8613 40.9666 36.3902 41.7092 37.7568 42.3701C38.4391 42.6923 39.0694 43.0039 39.6183 43.3425C40.8078 44.0759 41.4933 44.8375 41.9511 45.9483C42.3343 46.8654 42.5126 48.1797 42.4652 49.86L42.4494 50.4201L42.0922 49.9904C42.0922 49.9904 41.9925 49.8673 41.9323 49.7901L41.3903 49.0955C40.022 47.3184 38.5934 45.4642 36.5761 44.3249C36.4118 44.2267 36.2203 44.1825 36.0557 44.2197C35.8558 44.2442 35.6681 44.3687 35.5532 44.5351C35.4383 44.7014 35.3795 44.9116 35.4208 45.1095C35.4494 45.3428 35.6093 45.543 35.809 45.6538C37.5164 46.6112 38.9035 48.4029 40.3695 50.2865L41.0465 51.1167L40.5697 51.0907C37.2737 50.971 34.8407 49.4769 33.5659 46.8088L33.5679 46.8254ZM31.8657 59.6861C32.962 58.2829 34.5257 57.3806 36.2753 57.1657C38.0249 56.9509 39.775 57.4295 41.1635 58.5445C41.5023 58.8242 41.9856 58.7649 42.2674 58.4428C42.401 58.291 42.4597 58.0809 42.4352 57.8809C42.4106 57.6809 42.3194 57.4892 42.1511 57.3576C40.3904 55.967 38.2532 55.3668 36.087 55.6328C35.8371 55.6634 35.5871 55.6941 35.3413 55.7582L35.0914 55.7888L35.096 55.5515C35.1028 55.3308 35.1075 55.0934 35.1142 54.8727C35.1592 54.2752 35.2729 53.6861 35.4241 53.1263C35.5521 52.6539 35.7322 52.192 35.9477 51.7427L36.0418 51.5451L36.2394 51.6393C37.97 52.5093 39.9932 52.8698 42.2736 52.7081L42.3736 52.6959L42.4505 52.771C43.6949 54.0897 44.8718 54.8586 46.1809 55.1883C46.6012 55.3059 47.0307 55.084 47.1482 54.6636C47.2678 54.2599 47.0438 53.8138 46.6235 53.6963C45.7494 53.4654 44.9259 52.9576 44.0282 52.1206L43.9326 52.0309L43.9683 51.9081C44.2121 49.8992 44.1783 48.2458 43.8877 46.8438L43.857 46.5938L44.0944 46.5985C46.0746 46.6091 47.9327 47.2774 49.5042 48.5052C51.3771 49.9836 52.5698 52.1205 52.8623 54.5033C52.9442 55.1698 52.9491 55.7612 52.902 56.342C52.8532 56.7709 53.1543 57.1568 53.5832 57.2056C54.012 57.2544 54.3979 56.9533 54.4467 56.5245L54.4406 56.4745C54.5067 55.7729 54.4874 55.0649 54.3974 54.3317C54.0536 51.5324 52.664 49.0306 50.4543 47.2891C49.6872 46.6898 48.8491 46.2008 47.9587 45.8365L47.8152 45.7696L47.8301 45.6155C48.0839 43.8253 48.991 42.2593 50.3989 41.19C51.2645 40.5255 52.2774 40.0967 53.3231 39.9345L53.723 39.8854C54.2229 39.824 54.7496 39.8439 55.3159 39.9097C56.9 40.138 58.333 40.9262 59.3777 42.1341L59.5543 42.3323L59.3146 42.4463C58.1014 43.035 57.073 43.8886 56.2398 44.955C55.96 45.2938 56.0027 45.7791 56.3415 46.0589C56.4932 46.1925 56.7034 46.2512 56.9034 46.2267C57.1033 46.2021 57.2951 46.1109 57.4267 45.9425L57.4559 45.9051C58.6378 44.373 60.3599 43.3836 62.2762 43.1483L62.4761 43.1237L62.5007 43.3237C62.683 44.6713 63.1256 46.0716 63.8242 47.4911L63.8698 47.587L63.8301 47.6765C62.9723 49.507 62.6545 51.0514 62.8513 52.5157C62.9044 52.9489 63.2953 53.2392 63.7119 53.188C63.9118 53.1635 64.1015 53.0556 64.2351 52.9039C64.3667 52.7355 64.4275 52.542 64.4009 52.3254C64.2802 51.3423 64.4679 50.2537 65.0017 48.9534L65.0394 48.8473L65.156 48.833C65.156 48.833 65.206 48.8268 65.2227 48.8248C66.9083 48.3641 68.3004 47.8549 69.4574 47.2223L69.6471 47.1145L69.7404 47.3229C69.8751 47.5939 69.9786 47.8856 70.08 48.1607C70.2166 48.5837 70.3218 49.0275 70.3832 49.5274C70.4875 50.3772 70.4545 51.21 70.2653 52.0113L70.2442 52.1153L70.1484 52.1609C68.9291 52.6997 67.8632 53.524 67.0467 54.5884C66.9152 54.7567 66.8543 54.9503 66.8643 55.1689C66.8888 55.3689 66.98 55.5606 67.1484 55.6922C67.4705 55.974 67.9704 55.9126 68.2356 55.5925L68.2794 55.5364C69.3298 54.1727 70.8476 53.3098 72.5472 53.1011C74.2468 52.8924 75.9283 53.3625 77.2773 54.4316C78.6264 55.5007 79.4914 57.0351 79.7021 58.7514C79.8944 60.3177 79.5141 61.9036 78.6262 63.2135L78.5678 63.2883L32.7785 68.9105L32.7036 68.8521C31.4879 67.7666 30.6957 66.274 30.4952 64.641C30.2763 62.8581 30.7548 61.108 31.8511 59.7048L31.8657 59.6861Z" fill="white"/>
<path id="Vector_4" d="M97.1507 29.6294C96.7742 29.4558 96.276 29.6692 96.1211 30.0603L94.5448 33.8904L94.3501 33.4069C92.453 28.7009 89.7929 24.3931 86.4195 20.6126C77.1287 9.96435 62.5313 4.44983 48.2513 6.20319L47.2349 6.32799C45.1603 6.65039 43.1207 7.1207 41.1808 7.71408C32.909 10.049 25.2329 15.1693 19.5622 22.1576C13.8914 29.1458 10.4453 37.7215 9.87269 46.2826C9.82386 46.7115 10.1416 47.0953 10.5705 47.1441C10.9993 47.193 11.3831 46.8752 11.4153 46.4484L11.4092 46.3984C12.5581 29.4449 25.2525 13.8138 41.6002 9.20175C56.8382 4.50612 74.7868 9.62607 85.2449 21.6533C88.5394 25.342 91.1351 29.5393 92.9679 34.1347L93.1606 34.6016L89.1747 32.8583C89.0312 32.7914 88.8938 32.7744 88.7438 32.7928C88.7438 32.7928 88.7272 32.7949 88.7105 32.7969C88.5105 32.8215 88.3229 32.946 88.208 33.1123C88.0931 33.2787 88.051 33.4868 88.0755 33.6868C88.1083 33.9534 88.2869 34.1682 88.5365 34.2729L94.0057 36.6628C94.1159 36.7338 94.2053 36.7736 94.2927 36.7967L94.3193 37.0133L94.3614 36.8052C94.761 36.8914 95.1843 36.6196 95.2685 36.2033L97.5775 30.6257C97.6549 30.4301 97.6637 30.2261 97.5892 30.0323C97.5146 29.8385 97.3609 29.6882 97.182 29.6087L97.1507 29.6294Z" fill="white"/>
<path id="Vector_5" d="M58.8195 91.8611L58.7528 91.8692C58.5695 91.8918 58.3862 91.9143 58.203 91.9368C41.6735 93.9663 24.6324 85.2168 16.6185 70.5046C14.3452 66.4538 12.7763 62.0796 11.9389 57.4635L11.8381 56.9177L15.1182 59.5256C15.457 59.8054 15.9423 59.7627 16.2221 59.4239C16.5039 59.1018 16.4592 58.5998 16.1224 58.3367L11.3976 54.57C11.2605 54.4177 11.1149 54.3341 10.9421 54.3045C10.786 54.273 10.634 54.2747 10.5069 54.3411C10.4902 54.3431 10.4735 54.3452 10.4569 54.3472C10.2964 54.4177 10.1754 54.534 10.0938 54.6962L6.45596 59.5067C6.32441 59.6751 6.2636 59.8686 6.2902 60.0852C6.31475 60.2852 6.40595 60.477 6.57433 60.6085C6.74271 60.7401 6.93623 60.8009 7.13618 60.7763C7.3528 60.7497 7.5279 60.6606 7.65945 60.4922L10.3136 57.0372L10.4042 57.4997C11.2495 62.3179 12.8783 66.9045 15.2261 71.1492L15.2925 71.2764C23.6092 86.5265 41.2659 95.6063 58.4119 93.501C58.5952 93.4785 58.7952 93.454 58.9785 93.4315C59.2118 93.4028 59.3702 93.3157 59.5017 93.1473C59.6333 92.9789 59.6941 92.7854 59.6675 92.5688C59.6409 92.3522 59.5518 92.1771 59.3834 92.0455C59.215 91.914 59.0215 91.8532 58.8215 91.8777L58.8195 91.8611Z" fill="white"/>
<path id="Vector_6" d="M96.3348 43.7853L96.2848 43.7914C95.8724 43.8759 95.5987 44.2647 95.6645 44.6626C97.9539 61.38 89.1705 78.6959 74.2999 86.7969C72.7008 87.6867 71.0229 88.4847 69.2972 89.1702L68.8304 89.3628L70.5736 85.377C70.7452 84.9838 70.5713 84.5316 70.1927 84.3412C70.0679 84.2889 69.9285 84.2553 69.7952 84.2717C69.5119 84.3064 69.2804 84.4871 69.1757 84.7367L66.7879 90.2225C66.7335 90.3307 66.6917 90.4035 66.6686 90.4909L66.6768 90.5575C66.6285 90.7157 66.6469 90.8656 66.6966 90.9949L66.7028 91.0448C66.8334 91.2825 67.0392 91.4433 67.2994 91.4959L72.8229 93.7777C73.0185 93.8551 73.2205 93.8472 73.4143 93.7727C73.6081 93.6982 73.7584 93.5444 73.8358 93.3488C73.9908 92.9577 73.8002 92.5075 73.4257 92.3505L69.5957 90.7742L70.0792 90.5795C71.7881 89.8961 73.4661 89.0981 75.0485 88.2103L75.0985 88.2042C90.5217 79.7817 99.6313 61.8168 97.2495 44.4849C97.1963 44.0516 96.8055 43.7613 96.3889 43.8125L96.3348 43.7853Z" fill="white"/>
</g>
<defs>
<clipPath id="clip0_458_4368">
<rect width="94.2809" height="90" fill="white" transform="translate(0.395874 12.0801) rotate(-7)"/>
</clipPath>
</defs>
</svg>
