<?xml version="1.0" encoding="UTF-8"?>
<svg id="Calque_1" xmlns="http://www.w3.org/2000/svg" version="1.1" viewBox="0 0 21 23.6">
  <!-- Generator: Adobe Illustrator 29.0.1, SVG Export Plug-In . SVG Version: 2.1.0 Build 192)  -->
  <defs>
    <style>
      .st0 {
        fill: #bdc700;
      }
    </style>
  </defs>
  <path id="Vector" class="st0" d="M18.9,6.6c-.5,0-1,.2-1.4.6-3.9,3.9-6.8,7.1-10.4,10.8l-3.8-3.2c-.2-.2-.4-.3-.7-.4-.3,0-.5-.1-.8,0-.3,0-.5,0-.8.2-.2.1-.4.3-.6.5-.2.2-.3.4-.4.7,0,.3-.1.5,0,.8,0,.3,0,.5.2.8.1.2.3.4.5.6l5.2,4.4c.4.3.9.5,1.4.5.5,0,1-.2,1.3-.6,4.3-4.4,7.4-7.8,11.7-12.1.3-.3.5-.6.6-1,0-.4,0-.8-.1-1.2-.2-.4-.4-.7-.8-.9-.3-.2-.7-.3-1.2-.3Z"/>
</svg>