<svg width="30" height="30" viewBox="0 0 30 30" fill="none" xmlns="http://www.w3.org/2000/svg">
<g id="Group 70">
<path id="Vector" d="M15 0C6.72654 0 0 6.72654 0 15C0 23.2735 6.72654 30 15 30C23.2735 30 30 23.2735 30 15C30 6.72654 23.2735 0 15 0ZM15 28.422C7.59398 28.422 1.57799 22.406 1.57799 15C1.57799 7.59398 7.59398 1.57799 15 1.57799C22.406 1.57799 28.422 7.59398 28.422 15C28.422 22.406 22.406 28.422 15 28.422Z" fill="#A13202"/>
<path id="Vector_2" d="M16.1717 8.38346C18.1001 8.38346 19.8465 9.85077 20.643 12.1146C20.7688 12.4775 21.1605 12.674 21.5378 12.5483C21.9007 12.4225 22.0972 12.0177 21.9715 11.6535C20.9797 8.81711 18.7159 7 16.1861 7C13.3078 7 10.8894 9.37519 10.1348 12.5902H9.19803C8.8063 12.5902 8.49976 12.8981 8.49976 13.2885C8.49976 13.6802 8.80763 13.9867 9.19803 13.9867H9.92514C9.91073 14.2108 9.89763 14.4479 9.89763 14.685C9.89763 14.9221 9.89763 15.1606 9.92514 15.3833H9.19803C8.8063 15.3833 8.49976 15.6911 8.49976 16.0815C8.49976 16.4733 8.80763 16.7798 9.19803 16.7798H10.1348C10.8894 19.9935 13.3065 22.37 16.1861 22.37C18.7159 22.37 20.9797 20.5398 21.9715 17.7165C22.0972 17.3537 21.902 16.9475 21.5378 16.8217C21.1749 16.696 20.7688 16.8912 20.643 17.2554C19.8465 19.5192 18.1001 20.9865 16.1717 20.9865C14.048 20.9865 12.2584 19.2258 11.5876 16.7942H17.5682C17.9599 16.7942 18.2665 16.4864 18.2665 16.096C18.2665 15.7042 17.9586 15.3977 17.5682 15.3977H11.3361C11.3217 15.1606 11.2798 14.9365 11.2798 14.6994C11.2798 14.4623 11.3073 14.2383 11.3361 14.0012H17.5682C17.9599 14.0012 18.2665 13.6933 18.2665 13.3029C18.2665 12.9112 17.9586 12.6046 17.5682 12.6046H11.5876C12.2584 10.1731 14.0611 8.4123 16.1717 8.4123V8.38346Z" fill="#A13202"/>
</g>
</svg>
