<?xml version="1.0" encoding="UTF-8"?>
<svg id="Calque_1" xmlns="http://www.w3.org/2000/svg" version="1.1" viewBox="0 0 19 30">
  <!-- Generator: Adobe Illustrator 29.0.1, SVG Export Plug-In . SVG Version: 2.1.0 Build 192)  -->
  <defs>
    <style>
      .st0 {
        fill: #eae7e4;
      }
    </style>
  </defs>
  <g id="Calque_11">
    <path class="st0" d="M10,1C5.6,1,2,4.6,2,9s3.6,8,8,8,8-3.6,8-8S14.4,1,10,1ZM12.4,12.7l-2.8-1.5-2.8,1.5.5-3.1-2.3-2.2,3.1-.5,1.4-2.9,1.4,2.9,3.1.5-2.3,2.2.5,3.1h.2Z"/>
    <g>
      <path class="st0" d="M15,15.2l-9.3.5c1.2.8,2.7,1.3,4.3,1.3s3.6-.7,5-1.8Z"/>
      <path class="st0" d="M10,18c-2.2,0-4.3-.8-5.9-2.2h-1.6l-.5,13.5,7.8-7.6,6.9,7.6v-14.1h-.1c-1.6,1.7-4,2.8-6.5,2.8h-.1Z"/>
    </g>
  </g>
</svg>