<svg width="28" height="28" viewBox="0 0 28 28" fill="none" xmlns="http://www.w3.org/2000/svg">
<g id="Group 3">
<g id="Ellipse 15">
<circle cx="14" cy="14" r="13.5" transform="rotate(90 14 14)" stroke="#3F2204"/>
<circle cx="14" cy="14" r="13.5" transform="rotate(90 14 14)" stroke="black" stroke-opacity="0.2"/>
</g>
<g id="Vector">
<path d="M9.0829 10.8628C9.43114 10.5291 9.98014 10.5282 10.3296 10.8606L12.575 12.9967C13.3472 13.7313 14.5598 13.7313 15.332 12.9967L17.5774 10.8606C17.9268 10.5282 18.4758 10.5291 18.8241 10.8628C19.1959 11.219 19.1949 11.8137 18.8218 12.1686L15.332 15.4885C14.5598 16.2231 13.3472 16.2231 12.575 15.4885L9.0852 12.1686C8.7121 11.8137 8.71105 11.219 9.0829 10.8628Z" fill="#3F2204"/>
<path d="M9.0829 10.8628C9.43114 10.5291 9.98014 10.5282 10.3296 10.8606L12.575 12.9967C13.3472 13.7313 14.5598 13.7313 15.332 12.9967L17.5774 10.8606C17.9268 10.5282 18.4758 10.5291 18.8241 10.8628C19.1959 11.219 19.1949 11.8137 18.8218 12.1686L15.332 15.4885C14.5598 16.2231 13.3472 16.2231 12.575 15.4885L9.0852 12.1686C8.7121 11.8137 8.71105 11.219 9.0829 10.8628Z" fill="black" fill-opacity="0.2"/>
</g>
</g>
</svg>
