<svg width="88" height="91" viewBox="0 0 88 91" fill="none" xmlns="http://www.w3.org/2000/svg">
<g id="dessin">
<path id="Vector 4 (Stroke)" fill-rule="evenodd" clip-rule="evenodd" d="M17.2076 12.285C8.27512 19.4015 1.61289 30.0846 1.61289 44.4031C1.61289 67.5771 20.8681 89.5663 46.3788 89.5663C56.5507 89.5663 65.1757 85.1658 71.8151 79.5592C78.4584 73.9493 83.0798 67.1592 85.2336 62.4598C85.352 62.2017 85.6572 62.0883 85.9153 62.2066C86.1735 62.325 86.2869 62.6302 86.1685 62.8883C83.9533 67.7216 79.2406 74.6348 72.4786 80.3449C65.7127 86.0584 56.8611 90.5947 46.3788 90.5947C20.2543 90.5947 0.584473 68.0981 0.584473 44.4031C0.584473 29.7265 7.42685 18.7624 16.5667 11.4807C25.693 4.20976 37.1257 0.594727 46.3788 0.594727C55.6539 0.594727 65.2922 4.62205 72.9022 10.3295C80.5005 16.0283 86.1755 23.4782 87.3991 30.412C87.4484 30.6916 87.2617 30.9584 86.982 31.0077C86.7024 31.0571 86.4356 30.8704 86.3863 30.5907C85.2267 24.0198 79.7802 16.7736 72.2852 11.1523C64.8017 5.53971 55.3747 1.62315 46.3788 1.62315C37.361 1.62315 26.1537 5.15762 17.2076 12.285Z" fill="url(#paint0_linear_163_392)"/>
<g id="Group 60">
<path id="Vector" d="M28.708 34.0542C31.1411 34.2671 33.2939 32.4629 33.5066 30.0309C33.7194 27.5989 31.913 25.4448 29.4799 25.232C27.0479 25.0192 24.8971 26.8271 24.6844 29.259C24.4716 31.691 26.2761 33.8415 28.708 34.0542ZM29.3648 26.5474C31.073 26.6969 32.3406 28.2076 32.1912 29.9158C32.042 31.6206 30.5313 32.8882 28.8231 32.7388C27.1183 32.5896 25.8507 31.0789 25.9998 29.3741C26.1493 27.6659 27.66 26.3983 29.3648 26.5474Z" fill="white"/>
<path id="Vector_2" d="M66.0526 33.2632L40.0523 30.9885C38.9301 30.8903 37.939 31.723 37.8408 32.8452L37.7794 33.5466C37.7478 33.9085 38.0146 34.2297 38.3793 34.2616C38.7412 34.2933 39.0615 34.0229 39.0932 33.6616L39.1545 32.9601C39.1891 32.5651 39.541 32.2692 39.9366 32.3039L65.937 34.5786C66.3343 34.6134 66.6301 34.9653 66.5955 35.3609L65.0439 53.0963C65.0093 53.4914 64.6574 53.7872 64.2595 53.7524L38.2591 51.4777C37.8641 51.4431 37.5683 51.0912 37.6029 50.6956L38.3978 41.6092C38.4295 41.2473 38.1603 40.9271 37.799 40.8955C37.4336 40.8635 37.1157 41.1329 37.0841 41.4942L36.2891 50.5812C36.215 51.4284 36.6725 52.2035 37.3875 52.5708L37.2113 54.5849C37.1795 54.949 37.4478 55.2669 37.8114 55.2987L42.2128 55.6838L39.3537 63.4017C39.2259 63.7425 39.4018 64.1225 39.7431 64.2515C39.8013 64.271 39.856 64.2838 39.9155 64.289C40.2036 64.3143 40.4851 64.1453 40.5919 63.8597L43.5797 55.8033L58.2715 57.0887L59.8126 65.5413C59.8687 65.8412 60.1161 66.0564 60.4042 66.0816C60.4636 66.0868 60.5198 66.0836 60.5805 66.0745C60.9384 66.0068 61.1782 65.6631 61.1115 65.3053L59.6361 57.2081L64.0398 57.5934C64.4017 57.625 64.7228 57.3582 64.7547 56.9946L64.9309 54.9805C65.6965 54.7428 66.2851 54.0592 66.3593 53.212L67.911 35.476C68.0097 34.3538 67.1748 33.3614 66.0526 33.2632ZM63.4973 56.2215L38.5844 54.0419L38.6896 52.8391L63.6026 55.0187L63.4973 56.2215Z" fill="white"/>
<path id="Vector_3" d="M43.4309 38.0464C43.5261 36.958 42.719 35.9973 41.6305 35.9021L24.4532 34.397C22.6398 34.2383 21.0371 35.5832 20.8784 37.3966L19.9772 47.6972C19.8822 48.7834 20.6903 49.7465 21.7765 49.8415C22.0074 49.8617 22.2345 49.8412 22.4461 49.7866L21.5247 60.3182C21.4116 61.6102 22.3703 62.7552 23.6623 62.8682C24.9543 62.9813 26.096 62.02 26.2091 60.728L27.0056 51.6239L27.3371 51.6529L26.5407 60.7565C26.4277 62.0485 27.3863 63.1935 28.6749 63.3062C29.9669 63.4192 31.1098 62.4581 31.2228 61.1661L33.1503 39.135L41.2854 39.8467C42.3739 39.942 43.3359 39.1327 43.4309 38.0464ZM32.6074 37.762C32.2455 37.7303 31.9243 37.9972 31.8924 38.3619L29.9074 61.051C29.8576 61.6193 29.3581 62.0416 28.7899 61.9919C28.225 61.9425 27.8064 61.4398 27.8561 60.8716L28.7101 51.1106C28.742 50.7464 28.4715 50.4272 28.1102 50.3956L26.4632 50.2515C26.099 50.2197 25.7812 50.4879 25.7494 50.8515L24.8954 60.6125C24.8457 61.1808 24.3427 61.6028 23.7779 61.5534C23.2096 61.5037 22.791 61.001 22.8407 60.4328L24.6916 39.2769C24.7236 38.9116 24.453 38.5936 24.0917 38.562C23.7264 38.53 23.4087 38.7971 23.3767 39.1619L22.6076 47.9268C22.576 48.2887 22.254 48.5583 21.8927 48.5267C21.5313 48.4951 21.2611 48.1731 21.2927 47.8117L22.1939 37.5111C22.289 36.4249 23.2532 35.6158 24.3394 35.7108L41.5166 37.2171C41.8796 37.2488 42.1482 37.5696 42.1166 37.9309C42.0849 38.2939 41.7641 38.5625 41.4017 38.5308L32.6074 37.762Z" fill="white"/>
<path id="Vector_4" d="M60.7435 37.5769L44.5333 36.1587L44.4182 37.4741L60.6284 38.8924L60.7435 37.5769Z" fill="white"/>
<path id="Vector_5" d="M60.2621 43.0798L44.0519 41.6616L43.9368 42.9771L60.147 44.3953L60.2621 43.0798Z" fill="white"/>
<path id="Vector_6" d="M59.7807 48.5823L43.5706 47.1641L43.4556 48.4784L59.6658 49.8966L59.7807 48.5823Z" fill="white"/>
</g>
</g>
<defs>
<linearGradient id="paint0_linear_163_392" x1="18.5515" y1="40.3779" x2="79.2731" y2="48.0136" gradientUnits="userSpaceOnUse">
<stop stop-color="#BDC700"/>
<stop offset="1" stop-color="#BDC700" stop-opacity="0"/>
</linearGradient>
</defs>
</svg>
