<svg width="112" height="112" viewBox="0 0 112 112" fill="none" xmlns="http://www.w3.org/2000/svg">
<mask id="mask0_950_5337" style="mask-type:alpha" maskUnits="userSpaceOnUse" x="0" y="0" width="112" height="112">
<rect width="112" height="112" fill="#D9D9D9"/>
</mask>
<g mask="url(#mask0_950_5337)">
<path fill-rule="evenodd" clip-rule="evenodd" d="M27.2059 46.012C24.299 54.2411 24.3537 63.4036 30.0015 72.4421C39.4869 87.6218 61.1956 93.9134 77.5266 83.7086C83.4216 80.025 87.179 74.1514 89.334 67.4476C91.5255 60.6302 91.7182 53.9388 91.2498 50.321C90.4038 43.7858 95.0158 37.8022 101.551 36.9561C108.086 36.1101 114.07 40.722 114.916 47.2572C115.823 54.265 115.347 64.5012 112.052 74.7507C108.721 85.1139 102.174 96.4465 90.1723 103.946C61.7618 121.699 25.6558 110.52 9.76421 85.0878C-0.287195 69.0022 -0.251611 52.0956 4.70513 38.0637C9.52696 24.4136 19.1225 13.0086 29.3535 6.61558C44.3486 -2.75437 60.2394 -2.38204 78.3357 4.33083C84.5141 6.62267 87.6647 13.4891 85.3728 19.6674C83.081 25.8457 76.2145 28.9963 70.0362 26.7045C56.3447 21.6256 48.7407 22.6403 41.9992 26.8529C36.3986 30.3526 30.2478 37.4009 27.2059 46.012Z" fill="url(#paint0_linear_950_5337)"/>
<path fill-rule="evenodd" clip-rule="evenodd" d="M57.7949 38.4766C73.2335 38.4766 85.7938 51.0369 85.7938 66.4755C85.7938 75.5961 81.363 84.1079 73.9158 89.3678C73.9361 89.9589 73.9327 90.5511 73.9292 91.1429C73.9279 91.3682 73.9266 91.5934 73.9266 91.8185C73.9266 91.9147 73.9275 92.0089 73.9284 92.1008C73.9381 93.1079 73.9451 93.8431 72.7282 94.0469C72.2163 94.131 71.6877 94.0891 71.1676 94.0479C70.8738 94.0246 70.5828 94.0015 70.2991 94.0015C68.725 94.0015 67.207 93.764 65.7754 93.3214C63.1908 94.0879 60.5069 94.4766 57.7927 94.4766C56.0502 94.4766 54.3163 94.3146 52.6321 93.9994C52.6127 93.9994 52.5933 94.0015 52.5738 94.0015H48.4583C36.075 94.0015 26 83.9265 26 71.5432V66.9527C26 66.428 26.4254 66.0026 26.9501 66.0026H31.0656C43.4489 66.0026 53.5239 76.0776 53.5239 88.4609V92.2266C54.9231 92.4577 56.3547 92.5764 57.7949 92.5764C59.5071 92.5764 61.2086 92.408 62.8756 92.0798C58.1511 89.4585 54.9468 84.4188 54.9468 78.645V75.4925C54.9468 74.9678 55.3722 74.5424 55.8969 74.5424H58.5765C66.1144 74.5424 72.4022 80.0031 73.6891 87.1783C80.1085 82.2444 83.8958 74.618 83.8958 66.4755C83.8958 57.1216 78.949 48.9036 71.5363 44.2936L61.5433 49.2901C61.5401 49.2922 61.5363 49.2938 61.5325 49.2955C61.5287 49.2971 61.525 49.2987 61.5217 49.3009C59.5806 50.2077 57.8467 52.0971 57.2918 53.9022L56.3503 58.1386C56.346 58.1602 56.3395 58.184 56.3331 58.2056C55.5903 60.6736 52.8761 62.4658 51.5439 63.0682C49.4991 63.9923 47.2599 64.1413 45.051 64.109C42.922 64.0766 40.6677 63.7052 39.437 61.764C39.4316 61.7554 39.4262 61.7462 39.4208 61.737C39.4154 61.7278 39.41 61.7187 39.4046 61.71L35.03 53.7575C33.2529 56.9057 32.1107 60.4555 31.7889 64.2363C31.7457 64.7589 31.2858 65.1454 30.7633 65.1022C30.2408 65.059 29.8521 64.5991 29.8974 64.0766C30.3099 59.2118 32.0632 54.2023 34.9997 50.2747C40.3374 43.1362 48.821 38.4766 57.7949 38.4766ZM55.4629 53.3905C56.1603 51.0628 58.2656 48.733 60.7034 47.5886L69.539 43.1708C66.0065 41.3829 62.0162 40.3745 57.7949 40.3745C48.9117 40.3745 40.9139 44.9478 36.1787 51.9092L41.0521 60.7686C41.9719 62.1807 43.3884 62.2347 46.0076 62.2088C47.6507 62.1937 49.2421 62.0318 50.7579 61.3408C52.0254 60.7686 54.0119 59.2614 54.5042 57.6917L55.4456 53.4574C55.4499 53.4358 55.4564 53.4121 55.4629 53.3905ZM27.898 67.9006V71.5411C27.898 82.8771 37.1223 92.1014 48.4583 92.1035H50.2829L40.6267 82.4474C40.2553 82.076 40.2553 81.4757 40.6267 81.1044C40.9981 80.733 41.5984 80.733 41.9698 81.1044L51.6259 90.7605V88.4609C51.6259 77.1249 42.4038 67.9006 31.0656 67.9006H27.898ZM56.847 78.6471C56.847 84.5246 60.8005 89.6247 66.1296 91.4169C66.963 91.6955 67.8224 91.8941 68.6926 92.0021C68.7569 92.01 69.2656 92.0196 69.7377 92.0286C70.1692 92.0368 70.5702 92.0444 70.5733 92.0496C70.0598 91.2107 69.1873 90.4328 68.3623 89.6971C67.9938 89.3686 67.6348 89.0485 67.3215 88.7351L64.7152 86.1289C64.3439 85.7575 64.3439 85.1573 64.7152 84.7859C65.0866 84.4145 65.6869 84.4145 66.0583 84.7859L72.0329 90.7605C72.0329 83.2118 66.3887 76.4426 58.5765 76.4426H56.847V78.6471ZM77.7269 64.1021C77.7269 67.7663 74.7472 70.7461 71.0829 70.7461H66.3369C62.9361 70.7461 60.168 67.9779 60.168 64.5771C60.168 62.2214 62.0832 60.3061 64.439 60.3061H64.914C66.2225 60.3061 67.287 59.2416 67.287 57.9331C67.287 55.5774 69.2022 53.6621 71.558 53.6621C74.9588 53.6621 77.7269 56.4303 77.7269 59.8311V64.1021ZM64.439 62.2041C63.1305 62.2041 62.0659 63.2686 62.0659 64.5771C62.0659 66.9328 63.9812 68.8481 66.3369 68.8481H71.0829C73.7 68.8481 75.829 66.7191 75.829 64.1021V59.8311C75.829 57.4753 73.9137 55.5601 71.558 55.5601C70.2495 55.5601 69.185 56.6246 69.185 57.9331C69.185 60.2888 67.2697 62.2041 64.914 62.2041H64.439Z" fill="#3F2204"/>
<path fill-rule="evenodd" clip-rule="evenodd" d="M57.7949 38.4766C73.2335 38.4766 85.7938 51.0369 85.7938 66.4755C85.7938 75.5961 81.363 84.1079 73.9158 89.3678C73.9361 89.9589 73.9327 90.5511 73.9292 91.1429C73.9279 91.3682 73.9266 91.5934 73.9266 91.8185C73.9266 91.9147 73.9275 92.0089 73.9284 92.1008C73.9381 93.1079 73.9451 93.8431 72.7282 94.0469C72.2163 94.131 71.6877 94.0891 71.1676 94.0479C70.8738 94.0246 70.5828 94.0015 70.2991 94.0015C68.725 94.0015 67.207 93.764 65.7754 93.3214C63.1908 94.0879 60.5069 94.4766 57.7927 94.4766C56.0502 94.4766 54.3163 94.3146 52.6321 93.9994C52.6127 93.9994 52.5933 94.0015 52.5738 94.0015H48.4583C36.075 94.0015 26 83.9265 26 71.5432V66.9527C26 66.428 26.4254 66.0026 26.9501 66.0026H31.0656C43.4489 66.0026 53.5239 76.0776 53.5239 88.4609V92.2266C54.9231 92.4577 56.3547 92.5764 57.7949 92.5764C59.5071 92.5764 61.2086 92.408 62.8756 92.0798C58.1511 89.4585 54.9468 84.4188 54.9468 78.645V75.4925C54.9468 74.9678 55.3722 74.5424 55.8969 74.5424H58.5765C66.1144 74.5424 72.4022 80.0031 73.6891 87.1783C80.1085 82.2444 83.8958 74.618 83.8958 66.4755C83.8958 57.1216 78.949 48.9036 71.5363 44.2936L61.5433 49.2901C61.5401 49.2922 61.5363 49.2938 61.5325 49.2955C61.5287 49.2971 61.525 49.2987 61.5217 49.3009C59.5806 50.2077 57.8467 52.0971 57.2918 53.9022L56.3503 58.1386C56.346 58.1602 56.3395 58.184 56.3331 58.2056C55.5903 60.6736 52.8761 62.4658 51.5439 63.0682C49.4991 63.9923 47.2599 64.1413 45.051 64.109C42.922 64.0766 40.6677 63.7052 39.437 61.764C39.4316 61.7554 39.4262 61.7462 39.4208 61.737C39.4154 61.7278 39.41 61.7187 39.4046 61.71L35.03 53.7575C33.2529 56.9057 32.1107 60.4555 31.7889 64.2363C31.7457 64.7589 31.2858 65.1454 30.7633 65.1022C30.2408 65.059 29.8521 64.5991 29.8974 64.0766C30.3099 59.2118 32.0632 54.2023 34.9997 50.2747C40.3374 43.1362 48.821 38.4766 57.7949 38.4766ZM55.4629 53.3905C56.1603 51.0628 58.2656 48.733 60.7034 47.5886L69.539 43.1708C66.0065 41.3829 62.0162 40.3745 57.7949 40.3745C48.9117 40.3745 40.9139 44.9478 36.1787 51.9092L41.0521 60.7686C41.9719 62.1807 43.3884 62.2347 46.0076 62.2088C47.6507 62.1937 49.2421 62.0318 50.7579 61.3408C52.0254 60.7686 54.0119 59.2614 54.5042 57.6917L55.4456 53.4574C55.4499 53.4358 55.4564 53.4121 55.4629 53.3905ZM27.898 67.9006V71.5411C27.898 82.8771 37.1223 92.1014 48.4583 92.1035H50.2829L40.6267 82.4474C40.2553 82.076 40.2553 81.4757 40.6267 81.1044C40.9981 80.733 41.5984 80.733 41.9698 81.1044L51.6259 90.7605V88.4609C51.6259 77.1249 42.4038 67.9006 31.0656 67.9006H27.898ZM56.847 78.6471C56.847 84.5246 60.8005 89.6247 66.1296 91.4169C66.963 91.6955 67.8224 91.8941 68.6926 92.0021C68.7569 92.01 69.2656 92.0196 69.7377 92.0286C70.1692 92.0368 70.5702 92.0444 70.5733 92.0496C70.0598 91.2107 69.1873 90.4328 68.3623 89.6971C67.9938 89.3686 67.6348 89.0485 67.3215 88.7351L64.7152 86.1289C64.3439 85.7575 64.3439 85.1573 64.7152 84.7859C65.0866 84.4145 65.6869 84.4145 66.0583 84.7859L72.0329 90.7605C72.0329 83.2118 66.3887 76.4426 58.5765 76.4426H56.847V78.6471ZM77.7269 64.1021C77.7269 67.7663 74.7472 70.7461 71.0829 70.7461H66.3369C62.9361 70.7461 60.168 67.9779 60.168 64.5771C60.168 62.2214 62.0832 60.3061 64.439 60.3061H64.914C66.2225 60.3061 67.287 59.2416 67.287 57.9331C67.287 55.5774 69.2022 53.6621 71.558 53.6621C74.9588 53.6621 77.7269 56.4303 77.7269 59.8311V64.1021ZM64.439 62.2041C63.1305 62.2041 62.0659 63.2686 62.0659 64.5771C62.0659 66.9328 63.9812 68.8481 66.3369 68.8481H71.0829C73.7 68.8481 75.829 66.7191 75.829 64.1021V59.8311C75.829 57.4753 73.9137 55.5601 71.558 55.5601C70.2495 55.5601 69.185 56.6246 69.185 57.9331C69.185 60.2888 67.2697 62.2041 64.914 62.2041H64.439Z" fill="black" fill-opacity="0.2"/>
</g>
<defs>
<linearGradient id="paint0_linear_950_5337" x1="4.91119" y1="76.894" x2="115.403" y2="46.7414" gradientUnits="userSpaceOnUse">
<stop stop-color="#BDC700"/>
<stop offset="1" stop-color="#BDC700" stop-opacity="0"/>
</linearGradient>
</defs>
</svg>
