<svg width="85" height="43" viewBox="0 0 85 43" fill="none" xmlns="http://www.w3.org/2000/svg">
<path d="M0 11.8613H5.022V27.0353H11.205V31.1393H0V11.8613Z" fill="#3F2204"/>
<path d="M0 11.8613H5.022V27.0353H11.205V31.1393H0V11.8613Z" fill="black" fill-opacity="0.2"/>
<path d="M19.9541 15.8033L18.5771 23.9843H21.3851L20.0081 15.8033H19.9541ZM23.1401 11.8613L27.8381 31.1393H22.4921L21.9791 27.7643H17.9831L17.4701 31.1393H12.2051L16.8221 11.8613H23.1401Z" fill="#3F2204"/>
<path d="M19.9541 15.8033L18.5771 23.9843H21.3851L20.0081 15.8033H19.9541ZM23.1401 11.8613L27.8381 31.1393H22.4921L21.9791 27.7643H17.9831L17.4701 31.1393H12.2051L16.8221 11.8613H23.1401Z" fill="black" fill-opacity="0.2"/>
<path d="M33.8599 27.5213H35.2639C35.7319 27.5213 36.1459 27.3323 36.5059 26.9543C36.8659 26.5583 37.0459 25.9553 37.0459 25.1453C37.0459 24.3893 36.8659 23.8133 36.5059 23.4173C36.1459 23.0213 35.7319 22.8233 35.2639 22.8233H33.8599V27.5213ZM33.8599 19.4213H35.0749C35.5969 19.4213 35.9929 19.2323 36.2629 18.8543C36.5329 18.4583 36.6679 17.9993 36.6679 17.4773C36.6679 16.9373 36.5329 16.4693 36.2629 16.0733C35.9929 15.6773 35.5969 15.4793 35.0749 15.4793H33.8599V19.4213ZM28.8379 11.8613H36.4249C38.2249 11.8613 39.5479 12.3023 40.3939 13.1843C41.2579 14.0483 41.6899 15.2093 41.6899 16.6673C41.6899 17.1713 41.6269 17.6663 41.5009 18.1523C41.3929 18.6203 41.2129 19.0523 40.9609 19.4483C40.7269 19.8263 40.4209 20.1503 40.0429 20.4203C39.6649 20.6903 39.2059 20.8793 38.6659 20.9873V21.0413C39.2959 21.0953 39.8359 21.2663 40.2859 21.5543C40.7359 21.8243 41.1049 22.1663 41.3929 22.5803C41.6809 22.9943 41.8879 23.4533 42.0139 23.9573C42.1579 24.4433 42.2299 24.9383 42.2299 25.4423C42.2299 26.2703 42.1219 27.0353 41.9059 27.7373C41.6899 28.4393 41.3479 29.0423 40.8799 29.5463C40.4299 30.0503 39.8359 30.4463 39.0979 30.7343C38.3599 31.0043 37.4689 31.1393 36.4249 31.1393H28.8379V11.8613Z" fill="#3F2204"/>
<path d="M33.8599 27.5213H35.2639C35.7319 27.5213 36.1459 27.3323 36.5059 26.9543C36.8659 26.5583 37.0459 25.9553 37.0459 25.1453C37.0459 24.3893 36.8659 23.8133 36.5059 23.4173C36.1459 23.0213 35.7319 22.8233 35.2639 22.8233H33.8599V27.5213ZM33.8599 19.4213H35.0749C35.5969 19.4213 35.9929 19.2323 36.2629 18.8543C36.5329 18.4583 36.6679 17.9993 36.6679 17.4773C36.6679 16.9373 36.5329 16.4693 36.2629 16.0733C35.9929 15.6773 35.5969 15.4793 35.0749 15.4793H33.8599V19.4213ZM28.8379 11.8613H36.4249C38.2249 11.8613 39.5479 12.3023 40.3939 13.1843C41.2579 14.0483 41.6899 15.2093 41.6899 16.6673C41.6899 17.1713 41.6269 17.6663 41.5009 18.1523C41.3929 18.6203 41.2129 19.0523 40.9609 19.4483C40.7269 19.8263 40.4209 20.1503 40.0429 20.4203C39.6649 20.6903 39.2059 20.8793 38.6659 20.9873V21.0413C39.2959 21.0953 39.8359 21.2663 40.2859 21.5543C40.7359 21.8243 41.1049 22.1663 41.3929 22.5803C41.6809 22.9943 41.8879 23.4533 42.0139 23.9573C42.1579 24.4433 42.2299 24.9383 42.2299 25.4423C42.2299 26.2703 42.1219 27.0353 41.9059 27.7373C41.6899 28.4393 41.3479 29.0423 40.8799 29.5463C40.4299 30.0503 39.8359 30.4463 39.0979 30.7343C38.3599 31.0043 37.4689 31.1393 36.4249 31.1393H28.8379V11.8613Z" fill="black" fill-opacity="0.2"/>
<path d="M48.4145 21.5404C48.4145 22.8364 48.4325 23.9164 48.4685 24.7804C48.5045 25.6264 48.5765 26.3014 48.6845 26.8054C48.8105 27.3094 48.9815 27.6604 49.1975 27.8584C49.4315 28.0564 49.7375 28.1554 50.1155 28.1554C50.4935 28.1554 50.7905 28.0564 51.0065 27.8584C51.2405 27.6604 51.4115 27.3094 51.5195 26.8054C51.6455 26.3014 51.7265 25.6264 51.7625 24.7804C51.7985 23.9164 51.8165 22.8364 51.8165 21.5404C51.8165 20.2444 51.7985 19.1734 51.7625 18.3274C51.7265 17.4634 51.6455 16.7794 51.5195 16.2754C51.4115 15.7714 51.2405 15.4204 51.0065 15.2224C50.7905 15.0244 50.4935 14.9254 50.1155 14.9254C49.7375 14.9254 49.4315 15.0244 49.1975 15.2224C48.9815 15.4204 48.8105 15.7714 48.6845 16.2754C48.5765 16.7794 48.5045 17.4634 48.4685 18.3274C48.4325 19.1734 48.4145 20.2444 48.4145 21.5404ZM43.2305 21.5404C43.2305 19.7404 43.3475 18.2104 43.5815 16.9504C43.8155 15.6724 44.2025 14.6374 44.7425 13.8454C45.2825 13.0354 45.9935 12.4504 46.8755 12.0904C47.7575 11.7124 48.8375 11.5234 50.1155 11.5234C51.3935 11.5234 52.4735 11.7124 53.3555 12.0904C54.2375 12.4504 54.9485 13.0354 55.4885 13.8454C56.0285 14.6374 56.4155 15.6724 56.6495 16.9504C56.8835 18.2104 57.0005 19.7404 57.0005 21.5404C57.0005 23.3404 56.8835 24.8794 56.6495 26.1574C56.4155 27.4174 56.0285 28.4524 55.4885 29.2624C54.9485 30.0544 54.2375 30.6214 53.3555 30.9634C52.4735 31.3054 51.3935 31.4764 50.1155 31.4764C48.8375 31.4764 47.7575 31.3054 46.8755 30.9634C45.9935 30.6214 45.2825 30.0544 44.7425 29.2624C44.2025 28.4524 43.8155 27.4174 43.5815 26.1574C43.3475 24.8794 43.2305 23.3404 43.2305 21.5404Z" fill="#3F2204"/>
<path d="M48.4145 21.5404C48.4145 22.8364 48.4325 23.9164 48.4685 24.7804C48.5045 25.6264 48.5765 26.3014 48.6845 26.8054C48.8105 27.3094 48.9815 27.6604 49.1975 27.8584C49.4315 28.0564 49.7375 28.1554 50.1155 28.1554C50.4935 28.1554 50.7905 28.0564 51.0065 27.8584C51.2405 27.6604 51.4115 27.3094 51.5195 26.8054C51.6455 26.3014 51.7265 25.6264 51.7625 24.7804C51.7985 23.9164 51.8165 22.8364 51.8165 21.5404C51.8165 20.2444 51.7985 19.1734 51.7625 18.3274C51.7265 17.4634 51.6455 16.7794 51.5195 16.2754C51.4115 15.7714 51.2405 15.4204 51.0065 15.2224C50.7905 15.0244 50.4935 14.9254 50.1155 14.9254C49.7375 14.9254 49.4315 15.0244 49.1975 15.2224C48.9815 15.4204 48.8105 15.7714 48.6845 16.2754C48.5765 16.7794 48.5045 17.4634 48.4685 18.3274C48.4325 19.1734 48.4145 20.2444 48.4145 21.5404ZM43.2305 21.5404C43.2305 19.7404 43.3475 18.2104 43.5815 16.9504C43.8155 15.6724 44.2025 14.6374 44.7425 13.8454C45.2825 13.0354 45.9935 12.4504 46.8755 12.0904C47.7575 11.7124 48.8375 11.5234 50.1155 11.5234C51.3935 11.5234 52.4735 11.7124 53.3555 12.0904C54.2375 12.4504 54.9485 13.0354 55.4885 13.8454C56.0285 14.6374 56.4155 15.6724 56.6495 16.9504C56.8835 18.2104 57.0005 19.7404 57.0005 21.5404C57.0005 23.3404 56.8835 24.8794 56.6495 26.1574C56.4155 27.4174 56.0285 28.4524 55.4885 29.2624C54.9485 30.0544 54.2375 30.6214 53.3555 30.9634C52.4735 31.3054 51.3935 31.4764 50.1155 31.4764C48.8375 31.4764 47.7575 31.3054 46.8755 30.9634C45.9935 30.6214 45.2825 30.0544 44.7425 29.2624C44.2025 28.4524 43.8155 27.4174 43.5815 26.1574C43.3475 24.8794 43.2305 23.3404 43.2305 21.5404Z" fill="black" fill-opacity="0.2"/>
<path d="M63.022 25.32C63.022 26.454 63.148 27.21 63.4 27.588C63.67 27.966 64.039 28.155 64.507 28.155C64.975 28.155 65.335 27.966 65.587 27.588C65.857 27.21 65.992 26.454 65.992 25.32C65.992 24.204 65.857 23.457 65.587 23.079C65.335 22.701 64.975 22.512 64.507 22.512C64.039 22.512 63.67 22.701 63.4 23.079C63.148 23.457 63.022 24.204 63.022 25.32ZM63.211 17.22C63.211 17.688 63.247 18.075 63.319 18.381C63.391 18.687 63.481 18.93 63.589 19.11C63.715 19.272 63.85 19.389 63.994 19.461C64.156 19.515 64.327 19.542 64.507 19.542C64.867 19.542 65.173 19.389 65.425 19.083C65.677 18.777 65.803 18.156 65.803 17.22C65.803 16.752 65.767 16.374 65.695 16.086C65.623 15.78 65.524 15.546 65.398 15.384C65.29 15.204 65.155 15.087 64.993 15.033C64.849 14.961 64.687 14.925 64.507 14.925C64.327 14.925 64.156 14.961 63.994 15.033C63.85 15.087 63.715 15.204 63.589 15.384C63.481 15.546 63.391 15.78 63.319 16.086C63.247 16.374 63.211 16.752 63.211 17.22ZM64.507 31.206C63.481 31.206 62.563 31.125 61.753 30.963C60.961 30.801 60.286 30.495 59.728 30.045C59.17 29.577 58.738 28.956 58.432 28.182C58.144 27.408 58 26.427 58 25.239C58 24.069 58.261 23.079 58.783 22.269C59.323 21.459 60.124 20.982 61.186 20.838V20.784C60.628 20.658 60.16 20.469 59.782 20.217C59.422 19.947 59.134 19.641 58.918 19.299C58.702 18.939 58.549 18.561 58.459 18.165C58.387 17.751 58.351 17.337 58.351 16.923C58.351 16.167 58.459 15.474 58.675 14.844C58.909 14.214 59.269 13.674 59.755 13.224C60.259 12.774 60.898 12.423 61.672 12.171C62.464 11.919 63.409 11.793 64.507 11.793C65.623 11.793 66.568 11.919 67.342 12.171C68.116 12.423 68.746 12.774 69.232 13.224C69.736 13.674 70.096 14.214 70.312 14.844C70.546 15.474 70.663 16.167 70.663 16.923C70.663 17.337 70.618 17.751 70.528 18.165C70.456 18.561 70.312 18.939 70.096 19.299C69.88 19.641 69.592 19.947 69.232 20.217C68.872 20.469 68.404 20.658 67.828 20.784V20.838C68.404 20.946 68.89 21.135 69.286 21.405C69.7 21.675 70.033 22.008 70.285 22.404C70.537 22.782 70.717 23.214 70.825 23.7C70.951 24.186 71.014 24.699 71.014 25.239C71.014 26.427 70.861 27.408 70.555 28.182C70.267 28.956 69.844 29.577 69.286 30.045C68.746 30.495 68.071 30.801 67.261 30.963C66.451 31.125 65.533 31.206 64.507 31.206Z" fill="#3F2204"/>
<path d="M63.022 25.32C63.022 26.454 63.148 27.21 63.4 27.588C63.67 27.966 64.039 28.155 64.507 28.155C64.975 28.155 65.335 27.966 65.587 27.588C65.857 27.21 65.992 26.454 65.992 25.32C65.992 24.204 65.857 23.457 65.587 23.079C65.335 22.701 64.975 22.512 64.507 22.512C64.039 22.512 63.67 22.701 63.4 23.079C63.148 23.457 63.022 24.204 63.022 25.32ZM63.211 17.22C63.211 17.688 63.247 18.075 63.319 18.381C63.391 18.687 63.481 18.93 63.589 19.11C63.715 19.272 63.85 19.389 63.994 19.461C64.156 19.515 64.327 19.542 64.507 19.542C64.867 19.542 65.173 19.389 65.425 19.083C65.677 18.777 65.803 18.156 65.803 17.22C65.803 16.752 65.767 16.374 65.695 16.086C65.623 15.78 65.524 15.546 65.398 15.384C65.29 15.204 65.155 15.087 64.993 15.033C64.849 14.961 64.687 14.925 64.507 14.925C64.327 14.925 64.156 14.961 63.994 15.033C63.85 15.087 63.715 15.204 63.589 15.384C63.481 15.546 63.391 15.78 63.319 16.086C63.247 16.374 63.211 16.752 63.211 17.22ZM64.507 31.206C63.481 31.206 62.563 31.125 61.753 30.963C60.961 30.801 60.286 30.495 59.728 30.045C59.17 29.577 58.738 28.956 58.432 28.182C58.144 27.408 58 26.427 58 25.239C58 24.069 58.261 23.079 58.783 22.269C59.323 21.459 60.124 20.982 61.186 20.838V20.784C60.628 20.658 60.16 20.469 59.782 20.217C59.422 19.947 59.134 19.641 58.918 19.299C58.702 18.939 58.549 18.561 58.459 18.165C58.387 17.751 58.351 17.337 58.351 16.923C58.351 16.167 58.459 15.474 58.675 14.844C58.909 14.214 59.269 13.674 59.755 13.224C60.259 12.774 60.898 12.423 61.672 12.171C62.464 11.919 63.409 11.793 64.507 11.793C65.623 11.793 66.568 11.919 67.342 12.171C68.116 12.423 68.746 12.774 69.232 13.224C69.736 13.674 70.096 14.214 70.312 14.844C70.546 15.474 70.663 16.167 70.663 16.923C70.663 17.337 70.618 17.751 70.528 18.165C70.456 18.561 70.312 18.939 70.096 19.299C69.88 19.641 69.592 19.947 69.232 20.217C68.872 20.469 68.404 20.658 67.828 20.784V20.838C68.404 20.946 68.89 21.135 69.286 21.405C69.7 21.675 70.033 22.008 70.285 22.404C70.537 22.782 70.717 23.214 70.825 23.7C70.951 24.186 71.014 24.699 71.014 25.239C71.014 26.427 70.861 27.408 70.555 28.182C70.267 28.956 69.844 29.577 69.286 30.045C68.746 30.495 68.071 30.801 67.261 30.963C66.451 31.125 65.533 31.206 64.507 31.206Z" fill="black" fill-opacity="0.2"/>
<path d="M72.2297 17.571C72.2837 15.573 72.8057 14.115 73.7957 13.197C74.7857 12.261 76.2617 11.793 78.2237 11.793C79.3937 11.793 80.3657 11.91 81.1397 12.144C81.9137 12.378 82.5257 12.72 82.9757 13.17C83.4437 13.62 83.7677 14.178 83.9477 14.844C84.1457 15.492 84.2447 16.239 84.2447 17.085C84.2447 17.463 84.1997 17.859 84.1097 18.273C84.0197 18.669 83.8667 19.047 83.6507 19.407C83.4527 19.749 83.1827 20.055 82.8407 20.325C82.4987 20.595 82.0757 20.784 81.5717 20.892V20.946C82.6877 21.162 83.4707 21.657 83.9207 22.431C84.3707 23.187 84.5957 24.087 84.5957 25.131C84.5957 27.291 84.0737 28.848 83.0297 29.802C81.9857 30.738 80.4287 31.206 78.3587 31.206C77.2787 31.206 76.3337 31.116 75.5237 30.936C74.7317 30.756 74.0747 30.432 73.5527 29.964C73.0307 29.496 72.6437 28.875 72.3917 28.101C72.1397 27.309 72.0137 26.337 72.0137 25.185H76.7117C76.7117 25.725 76.7387 26.175 76.7927 26.535C76.8647 26.895 76.9547 27.201 77.0627 27.453C77.2787 27.921 77.6567 28.155 78.1967 28.155C78.4847 28.155 78.7187 28.119 78.8987 28.047C79.0787 27.957 79.2137 27.804 79.3037 27.588C79.4117 27.354 79.4837 27.048 79.5197 26.67C79.5557 26.274 79.5737 25.779 79.5737 25.185C79.5737 24.249 79.4207 23.619 79.1147 23.295C78.8267 22.971 78.3677 22.809 77.7377 22.809H76.4687V19.677H77.1977C77.5757 19.677 77.8997 19.641 78.1697 19.569C78.4397 19.497 78.6647 19.362 78.8447 19.164C79.0247 18.966 79.1597 18.696 79.2497 18.354C79.3397 17.994 79.3847 17.535 79.3847 16.977C79.3847 16.167 79.2767 15.627 79.0607 15.357C78.8627 15.069 78.5477 14.925 78.1157 14.925C77.6297 14.925 77.2787 15.114 77.0627 15.492C76.8647 15.87 76.7657 16.563 76.7657 17.571H72.2297Z" fill="#3F2204"/>
<path d="M72.2297 17.571C72.2837 15.573 72.8057 14.115 73.7957 13.197C74.7857 12.261 76.2617 11.793 78.2237 11.793C79.3937 11.793 80.3657 11.91 81.1397 12.144C81.9137 12.378 82.5257 12.72 82.9757 13.17C83.4437 13.62 83.7677 14.178 83.9477 14.844C84.1457 15.492 84.2447 16.239 84.2447 17.085C84.2447 17.463 84.1997 17.859 84.1097 18.273C84.0197 18.669 83.8667 19.047 83.6507 19.407C83.4527 19.749 83.1827 20.055 82.8407 20.325C82.4987 20.595 82.0757 20.784 81.5717 20.892V20.946C82.6877 21.162 83.4707 21.657 83.9207 22.431C84.3707 23.187 84.5957 24.087 84.5957 25.131C84.5957 27.291 84.0737 28.848 83.0297 29.802C81.9857 30.738 80.4287 31.206 78.3587 31.206C77.2787 31.206 76.3337 31.116 75.5237 30.936C74.7317 30.756 74.0747 30.432 73.5527 29.964C73.0307 29.496 72.6437 28.875 72.3917 28.101C72.1397 27.309 72.0137 26.337 72.0137 25.185H76.7117C76.7117 25.725 76.7387 26.175 76.7927 26.535C76.8647 26.895 76.9547 27.201 77.0627 27.453C77.2787 27.921 77.6567 28.155 78.1967 28.155C78.4847 28.155 78.7187 28.119 78.8987 28.047C79.0787 27.957 79.2137 27.804 79.3037 27.588C79.4117 27.354 79.4837 27.048 79.5197 26.67C79.5557 26.274 79.5737 25.779 79.5737 25.185C79.5737 24.249 79.4207 23.619 79.1147 23.295C78.8267 22.971 78.3677 22.809 77.7377 22.809H76.4687V19.677H77.1977C77.5757 19.677 77.8997 19.641 78.1697 19.569C78.4397 19.497 78.6647 19.362 78.8447 19.164C79.0247 18.966 79.1597 18.696 79.2497 18.354C79.3397 17.994 79.3847 17.535 79.3847 16.977C79.3847 16.167 79.2767 15.627 79.0607 15.357C78.8627 15.069 78.5477 14.925 78.1157 14.925C77.6297 14.925 77.2787 15.114 77.0627 15.492C76.8647 15.87 76.7657 16.563 76.7657 17.571H72.2297Z" fill="black" fill-opacity="0.2"/>
</svg>
