<svg width="227" height="93" viewBox="0 0 227 93" fill="none" xmlns="http://www.w3.org/2000/svg">
<path d="M40.7375 61.4065C40.7375 62.4117 40.3785 63.2554 39.6603 63.9375C38.9422 64.6555 38.0984 65.0145 37.1289 65.0145H37.0391C36.0697 65.0145 35.2258 64.6555 34.5077 63.9375C34.4718 63.9016 34.4359 63.8477 34.4 63.8118L34.7052 63.5964C35.6388 62.9323 36.4467 62.2502 37.2007 61.4963C37.5418 61.1552 37.865 60.8142 38.1882 60.4552C39.0679 59.45 40.7375 60.0603 40.7375 61.4065ZM46.4826 0C45.208 0 43.9512 0.0538513 42.7124 0.161551C41.6173 0.2513 40.7914 1.16674 40.7914 2.26169V28.9173C40.7914 29.6532 40.3964 30.3353 39.7501 30.6943C38.4575 31.4302 37.2546 32.3636 36.1594 33.4406C34.2384 35.3792 32.8919 37.5511 32.1199 39.9564C31.8506 40.8001 30.7734 41.0873 30.1091 40.4949C30.1091 40.4949 30.0732 40.477 30.0732 40.459C28.2779 38.8794 25.9439 38.0537 23.5381 38.0717C20.8451 38.0896 18.5291 39.0589 16.644 40.9616C14.741 42.8823 13.7894 45.2158 13.7894 47.9621C13.7894 50.7084 14.741 53.006 16.644 54.9266C18.5651 56.8473 20.899 57.8166 23.6459 57.8166C26.3927 57.8166 28.6908 56.8652 30.6118 54.9266C30.8811 54.6574 31.1325 54.3881 31.3658 54.1009C31.7788 53.5983 32.1199 53.0778 32.4072 52.5213C32.9817 51.4444 33.3407 50.2597 33.4484 48.9852C33.4844 48.6442 33.4844 48.3031 33.4844 47.9621C33.4844 47.621 33.4844 47.262 33.4484 46.9389V45.0542C33.4484 41.1232 34.8488 37.7486 37.6496 34.9305C38.637 33.9612 39.6783 33.1714 40.7914 32.5252C41.1325 32.3277 41.4916 32.1482 41.8327 31.9867C42.1738 31.8251 42.5329 31.6815 42.874 31.5559C44.3821 30.9994 46.0159 30.7302 47.7573 30.7302C52.4791 30.7302 56.0518 32.2918 58.4396 35.4331C60.8274 32.2918 64.3643 30.7302 69.104 30.7302C73.8437 30.7302 76.429 32.1303 79.2297 34.9305C80.1633 35.8639 80.9353 36.8691 81.5637 37.946C84.1669 41.6796 84.6696 45.7722 84.6696 52.2701C84.6696 58.7679 83.1256 62.7707 80.4146 66.8454C77.0214 71.9611 72.0124 74.7792 66.2853 74.8151C64.4181 74.8151 62.8382 73.3432 62.8023 71.4585C62.7664 69.5378 64.3104 67.9762 66.2135 67.9762C69.6964 67.9762 72.551 66.3248 74.7055 63.0759C76.6624 60.1321 77.8114 56.0934 77.8114 52.2701C77.8114 45.0183 76.7521 42.9361 74.095 40.1C72.7306 38.7358 71.0609 38.0537 69.104 38.0537C67.1471 38.0537 65.5133 38.7358 64.1309 40.1C62.7664 41.4642 62.0842 43.1336 62.0842 45.0721V58.032C62.0842 59.0372 61.7251 59.8808 61.007 60.5629C60.3427 61.2809 59.4989 61.6399 58.4755 61.6399H58.4217C57.4342 61.6399 56.5725 61.2809 55.8723 60.5629C55.1542 59.8808 54.7951 59.0551 54.7951 58.032V45.0721C54.7951 43.1336 54.1129 41.4822 52.7484 40.1C51.3839 38.7358 49.7143 38.0537 47.7753 38.0537C45.8363 38.0537 44.2385 38.7179 42.892 40.0282C42.8561 40.0641 42.8381 40.0821 42.8022 40.118C42.4252 40.4949 42.12 40.8898 41.8507 41.3027C41.2761 42.2002 40.9171 43.1874 40.8094 44.2644C40.7735 44.5337 40.7555 44.8029 40.7555 45.0901V48.9852C40.5221 53.2932 38.8704 56.9909 35.7465 60.0603C35.0284 60.7603 34.2923 61.3886 33.5023 61.945C33.1791 62.1784 32.856 62.3938 32.5328 62.5912C32.2097 62.7887 31.8865 62.9682 31.5454 63.1477C29.1755 64.4042 26.5543 65.0504 23.6638 65.0504C18.9421 65.0504 14.9025 63.381 11.5453 60.0244C8.18796 56.6857 6.51829 52.647 6.51829 47.9082C6.51829 43.1695 8.18796 39.1487 11.5453 35.7921C14.9025 32.4354 18.9421 30.7661 23.6638 30.7661C28.3856 30.7661 27.847 31.0353 29.5166 31.5559C31.4915 32.1841 33.5023 30.7122 33.5023 28.6301V4.77467C33.5023 3.30278 32.0481 2.29759 30.6657 2.80018C12.6763 9.31599 -0.142433 26.6017 0.00119491 46.8671C0.180729 72.356 21.0965 93.0522 46.5904 92.9983C72.2279 92.9445 93 72.1585 93 46.5081C93 20.8578 72.174 0.017951 46.5006 0.017951" fill="#BCC602"/>
<path d="M119.382 42.324C119.283 41.9287 119.135 41.5334 118.986 41.1875C118.838 40.8417 118.69 40.5452 118.492 40.2487C118.097 39.6063 117.652 39.0134 117.108 38.4699C116.466 37.8769 115.774 37.3828 114.934 36.9381C114.291 36.6416 113.698 36.3946 113.056 36.2463C112.364 36.0981 111.672 35.9993 110.931 35.9993H105.988C105.445 35.9993 105 36.444 105 36.9875V52.2558C105 52.7994 105.445 53.2441 105.988 53.2441C106.532 53.2441 106.977 52.7994 106.977 52.2558V37.9758H110.881C111.474 37.9758 112.018 38.0251 112.512 38.1734C113.006 38.2722 113.501 38.4699 113.995 38.7169C114.637 39.0628 115.181 39.4087 115.675 39.8534C116.071 40.2487 116.416 40.6934 116.713 41.1875C116.861 41.4346 116.96 41.6817 117.059 41.9287C117.158 42.2252 117.257 42.4722 117.355 42.7687C117.504 43.3122 117.603 43.9546 117.603 44.5476C117.603 45.1405 117.504 45.7334 117.355 46.3264C117.257 46.6229 117.207 46.8699 117.059 47.1664C116.96 47.4135 116.812 47.7099 116.664 47.957C116.367 48.4511 116.021 48.8958 115.626 49.2911C115.131 49.7852 114.588 50.1805 113.945 50.5264C113.451 50.7735 112.957 50.9711 112.463 51.07C111.968 51.2182 111.425 51.2676 110.832 51.2676H110.09C109.547 51.2676 109.102 51.7123 109.102 52.2558C109.102 52.7994 109.547 53.2441 110.09 53.2441H110.881C111.623 53.2441 112.314 53.1453 112.957 52.997C113.599 52.8488 114.242 52.6017 114.884 52.2558C115.725 51.8111 116.466 51.2676 117.059 50.6747C117.603 50.1311 118.047 49.5382 118.393 48.8958C118.591 48.5994 118.739 48.2535 118.888 47.9076C119.036 47.5617 119.135 47.2158 119.234 46.8699C119.431 46.1288 119.53 45.3382 119.53 44.5476C119.53 43.757 119.431 42.9664 119.234 42.2252L119.382 42.324Z" fill="white"/>
<path d="M137.618 37.0369V36.8392L137.52 36.5922L137.223 36.1969H137.075C137.075 36.1475 136.927 36.0487 136.927 36.0487C136.927 36.0487 136.926 36.0487 136.877 36.0487H136.581H136.333L135.79 36.3946L130.403 45.0417C130.255 45.3382 129.958 45.4864 129.612 45.4864C129.266 45.4864 129.019 45.2887 128.821 44.9923L123.484 36.4934L123.335 36.2957L123.187 36.1969L123.039 36.0981L122.792 35.9993H122.545L122.05 36.0487C122.05 36.0981 121.803 36.2957 121.803 36.2957L121.606 36.5922V36.7898C121.606 36.8393 121.606 36.8393 121.606 36.8887V52.1076C121.606 52.6017 121.952 53.0464 122.446 53.1453C122.742 53.1947 123.039 53.1453 123.286 52.8982C123.533 52.7006 123.632 52.4041 123.632 52.157V40.8911L128.377 47.9076C128.624 48.4017 129.068 48.6488 129.612 48.6488C130.156 48.6488 130.6 48.3523 130.848 47.9076L135.592 40.8911V52.1076C135.592 52.6017 135.938 53.0464 136.432 53.1453C136.482 53.1453 136.531 53.1453 136.581 53.1453C136.828 53.1453 137.025 53.0464 137.223 52.8982C137.47 52.7006 137.569 52.4041 137.569 52.157V36.8887L137.618 37.0369Z" fill="white"/>
<path d="M153.776 36.3459C152.145 36.3459 150.563 36.7907 149.18 37.6801C146.758 39.2119 145.374 41.7319 145.374 44.6472C145.374 47.5625 146.758 50.0825 149.18 51.6143C150.563 52.4543 152.145 52.9484 153.776 52.9484C155.407 52.9484 156.198 52.7014 157.235 52.1578C157.433 52.059 157.581 51.8613 157.631 51.6143C157.631 51.4166 157.631 51.1696 157.433 51.0214C157.285 50.8731 157.087 50.7743 156.939 50.7743C156.791 50.7743 156.791 50.7743 156.692 50.8237C155.753 51.2684 154.715 51.5155 153.677 51.5155C152.639 51.5155 151.107 51.1696 149.97 50.4778C147.895 49.1931 146.758 47.0684 146.758 44.6472C146.758 42.226 147.944 40.1013 149.97 38.8166C151.107 38.1248 152.343 37.7789 153.677 37.7789C155.011 37.7789 155.753 38.026 156.692 38.4707C156.741 38.4707 156.84 38.5201 156.939 38.5201C157.137 38.5201 157.285 38.4213 157.433 38.3224C157.581 38.1742 157.68 37.9271 157.631 37.7295C157.631 37.4824 157.433 37.2848 157.235 37.186C156.198 36.6918 154.962 36.3953 153.776 36.3953" fill="white"/>
<path d="M153.776 53.2935C152.096 53.2935 150.465 52.7994 149.031 51.91C146.511 50.3288 145.028 47.6605 145.028 44.6464C145.028 41.6323 146.461 38.964 149.031 37.3828C150.465 36.4934 152.096 35.9993 153.776 35.9993C155.456 35.9993 156.296 36.2957 157.384 36.7898C157.73 36.9381 157.927 37.2346 157.977 37.5805C158.026 37.9263 157.977 38.2722 157.68 38.5193C157.384 38.8157 156.889 38.9146 156.544 38.7663C155.654 38.3216 154.665 38.124 153.677 38.124C152.689 38.124 151.206 38.4699 150.168 39.1122C148.241 40.2981 147.104 42.324 147.104 44.6464C147.104 46.9688 148.241 48.9947 150.168 50.1806C151.206 50.8229 152.441 51.1688 153.677 51.1688C154.913 51.1688 155.654 50.9217 156.544 50.5264C156.889 50.3288 157.384 50.477 157.68 50.7735C157.927 51.0206 158.026 51.3664 157.977 51.7123C157.927 52.0582 157.68 52.3547 157.384 52.5029C156.296 53.0465 155.011 53.2935 153.776 53.2935Z" fill="white"/>
<path d="M214.663 47.4633C213.23 47.2162 212.34 47.0185 212.34 46.1783C212.34 45.3381 213.625 44.9922 214.367 44.9922C215.108 44.9922 215.849 45.1404 216.442 45.437C216.887 45.6841 217.431 45.4864 217.629 45.0416C217.727 44.8439 217.777 44.5474 217.678 44.3003C217.579 44.0532 217.431 43.8555 217.233 43.7566C216.442 43.3613 215.355 43.1636 214.367 43.1636C211.945 43.1636 210.413 44.3497 210.413 46.1289C210.413 47.9081 212.489 48.7977 214.12 49.0942C215.503 49.3413 216.344 49.539 216.344 50.2803C216.344 51.0217 215.652 51.417 214.218 51.417C212.785 51.417 212.34 51.1699 211.599 50.7746C211.154 50.5275 210.611 50.6757 210.363 51.1205C210.116 51.5653 210.265 52.1089 210.66 52.356C211.55 52.8997 212.884 53.2457 214.12 53.2457C216.689 53.2457 218.271 52.109 218.271 50.2803C218.271 48.4517 216.245 47.7104 214.614 47.4138L214.663 47.4633Z" fill="white"/>
<path d="M164.451 43.2632C161.683 43.2632 159.459 45.5366 159.459 48.2548C159.459 50.973 161.733 53.2464 164.451 53.2464C167.169 53.2464 169.492 50.973 169.492 48.2548C169.492 45.5366 167.218 43.2632 164.451 43.2632ZM167.515 48.2548C167.515 49.9351 166.131 51.3189 164.451 51.3189C162.77 51.3189 161.387 49.9351 161.387 48.2548C161.387 46.5744 162.77 45.1906 164.451 45.1906C166.131 45.1906 167.515 46.5744 167.515 48.2548Z" fill="white"/>
<path d="M203.84 43.2632C201.072 43.2632 198.848 45.5366 198.848 48.2548C198.848 50.973 201.122 53.2464 203.84 53.2464C206.558 53.2464 208.881 50.973 208.881 48.2548C208.881 45.5366 206.608 43.2632 203.84 43.2632ZM203.84 51.3684C202.16 51.3684 200.776 49.9846 200.776 48.3042C200.776 46.6239 202.16 45.2401 203.84 45.2401C205.52 45.2401 206.904 46.6239 206.904 48.3042C206.904 49.9846 205.52 51.3684 203.84 51.3684Z" fill="white"/>
<path d="M226.278 51.6158C226.129 51.4675 225.882 51.3687 225.685 51.3687C224.844 51.3687 224.054 51.0722 223.461 50.5285C222.868 49.9849 222.571 49.1941 222.571 48.3539V46.6736H224.251C224.795 46.6736 225.19 46.2288 225.19 45.7346C225.19 45.2404 224.746 44.7955 224.251 44.7955H222.571V41.7808C222.571 41.2372 222.126 40.8418 221.632 40.8418C221.138 40.8418 220.693 41.2866 220.693 41.7808V48.4033C220.693 51.0227 222.818 53.2467 225.437 53.3455C225.734 53.3455 225.981 53.2467 226.179 53.049C226.377 52.8513 226.525 52.5548 226.525 52.2583C226.525 51.9617 226.426 51.8135 226.278 51.6652V51.6158Z" fill="white"/>
<path d="M185.801 46.7718C185.455 45.2397 184.368 44.0536 182.885 43.6582C181.353 43.2134 179.722 43.6582 178.635 44.7455L178.388 44.9926L178.14 44.7455C177.053 43.6582 175.422 43.2134 173.89 43.6582C172.358 44.103 171.32 45.2397 170.974 46.7718C170.875 47.266 170.826 47.5131 170.875 49.9348C170.875 50.5773 170.875 51.368 170.875 52.3564C170.875 52.9001 171.32 53.2955 171.814 53.2955C172.309 53.2955 172.309 53.1966 172.506 52.9989C172.704 52.8012 172.803 52.5541 172.803 52.307V51.1209C172.803 47.6119 172.803 46.92 173.445 46.1787C173.89 45.6845 174.483 45.4374 175.126 45.4374C175.768 45.4374 176.411 45.7339 176.806 46.1787C177.449 46.92 177.449 47.6119 177.449 51.1209V52.307C177.449 52.5541 177.547 52.8012 177.696 52.9989C177.893 53.1966 178.091 53.2955 178.388 53.2955C178.635 53.2955 178.882 53.1966 179.08 52.9989C179.277 52.8012 179.376 52.5541 179.376 52.307V51.1209C179.376 47.8096 179.376 46.92 180.019 46.1787C180.463 45.6845 181.056 45.4374 181.699 45.4374C182.341 45.4374 182.984 45.7339 183.379 46.1787C184.022 46.92 184.022 47.6119 184.022 51.1209V52.307C184.022 52.5541 184.121 52.8012 184.269 52.9989C184.467 53.1966 184.664 53.2955 184.961 53.2955C185.504 53.2955 185.9 52.8506 185.9 52.3564C185.9 51.368 185.9 50.5773 185.9 49.9348C185.9 47.5625 185.9 47.266 185.801 46.8212V46.7718Z" fill="white"/>
<path d="M197.218 47.8086C197.168 46.7709 196.773 45.7827 196.081 44.9921C195.093 43.8556 193.709 43.2133 192.226 43.2627C189.557 43.2627 187.432 45.585 187.432 48.3521V56.0604C187.432 56.6039 187.877 56.9992 188.371 56.9992C188.865 56.9992 189.31 56.5545 189.31 56.0604V48.1544C189.31 47.265 189.706 46.425 190.348 45.8815C190.991 45.2886 191.88 45.0415 192.77 45.1897C194.203 45.4368 195.29 46.6721 195.29 48.1544C195.29 48.9945 194.994 49.7356 194.401 50.3286C193.808 50.9215 193.017 51.218 192.177 51.1686C191.93 51.1686 191.732 51.2674 191.534 51.4157C191.386 51.5639 191.287 51.7615 191.287 51.9592V52.2557C191.287 52.7004 191.633 53.0462 192.028 53.0957C193.363 53.1451 194.648 52.651 195.587 51.7121C196.625 50.6745 197.168 49.3404 197.069 47.858L197.218 47.8086Z" fill="white"/>
</svg>
