<svg width="40" height="40" viewBox="0 0 40 40" fill="none" xmlns="http://www.w3.org/2000/svg">
<path id="Vector" d="M17.5215 26.4119C17.5215 26.8442 17.3671 27.2071 17.0582 27.5005C16.7493 27.8093 16.3864 27.9637 15.9694 27.9637H15.9308C15.5138 27.9637 15.1509 27.8093 14.842 27.5005C14.8266 27.485 14.8111 27.4618 14.7957 27.4464L14.927 27.3538C15.3285 27.0681 15.676 26.7747 16.0003 26.4505C16.147 26.3038 16.286 26.1571 16.425 26.0027C16.8034 25.5703 17.5215 25.8328 17.5215 26.4119ZM19.9925 0C19.4443 0 18.9037 0.0231622 18.3709 0.0694853C17.8999 0.108088 17.5447 0.501833 17.5447 0.972785V12.4377C17.5447 12.7543 17.3748 13.0477 17.0968 13.2021C16.5408 13.5186 16.0235 13.9201 15.5524 14.3833C14.7262 15.2171 14.147 16.1513 13.815 17.1859C13.6992 17.5487 13.2359 17.6722 12.9502 17.4175C12.9502 17.4175 12.9347 17.4097 12.9347 17.402C12.1625 16.7226 11.1587 16.3675 10.1239 16.3752C8.96565 16.3829 7.96952 16.7998 7.15872 17.6182C6.3402 18.4443 5.93094 19.448 5.93094 20.6292C5.93094 21.8104 6.3402 22.7987 7.15872 23.6248C7.98497 24.4508 8.98882 24.8678 10.1703 24.8678C11.3517 24.8678 12.3401 24.4586 13.1664 23.6248C13.2822 23.5089 13.3903 23.3931 13.4907 23.2696C13.6683 23.0534 13.815 22.8295 13.9386 22.5902C14.1857 22.127 14.3401 21.6174 14.3864 21.0693C14.4019 20.9226 14.4019 20.7759 14.4019 20.6292C14.4019 20.4825 14.4019 20.3281 14.3864 20.1891V19.3785C14.3864 17.6877 14.9887 16.2362 16.1934 15.0241C16.6181 14.6072 17.0659 14.2675 17.5447 13.9896C17.6914 13.9046 17.8458 13.8274 17.9926 13.7579C18.1393 13.6885 18.2937 13.6267 18.4404 13.5727C19.0891 13.3333 19.7918 13.2175 20.5408 13.2175C22.5717 13.2175 24.1083 13.8892 25.1353 15.2403C26.1623 13.8892 27.6836 13.2175 29.7221 13.2175C31.7607 13.2175 32.8727 13.8197 34.0773 15.0241C34.4788 15.4256 34.8109 15.8579 35.0811 16.3212C36.2008 17.927 36.417 19.6873 36.417 22.4821C36.417 25.2769 35.753 26.9986 34.5869 28.7512C33.1275 30.9515 30.9731 32.1636 28.5098 32.1791C27.7067 32.1791 27.0272 31.546 27.0118 30.7353C26.9963 29.9092 27.6604 29.2376 28.4789 29.2376C29.977 29.2376 31.2047 28.5273 32.1314 27.1299C32.9731 25.8637 33.4673 24.1266 33.4673 22.4821C33.4673 19.363 33.0117 18.4675 31.8688 17.2476C31.282 16.6609 30.5638 16.3675 29.7221 16.3675C28.8805 16.3675 28.1778 16.6609 27.5832 17.2476C26.9963 17.8344 26.7029 18.5524 26.7029 19.3862V24.9604C26.7029 25.3928 26.5484 25.7556 26.2396 26.049C25.9538 26.3578 25.5909 26.5122 25.1508 26.5122H25.1276C24.7029 26.5122 24.3322 26.3578 24.0311 26.049C23.7222 25.7556 23.5678 25.4005 23.5678 24.9604V19.3862C23.5678 18.5524 23.2743 17.8421 22.6875 17.2476C22.1006 16.6609 21.3825 16.3675 20.5485 16.3675C19.7145 16.3675 19.0273 16.6531 18.4482 17.2167C18.4327 17.2322 18.425 17.2399 18.4095 17.2553C18.2474 17.4175 18.1161 17.5873 18.0003 17.7649C17.7532 18.1509 17.5987 18.5755 17.5524 19.0388C17.537 19.1546 17.5292 19.2704 17.5292 19.3939V21.0693C17.4289 22.9222 16.7184 24.5126 15.3748 25.8328C15.066 26.1339 14.7494 26.4041 14.4096 26.6435C14.2706 26.7438 14.1316 26.8365 13.9926 26.9214C13.8536 27.0063 13.7146 27.0835 13.5679 27.1607C12.5486 27.7012 11.4212 27.9791 10.178 27.9791C8.14713 27.9791 6.4097 27.2611 4.9657 25.8174C3.5217 24.3814 2.80357 22.6443 2.80357 20.606C2.80357 18.5678 3.5217 16.8384 4.9657 15.3947C6.4097 13.951 8.14713 13.233 10.178 13.233C12.2089 13.233 11.9772 13.3488 12.6953 13.5727C13.5447 13.8429 14.4096 13.2098 14.4096 12.3142V2.05366C14.4096 1.42057 13.7841 0.988226 13.1895 1.2044C5.45218 4.00694 -0.0612613 11.4418 0.000513939 20.1582C0.077733 31.1214 9.07376 40.0231 20.0389 40C31.0658 39.9768 40 31.0364 40 20.0038C40 8.97123 31.0426 0.00772098 20.0003 0.00772098" fill="#BDC700"/>
</svg>
