<svg width="157" height="54" viewBox="0 0 157 54" fill="none" xmlns="http://www.w3.org/2000/svg">
<path d="M23.658 35.656C23.658 36.2397 23.4495 36.7295 23.0325 37.1256C22.6155 37.5425 22.1256 37.751 21.5626 37.751H21.5105C20.9476 37.751 20.4576 37.5425 20.0406 37.1256C20.0198 37.1048 19.9989 37.0735 19.9781 37.0527L20.1553 36.9276C20.6974 36.5419 21.1665 36.1459 21.6043 35.7081C21.8024 35.5101 21.99 35.3121 22.1777 35.1036C22.6885 34.5199 23.658 34.8743 23.658 35.656ZM26.9938 0C26.2537 0 25.524 0.031269 24.8047 0.0938051C24.1688 0.145919 23.6892 0.677475 23.6892 1.31326V16.7909C23.6892 17.2183 23.4599 17.6143 23.0846 17.8228C22.334 18.2501 21.6356 18.7921 20.9997 19.4175C19.8843 20.5431 19.1024 21.8043 18.6542 23.2009C18.4978 23.6908 17.8723 23.8575 17.4866 23.5136C17.4866 23.5136 17.4658 23.5032 17.4658 23.4927C16.4233 22.5755 15.0681 22.0961 13.6712 22.1065C12.1075 22.1169 10.7628 22.6798 9.66818 23.7846C8.56318 24.8998 8.01068 26.2547 8.01068 27.8494C8.01068 29.4441 8.56318 30.7782 9.66818 31.8934C10.7836 33.0086 12.1388 33.5715 13.7338 33.5715C15.3287 33.5715 16.6631 33.0191 17.7785 31.8934C17.9349 31.7371 18.0808 31.5807 18.2163 31.414C18.4561 31.1221 18.6542 30.8199 18.821 30.4968C19.1545 29.8714 19.363 29.1835 19.4256 28.4435C19.4464 28.2455 19.4464 28.0475 19.4464 27.8494C19.4464 27.6514 19.4464 27.4429 19.4256 27.2553V26.1609C19.4256 23.8784 20.2387 21.9189 21.8649 20.2825C22.4383 19.7197 23.0429 19.2611 23.6892 18.8859C23.8873 18.7713 24.0958 18.667 24.2939 18.5732C24.4919 18.4794 24.7004 18.396 24.8985 18.3231C25.7742 18 26.7228 17.8436 27.734 17.8436C30.4756 17.8436 32.5501 18.7504 33.9366 20.5744C35.3231 18.7504 37.3767 17.8436 40.1288 17.8436C42.8809 17.8436 44.382 18.6566 46.0083 20.2825C46.5503 20.8245 46.9986 21.4082 47.3635 22.0336C48.875 24.2015 49.1669 26.5779 49.1669 30.3509C49.1669 34.1239 48.2704 36.4481 46.6963 38.8141C44.726 41.7846 41.8176 43.4209 38.4921 43.4418C37.408 43.4418 36.4906 42.5871 36.4698 41.4927C36.4489 40.3775 37.3454 39.4707 38.4504 39.4707C40.4728 39.4707 42.1303 38.5118 43.3813 36.6253C44.5175 34.916 45.1847 32.5709 45.1847 30.3509C45.1847 26.1401 44.5697 24.9311 43.0268 23.2843C42.2346 22.4922 41.2651 22.0961 40.1288 22.0961C38.9925 22.0961 38.0439 22.4922 37.2412 23.2843C36.4489 24.0764 36.0528 25.0457 36.0528 26.1714V33.6965C36.0528 34.2802 35.8443 34.7701 35.4273 35.1661C35.0416 35.5831 34.5516 35.7915 33.9574 35.7915H33.9262C33.3528 35.7915 32.8524 35.5831 32.4459 35.1661C32.0289 34.7701 31.8204 34.2906 31.8204 33.6965V26.1714C31.8204 25.0457 31.4243 24.0868 30.632 23.2843C29.8397 22.4922 28.8703 22.0961 27.7444 22.0961C26.6185 22.0961 25.6908 22.4817 24.9089 23.2426C24.8881 23.2634 24.8776 23.2739 24.8568 23.2947C24.6379 23.5136 24.4607 23.7429 24.3043 23.9826C23.9707 24.5037 23.7622 25.077 23.6997 25.7023C23.6788 25.8587 23.6684 26.015 23.6684 26.1818V28.4435C23.5329 30.945 22.5738 33.092 20.7599 34.8743C20.3429 35.2808 19.9155 35.6456 19.4569 35.9687C19.2692 36.1042 19.0816 36.2293 18.8939 36.3439C18.7063 36.4586 18.5186 36.5628 18.3206 36.667C16.9445 37.3966 15.4225 37.7718 13.7442 37.7718C11.0025 37.7718 8.657 36.8025 6.7076 34.8535C4.75821 32.9148 3.78872 30.5697 3.78872 27.8182C3.78872 25.0666 4.75821 22.7319 6.7076 20.7828C8.657 18.8338 11.0025 17.8645 13.7442 17.8645C16.4859 17.8645 16.1731 18.0208 17.1426 18.3231C18.2893 18.6879 19.4569 17.8332 19.4569 16.6242V2.77244C19.4569 1.91777 18.6125 1.3341 17.8098 1.62594C7.36435 5.40937 -0.0787966 15.4464 0.00460007 27.2136C0.108846 42.0138 12.2535 54.0312 27.0564 53.9999C41.9427 53.9687 54.0039 41.8992 54.0039 27.0052C54.0039 12.1112 41.9114 0.0104233 27.0043 0.0104233" fill="#BDC700"/>
<path fill-rule="evenodd" clip-rule="evenodd" d="M74.1282 23.7696C74.0517 23.4638 73.937 23.1581 73.8223 22.8906C73.7077 22.623 73.593 22.3937 73.4401 22.1644C73.1342 21.6675 72.7902 21.2089 72.3697 20.7884C71.8727 20.3298 71.3375 19.9476 70.6877 19.6036C70.1907 19.3743 69.732 19.1832 69.235 19.0685C68.6998 18.9539 68.1646 18.8774 67.5912 18.8774H63.7685C63.348 18.8774 63.0039 19.2214 63.0039 19.6418V31.4518C63.0039 31.8723 63.348 32.2162 63.7685 32.2162C64.189 32.2162 64.533 31.8723 64.533 31.4518V20.4062H67.553C68.0117 20.4062 68.4322 20.4445 68.8145 20.5591C69.1968 20.6356 69.5791 20.7884 69.9613 20.9795C70.4583 21.2471 70.8788 21.5146 71.2611 21.8586C71.5669 22.1644 71.8345 22.5083 72.0639 22.8906C72.1785 23.0817 72.255 23.2728 72.3315 23.4639C72.3697 23.5785 72.4079 23.6836 72.4461 23.7887C72.4844 23.8938 72.5226 23.9989 72.5608 24.1136C72.6755 24.534 72.752 25.0309 72.752 25.4895C72.752 25.9482 72.6755 26.4068 72.5608 26.8654C72.5385 26.9323 72.5195 26.996 72.5008 27.0583C72.4555 27.2095 72.4127 27.3528 72.3315 27.5152C72.255 27.7063 72.1403 27.9356 72.0256 28.1267C71.7963 28.5089 71.5287 28.8529 71.2229 29.1586C70.8406 29.5408 70.4201 29.8466 69.9231 30.1141C69.5408 30.3052 69.1586 30.4581 68.7763 30.5346C68.394 30.6492 67.9735 30.6874 67.5148 30.6874H66.9414C66.5209 30.6874 66.1768 31.0314 66.1768 31.4518C66.1768 31.8723 66.5209 32.2162 66.9414 32.2162H67.553C68.1264 32.2162 68.6616 32.1398 69.1586 32.0251C69.6555 31.9105 70.1525 31.7194 70.6494 31.4518C71.2993 31.1079 71.8727 30.6874 72.3315 30.2288C72.752 29.8084 73.096 29.3497 73.3636 28.8529C73.5165 28.6236 73.6312 28.356 73.7459 28.0885C73.8606 27.8209 73.937 27.5534 74.0135 27.2859C74.1664 26.7126 74.2428 26.101 74.2428 25.4895C74.2428 24.878 74.1664 24.2665 74.0135 23.6932L74.1282 23.7696ZM97.0578 31.1843C98.1664 31.8723 99.4279 32.2545 100.728 32.2545C101.683 32.2545 102.677 32.0634 103.518 31.643C103.748 31.5283 103.939 31.299 103.977 31.0314C104.015 30.7639 103.939 30.4964 103.748 30.3053C103.518 30.0759 103.136 29.9613 102.868 30.1142C102.18 30.4199 101.607 30.611 100.651 30.611C99.6955 30.611 98.7398 30.3435 97.9371 29.8466C96.4462 28.9293 95.567 27.3623 95.567 25.566C95.567 23.7696 96.4462 22.2026 97.9371 21.2853C98.7398 20.7884 99.8867 20.5209 100.651 20.5209C101.416 20.5209 102.18 20.6738 102.868 21.0178C103.136 21.1324 103.518 21.056 103.748 20.8267C103.977 20.6356 104.015 20.368 103.977 20.1005C103.939 19.8329 103.786 19.6036 103.518 19.489C102.677 19.1068 102.027 18.8774 100.728 18.8774C99.4279 18.8774 98.1664 19.2596 97.0578 19.9476C95.07 21.1706 93.9614 23.2345 93.9614 25.566C93.9614 27.8974 95.1082 29.9613 97.0578 31.1843ZM147.821 27.7439C146.712 27.5528 146.024 27.3999 146.024 26.75C146.024 26.1001 147.018 25.8325 147.591 25.8325C148.165 25.8325 148.738 25.9472 149.197 26.1766C149.541 26.3677 149.961 26.2148 150.114 25.8707C150.191 25.7178 150.229 25.4885 150.152 25.2973C150.076 25.1062 149.961 24.9533 149.808 24.8768C149.197 24.571 148.356 24.4181 147.591 24.4181C145.718 24.4181 144.533 25.3356 144.533 26.7118C144.533 28.088 146.139 28.7761 147.4 29.0054C148.47 29.1966 149.12 29.3495 149.12 29.9229C149.12 30.4963 148.585 30.8021 147.477 30.8021C146.382 30.8021 146.033 30.6158 145.472 30.3167L145.45 30.3052C145.106 30.114 144.686 30.2287 144.495 30.5727C144.304 30.9168 144.418 31.3373 144.724 31.5284C145.412 31.9489 146.444 32.2166 147.4 32.2166C149.388 32.2166 150.611 31.3373 150.611 29.9229C150.611 28.5085 149.044 27.935 147.782 27.7057L147.821 27.7439ZM105.121 28.3583C105.121 26.2558 106.841 24.4973 108.982 24.4973C111.123 24.4973 112.881 26.2558 112.881 28.3583C112.881 30.4608 111.085 32.2193 108.982 32.2193C106.879 32.2193 105.121 30.4608 105.121 28.3583ZM108.982 30.7284C110.282 30.7284 111.352 29.6581 111.352 28.3583C111.352 27.0586 110.282 25.9882 108.982 25.9882C107.682 25.9882 106.612 27.0586 106.612 28.3583C106.612 29.6581 107.682 30.7284 108.982 30.7284ZM139.45 24.4973C137.309 24.4973 135.589 26.2558 135.589 28.3583C135.589 30.4608 137.347 32.2193 139.45 32.2193C141.552 32.2193 143.349 30.4608 143.349 28.3583C143.349 26.2558 141.591 24.4973 139.45 24.4973ZM139.45 30.7667C138.15 30.7667 137.08 29.6963 137.08 28.3966C137.08 27.0968 138.15 26.0264 139.45 26.0264C140.75 26.0264 141.82 27.0968 141.82 28.3966C141.82 29.6963 140.75 30.7667 139.45 30.7667ZM156.346 30.7643C156.499 30.7643 156.69 30.8407 156.805 30.9554V30.9936C156.92 31.1083 156.996 31.223 156.996 31.4524C156.996 31.6818 156.881 31.9111 156.729 32.064C156.576 32.2169 156.384 32.2934 156.155 32.2934C154.129 32.2169 152.485 30.4967 152.485 28.4706V23.3481C152.485 22.9658 152.829 22.6218 153.212 22.6218C153.594 22.6218 153.938 22.9276 153.938 23.3481V25.68H155.238C155.62 25.68 155.964 26.0241 155.964 26.4063C155.964 26.7886 155.658 27.1326 155.238 27.1326H153.938V28.4324C153.938 29.0823 154.167 29.6939 154.626 30.1144C155.085 30.5349 155.696 30.7643 156.346 30.7643ZM125.497 27.2108C125.23 26.0258 124.389 25.1083 123.242 24.8025C122.057 24.4584 120.795 24.8025 119.954 25.6435L119.763 25.8346L119.572 25.6435C118.731 24.8025 117.469 24.4584 116.284 24.8025C115.099 25.1465 114.296 26.0258 114.029 27.2108C113.952 27.5931 113.914 27.7842 113.952 29.6574V31.5305C113.952 31.951 114.296 32.2569 114.679 32.2569C115.002 32.2569 115.052 32.2023 115.152 32.093C115.17 32.073 115.19 32.0512 115.214 32.0275C115.367 31.8746 115.443 31.6835 115.443 31.4923V30.5748C115.443 27.8607 115.443 27.3255 115.94 26.7521C116.284 26.3698 116.743 26.1787 117.24 26.1787C117.737 26.1787 118.234 26.408 118.54 26.7521C119.037 27.3255 119.037 27.8607 119.037 30.5748V31.4923C119.037 31.6835 119.113 31.8746 119.228 32.0275C119.381 32.1804 119.534 32.2569 119.763 32.2569C119.954 32.2569 120.145 32.1804 120.298 32.0275C120.451 31.8746 120.528 31.6835 120.528 31.4923V30.5748V30.5748C120.528 28.0136 120.528 27.3255 121.024 26.7521C121.369 26.3698 121.827 26.1787 122.324 26.1787C122.821 26.1787 123.318 26.408 123.624 26.7521C124.121 27.3255 124.121 27.8607 124.121 30.5747V30.5748V31.4923C124.121 31.6835 124.197 31.8746 124.312 32.0275C124.465 32.1804 124.618 32.2569 124.847 32.2569C125.268 32.2569 125.574 31.9128 125.574 31.5305V29.6574V29.657C125.574 27.8224 125.574 27.5931 125.497 27.2491V27.2108ZM133.453 25.8347C133.988 26.4462 134.294 27.2106 134.332 28.0132L134.217 28.0514C134.294 29.198 133.873 30.23 133.07 31.0326C132.344 31.7588 131.35 32.141 130.318 32.1028C130.012 32.0645 129.745 31.797 129.745 31.453V31.2237C129.745 31.0708 129.821 30.9179 129.936 30.8033C130.089 30.6886 130.242 30.6122 130.433 30.6122C131.083 30.6504 131.694 30.4211 132.153 29.9624C132.612 29.5038 132.841 28.9305 132.841 28.2808C132.841 27.1341 132 26.1786 130.891 25.9875C130.203 25.8729 129.515 26.064 129.018 26.5226C128.521 26.9431 128.215 27.5928 128.215 28.2808V34.396C128.215 34.7782 127.871 35.1222 127.489 35.1222C127.107 35.1222 126.763 34.8164 126.763 34.396V28.4336C126.763 26.2933 128.407 24.497 130.471 24.497C131.618 24.4588 132.688 24.9556 133.453 25.8347ZM88.2343 19.5272V19.6801L88.1961 19.5654V31.3754C88.1961 31.5665 88.1196 31.7958 87.9285 31.9487C87.7756 32.0634 87.6227 32.1398 87.4315 32.1398H87.3168C86.9346 32.0634 86.667 31.7194 86.667 31.3372V22.6612L82.9971 28.0885C82.806 28.4325 82.4619 28.6618 82.0414 28.6618C81.6209 28.6618 81.2769 28.4707 81.0857 28.0885L77.4159 22.6612V31.3754C77.4159 31.5665 77.3394 31.7958 77.1483 31.9487C76.9571 32.1398 76.7278 32.178 76.4984 32.1398C76.1161 32.0634 75.8485 31.7194 75.8485 31.3372V19.5654V19.489V19.3361L76.0015 19.1068C76.0015 19.1068 76.1926 18.9539 76.1926 18.9157L76.5749 18.8774H76.766L76.9571 18.9539L77.0718 19.0303L77.1865 19.1068L77.3012 19.2596L81.4298 25.8335C81.5827 26.0628 81.7738 26.2157 82.0414 26.2157C82.309 26.2157 82.5384 26.101 82.6531 25.8717L86.8199 19.1832L87.2404 18.9157H87.4315H87.6609H87.6991C87.6991 18.9157 87.8138 18.9921 87.8138 19.0303H87.9285L88.1579 19.3361L88.2343 19.5272Z" fill="#3F2204"/>
<path fill-rule="evenodd" clip-rule="evenodd" d="M74.1282 23.7696C74.0517 23.4638 73.937 23.1581 73.8223 22.8906C73.7077 22.623 73.593 22.3937 73.4401 22.1644C73.1342 21.6675 72.7902 21.2089 72.3697 20.7884C71.8727 20.3298 71.3375 19.9476 70.6877 19.6036C70.1907 19.3743 69.732 19.1832 69.235 19.0685C68.6998 18.9539 68.1646 18.8774 67.5912 18.8774H63.7685C63.348 18.8774 63.0039 19.2214 63.0039 19.6418V31.4518C63.0039 31.8723 63.348 32.2162 63.7685 32.2162C64.189 32.2162 64.533 31.8723 64.533 31.4518V20.4062H67.553C68.0117 20.4062 68.4322 20.4445 68.8145 20.5591C69.1968 20.6356 69.5791 20.7884 69.9613 20.9795C70.4583 21.2471 70.8788 21.5146 71.2611 21.8586C71.5669 22.1644 71.8345 22.5083 72.0639 22.8906C72.1785 23.0817 72.255 23.2728 72.3315 23.4639C72.3697 23.5785 72.4079 23.6836 72.4461 23.7887C72.4844 23.8938 72.5226 23.9989 72.5608 24.1136C72.6755 24.534 72.752 25.0309 72.752 25.4895C72.752 25.9482 72.6755 26.4068 72.5608 26.8654C72.5385 26.9323 72.5195 26.996 72.5008 27.0583C72.4555 27.2095 72.4127 27.3528 72.3315 27.5152C72.255 27.7063 72.1403 27.9356 72.0256 28.1267C71.7963 28.5089 71.5287 28.8529 71.2229 29.1586C70.8406 29.5408 70.4201 29.8466 69.9231 30.1141C69.5408 30.3052 69.1586 30.4581 68.7763 30.5346C68.394 30.6492 67.9735 30.6874 67.5148 30.6874H66.9414C66.5209 30.6874 66.1768 31.0314 66.1768 31.4518C66.1768 31.8723 66.5209 32.2162 66.9414 32.2162H67.553C68.1264 32.2162 68.6616 32.1398 69.1586 32.0251C69.6555 31.9105 70.1525 31.7194 70.6494 31.4518C71.2993 31.1079 71.8727 30.6874 72.3315 30.2288C72.752 29.8084 73.096 29.3497 73.3636 28.8529C73.5165 28.6236 73.6312 28.356 73.7459 28.0885C73.8606 27.8209 73.937 27.5534 74.0135 27.2859C74.1664 26.7126 74.2428 26.101 74.2428 25.4895C74.2428 24.878 74.1664 24.2665 74.0135 23.6932L74.1282 23.7696ZM97.0578 31.1843C98.1664 31.8723 99.4279 32.2545 100.728 32.2545C101.683 32.2545 102.677 32.0634 103.518 31.643C103.748 31.5283 103.939 31.299 103.977 31.0314C104.015 30.7639 103.939 30.4964 103.748 30.3053C103.518 30.0759 103.136 29.9613 102.868 30.1142C102.18 30.4199 101.607 30.611 100.651 30.611C99.6955 30.611 98.7398 30.3435 97.9371 29.8466C96.4462 28.9293 95.567 27.3623 95.567 25.566C95.567 23.7696 96.4462 22.2026 97.9371 21.2853C98.7398 20.7884 99.8867 20.5209 100.651 20.5209C101.416 20.5209 102.18 20.6738 102.868 21.0178C103.136 21.1324 103.518 21.056 103.748 20.8267C103.977 20.6356 104.015 20.368 103.977 20.1005C103.939 19.8329 103.786 19.6036 103.518 19.489C102.677 19.1068 102.027 18.8774 100.728 18.8774C99.4279 18.8774 98.1664 19.2596 97.0578 19.9476C95.07 21.1706 93.9614 23.2345 93.9614 25.566C93.9614 27.8974 95.1082 29.9613 97.0578 31.1843ZM147.821 27.7439C146.712 27.5528 146.024 27.3999 146.024 26.75C146.024 26.1001 147.018 25.8325 147.591 25.8325C148.165 25.8325 148.738 25.9472 149.197 26.1766C149.541 26.3677 149.961 26.2148 150.114 25.8707C150.191 25.7178 150.229 25.4885 150.152 25.2973C150.076 25.1062 149.961 24.9533 149.808 24.8768C149.197 24.571 148.356 24.4181 147.591 24.4181C145.718 24.4181 144.533 25.3356 144.533 26.7118C144.533 28.088 146.139 28.7761 147.4 29.0054C148.47 29.1966 149.12 29.3495 149.12 29.9229C149.12 30.4963 148.585 30.8021 147.477 30.8021C146.382 30.8021 146.033 30.6158 145.472 30.3167L145.45 30.3052C145.106 30.114 144.686 30.2287 144.495 30.5727C144.304 30.9168 144.418 31.3373 144.724 31.5284C145.412 31.9489 146.444 32.2166 147.4 32.2166C149.388 32.2166 150.611 31.3373 150.611 29.9229C150.611 28.5085 149.044 27.935 147.782 27.7057L147.821 27.7439ZM105.121 28.3583C105.121 26.2558 106.841 24.4973 108.982 24.4973C111.123 24.4973 112.881 26.2558 112.881 28.3583C112.881 30.4608 111.085 32.2193 108.982 32.2193C106.879 32.2193 105.121 30.4608 105.121 28.3583ZM108.982 30.7284C110.282 30.7284 111.352 29.6581 111.352 28.3583C111.352 27.0586 110.282 25.9882 108.982 25.9882C107.682 25.9882 106.612 27.0586 106.612 28.3583C106.612 29.6581 107.682 30.7284 108.982 30.7284ZM139.45 24.4973C137.309 24.4973 135.589 26.2558 135.589 28.3583C135.589 30.4608 137.347 32.2193 139.45 32.2193C141.552 32.2193 143.349 30.4608 143.349 28.3583C143.349 26.2558 141.591 24.4973 139.45 24.4973ZM139.45 30.7667C138.15 30.7667 137.08 29.6963 137.08 28.3966C137.08 27.0968 138.15 26.0264 139.45 26.0264C140.75 26.0264 141.82 27.0968 141.82 28.3966C141.82 29.6963 140.75 30.7667 139.45 30.7667ZM156.346 30.7643C156.499 30.7643 156.69 30.8407 156.805 30.9554V30.9936C156.92 31.1083 156.996 31.223 156.996 31.4524C156.996 31.6818 156.881 31.9111 156.729 32.064C156.576 32.2169 156.384 32.2934 156.155 32.2934C154.129 32.2169 152.485 30.4967 152.485 28.4706V23.3481C152.485 22.9658 152.829 22.6218 153.212 22.6218C153.594 22.6218 153.938 22.9276 153.938 23.3481V25.68H155.238C155.62 25.68 155.964 26.0241 155.964 26.4063C155.964 26.7886 155.658 27.1326 155.238 27.1326H153.938V28.4324C153.938 29.0823 154.167 29.6939 154.626 30.1144C155.085 30.5349 155.696 30.7643 156.346 30.7643ZM125.497 27.2108C125.23 26.0258 124.389 25.1083 123.242 24.8025C122.057 24.4584 120.795 24.8025 119.954 25.6435L119.763 25.8346L119.572 25.6435C118.731 24.8025 117.469 24.4584 116.284 24.8025C115.099 25.1465 114.296 26.0258 114.029 27.2108C113.952 27.5931 113.914 27.7842 113.952 29.6574V31.5305C113.952 31.951 114.296 32.2569 114.679 32.2569C115.002 32.2569 115.052 32.2023 115.152 32.093C115.17 32.073 115.19 32.0512 115.214 32.0275C115.367 31.8746 115.443 31.6835 115.443 31.4923V30.5748C115.443 27.8607 115.443 27.3255 115.94 26.7521C116.284 26.3698 116.743 26.1787 117.24 26.1787C117.737 26.1787 118.234 26.408 118.54 26.7521C119.037 27.3255 119.037 27.8607 119.037 30.5748V31.4923C119.037 31.6835 119.113 31.8746 119.228 32.0275C119.381 32.1804 119.534 32.2569 119.763 32.2569C119.954 32.2569 120.145 32.1804 120.298 32.0275C120.451 31.8746 120.528 31.6835 120.528 31.4923V30.5748V30.5748C120.528 28.0136 120.528 27.3255 121.024 26.7521C121.369 26.3698 121.827 26.1787 122.324 26.1787C122.821 26.1787 123.318 26.408 123.624 26.7521C124.121 27.3255 124.121 27.8607 124.121 30.5747V30.5748V31.4923C124.121 31.6835 124.197 31.8746 124.312 32.0275C124.465 32.1804 124.618 32.2569 124.847 32.2569C125.268 32.2569 125.574 31.9128 125.574 31.5305V29.6574V29.657C125.574 27.8224 125.574 27.5931 125.497 27.2491V27.2108ZM133.453 25.8347C133.988 26.4462 134.294 27.2106 134.332 28.0132L134.217 28.0514C134.294 29.198 133.873 30.23 133.07 31.0326C132.344 31.7588 131.35 32.141 130.318 32.1028C130.012 32.0645 129.745 31.797 129.745 31.453V31.2237C129.745 31.0708 129.821 30.9179 129.936 30.8033C130.089 30.6886 130.242 30.6122 130.433 30.6122C131.083 30.6504 131.694 30.4211 132.153 29.9624C132.612 29.5038 132.841 28.9305 132.841 28.2808C132.841 27.1341 132 26.1786 130.891 25.9875C130.203 25.8729 129.515 26.064 129.018 26.5226C128.521 26.9431 128.215 27.5928 128.215 28.2808V34.396C128.215 34.7782 127.871 35.1222 127.489 35.1222C127.107 35.1222 126.763 34.8164 126.763 34.396V28.4336C126.763 26.2933 128.407 24.497 130.471 24.497C131.618 24.4588 132.688 24.9556 133.453 25.8347ZM88.2343 19.5272V19.6801L88.1961 19.5654V31.3754C88.1961 31.5665 88.1196 31.7958 87.9285 31.9487C87.7756 32.0634 87.6227 32.1398 87.4315 32.1398H87.3168C86.9346 32.0634 86.667 31.7194 86.667 31.3372V22.6612L82.9971 28.0885C82.806 28.4325 82.4619 28.6618 82.0414 28.6618C81.6209 28.6618 81.2769 28.4707 81.0857 28.0885L77.4159 22.6612V31.3754C77.4159 31.5665 77.3394 31.7958 77.1483 31.9487C76.9571 32.1398 76.7278 32.178 76.4984 32.1398C76.1161 32.0634 75.8485 31.7194 75.8485 31.3372V19.5654V19.489V19.3361L76.0015 19.1068C76.0015 19.1068 76.1926 18.9539 76.1926 18.9157L76.5749 18.8774H76.766L76.9571 18.9539L77.0718 19.0303L77.1865 19.1068L77.3012 19.2596L81.4298 25.8335C81.5827 26.0628 81.7738 26.2157 82.0414 26.2157C82.309 26.2157 82.5384 26.101 82.6531 25.8717L86.8199 19.1832L87.2404 18.9157H87.4315H87.6609H87.6991C87.6991 18.9157 87.8138 18.9921 87.8138 19.0303H87.9285L88.1579 19.3361L88.2343 19.5272Z" fill="black" fill-opacity="0.2"/>
</svg>
